<svg width="1512" height="2698" viewBox="0 0 1512 2698" fill="none" xmlns="http://www.w3.org/2000/svg">
<path d="M1993.91 1866.16C1171.71 1913.5 1528.2 2949.82 2237.07 3305.9C1609.99 3305.9 161.987 2715.13 161.987 1992.74C161.987 1270.36 231.413 558.161 858.484 558.161C1485.56 558.161 1993.91 1143.77 1993.91 1866.16Z" fill="#929A82"/>
<path d="M2028.16 -294.77C2439.91 -253.676 2122.56 732.462 2083.59 1123.03C2044.64 1513.61 1889.69 1077.89 1477.93 1036.79C1066.18 995.69 488.316 831.792 527.27 441.231C566.223 50.6586 1616.4 -335.865 2028.16 -294.77Z" fill="#F5C448"/>
<path d="M2915.86 1047.12C3343.6 1818.38 2897.29 2963.1 2390.74 3245.9C1884.18 3528.69 1167.34 2687.96 808.134 2044.88C448.941 1401.8 1121.34 49.8587 1922.43 249.064C2340.47 353.025 2706.97 670.467 2915.86 1047.12Z" fill="#FBDBDE"/>
<path d="M2188.33 1982.84C1867.16 2601.98 512.771 3378.5 -757.447 3066.02C-2027.66 2753.53 -180.917 2588.91 -180.917 1867.04C-180.917 1145.17 226.849 559.978 852.938 559.978C1122.19 559.978 1369.48 668.105 1563.94 848.883C1966.1 1105.92 2386.57 1600.67 2188.33 1982.84Z" fill="#F5C448"/>
<path d="M190.398 2138.92C-533.645 2322.2 -1591.57 2255.26 -1394.9 1703.8C-1069.68 791.898 -282.698 182.085 690.752 304.909C1073.77 353.228 1440.28 653.237 1622.8 932.255C2042.56 1573.94 1295.17 1859.26 190.398 2138.92Z" fill="#929A82"/>
<path d="M-38.8738 -257.47C682.361 -122.31 1668.2 464.307 1242.39 1325.91C1006.27 1803.69 -50.4864 2206.39 -416.624 2042.83C-1023.53 1771.72 -1202.25 -475.482 -38.8738 -257.47Z" fill="#2B3E50"/>
<path d="M485.665 1540.43C57.9706 2151.32 -1305.42 2535.72 -1893.18 2124.11C-2480.95 1712.5 -2070.51 660.752 -1642.82 49.865C-1215.13 -561.013 -648.724 -904.518 -60.9555 -492.907C526.804 -81.3013 913.353 929.551 485.665 1540.43Z" fill="#D0C2B4"/>
<path d="M-103.712 1641.18C-648.436 2149.21 -1949.23 2360.76 -2349.09 1931.91C-2748.94 1503.06 -2548.94 470.254 -2004.21 -37.773C-1459.5 -545.793 -415.374 -673.298 -15.5162 -244.449C384.341 184.399 441.004 1133.16 -103.712 1641.18Z" fill="#FBDBDE"/>
<path d="M3369.1 186.072C3369.1 1023.38 2902.07 1330.51 2399.11 1330.51C1896.16 1330.51 1488.44 651.74 1488.44 -185.564C1488.44 -1022.87 1955.46 -1330 2458.42 -1330C2961.38 -1330 3369.1 -651.232 3369.1 186.072Z" fill="#2B3E50"/>
</svg>
