<svg width="170" height="20" viewBox="0 0 170 20" fill="none" xmlns="http://www.w3.org/2000/svg">
<path d="M12.4659 5H10.7045C10.6004 4.49337 10.4181 4.0483 10.1577 3.66477C9.90199 3.28125 9.58949 2.95928 9.22017 2.69886C8.85559 2.43371 8.45076 2.23485 8.00568 2.10227C7.56061 1.9697 7.09659 1.90341 6.61364 1.90341C5.73295 1.90341 4.93513 2.12595 4.22017 2.57102C3.50994 3.0161 2.94413 3.67188 2.52273 4.53835C2.10606 5.40483 1.89773 6.4678 1.89773 7.72727C1.89773 8.98674 2.10606 10.0497 2.52273 10.9162C2.94413 11.7827 3.50994 12.4384 4.22017 12.8835C4.93513 13.3286 5.73295 13.5511 6.61364 13.5511C7.09659 13.5511 7.56061 13.4848 8.00568 13.3523C8.45076 13.2197 8.85559 13.0232 9.22017 12.7628C9.58949 12.4976 9.90199 12.1733 10.1577 11.7898C10.4181 11.4015 10.6004 10.9564 10.7045 10.4545H12.4659C12.3333 11.1979 12.0919 11.8632 11.7415 12.4503C11.3911 13.0374 10.9555 13.5369 10.4347 13.9489C9.91383 14.3561 9.32907 14.6662 8.6804 14.8793C8.03646 15.0923 7.34754 15.1989 6.61364 15.1989C5.37311 15.1989 4.26989 14.8958 3.30398 14.2898C2.33807 13.6837 1.57813 12.822 1.02415 11.7045C0.470171 10.5871 0.193182 9.26136 0.193182 7.72727C0.193182 6.19318 0.470171 4.86742 1.02415 3.75C1.57813 2.63258 2.33807 1.77083 3.30398 1.16477C4.26989 0.558712 5.37311 0.255681 6.61364 0.255681C7.34754 0.255681 8.03646 0.362215 8.6804 0.575284C9.32907 0.788352 9.91383 1.10085 10.4347 1.51278C10.9555 1.91998 11.3911 2.41714 11.7415 3.00426C12.0919 3.58665 12.3333 4.25189 12.4659 5ZM16.761 8.4375V15H15.0849V0.454545H16.761V5.79545H16.9031C17.1587 5.23201 17.5423 4.78456 18.0536 4.45312C18.5697 4.11695 19.2563 3.94886 20.1133 3.94886C20.8567 3.94886 21.5077 4.09801 22.0664 4.39631C22.6251 4.68987 23.0584 5.14205 23.3661 5.75284C23.6786 6.3589 23.8349 7.13068 23.8349 8.06818V15H22.1587V8.18182C22.1587 7.31534 21.9338 6.64536 21.484 6.17188C21.0389 5.69366 20.421 5.45455 19.6303 5.45455C19.0811 5.45455 18.5887 5.57055 18.1531 5.80256C17.7222 6.03456 17.3813 6.37311 17.1303 6.81818C16.8841 7.26326 16.761 7.80303 16.761 8.4375ZM31.3331 15.2273C30.3482 15.2273 29.4841 14.9929 28.7408 14.5241C28.0021 14.0554 27.4245 13.3996 27.0078 12.5568C26.5959 11.714 26.3899 10.7292 26.3899 9.60227C26.3899 8.46591 26.5959 7.47396 27.0078 6.62642C27.4245 5.77888 28.0021 5.12074 28.7408 4.65199C29.4841 4.18324 30.3482 3.94886 31.3331 3.94886C32.3179 3.94886 33.1797 4.18324 33.9183 4.65199C34.6617 5.12074 35.2393 5.77888 35.6513 6.62642C36.0679 7.47396 36.2763 8.46591 36.2763 9.60227C36.2763 10.7292 36.0679 11.714 35.6513 12.5568C35.2393 13.3996 34.6617 14.0554 33.9183 14.5241C33.1797 14.9929 32.3179 15.2273 31.3331 15.2273ZM31.3331 13.7216C32.0812 13.7216 32.6967 13.5298 33.1797 13.1463C33.6626 12.7628 34.0201 12.2585 34.2521 11.6335C34.4841 11.0085 34.6001 10.3314 34.6001 9.60227C34.6001 8.87311 34.4841 8.19366 34.2521 7.56392C34.0201 6.93419 33.6626 6.42519 33.1797 6.03693C32.6967 5.64867 32.0812 5.45455 31.3331 5.45455C30.585 5.45455 29.9695 5.64867 29.4865 6.03693C29.0036 6.42519 28.6461 6.93419 28.4141 7.56392C28.1821 8.19366 28.0661 8.87311 28.0661 9.60227C28.0661 10.3314 28.1821 11.0085 28.4141 11.6335C28.6461 12.2585 29.0036 12.7628 29.4865 13.1463C29.9695 13.5298 30.585 13.7216 31.3331 13.7216ZM43.2667 15.2273C42.2818 15.2273 41.4177 14.9929 40.6744 14.5241C39.9357 14.0554 39.3581 13.3996 38.9414 12.5568C38.5295 11.714 38.3235 10.7292 38.3235 9.60227C38.3235 8.46591 38.5295 7.47396 38.9414 6.62642C39.3581 5.77888 39.9357 5.12074 40.6744 4.65199C41.4177 4.18324 42.2818 3.94886 43.2667 3.94886C44.2515 3.94886 45.1133 4.18324 45.8519 4.65199C46.5953 5.12074 47.1729 5.77888 47.5849 6.62642C48.0015 7.47396 48.2099 8.46591 48.2099 9.60227C48.2099 10.7292 48.0015 11.714 47.5849 12.5568C47.1729 13.3996 46.5953 14.0554 45.8519 14.5241C45.1133 14.9929 44.2515 15.2273 43.2667 15.2273ZM43.2667 13.7216C44.0148 13.7216 44.6303 13.5298 45.1133 13.1463C45.5962 12.7628 45.9537 12.2585 46.1857 11.6335C46.4177 11.0085 46.5337 10.3314 46.5337 9.60227C46.5337 8.87311 46.4177 8.19366 46.1857 7.56392C45.9537 6.93419 45.5962 6.42519 45.1133 6.03693C44.6303 5.64867 44.0148 5.45455 43.2667 5.45455C42.5186 5.45455 41.9031 5.64867 41.4201 6.03693C40.9371 6.42519 40.5797 6.93419 40.3477 7.56392C40.1156 8.19366 39.9996 8.87311 39.9996 9.60227C39.9996 10.3314 40.1156 11.0085 40.3477 11.6335C40.5797 12.2585 40.9371 12.7628 41.4201 13.1463C41.9031 13.5298 42.5186 13.7216 43.2667 13.7216ZM58.4957 6.53409L56.9901 6.96023C56.8954 6.70928 56.7557 6.46544 56.571 6.22869C56.3911 5.98722 56.1449 5.78835 55.8324 5.6321C55.5199 5.47585 55.1198 5.39773 54.6321 5.39773C53.9645 5.39773 53.4081 5.55161 52.9631 5.85938C52.5227 6.16241 52.3026 6.5483 52.3026 7.01705C52.3026 7.43371 52.4541 7.76278 52.7571 8.00426C53.0601 8.24574 53.5336 8.44697 54.1776 8.60795L55.7969 9.00568C56.7723 9.24242 57.4991 9.60464 57.9773 10.0923C58.4555 10.5753 58.6946 11.1979 58.6946 11.9602C58.6946 12.5852 58.5147 13.1439 58.1548 13.6364C57.7997 14.1288 57.3026 14.517 56.6634 14.8011C56.0241 15.0852 55.2808 15.2273 54.4332 15.2273C53.3205 15.2273 52.3996 14.9858 51.6705 14.5028C50.9413 14.0199 50.4796 13.3144 50.2855 12.3864L51.8764 11.9886C52.0279 12.5758 52.3144 13.0161 52.7358 13.3097C53.1619 13.6032 53.7183 13.75 54.4048 13.75C55.1861 13.75 55.8063 13.5843 56.2656 13.2528C56.7296 12.9167 56.9616 12.5142 56.9616 12.0455C56.9616 11.6667 56.8291 11.3494 56.5639 11.0938C56.2988 10.8333 55.8916 10.6392 55.3423 10.5114L53.5241 10.0852C52.5251 9.84848 51.7912 9.48153 51.3224 8.98438C50.8584 8.48248 50.6264 7.85511 50.6264 7.10227C50.6264 6.48674 50.7992 5.94223 51.1449 5.46875C51.4953 4.99527 51.9711 4.62358 52.5724 4.35369C53.1785 4.08381 53.8651 3.94886 54.6321 3.94886C55.7116 3.94886 56.5592 4.18561 57.1747 4.65909C57.795 5.13258 58.2353 5.75758 58.4957 6.53409ZM65.7915 15.2273C64.7404 15.2273 63.8337 14.9953 63.0714 14.5312C62.3138 14.0625 61.729 13.4091 61.3171 12.571C60.9099 11.7282 60.7063 10.7481 60.7063 9.63068C60.7063 8.51326 60.9099 7.52841 61.3171 6.67614C61.729 5.81913 62.302 5.15152 63.0359 4.6733C63.7745 4.19034 64.6362 3.94886 65.6211 3.94886C66.1893 3.94886 66.7504 4.04356 67.3043 4.23295C67.8583 4.42235 68.3626 4.73011 68.8171 5.15625C69.2717 5.57765 69.6339 6.13636 69.9038 6.83239C70.1737 7.52841 70.3086 8.38542 70.3086 9.40341V10.1136H61.8995V8.66477H68.604C68.604 8.04924 68.4809 7.5 68.2347 7.01705C67.9933 6.53409 67.6476 6.15294 67.1978 5.87358C66.7527 5.59422 66.2272 5.45455 65.6211 5.45455C64.9535 5.45455 64.3758 5.62026 63.8881 5.9517C63.4052 6.27841 63.0335 6.70455 62.7731 7.23011C62.5127 7.75568 62.3825 8.31913 62.3825 8.92045V9.88636C62.3825 10.7102 62.5245 11.4086 62.8086 11.9815C63.0974 12.5497 63.4975 12.983 64.0089 13.2812C64.5202 13.5748 65.1145 13.7216 65.7915 13.7216C66.2319 13.7216 66.6296 13.66 66.9847 13.5369C67.3446 13.4091 67.6547 13.2197 67.9151 12.9688C68.1755 12.7131 68.3768 12.3958 68.5188 12.017L70.1381 12.4716C69.9677 13.0208 69.6812 13.5038 69.2788 13.9205C68.8763 14.3324 68.3791 14.6544 67.7873 14.8864C67.1954 15.1136 66.5302 15.2273 65.7915 15.2273ZM81.6935 15.2557C81.0022 15.2557 80.3749 15.1255 79.8114 14.8651C79.248 14.5999 78.8005 14.2188 78.4691 13.7216C78.1377 13.2197 77.9719 12.6136 77.9719 11.9034C77.9719 11.2784 78.0951 10.7718 78.3413 10.3835C78.5875 9.99053 78.9165 9.68276 79.3285 9.46023C79.7404 9.23769 80.195 9.07197 80.6921 8.96307C81.194 8.84943 81.6983 8.75947 82.2049 8.69318C82.8678 8.60795 83.4052 8.54403 83.8171 8.50142C84.2338 8.45407 84.5368 8.37595 84.7262 8.26705C84.9203 8.15814 85.0174 7.96875 85.0174 7.69886V7.64205C85.0174 6.94129 84.8256 6.39678 84.4421 6.00852C84.0633 5.62027 83.488 5.42614 82.7163 5.42614C81.9161 5.42614 81.2887 5.60133 80.8342 5.9517C80.3796 6.30208 80.06 6.67614 79.8754 7.07386L78.2844 6.50568C78.5685 5.8428 78.9473 5.3267 79.4208 4.95739C79.899 4.58333 80.4199 4.32292 80.9833 4.17614C81.5515 4.02462 82.1102 3.94886 82.6594 3.94886C83.0098 3.94886 83.4123 3.99148 83.8668 4.0767C84.3261 4.1572 84.7688 4.32528 85.195 4.58097C85.6258 4.83665 85.9833 5.22254 86.2674 5.73864C86.5515 6.25473 86.6935 6.94602 86.6935 7.8125V15H85.0174V13.5227H84.9322C84.8185 13.7595 84.6291 14.0128 84.364 14.2827C84.0988 14.5526 83.7461 14.7822 83.3058 14.9716C82.8654 15.161 82.328 15.2557 81.6935 15.2557ZM81.9492 13.75C82.6121 13.75 83.1708 13.6198 83.6254 13.3594C84.0846 13.099 84.4303 12.7628 84.6623 12.3509C84.899 11.9389 85.0174 11.5057 85.0174 11.0511V9.51705C84.9464 9.60227 84.7901 9.6804 84.5487 9.75142C84.3119 9.81771 84.0373 9.87689 83.7248 9.92898C83.417 9.97633 83.1164 10.0189 82.8228 10.0568C82.534 10.09 82.2996 10.1184 82.1197 10.142C81.6841 10.1989 81.2769 10.2912 80.8981 10.419C80.524 10.5421 80.221 10.7292 79.989 10.9801C79.7617 11.2263 79.6481 11.5625 79.6481 11.9886C79.6481 12.571 79.8635 13.0114 80.2944 13.3097C80.73 13.6032 81.2816 13.75 81.9492 13.75ZM91.429 8.4375V15H89.7528V4.09091H91.3722V5.79545H91.5142C91.7699 5.24148 92.1581 4.7964 92.679 4.46023C93.1998 4.11932 93.8722 3.94886 94.696 3.94886C95.4347 3.94886 96.081 4.10038 96.6349 4.40341C97.1889 4.7017 97.6198 5.15625 97.9276 5.76705C98.2353 6.37311 98.3892 7.14015 98.3892 8.06818V15H96.7131V8.18182C96.7131 7.32481 96.4905 6.6572 96.0455 6.17898C95.6004 5.69602 94.9896 5.45455 94.2131 5.45455C93.678 5.45455 93.1998 5.57055 92.7784 5.80256C92.3617 6.03456 92.0327 6.37311 91.7912 6.81818C91.5497 7.26326 91.429 7.80303 91.429 8.4375ZM111.509 15.2273C110.524 15.2273 109.66 14.9929 108.917 14.5241C108.178 14.0554 107.6 13.3996 107.184 12.5568C106.772 11.714 106.566 10.7292 106.566 9.60227C106.566 8.46591 106.772 7.47396 107.184 6.62642C107.6 5.77888 108.178 5.12074 108.917 4.65199C109.66 4.18324 110.524 3.94886 111.509 3.94886C112.494 3.94886 113.355 4.18324 114.094 4.65199C114.837 5.12074 115.415 5.77888 115.827 6.62642C116.244 7.47396 116.452 8.46591 116.452 9.60227C116.452 10.7292 116.244 11.714 115.827 12.5568C115.415 13.3996 114.837 14.0554 114.094 14.5241C113.355 14.9929 112.494 15.2273 111.509 15.2273ZM111.509 13.7216C112.257 13.7216 112.873 13.5298 113.355 13.1463C113.838 12.7628 114.196 12.2585 114.428 11.6335C114.66 11.0085 114.776 10.3314 114.776 9.60227C114.776 8.87311 114.66 8.19366 114.428 7.56392C114.196 6.93419 113.838 6.42519 113.355 6.03693C112.873 5.64867 112.257 5.45455 111.509 5.45455C110.761 5.45455 110.145 5.64867 109.662 6.03693C109.179 6.42519 108.822 6.93419 108.59 7.56392C108.358 8.19366 108.242 8.87311 108.242 9.60227C108.242 10.3314 108.358 11.0085 108.59 11.6335C108.822 12.2585 109.179 12.7628 109.662 13.1463C110.145 13.5298 110.761 13.7216 111.509 13.7216ZM119.011 19.0909V4.09091H120.63V5.82386H120.829C120.952 5.63447 121.122 5.39299 121.34 5.09943C121.563 4.80114 121.88 4.53598 122.292 4.30398C122.709 4.06723 123.272 3.94886 123.982 3.94886C124.901 3.94886 125.71 4.1785 126.411 4.63778C127.112 5.09706 127.659 5.74811 128.052 6.59091C128.445 7.43371 128.641 8.42803 128.641 9.57386C128.641 10.7292 128.445 11.7306 128.052 12.5781C127.659 13.4209 127.114 14.0743 126.418 14.5384C125.722 14.9976 124.92 15.2273 124.011 15.2273C123.31 15.2273 122.749 15.1113 122.327 14.8793C121.906 14.6425 121.582 14.375 121.354 14.0767C121.127 13.7737 120.952 13.5227 120.829 13.3239H120.687V19.0909H119.011ZM120.658 9.54545C120.658 10.3693 120.779 11.0961 121.021 11.7259C121.262 12.3509 121.615 12.8409 122.079 13.196C122.543 13.5464 123.111 13.7216 123.783 13.7216C124.484 13.7216 125.069 13.5369 125.538 13.1676C126.011 12.7936 126.366 12.2917 126.603 11.6619C126.844 11.0275 126.965 10.322 126.965 9.54545C126.965 8.77841 126.847 8.08712 126.61 7.47159C126.378 6.85133 126.025 6.36127 125.552 6.00142C125.083 5.63684 124.494 5.45455 123.783 5.45455C123.102 5.45455 122.529 5.62737 122.065 5.97301C121.601 6.31392 121.25 6.79214 121.013 7.40767C120.777 8.01847 120.658 8.73106 120.658 9.54545ZM135.942 4.09091V5.51136H130.289V4.09091H135.942ZM131.937 1.47727H133.613V11.875C133.613 12.3485 133.682 12.7036 133.819 12.9403C133.961 13.1723 134.141 13.3286 134.359 13.4091C134.581 13.4848 134.816 13.5227 135.062 13.5227C135.246 13.5227 135.398 13.5133 135.516 13.4943C135.635 13.4706 135.729 13.4517 135.8 13.4375L136.141 14.9432C136.028 14.9858 135.869 15.0284 135.665 15.071C135.462 15.1184 135.204 15.142 134.891 15.142C134.418 15.142 133.954 15.0402 133.499 14.8366C133.049 14.633 132.675 14.3229 132.377 13.9062C132.084 13.4896 131.937 12.964 131.937 12.3295V1.47727ZM138.464 15V4.09091H140.14V15H138.464ZM139.316 2.27273C138.989 2.27273 138.708 2.16146 138.471 1.93892C138.239 1.71638 138.123 1.44886 138.123 1.13636C138.123 0.823864 138.239 0.556345 138.471 0.333806C138.708 0.111269 138.989 0 139.316 0C139.643 0 139.922 0.111269 140.154 0.333806C140.391 0.556345 140.509 0.823864 140.509 1.13636C140.509 1.44886 140.391 1.71638 140.154 1.93892C139.922 2.16146 139.643 2.27273 139.316 2.27273ZM147.642 15.2273C146.657 15.2273 145.793 14.9929 145.049 14.5241C144.311 14.0554 143.733 13.3996 143.316 12.5568C142.904 11.714 142.699 10.7292 142.699 9.60227C142.699 8.46591 142.904 7.47396 143.316 6.62642C143.733 5.77888 144.311 5.12074 145.049 4.65199C145.793 4.18324 146.657 3.94886 147.642 3.94886C148.627 3.94886 149.488 4.18324 150.227 4.65199C150.97 5.12074 151.548 5.77888 151.96 6.62642C152.377 7.47396 152.585 8.46591 152.585 9.60227C152.585 10.7292 152.377 11.714 151.96 12.5568C151.548 13.3996 150.97 14.0554 150.227 14.5241C149.488 14.9929 148.627 15.2273 147.642 15.2273ZM147.642 13.7216C148.39 13.7216 149.005 13.5298 149.488 13.1463C149.971 12.7628 150.329 12.2585 150.561 11.6335C150.793 11.0085 150.909 10.3314 150.909 9.60227C150.909 8.87311 150.793 8.19366 150.561 7.56392C150.329 6.93419 149.971 6.42519 149.488 6.03693C149.005 5.64867 148.39 5.45455 147.642 5.45455C146.894 5.45455 146.278 5.64867 145.795 6.03693C145.312 6.42519 144.955 6.93419 144.723 7.56392C144.491 8.19366 144.375 8.87311 144.375 9.60227C144.375 10.3314 144.491 11.0085 144.723 11.6335C144.955 12.2585 145.312 12.7628 145.795 13.1463C146.278 13.5298 146.894 13.7216 147.642 13.7216ZM156.82 8.4375V15H155.143V4.09091H156.763V5.79545H156.905C157.161 5.24148 157.549 4.7964 158.07 4.46023C158.59 4.11932 159.263 3.94886 160.087 3.94886C160.825 3.94886 161.472 4.10038 162.026 4.40341C162.58 4.7017 163.01 5.15625 163.318 5.76705C163.626 6.37311 163.78 7.14015 163.78 8.06818V15H162.104V8.18182C162.104 7.32481 161.881 6.6572 161.436 6.17898C160.991 5.69602 160.38 5.45455 159.604 5.45455C159.069 5.45455 158.59 5.57055 158.169 5.80256C157.752 6.03456 157.423 6.37311 157.182 6.81818C156.94 7.26326 156.82 7.80303 156.82 8.4375ZM168.064 15.1136C167.714 15.1136 167.413 14.9882 167.162 14.7372C166.911 14.4863 166.786 14.1856 166.786 13.8352C166.786 13.4848 166.911 13.1842 167.162 12.9332C167.413 12.6823 167.714 12.5568 168.064 12.5568C168.415 12.5568 168.715 12.6823 168.966 12.9332C169.217 13.1842 169.343 13.4848 169.343 13.8352C169.343 14.0672 169.283 14.2803 169.165 14.4744C169.051 14.6686 168.898 14.8248 168.703 14.9432C168.514 15.0568 168.301 15.1136 168.064 15.1136ZM168.064 7.01705C167.714 7.01705 167.413 6.89157 167.162 6.64062C166.911 6.38968 166.786 6.08902 166.786 5.73864C166.786 5.38826 166.911 5.08759 167.162 4.83665C167.413 4.5857 167.714 4.46023 168.064 4.46023C168.415 4.46023 168.715 4.5857 168.966 4.83665C169.217 5.08759 169.343 5.38826 169.343 5.73864C169.343 5.97064 169.283 6.18371 169.165 6.37784C169.051 6.57197 168.898 6.72822 168.703 6.84659C168.514 6.96023 168.301 7.01705 168.064 7.01705Z" fill="black"/>
</svg>
