<svg width="249" height="100" viewBox="0 0 249 100" fill="none" xmlns="http://www.w3.org/2000/svg">
<rect x="149" width="100" height="100" rx="10" fill="#2B3E50"/>
<path d="M0 10C0 4.47716 4.47715 0 10 0H220C225.523 0 230 4.47715 230 10V90C230 95.5228 225.523 100 220 100H10C4.47715 100 0 95.5229 0 90V10Z" fill="#929A82"/>
<path d="M82.6477 27.4205C82.5568 26.5038 82.1667 25.7917 81.4773 25.2841C80.7879 24.7765 79.8523 24.5227 78.6705 24.5227C77.8674 24.5227 77.1894 24.6364 76.6364 24.8636C76.0833 25.0833 75.6591 25.3902 75.3636 25.7841C75.0758 26.178 74.9318 26.625 74.9318 27.125C74.9167 27.5417 75.0038 27.9053 75.1932 28.2159C75.3902 28.5265 75.6591 28.7955 76 29.0227C76.3409 29.2424 76.7348 29.4356 77.1818 29.6023C77.6288 29.7614 78.1061 29.8977 78.6136 30.0114L80.7045 30.5114C81.7197 30.7386 82.6515 31.0417 83.5 31.4205C84.3485 31.7992 85.0833 32.2652 85.7045 32.8182C86.3258 33.3712 86.8068 34.0227 87.1477 34.7727C87.4962 35.5227 87.6742 36.3826 87.6818 37.3523C87.6742 38.7765 87.3106 40.0114 86.5909 41.0568C85.8788 42.0947 84.8485 42.9015 83.5 43.4773C82.1591 44.0455 80.5417 44.3295 78.6477 44.3295C76.7689 44.3295 75.1326 44.0417 73.7386 43.4659C72.3523 42.8902 71.2689 42.0379 70.4886 40.9091C69.7159 39.7727 69.3106 38.3674 69.2727 36.6932H74.0341C74.0871 37.4735 74.3106 38.125 74.7045 38.6477C75.1061 39.1629 75.6402 39.553 76.3068 39.8182C76.9811 40.0758 77.7424 40.2045 78.5909 40.2045C79.4242 40.2045 80.1477 40.0833 80.7614 39.8409C81.3826 39.5985 81.8636 39.2614 82.2045 38.8295C82.5455 38.3977 82.7159 37.9015 82.7159 37.3409C82.7159 36.8182 82.5606 36.3788 82.25 36.0227C81.947 35.6667 81.5 35.3636 80.9091 35.1136C80.3258 34.8636 79.6098 34.6364 78.7614 34.4318L76.2273 33.7955C74.2652 33.3182 72.7159 32.572 71.5795 31.5568C70.4432 30.5417 69.8788 29.1742 69.8864 27.4545C69.8788 26.0455 70.2538 24.8144 71.0114 23.7614C71.7765 22.7083 72.8258 21.8864 74.1591 21.2955C75.4924 20.7045 77.0076 20.4091 78.7045 20.4091C80.4318 20.4091 81.9394 20.7045 83.2273 21.2955C84.5227 21.8864 85.5303 22.7083 86.25 23.7614C86.9697 24.8144 87.3409 26.0341 87.3636 27.4205H82.6477ZM100.185 26.5455V30.1818H89.6733V26.5455H100.185ZM92.0597 22.3636H96.9006V38.6364C96.9006 39.0833 96.9688 39.4318 97.1051 39.6818C97.2415 39.9242 97.4309 40.0947 97.6733 40.1932C97.9233 40.2917 98.2112 40.3409 98.5369 40.3409C98.7642 40.3409 98.9915 40.322 99.2188 40.2841C99.446 40.2386 99.6203 40.2045 99.7415 40.1818L100.503 43.7841C100.26 43.8598 99.9195 43.947 99.4801 44.0455C99.0407 44.1515 98.5066 44.2159 97.8778 44.2386C96.7112 44.2841 95.6884 44.1288 94.8097 43.7727C93.9384 43.4167 93.2604 42.8636 92.7756 42.1136C92.2907 41.3636 92.0521 40.4167 92.0597 39.2727V22.3636ZM103.338 44V26.5455H108.031V29.5909H108.213C108.531 28.5076 109.065 27.6894 109.815 27.1364C110.565 26.5758 111.429 26.2955 112.406 26.2955C112.649 26.2955 112.91 26.3106 113.19 26.3409C113.471 26.3712 113.717 26.4129 113.929 26.4659V30.7614C113.702 30.6932 113.387 30.6326 112.986 30.5795C112.584 30.5265 112.217 30.5 111.884 30.5C111.171 30.5 110.535 30.6553 109.974 30.9659C109.421 31.2689 108.982 31.6932 108.656 32.2386C108.338 32.7841 108.179 33.4129 108.179 34.125V44H103.338ZM123.506 44.3409C121.741 44.3409 120.214 43.9659 118.926 43.2159C117.646 42.4583 116.657 41.4053 115.96 40.0568C115.263 38.7008 114.915 37.1288 114.915 35.3409C114.915 33.5379 115.263 31.9621 115.96 30.6136C116.657 29.2576 117.646 28.2045 118.926 27.4545C120.214 26.697 121.741 26.3182 123.506 26.3182C125.271 26.3182 126.794 26.697 128.074 27.4545C129.362 28.2045 130.354 29.2576 131.051 30.6136C131.748 31.9621 132.097 33.5379 132.097 35.3409C132.097 37.1288 131.748 38.7008 131.051 40.0568C130.354 41.4053 129.362 42.4583 128.074 43.2159C126.794 43.9659 125.271 44.3409 123.506 44.3409ZM123.528 40.5909C124.331 40.5909 125.002 40.3636 125.54 39.9091C126.078 39.447 126.483 38.8182 126.756 38.0227C127.036 37.2273 127.176 36.322 127.176 35.3068C127.176 34.2917 127.036 33.3864 126.756 32.5909C126.483 31.7955 126.078 31.1667 125.54 30.7045C125.002 30.2424 124.331 30.0114 123.528 30.0114C122.718 30.0114 122.036 30.2424 121.483 30.7045C120.938 31.1667 120.525 31.7955 120.244 32.5909C119.972 33.3864 119.835 34.2917 119.835 35.3068C119.835 36.322 119.972 37.2273 120.244 38.0227C120.525 38.8182 120.938 39.447 121.483 39.9091C122.036 40.3636 122.718 40.5909 123.528 40.5909ZM140.085 33.9091V44H135.244V26.5455H139.858V29.625H140.062C140.449 28.6098 141.097 27.8068 142.006 27.2159C142.915 26.6174 144.017 26.3182 145.312 26.3182C146.525 26.3182 147.581 26.5833 148.483 27.1136C149.384 27.6439 150.085 28.4015 150.585 29.3864C151.085 30.3636 151.335 31.5303 151.335 32.8864V44H146.494V33.75C146.502 32.6818 146.229 31.8485 145.676 31.25C145.123 30.6439 144.362 30.3409 143.392 30.3409C142.741 30.3409 142.165 30.4811 141.665 30.7614C141.172 31.0417 140.786 31.4508 140.506 31.9886C140.233 32.5189 140.093 33.1591 140.085 33.9091ZM163.014 50.9091C161.446 50.9091 160.101 50.6932 158.98 50.2614C157.866 49.8371 156.98 49.2576 156.321 48.5227C155.662 47.7879 155.234 46.9621 155.037 46.0455L159.514 45.4432C159.651 45.7917 159.866 46.1174 160.162 46.4205C160.457 46.7235 160.848 46.9659 161.332 47.1477C161.825 47.3371 162.423 47.4318 163.128 47.4318C164.181 47.4318 165.048 47.1742 165.73 46.6591C166.42 46.1515 166.764 45.2992 166.764 44.1023V40.9091H166.56C166.348 41.3939 166.029 41.8523 165.605 42.2841C165.181 42.7159 164.635 43.0682 163.969 43.3409C163.302 43.6136 162.507 43.75 161.582 43.75C160.272 43.75 159.079 43.447 158.003 42.8409C156.935 42.2273 156.082 41.2917 155.446 40.0341C154.817 38.7689 154.503 37.1705 154.503 35.2386C154.503 33.2614 154.825 31.6098 155.469 30.2841C156.113 28.9583 156.969 27.9659 158.037 27.3068C159.113 26.6477 160.291 26.3182 161.571 26.3182C162.548 26.3182 163.366 26.4848 164.026 26.8182C164.685 27.1439 165.215 27.553 165.616 28.0455C166.026 28.5303 166.34 29.0076 166.56 29.4773H166.741V26.5455H171.548V44.1705C171.548 45.6553 171.185 46.8977 170.457 47.8977C169.73 48.8977 168.723 49.6477 167.435 50.1477C166.154 50.6553 164.681 50.9091 163.014 50.9091ZM163.116 40.1136C163.897 40.1136 164.556 39.9205 165.094 39.5341C165.639 39.1402 166.056 38.5795 166.344 37.8523C166.639 37.1174 166.787 36.2386 166.787 35.2159C166.787 34.1932 166.643 33.3068 166.355 32.5568C166.067 31.7992 165.651 31.2121 165.105 30.7955C164.56 30.3788 163.897 30.1705 163.116 30.1705C162.321 30.1705 161.651 30.3864 161.105 30.8182C160.56 31.2424 160.147 31.8333 159.866 32.5909C159.586 33.3485 159.446 34.2235 159.446 35.2159C159.446 36.2235 159.586 37.0947 159.866 37.8295C160.154 38.5568 160.567 39.1212 161.105 39.5227C161.651 39.9167 162.321 40.1136 163.116 40.1136ZM183.355 44.3409C181.56 44.3409 180.014 43.9773 178.719 43.25C177.431 42.5152 176.438 41.4773 175.741 40.1364C175.045 38.7879 174.696 37.1932 174.696 35.3523C174.696 33.5568 175.045 31.9811 175.741 30.625C176.438 29.2689 177.42 28.2121 178.685 27.4545C179.957 26.697 181.45 26.3182 183.162 26.3182C184.313 26.3182 185.385 26.5038 186.378 26.875C187.378 27.2386 188.249 27.7879 188.991 28.5227C189.741 29.2576 190.325 30.1818 190.741 31.2955C191.158 32.4015 191.366 33.697 191.366 35.1818V36.5114H176.628V33.5114H186.81C186.81 32.8144 186.658 32.197 186.355 31.6591C186.052 31.1212 185.632 30.7008 185.094 30.3977C184.563 30.0871 183.946 29.9318 183.241 29.9318C182.507 29.9318 181.855 30.1023 181.287 30.4432C180.726 30.7765 180.287 31.2273 179.969 31.7955C179.651 32.3561 179.488 32.9811 179.48 33.6705V36.5227C179.48 37.3864 179.639 38.1326 179.957 38.7614C180.283 39.3902 180.741 39.875 181.332 40.2159C181.923 40.5568 182.624 40.7273 183.435 40.7273C183.973 40.7273 184.465 40.6515 184.912 40.5C185.359 40.3485 185.741 40.1212 186.06 39.8182C186.378 39.5152 186.62 39.1439 186.787 38.7045L191.264 39C191.037 40.0758 190.571 41.0152 189.866 41.8182C189.17 42.6136 188.268 43.2348 187.162 43.6818C186.063 44.1212 184.795 44.3409 183.355 44.3409ZM194.526 44V26.5455H199.219V29.5909H199.401C199.719 28.5076 200.253 27.6894 201.003 27.1364C201.753 26.5758 202.616 26.2955 203.594 26.2955C203.836 26.2955 204.098 26.3106 204.378 26.3409C204.658 26.3712 204.904 26.4129 205.116 26.4659V30.7614C204.889 30.6932 204.575 30.6326 204.173 30.5795C203.772 30.5265 203.404 30.5 203.071 30.5C202.359 30.5 201.723 30.6553 201.162 30.9659C200.609 31.2689 200.17 31.6932 199.844 32.2386C199.526 32.7841 199.366 33.4129 199.366 34.125V44H194.526ZM69.1364 63.7841V59.7273H88.25V63.7841H81.125V83H76.2614V63.7841H69.1364ZM96.6619 83.3409C94.8968 83.3409 93.3703 82.9659 92.0824 82.2159C90.8021 81.4583 89.8134 80.4053 89.1165 79.0568C88.4195 77.7008 88.071 76.1288 88.071 74.3409C88.071 72.5379 88.4195 70.9621 89.1165 69.6136C89.8134 68.2576 90.8021 67.2045 92.0824 66.4545C93.3703 65.697 94.8968 65.3182 96.6619 65.3182C98.4271 65.3182 99.9498 65.697 101.23 66.4545C102.518 67.2045 103.51 68.2576 104.207 69.6136C104.904 70.9621 105.253 72.5379 105.253 74.3409C105.253 76.1288 104.904 77.7008 104.207 79.0568C103.51 80.4053 102.518 81.4583 101.23 82.2159C99.9498 82.9659 98.4271 83.3409 96.6619 83.3409ZM96.6847 79.5909C97.4877 79.5909 98.1581 79.3636 98.696 78.9091C99.2339 78.447 99.6392 77.8182 99.9119 77.0227C100.192 76.2273 100.332 75.322 100.332 74.3068C100.332 73.2917 100.192 72.3864 99.9119 71.5909C99.6392 70.7955 99.2339 70.1667 98.696 69.7045C98.1581 69.2424 97.4877 69.0114 96.6847 69.0114C95.8741 69.0114 95.1922 69.2424 94.6392 69.7045C94.0938 70.1667 93.6809 70.7955 93.4006 71.5909C93.1278 72.3864 92.9915 73.2917 92.9915 74.3068C92.9915 75.322 93.1278 76.2273 93.4006 77.0227C93.6809 77.8182 94.0938 78.447 94.6392 78.9091C95.1922 79.3636 95.8741 79.5909 96.6847 79.5909ZM116.264 89.9091C114.696 89.9091 113.351 89.6932 112.23 89.2614C111.116 88.8371 110.23 88.2576 109.571 87.5227C108.912 86.7879 108.484 85.9621 108.287 85.0455L112.764 84.4432C112.901 84.7917 113.116 85.1174 113.412 85.4205C113.707 85.7235 114.098 85.9659 114.582 86.1477C115.075 86.3371 115.673 86.4318 116.378 86.4318C117.431 86.4318 118.298 86.1742 118.98 85.6591C119.67 85.1515 120.014 84.2992 120.014 83.1023V79.9091H119.81C119.598 80.3939 119.279 80.8523 118.855 81.2841C118.431 81.7159 117.885 82.0682 117.219 82.3409C116.552 82.6136 115.757 82.75 114.832 82.75C113.522 82.75 112.329 82.447 111.253 81.8409C110.185 81.2273 109.332 80.2917 108.696 79.0341C108.067 77.7689 107.753 76.1705 107.753 74.2386C107.753 72.2614 108.075 70.6098 108.719 69.2841C109.363 67.9583 110.219 66.9659 111.287 66.3068C112.363 65.6477 113.541 65.3182 114.821 65.3182C115.798 65.3182 116.616 65.4848 117.276 65.8182C117.935 66.1439 118.465 66.553 118.866 67.0455C119.276 67.5303 119.59 68.0076 119.81 68.4773H119.991V65.5455H124.798V83.1705C124.798 84.6553 124.435 85.8977 123.707 86.8977C122.98 87.8977 121.973 88.6477 120.685 89.1477C119.404 89.6553 117.931 89.9091 116.264 89.9091ZM116.366 79.1136C117.147 79.1136 117.806 78.9205 118.344 78.5341C118.889 78.1402 119.306 77.5795 119.594 76.8523C119.889 76.1174 120.037 75.2386 120.037 74.2159C120.037 73.1932 119.893 72.3068 119.605 71.5568C119.317 70.7992 118.901 70.2121 118.355 69.7955C117.81 69.3788 117.147 69.1705 116.366 69.1705C115.571 69.1705 114.901 69.3864 114.355 69.8182C113.81 70.2424 113.397 70.8333 113.116 71.5909C112.836 72.3485 112.696 73.2235 112.696 74.2159C112.696 75.2235 112.836 76.0947 113.116 76.8295C113.404 77.5568 113.817 78.1212 114.355 78.5227C114.901 78.9167 115.571 79.1136 116.366 79.1136ZM136.605 83.3409C134.81 83.3409 133.264 82.9773 131.969 82.25C130.681 81.5152 129.688 80.4773 128.991 79.1364C128.295 77.7879 127.946 76.1932 127.946 74.3523C127.946 72.5568 128.295 70.9811 128.991 69.625C129.688 68.2689 130.67 67.2121 131.935 66.4545C133.207 65.697 134.7 65.3182 136.412 65.3182C137.563 65.3182 138.635 65.5038 139.628 65.875C140.628 66.2386 141.499 66.7879 142.241 67.5227C142.991 68.2576 143.575 69.1818 143.991 70.2955C144.408 71.4015 144.616 72.697 144.616 74.1818V75.5114H129.878V72.5114H140.06C140.06 71.8144 139.908 71.197 139.605 70.6591C139.302 70.1212 138.882 69.7008 138.344 69.3977C137.813 69.0871 137.196 68.9318 136.491 68.9318C135.757 68.9318 135.105 69.1023 134.537 69.4432C133.976 69.7765 133.537 70.2273 133.219 70.7955C132.901 71.3561 132.738 71.9811 132.73 72.6705V75.5227C132.73 76.3864 132.889 77.1326 133.207 77.7614C133.533 78.3902 133.991 78.875 134.582 79.2159C135.173 79.5568 135.874 79.7273 136.685 79.7273C137.223 79.7273 137.715 79.6515 138.162 79.5C138.609 79.3485 138.991 79.1212 139.31 78.8182C139.628 78.5152 139.87 78.1439 140.037 77.7045L144.514 78C144.287 79.0758 143.821 80.0152 143.116 80.8182C142.42 81.6136 141.518 82.2348 140.412 82.6818C139.313 83.1212 138.045 83.3409 136.605 83.3409ZM157.06 65.5455V69.1818H146.548V65.5455H157.06ZM148.935 61.3636H153.776V77.6364C153.776 78.0833 153.844 78.4318 153.98 78.6818C154.116 78.9242 154.306 79.0947 154.548 79.1932C154.798 79.2917 155.086 79.3409 155.412 79.3409C155.639 79.3409 155.866 79.322 156.094 79.2841C156.321 79.2386 156.495 79.2045 156.616 79.1818L157.378 82.7841C157.135 82.8598 156.795 82.947 156.355 83.0455C155.916 83.1515 155.382 83.2159 154.753 83.2386C153.586 83.2841 152.563 83.1288 151.685 82.7727C150.813 82.4167 150.135 81.8636 149.651 81.1136C149.166 80.3636 148.927 79.4167 148.935 78.2727V61.3636ZM165.429 72.9091V83H160.588V59.7273H165.293V68.625H165.497C165.891 67.5947 166.527 66.7879 167.406 66.2045C168.285 65.6136 169.387 65.3182 170.713 65.3182C171.925 65.3182 172.982 65.5833 173.884 66.1136C174.793 66.6364 175.497 67.3902 175.997 68.375C176.505 69.3523 176.755 70.5227 176.747 71.8864V83H171.906V72.75C171.914 71.6742 171.641 70.8371 171.088 70.2386C170.543 69.6402 169.777 69.3409 168.793 69.3409C168.134 69.3409 167.55 69.4811 167.043 69.7614C166.543 70.0417 166.149 70.4508 165.861 70.9886C165.58 71.5189 165.437 72.1591 165.429 72.9091ZM188.511 83.3409C186.716 83.3409 185.17 82.9773 183.875 82.25C182.587 81.5152 181.595 80.4773 180.898 79.1364C180.201 77.7879 179.852 76.1932 179.852 74.3523C179.852 72.5568 180.201 70.9811 180.898 69.625C181.595 68.2689 182.576 67.2121 183.841 66.4545C185.114 65.697 186.606 65.3182 188.318 65.3182C189.47 65.3182 190.542 65.5038 191.534 65.875C192.534 66.2386 193.405 66.7879 194.148 67.5227C194.898 68.2576 195.481 69.1818 195.898 70.2955C196.314 71.4015 196.523 72.697 196.523 74.1818V75.5114H181.784V72.5114H191.966C191.966 71.8144 191.814 71.197 191.511 70.6591C191.208 70.1212 190.788 69.7008 190.25 69.3977C189.72 69.0871 189.102 68.9318 188.398 68.9318C187.663 68.9318 187.011 69.1023 186.443 69.4432C185.883 69.7765 185.443 70.2273 185.125 70.7955C184.807 71.3561 184.644 71.9811 184.636 72.6705V75.5227C184.636 76.3864 184.795 77.1326 185.114 77.7614C185.439 78.3902 185.898 78.875 186.489 79.2159C187.08 79.5568 187.78 79.7273 188.591 79.7273C189.129 79.7273 189.621 79.6515 190.068 79.5C190.515 79.3485 190.898 79.1212 191.216 78.8182C191.534 78.5152 191.777 78.1439 191.943 77.7045L196.42 78C196.193 79.0758 195.727 80.0152 195.023 80.8182C194.326 81.6136 193.424 82.2348 192.318 82.6818C191.22 83.1212 189.951 83.3409 188.511 83.3409ZM199.682 83V65.5455H204.375V68.5909H204.557C204.875 67.5076 205.409 66.6894 206.159 66.1364C206.909 65.5758 207.773 65.2955 208.75 65.2955C208.992 65.2955 209.254 65.3106 209.534 65.3409C209.814 65.3712 210.061 65.4129 210.273 65.4659V69.7614C210.045 69.6932 209.731 69.6326 209.33 69.5795C208.928 69.5265 208.561 69.5 208.227 69.5C207.515 69.5 206.879 69.6553 206.318 69.9659C205.765 70.2689 205.326 70.6932 205 71.2386C204.682 71.7841 204.523 72.4129 204.523 73.125V83H199.682Z" fill="white"/>
<path fill-rule="evenodd" clip-rule="evenodd" d="M24.25 30.5H23.5V31.25C23.5 36.1814 25.9582 41.0501 29.579 44.671C32.0104 47.1023 35.0043 49.0094 38.202 50C35.0043 50.9906 32.0104 52.8977 29.579 55.329C25.9582 58.9499 23.5 63.8186 23.5 68.75V69.5H24.25C29.1814 69.5 34.0501 67.0418 37.671 63.421C40.1023 60.9896 42.0094 57.9957 43 54.798C43.9906 57.9957 45.8977 60.9896 48.329 63.421C51.9499 67.0418 56.8186 69.5 61.75 69.5H62.5V68.75C62.5 63.8186 60.0418 58.9499 56.421 55.329C53.9896 52.8977 50.9957 50.9906 47.798 50C50.9957 49.0094 53.9896 47.1023 56.421 44.671C60.0418 41.0501 62.5 36.1814 62.5 31.25V30.5H61.75C56.8186 30.5 51.9499 32.9582 48.329 36.579C45.8977 39.0104 43.9906 42.0043 43 45.202C42.0094 42.0043 40.1023 39.0104 37.671 36.579C34.0501 32.9582 29.1814 30.5 24.25 30.5Z" fill="white"/>
</svg>
