<svg width="197" height="20" viewBox="0 0 197 20" fill="none" xmlns="http://www.w3.org/2000/svg">
<path d="M6.56818 19H0.917614V1.54545H6.74716C8.45739 1.54545 9.92614 1.89489 11.1534 2.59375C12.3807 3.28693 13.321 4.28409 13.9744 5.58523C14.6335 6.88068 14.9631 8.43466 14.9631 10.2472C14.9631 12.0653 14.6307 13.6278 13.9659 14.9347C13.3068 16.2415 12.3523 17.2472 11.1023 17.9517C9.85227 18.6506 8.34091 19 6.56818 19ZM3.55114 16.6989H6.4233C7.75284 16.6989 8.85795 16.4489 9.73864 15.9489C10.6193 15.4432 11.2784 14.7131 11.7159 13.7585C12.1534 12.7983 12.3722 11.6278 12.3722 10.2472C12.3722 8.87784 12.1534 7.71591 11.7159 6.76136C11.2841 5.80682 10.6392 5.08239 9.78125 4.58807C8.9233 4.09375 7.85795 3.84659 6.58523 3.84659H3.55114V16.6989ZM21.843 19.2898C21.0135 19.2898 20.2635 19.1364 19.593 18.8295C18.9226 18.517 18.3913 18.0653 17.9993 17.4744C17.6129 16.8835 17.4197 16.1591 17.4197 15.3011C17.4197 14.5625 17.5618 13.9545 17.8459 13.4773C18.13 13 18.5135 12.6222 18.9964 12.3438C19.4794 12.0653 20.0192 11.8551 20.6158 11.7131C21.2124 11.571 21.8203 11.4631 22.4396 11.3892C23.2237 11.2983 23.8601 11.2244 24.3487 11.1676C24.8374 11.1051 25.1925 11.0057 25.4141 10.8693C25.6357 10.733 25.7464 10.5114 25.7464 10.2045V10.1449C25.7464 9.40057 25.5362 8.82386 25.1158 8.41477C24.701 8.00568 24.0817 7.80114 23.2578 7.80114C22.3999 7.80114 21.7237 7.99148 21.2294 8.37216C20.7408 8.74716 20.4027 9.16477 20.2152 9.625L17.8203 9.07955C18.1044 8.28409 18.5192 7.64205 19.0646 7.15341C19.6158 6.65909 20.2493 6.30114 20.9652 6.07954C21.6811 5.85227 22.4339 5.73864 23.2237 5.73864C23.7464 5.73864 24.3004 5.80114 24.8857 5.92614C25.4766 6.04545 26.0277 6.26705 26.5391 6.59091C27.0561 6.91477 27.4794 7.37784 27.8089 7.98011C28.1385 8.5767 28.3033 9.35227 28.3033 10.3068V19H25.8146V17.2102H25.7124C25.5476 17.5398 25.3004 17.8636 24.9709 18.1818C24.6413 18.5 24.218 18.7642 23.701 18.9744C23.1839 19.1847 22.5646 19.2898 21.843 19.2898ZM22.397 17.2443C23.1016 17.2443 23.7038 17.1051 24.2038 16.8267C24.7095 16.5483 25.093 16.1847 25.3544 15.7358C25.6214 15.2812 25.755 14.7955 25.755 14.2784V12.5909C25.6641 12.6818 25.4879 12.767 25.2266 12.8466C24.9709 12.9205 24.6783 12.9858 24.3487 13.0426C24.0192 13.0937 23.6982 13.142 23.3857 13.1875C23.0732 13.2273 22.8118 13.2614 22.6016 13.2898C22.1072 13.3523 21.6555 13.4574 21.2464 13.6051C20.843 13.7528 20.5192 13.9659 20.2749 14.2443C20.0362 14.517 19.9169 14.8807 19.9169 15.3352C19.9169 15.9659 20.1499 16.4432 20.6158 16.767C21.0817 17.0852 21.6754 17.2443 22.397 17.2443ZM37.8082 5.90909V7.95455H30.6577V5.90909H37.8082ZM32.5753 2.77273H35.1236V15.1562C35.1236 15.6506 35.1974 16.0227 35.3452 16.2727C35.4929 16.517 35.6832 16.6847 35.9162 16.7756C36.1548 16.8608 36.4134 16.9034 36.6918 16.9034C36.8963 16.9034 37.0753 16.8892 37.2287 16.8608C37.3821 16.8324 37.5014 16.8097 37.5866 16.7926L38.0469 18.8977C37.8991 18.9545 37.6889 19.0114 37.4162 19.0682C37.1435 19.1307 36.8026 19.1648 36.3935 19.1705C35.723 19.1818 35.098 19.0625 34.5185 18.8125C33.9389 18.5625 33.4702 18.1761 33.1122 17.6534C32.7543 17.1307 32.5753 16.4744 32.5753 15.6847V2.77273ZM44.4368 19.2898C43.6072 19.2898 42.8572 19.1364 42.1868 18.8295C41.5163 18.517 40.9851 18.0653 40.593 17.4744C40.2067 16.8835 40.0135 16.1591 40.0135 15.3011C40.0135 14.5625 40.1555 13.9545 40.4396 13.4773C40.7237 13 41.1072 12.6222 41.5902 12.3438C42.0732 12.0653 42.6129 11.8551 43.2095 11.7131C43.8061 11.571 44.4141 11.4631 45.0334 11.3892C45.8175 11.2983 46.4538 11.2244 46.9425 11.1676C47.4311 11.1051 47.7862 11.0057 48.0078 10.8693C48.2294 10.733 48.3402 10.5114 48.3402 10.2045V10.1449C48.3402 9.40057 48.13 8.82386 47.7095 8.41477C47.2947 8.00568 46.6754 7.80114 45.8516 7.80114C44.9936 7.80114 44.3175 7.99148 43.8232 8.37216C43.3345 8.74716 42.9964 9.16477 42.8089 9.625L40.4141 9.07955C40.6982 8.28409 41.1129 7.64205 41.6584 7.15341C42.2095 6.65909 42.843 6.30114 43.5589 6.07954C44.2749 5.85227 45.0277 5.73864 45.8175 5.73864C46.3402 5.73864 46.8942 5.80114 47.4794 5.92614C48.0703 6.04545 48.6214 6.26705 49.1328 6.59091C49.6499 6.91477 50.0732 7.37784 50.4027 7.98011C50.7322 8.5767 50.897 9.35227 50.897 10.3068V19H48.4084V17.2102H48.3061C48.1413 17.5398 47.8942 17.8636 47.5646 18.1818C47.2351 18.5 46.8118 18.7642 46.2947 18.9744C45.7777 19.1847 45.1584 19.2898 44.4368 19.2898ZM44.9908 17.2443C45.6953 17.2443 46.2976 17.1051 46.7976 16.8267C47.3033 16.5483 47.6868 16.1847 47.9482 15.7358C48.2152 15.2812 48.3487 14.7955 48.3487 14.2784V12.5909C48.2578 12.6818 48.0817 12.767 47.8203 12.8466C47.5646 12.9205 47.272 12.9858 46.9425 13.0426C46.6129 13.0937 46.2919 13.142 45.9794 13.1875C45.6669 13.2273 45.4055 13.2614 45.1953 13.2898C44.701 13.3523 44.2493 13.4574 43.8402 13.6051C43.4368 13.7528 43.1129 13.9659 42.8686 14.2443C42.63 14.517 42.5107 14.8807 42.5107 15.3352C42.5107 15.9659 42.7436 16.4432 43.2095 16.767C43.6754 17.0852 44.2692 17.2443 44.9908 17.2443ZM60.8473 19V1.54545H67.0689C68.4268 1.54545 69.5518 1.79261 70.4439 2.28693C71.3359 2.78125 72.0036 3.45739 72.4467 4.31534C72.8899 5.16761 73.1115 6.12784 73.1115 7.19602C73.1115 8.26989 72.8871 9.2358 72.4382 10.0938C71.995 10.946 71.3246 11.6222 70.4268 12.1222C69.5348 12.6165 68.4126 12.8636 67.0604 12.8636H62.782V10.6307H66.8217C67.6797 10.6307 68.3757 10.483 68.9098 10.1875C69.4439 9.88636 69.8359 9.47727 70.0859 8.96023C70.3359 8.44318 70.4609 7.85511 70.4609 7.19602C70.4609 6.53693 70.3359 5.9517 70.0859 5.44034C69.8359 4.92898 69.4411 4.52841 68.9013 4.23864C68.3672 3.94886 67.6626 3.80398 66.7876 3.80398H63.4808V19H60.8473ZM75.9943 19V5.90909H78.4574V7.98864H78.5938C78.8324 7.28409 79.2528 6.73011 79.8551 6.3267C80.4631 5.91761 81.1506 5.71307 81.9176 5.71307C82.0767 5.71307 82.2642 5.71875 82.4801 5.73011C82.7017 5.74148 82.875 5.75568 83 5.77273V8.21023C82.8977 8.18182 82.7159 8.15057 82.4545 8.11648C82.1932 8.0767 81.9318 8.05682 81.6705 8.05682C81.0682 8.05682 80.5313 8.18466 80.0597 8.44034C79.5938 8.69034 79.2244 9.03977 78.9517 9.48864C78.679 9.93182 78.5426 10.4375 78.5426 11.0057V19H75.9943ZM90.3786 19.2642C89.0888 19.2642 87.978 18.9886 87.0462 18.4375C86.12 17.8807 85.4041 17.0994 84.8984 16.0938C84.3984 15.0824 84.1484 13.8977 84.1484 12.5398C84.1484 11.1989 84.3984 10.017 84.8984 8.99432C85.4041 7.97159 86.1087 7.1733 87.0121 6.59943C87.9212 6.02557 88.9837 5.73864 90.1996 5.73864C90.9382 5.73864 91.6541 5.8608 92.3473 6.10511C93.0405 6.34943 93.6626 6.73295 94.2138 7.25568C94.7649 7.77841 95.1996 8.45739 95.5178 9.29261C95.8359 10.1222 95.995 11.1307 95.995 12.3182V13.2216H85.5888V11.3125H93.4979C93.4979 10.642 93.3615 10.0483 93.0888 9.53125C92.8161 9.00852 92.4325 8.59659 91.9382 8.29545C91.4496 7.99432 90.8757 7.84375 90.2166 7.84375C89.5007 7.84375 88.8757 8.01989 88.3416 8.37216C87.8132 8.71875 87.4041 9.1733 87.1143 9.7358C86.8303 10.2926 86.6882 10.8977 86.6882 11.5511V13.0426C86.6882 13.9176 86.8416 14.6619 87.1484 15.2756C87.4609 15.8892 87.8956 16.358 88.4524 16.6818C89.0092 17 89.6598 17.1591 90.4041 17.1591C90.8871 17.1591 91.3274 17.0909 91.7251 16.9545C92.1229 16.8125 92.4666 16.6023 92.7564 16.3239C93.0462 16.0455 93.2678 15.7017 93.4212 15.2926L95.8331 15.7273C95.6399 16.4375 95.2933 17.0597 94.7933 17.5938C94.299 18.1222 93.6768 18.5341 92.9268 18.8295C92.1825 19.1193 91.3331 19.2642 90.3786 19.2642ZM105.053 5.90909V7.95455H97.6548V5.90909H105.053ZM99.6832 19V4.39204C99.6832 3.57386 99.8622 2.89489 100.22 2.35511C100.578 1.80966 101.053 1.40341 101.643 1.13636C102.234 0.863636 102.876 0.727272 103.57 0.727272C104.081 0.727272 104.518 0.769886 104.882 0.855114C105.246 0.934659 105.516 1.00852 105.692 1.0767L105.095 3.1392C104.976 3.10511 104.822 3.06534 104.635 3.01989C104.447 2.96875 104.22 2.94318 103.953 2.94318C103.334 2.94318 102.891 3.09659 102.624 3.40341C102.362 3.71023 102.232 4.15341 102.232 4.73295V19H99.6832ZM112.808 19.2642C111.518 19.2642 110.408 18.9886 109.476 18.4375C108.55 17.8807 107.834 17.0994 107.328 16.0938C106.828 15.0824 106.578 13.8977 106.578 12.5398C106.578 11.1989 106.828 10.017 107.328 8.99432C107.834 7.97159 108.538 7.1733 109.442 6.59943C110.351 6.02557 111.413 5.73864 112.629 5.73864C113.368 5.73864 114.084 5.8608 114.777 6.10511C115.47 6.34943 116.092 6.73295 116.643 7.25568C117.195 7.77841 117.629 8.45739 117.947 9.29261C118.266 10.1222 118.425 11.1307 118.425 12.3182V13.2216H108.018V11.3125H115.928C115.928 10.642 115.791 10.0483 115.518 9.53125C115.246 9.00852 114.862 8.59659 114.368 8.29545C113.879 7.99432 113.305 7.84375 112.646 7.84375C111.93 7.84375 111.305 8.01989 110.771 8.37216C110.243 8.71875 109.834 9.1733 109.544 9.7358C109.26 10.2926 109.118 10.8977 109.118 11.5511V13.0426C109.118 13.9176 109.271 14.6619 109.578 15.2756C109.891 15.8892 110.325 16.358 110.882 16.6818C111.439 17 112.089 17.1591 112.834 17.1591C113.317 17.1591 113.757 17.0909 114.155 16.9545C114.553 16.8125 114.896 16.6023 115.186 16.3239C115.476 16.0455 115.697 15.7017 115.851 15.2926L118.263 15.7273C118.07 16.4375 117.723 17.0597 117.223 17.5938C116.729 18.1222 116.107 18.5341 115.357 18.8295C114.612 19.1193 113.763 19.2642 112.808 19.2642ZM121.252 19V5.90909H123.715V7.98864H123.852C124.09 7.28409 124.511 6.73011 125.113 6.3267C125.721 5.91761 126.408 5.71307 127.175 5.71307C127.335 5.71307 127.522 5.71875 127.738 5.73011C127.96 5.74148 128.133 5.75568 128.258 5.77273V8.21023C128.156 8.18182 127.974 8.15057 127.712 8.11648C127.451 8.0767 127.19 8.05682 126.928 8.05682C126.326 8.05682 125.789 8.18466 125.317 8.44034C124.852 8.69034 124.482 9.03977 124.21 9.48864C123.937 9.93182 123.8 10.4375 123.8 11.0057V19H121.252ZM135.636 19.2642C134.347 19.2642 133.236 18.9886 132.304 18.4375C131.378 17.8807 130.662 17.0994 130.156 16.0938C129.656 15.0824 129.406 13.8977 129.406 12.5398C129.406 11.1989 129.656 10.017 130.156 8.99432C130.662 7.97159 131.366 7.1733 132.27 6.59943C133.179 6.02557 134.241 5.73864 135.457 5.73864C136.196 5.73864 136.912 5.8608 137.605 6.10511C138.298 6.34943 138.92 6.73295 139.472 7.25568C140.023 7.77841 140.457 8.45739 140.776 9.29261C141.094 10.1222 141.253 11.1307 141.253 12.3182V13.2216H130.847V11.3125H138.756C138.756 10.642 138.619 10.0483 138.347 9.53125C138.074 9.00852 137.69 8.59659 137.196 8.29545C136.707 7.99432 136.134 7.84375 135.474 7.84375C134.759 7.84375 134.134 8.01989 133.599 8.37216C133.071 8.71875 132.662 9.1733 132.372 9.7358C132.088 10.2926 131.946 10.8977 131.946 11.5511V13.0426C131.946 13.9176 132.099 14.6619 132.406 15.2756C132.719 15.8892 133.153 16.358 133.71 16.6818C134.267 17 134.918 17.1591 135.662 17.1591C136.145 17.1591 136.585 17.0909 136.983 16.9545C137.381 16.8125 137.724 16.6023 138.014 16.3239C138.304 16.0455 138.526 15.7017 138.679 15.2926L141.091 15.7273C140.898 16.4375 140.551 17.0597 140.051 17.5938C139.557 18.1222 138.935 18.5341 138.185 18.8295C137.44 19.1193 136.591 19.2642 135.636 19.2642ZM146.629 11.2273V19H144.08V5.90909H146.526V8.03977H146.688C146.989 7.34659 147.461 6.78977 148.103 6.36932C148.751 5.94886 149.566 5.73864 150.549 5.73864C151.441 5.73864 152.222 5.92614 152.893 6.30114C153.563 6.67045 154.083 7.22159 154.452 7.95455C154.822 8.6875 155.006 9.59375 155.006 10.6733V19H152.458V10.9801C152.458 10.0312 152.211 9.28977 151.717 8.75568C151.222 8.21591 150.543 7.94602 149.68 7.94602C149.089 7.94602 148.563 8.07386 148.103 8.32955C147.648 8.58523 147.288 8.96023 147.021 9.45455C146.759 9.94318 146.629 10.5341 146.629 11.2273ZM163.938 19.2642C162.671 19.2642 161.58 18.9773 160.665 18.4034C159.756 17.8239 159.058 17.0256 158.569 16.0085C158.08 14.9915 157.836 13.8267 157.836 12.5142C157.836 11.1847 158.086 10.0114 158.586 8.99432C159.086 7.97159 159.79 7.1733 160.7 6.59943C161.609 6.02557 162.68 5.73864 163.913 5.73864C164.907 5.73864 165.793 5.9233 166.572 6.29261C167.35 6.65625 167.978 7.16761 168.455 7.8267C168.938 8.4858 169.225 9.25568 169.316 10.1364H166.836C166.7 9.52273 166.387 8.99432 165.898 8.55114C165.415 8.10795 164.768 7.88636 163.955 7.88636C163.245 7.88636 162.623 8.07386 162.089 8.44886C161.56 8.81818 161.148 9.34659 160.853 10.0341C160.558 10.7159 160.41 11.5227 160.41 12.4545C160.41 13.4091 160.555 14.233 160.844 14.9261C161.134 15.6193 161.543 16.1562 162.072 16.5369C162.606 16.9176 163.234 17.108 163.955 17.108C164.438 17.108 164.876 17.0199 165.268 16.8438C165.665 16.6619 165.998 16.4034 166.265 16.0682C166.538 15.733 166.728 15.3295 166.836 14.858H169.316C169.225 15.7045 168.95 16.4602 168.489 17.125C168.029 17.7898 167.413 18.3125 166.64 18.6932C165.873 19.0739 164.972 19.2642 163.938 19.2642ZM177.683 19.2642C176.393 19.2642 175.283 18.9886 174.351 18.4375C173.425 17.8807 172.709 17.0994 172.203 16.0938C171.703 15.0824 171.453 13.8977 171.453 12.5398C171.453 11.1989 171.703 10.017 172.203 8.99432C172.709 7.97159 173.413 7.1733 174.317 6.59943C175.226 6.02557 176.288 5.73864 177.504 5.73864C178.243 5.73864 178.959 5.8608 179.652 6.10511C180.345 6.34943 180.967 6.73295 181.518 7.25568C182.07 7.77841 182.504 8.45739 182.822 9.29261C183.141 10.1222 183.3 11.1307 183.3 12.3182V13.2216H172.893V11.3125H180.803C180.803 10.642 180.666 10.0483 180.393 9.53125C180.121 9.00852 179.737 8.59659 179.243 8.29545C178.754 7.99432 178.18 7.84375 177.521 7.84375C176.805 7.84375 176.18 8.01989 175.646 8.37216C175.118 8.71875 174.709 9.1733 174.419 9.7358C174.135 10.2926 173.993 10.8977 173.993 11.5511V13.0426C173.993 13.9176 174.146 14.6619 174.453 15.2756C174.766 15.8892 175.2 16.358 175.757 16.6818C176.314 17 176.964 17.1591 177.709 17.1591C178.192 17.1591 178.632 17.0909 179.03 16.9545C179.428 16.8125 179.771 16.6023 180.061 16.3239C180.351 16.0455 180.572 15.7017 180.726 15.2926L183.138 15.7273C182.945 16.4375 182.598 17.0597 182.098 17.5938C181.604 18.1222 180.982 18.5341 180.232 18.8295C179.487 19.1193 178.638 19.2642 177.683 19.2642ZM195.937 9.10511L193.627 9.5142C193.531 9.21875 193.377 8.9375 193.167 8.67045C192.962 8.40341 192.684 8.18466 192.332 8.0142C191.979 7.84375 191.539 7.75852 191.011 7.75852C190.289 7.75852 189.687 7.92045 189.204 8.24432C188.721 8.5625 188.479 8.97443 188.479 9.48011C188.479 9.91761 188.641 10.2699 188.965 10.5369C189.289 10.804 189.812 11.0227 190.533 11.1932L192.613 11.6705C193.817 11.9489 194.715 12.3778 195.306 12.9574C195.897 13.5369 196.192 14.2898 196.192 15.2159C196.192 16 195.965 16.6989 195.511 17.3125C195.062 17.9205 194.434 18.3977 193.627 18.7443C192.826 19.0909 191.897 19.2642 190.84 19.2642C189.374 19.2642 188.178 18.9517 187.252 18.3267C186.326 17.696 185.758 16.8011 185.548 15.642L188.011 15.267C188.164 15.9091 188.479 16.3949 188.957 16.7244C189.434 17.0483 190.056 17.2102 190.823 17.2102C191.658 17.2102 192.326 17.0369 192.826 16.6903C193.326 16.3381 193.576 15.9091 193.576 15.4034C193.576 14.9943 193.423 14.6506 193.116 14.3722C192.815 14.0937 192.352 13.8835 191.727 13.7415L189.511 13.2557C188.289 12.9773 187.386 12.5341 186.8 11.9261C186.221 11.3182 185.931 10.5483 185.931 9.61648C185.931 8.84375 186.147 8.16761 186.579 7.58807C187.011 7.00852 187.607 6.55682 188.369 6.23295C189.13 5.90341 190.002 5.73864 190.985 5.73864C192.4 5.73864 193.513 6.04545 194.326 6.65909C195.138 7.26705 195.675 8.08239 195.937 9.10511Z" fill="white"/>
</svg>
