<svg width="425" height="77" viewBox="0 0 425 77" fill="none" xmlns="http://www.w3.org/2000/svg">
<path fill-rule="evenodd" clip-rule="evenodd" d="M38.1705 0C17.0895 0 0 17.0895 0 38.1705C0 59.2515 17.0895 76.341 38.1705 76.341C59.2515 76.341 76.341 59.2515 76.341 38.1705C76.341 17.0895 59.2515 0 38.1705 0ZM42.1485 39.8472V60.614H33.5562V39.848H29.2635V32.6917H33.5562V28.3951C33.5562 22.5569 35.9801 19.0853 42.8668 19.0853H48.6001V26.2425H45.0164C42.3356 26.2425 42.1582 27.2426 42.1582 29.1091L42.1485 32.6909H48.6407L47.881 39.8472H42.1485Z" fill="white"/>
<path fill-rule="evenodd" clip-rule="evenodd" d="M153.171 0C132.09 0 115 17.0895 115 38.1705C115 59.2515 132.09 76.341 153.171 76.341C174.252 76.341 191.341 59.2515 191.341 38.1705C191.341 17.0895 174.252 0 153.171 0ZM144.778 17.936C146.949 17.8372 147.643 17.813 153.169 17.813C158.696 17.813 159.388 17.8372 161.559 17.936C163.726 18.0353 165.206 18.3784 166.504 18.8818C167.844 19.4014 168.977 20.0969 170.109 21.2293C171.241 22.3609 171.937 23.4967 172.459 24.8356C172.959 26.13 173.303 27.6094 173.404 29.7766C173.502 31.9481 173.527 32.642 173.527 38.1708C173.527 43.6997 173.502 44.3919 173.404 46.5634C173.303 48.7298 172.959 50.2095 172.459 51.5044C171.937 52.8429 171.241 53.9787 170.109 55.1102C168.978 56.2426 167.844 56.9399 166.505 57.4599C165.21 57.9633 163.729 58.3064 161.562 58.4057C159.39 58.5045 158.698 58.5287 153.169 58.5287C147.641 58.5287 146.947 58.5045 144.776 58.4057C142.609 58.3064 141.129 57.9633 139.834 57.4599C138.496 56.9399 137.36 56.2426 136.229 55.1102C135.097 53.9787 134.401 52.8429 133.881 51.5039C133.378 50.2095 133.035 48.7302 132.935 46.5629C132.837 44.3914 132.812 43.6997 132.812 38.1708C132.812 32.642 132.838 31.9477 132.935 29.7762C133.032 27.6098 133.376 26.13 133.881 24.8352C134.402 23.4967 135.098 22.3609 136.23 21.2293C137.362 20.0973 138.498 19.4018 139.837 18.8818C141.131 18.3784 142.61 18.0353 144.778 17.936ZM153.169 17.813C153.17 17.813 153.171 17.813 153.172 17.813H153.165C153.166 17.813 153.168 17.813 153.169 17.813Z" fill="white"/>
<path fill-rule="evenodd" clip-rule="evenodd" d="M151.346 21.4807C151.701 21.4801 152.082 21.4803 152.494 21.4805L153.173 21.4807C158.608 21.4807 159.252 21.5002 161.399 21.5977C163.384 21.6885 164.461 22.0202 165.179 22.2988C166.129 22.6678 166.806 23.1089 167.518 23.8214C168.231 24.5339 168.672 25.2125 169.041 26.1625C169.32 26.8793 169.652 27.9566 169.743 29.9415C169.84 32.0875 169.861 32.7322 169.861 38.1652C169.861 43.5982 169.84 44.2428 169.743 46.3889C169.652 48.3738 169.32 49.451 169.041 50.1678C168.673 51.1178 168.231 51.7943 167.518 52.5064C166.806 53.2189 166.129 53.66 165.179 54.029C164.462 54.3089 163.384 54.6397 161.399 54.7305C159.253 54.8281 158.608 54.8493 153.173 54.8493C147.737 54.8493 147.092 54.8281 144.946 54.7305C142.961 54.6389 141.884 54.3072 141.166 54.0286C140.216 53.6596 139.537 53.2185 138.825 52.506C138.112 51.7935 137.671 51.1166 137.302 50.1661C137.023 49.4494 136.691 48.3721 136.6 46.3872C136.503 44.2411 136.483 43.5965 136.483 38.1601C136.483 32.7237 136.503 32.0824 136.6 29.9364C136.691 27.9515 137.023 26.8742 137.302 26.1566C137.671 25.2066 138.112 24.528 138.825 23.8155C139.537 23.1029 140.216 22.6619 141.166 22.292C141.884 22.0121 142.961 21.6813 144.946 21.5901C146.824 21.5053 147.552 21.4798 151.346 21.4756V21.4807ZM164.039 24.8614C162.69 24.8614 161.596 25.9544 161.596 27.3035C161.596 28.6522 162.69 29.7465 164.039 29.7465C165.387 29.7465 166.482 28.6522 166.482 27.3035C166.482 25.9548 165.387 24.8606 164.039 24.8606V24.8614ZM142.719 38.1707C142.719 32.3973 147.399 27.7163 153.173 27.7161C158.946 27.7161 163.626 32.3971 163.626 38.1707C163.626 43.9443 158.947 48.6232 153.173 48.6232C147.4 48.6232 142.719 43.9443 142.719 38.1707Z" fill="white"/>
<path fill-rule="evenodd" clip-rule="evenodd" d="M153.173 31.3857C156.92 31.3857 159.959 34.4237 159.959 38.1717C159.959 41.9192 156.92 44.9576 153.173 44.9576C149.425 44.9576 146.387 41.9192 146.387 38.1717C146.387 34.4237 149.425 31.3857 153.173 31.3857V31.3857Z" fill="white"/>
<path fill-rule="evenodd" clip-rule="evenodd" d="M269.171 0C248.09 0 231 17.0895 231 38.1705C231 59.2515 248.09 76.341 269.171 76.341C290.252 76.341 307.341 59.2515 307.341 38.1705C307.341 17.0895 290.252 0 269.171 0ZM268.107 32.3452L268.027 31.0244C267.787 27.6011 269.896 24.4744 273.233 23.2614C274.462 22.8301 276.544 22.7762 277.906 23.1536C278.44 23.3153 279.454 23.8544 280.175 24.3396L281.484 25.2291L282.925 24.7709C283.726 24.5283 284.794 24.124 285.275 23.8544C285.729 23.6118 286.129 23.4771 286.129 23.5579C286.129 24.0162 285.141 25.5795 284.314 26.4421C283.192 27.6551 283.513 27.7629 285.782 26.9542C287.144 26.496 287.171 26.496 286.904 27.0081C286.743 27.2777 285.916 28.2211 285.035 29.0837C283.539 30.5662 283.459 30.7279 283.459 31.9678C283.459 33.8816 282.552 37.8709 281.644 40.0543C279.962 44.1514 276.357 48.3833 272.753 50.5127C267.68 53.5047 260.925 54.2595 255.238 52.5074C253.342 51.9144 250.085 50.4049 250.085 50.1354C250.085 50.0545 251.073 49.9467 252.274 49.9197C254.784 49.8658 257.294 49.165 259.43 47.9251L260.872 47.0625L259.216 46.4965C256.867 45.6878 254.757 43.8279 254.223 42.0759C254.063 41.5098 254.117 41.4829 255.612 41.4829L257.16 41.4559L255.852 40.836C254.304 40.0543 252.888 38.7335 252.194 37.3857C251.687 36.4154 251.046 33.9625 251.233 33.7738C251.287 33.6929 251.847 33.8547 252.488 34.0703C254.33 34.7442 254.571 34.5824 253.503 33.4503C251.5 31.4018 250.886 28.3559 251.847 25.4717L252.301 24.1779L254.063 25.93C257.668 29.461 261.913 31.5635 266.772 32.1835L268.107 32.3452Z" fill="white"/>
<path fill-rule="evenodd" clip-rule="evenodd" d="M386.171 0C365.09 0 348 17.0895 348 38.1705C348 59.2515 365.09 76.341 386.171 76.341C407.252 76.341 424.341 59.2515 424.341 38.1705C424.341 17.0895 407.252 0 386.171 0ZM366.323 31.614H374.973V57.6045H366.323V31.614ZM375.543 23.5747C375.487 21.0263 373.665 19.0853 370.706 19.0853C367.747 19.0853 365.812 21.0263 365.812 23.5747C365.812 26.0702 367.689 28.0671 370.594 28.0671H370.649C373.665 28.0671 375.543 26.0702 375.543 23.5747ZM396.211 31.0048C401.904 31.0048 406.171 34.7203 406.171 42.7034L406.171 57.6056H397.521V43.7006C397.521 40.208 396.269 37.8248 393.138 37.8248C390.748 37.8248 389.324 39.4314 388.699 40.9832C388.471 41.5394 388.414 42.3143 388.414 43.091V57.6062H379.763C379.763 57.6062 379.877 34.0546 379.763 31.6158H388.414V35.2971C389.562 33.5274 391.619 31.0048 396.211 31.0048Z" fill="white"/>
</svg>
