<svg width="592" height="587" viewBox="0 0 592 587" fill="none" xmlns="http://www.w3.org/2000/svg">
<g filter="url(#filter0_bd_195_8198)">
<rect x="4" y="12" width="584" height="567" rx="30" fill="url(#paint0_linear_195_8198)" fill-opacity="0.6" shape-rendering="crispEdges"/>
<rect x="4.5" y="12.5" width="583" height="566" rx="29.5" stroke="url(#paint1_linear_195_8198)" stroke-opacity="0.6" shape-rendering="crispEdges"/>
</g>
<g filter="url(#filter1_bd_195_8198)">
<rect x="4" width="584" height="51" rx="25.5" fill="url(#paint2_linear_195_8198)" fill-opacity="0.6" shape-rendering="crispEdges"/>
<rect x="4.5" y="0.5" width="583" height="50" rx="25" stroke="url(#paint3_linear_195_8198)" stroke-opacity="0.6" shape-rendering="crispEdges"/>
</g>
<path d="M65.9432 13.7273V37H61.0227V13.7273H65.9432ZM98.7841 25.3636C98.7841 27.9015 98.303 30.0606 97.3409 31.8409C96.3864 33.6212 95.0833 34.9811 93.4318 35.9205C91.7879 36.8523 89.9394 37.3182 87.8864 37.3182C85.8182 37.3182 83.9621 36.8485 82.3182 35.9091C80.6742 34.9697 79.375 33.6098 78.4205 31.8295C77.4659 30.0492 76.9886 27.8939 76.9886 25.3636C76.9886 22.8258 77.4659 20.6667 78.4205 18.8864C79.375 17.1061 80.6742 15.75 82.3182 14.8182C83.9621 13.8788 85.8182 13.4091 87.8864 13.4091C89.9394 13.4091 91.7879 13.8788 93.4318 14.8182C95.0833 15.75 96.3864 17.1061 97.3409 18.8864C98.303 20.6667 98.7841 22.8258 98.7841 25.3636ZM93.7955 25.3636C93.7955 23.7197 93.5492 22.3333 93.0568 21.2045C92.572 20.0758 91.8864 19.2197 91 18.6364C90.1136 18.053 89.0758 17.7614 87.8864 17.7614C86.697 17.7614 85.6591 18.053 84.7727 18.6364C83.8864 19.2197 83.197 20.0758 82.7045 21.2045C82.2197 22.3333 81.9773 23.7197 81.9773 25.3636C81.9773 27.0076 82.2197 28.3939 82.7045 29.5227C83.197 30.6515 83.8864 31.5076 84.7727 32.0909C85.6591 32.6742 86.697 32.9659 87.8864 32.9659C89.0758 32.9659 90.1136 32.6742 91 32.0909C91.8864 31.5076 92.572 30.6515 93.0568 29.5227C93.5492 28.3939 93.7955 27.0076 93.7955 25.3636ZM111.724 19.5455V23.1818H100.952V19.5455H111.724ZM103.418 37V18.2841C103.418 17.0189 103.664 15.9697 104.156 15.1364C104.656 14.303 105.338 13.678 106.202 13.2614C107.065 12.8447 108.046 12.6364 109.145 12.6364C109.887 12.6364 110.565 12.6932 111.179 12.8068C111.8 12.9205 112.262 13.0227 112.565 13.1136L111.702 16.75C111.512 16.6894 111.277 16.6326 110.997 16.5795C110.724 16.5265 110.444 16.5 110.156 16.5C109.444 16.5 108.948 16.6667 108.668 17C108.387 17.3258 108.247 17.7841 108.247 18.375V37H103.418ZM124.068 19.5455V23.1818H113.295V19.5455H124.068ZM115.761 37V18.2841C115.761 17.0189 116.008 15.9697 116.5 15.1364C117 14.303 117.682 13.678 118.545 13.2614C119.409 12.8447 120.39 12.6364 121.489 12.6364C122.231 12.6364 122.909 12.6932 123.523 12.8068C124.144 12.9205 124.606 13.0227 124.909 13.1136L124.045 16.75C123.856 16.6894 123.621 16.6326 123.341 16.5795C123.068 16.5265 122.788 16.5 122.5 16.5C121.788 16.5 121.292 16.6667 121.011 17C120.731 17.3258 120.591 17.7841 120.591 18.375V37H115.761ZM134.355 37.3409C132.56 37.3409 131.014 36.9773 129.719 36.25C128.431 35.5152 127.438 34.4773 126.741 33.1364C126.045 31.7879 125.696 30.1932 125.696 28.3523C125.696 26.5568 126.045 24.9811 126.741 23.625C127.438 22.2689 128.42 21.2121 129.685 20.4545C130.957 19.697 132.45 19.3182 134.162 19.3182C135.313 19.3182 136.385 19.5038 137.378 19.875C138.378 20.2386 139.249 20.7879 139.991 21.5227C140.741 22.2576 141.325 23.1818 141.741 24.2955C142.158 25.4015 142.366 26.697 142.366 28.1818V29.5114H127.628V26.5114H137.81C137.81 25.8144 137.658 25.197 137.355 24.6591C137.052 24.1212 136.632 23.7008 136.094 23.3977C135.563 23.0871 134.946 22.9318 134.241 22.9318C133.507 22.9318 132.855 23.1023 132.287 23.4432C131.726 23.7765 131.287 24.2273 130.969 24.7955C130.651 25.3561 130.488 25.9811 130.48 26.6705V29.5227C130.48 30.3864 130.639 31.1326 130.957 31.7614C131.283 32.3902 131.741 32.875 132.332 33.2159C132.923 33.5568 133.624 33.7273 134.435 33.7273C134.973 33.7273 135.465 33.6515 135.912 33.5C136.359 33.3485 136.741 33.1212 137.06 32.8182C137.378 32.5152 137.62 32.1439 137.787 31.7045L142.264 32C142.037 33.0758 141.571 34.0152 140.866 34.8182C140.17 35.6136 139.268 36.2348 138.162 36.6818C137.063 37.1212 135.795 37.3409 134.355 37.3409ZM145.526 37V19.5455H150.219V22.5909H150.401C150.719 21.5076 151.253 20.6894 152.003 20.1364C152.753 19.5758 153.616 19.2955 154.594 19.2955C154.836 19.2955 155.098 19.3106 155.378 19.3409C155.658 19.3712 155.904 19.4129 156.116 19.4659V23.7614C155.889 23.6932 155.575 23.6326 155.173 23.5795C154.772 23.5265 154.404 23.5 154.071 23.5C153.359 23.5 152.723 23.6553 152.162 23.9659C151.609 24.2689 151.17 24.6932 150.844 25.2386C150.526 25.7841 150.366 26.4129 150.366 27.125V37H145.526Z" fill="white"/>
<line y1="-2.71429" x2="18.0934" y2="-2.71429" transform="matrix(-0.693177 0.719198 -0.689793 -0.725565 39.5723 11)" stroke="white" stroke-width="5.42857"/>
<line y1="-2.71429" x2="18.0934" y2="-2.71429" transform="matrix(-0.689793 -0.725565 -0.693177 0.719198 39.5117 37.1406)" stroke="white" stroke-width="5.42857"/>
<g filter="url(#filter2_bi_195_8198)">
<rect x="30" y="106" width="532" height="67.4499" rx="10" fill="url(#paint4_linear_195_8198)" fill-opacity="0.6"/>
<rect x="30.5" y="106.5" width="531" height="66.4499" rx="9.5" stroke="url(#paint5_linear_195_8198)" stroke-opacity="0.6"/>
</g>
<path d="M52.1591 132.42V130.545H65.25V132.42H59.7614V148H57.6477V132.42H52.1591ZM68.2393 148V134.909H70.2507V148H68.2393ZM69.2621 132.727C68.87 132.727 68.532 132.594 68.2479 132.327C67.9695 132.06 67.8303 131.739 67.8303 131.364C67.8303 130.989 67.9695 130.668 68.2479 130.401C68.532 130.134 68.87 130 69.2621 130C69.6541 130 69.9893 130.134 70.2678 130.401C70.5518 130.668 70.6939 130.989 70.6939 131.364C70.6939 131.739 70.5518 132.06 70.2678 132.327C69.9893 132.594 69.6541 132.727 69.2621 132.727ZM79.6278 134.909V136.614H72.8438V134.909H79.6278ZM74.821 131.773H76.8324V144.25C76.8324 144.818 76.9148 145.244 77.0795 145.528C77.25 145.807 77.4659 145.994 77.7273 146.091C77.9943 146.182 78.2756 146.227 78.571 146.227C78.7926 146.227 78.9744 146.216 79.1165 146.193C79.2585 146.165 79.3722 146.142 79.4574 146.125L79.8665 147.932C79.7301 147.983 79.5398 148.034 79.2955 148.085C79.0511 148.142 78.7415 148.17 78.3665 148.17C77.7983 148.17 77.2415 148.048 76.696 147.804C76.1563 147.56 75.7074 147.188 75.3494 146.688C74.9972 146.188 74.821 145.557 74.821 144.795V131.773ZM84.946 130.545V148H82.9347V130.545H84.946ZM94.1186 148.273C92.8572 148.273 91.7692 147.994 90.8544 147.438C89.9453 146.875 89.2436 146.091 88.7493 145.085C88.2607 144.074 88.0163 142.898 88.0163 141.557C88.0163 140.216 88.2607 139.034 88.7493 138.011C89.2436 136.983 89.9311 136.182 90.8118 135.608C91.6982 135.028 92.7322 134.739 93.9141 134.739C94.5959 134.739 95.2692 134.852 95.9339 135.08C96.5987 135.307 97.2038 135.676 97.7493 136.188C98.2947 136.693 98.7294 137.364 99.0533 138.199C99.3771 139.034 99.5391 140.062 99.5391 141.284V142.136H89.4482V140.398H97.4936C97.4936 139.659 97.3459 139 97.0504 138.42C96.7607 137.841 96.3459 137.384 95.8061 137.048C95.272 136.713 94.6413 136.545 93.9141 136.545C93.1129 136.545 92.4197 136.744 91.8345 137.142C91.255 137.534 90.8089 138.045 90.4964 138.676C90.1839 139.307 90.0277 139.983 90.0277 140.705V141.864C90.0277 142.852 90.1982 143.69 90.5391 144.378C90.8857 145.06 91.3658 145.58 91.9794 145.938C92.593 146.29 93.3061 146.466 94.1186 146.466C94.647 146.466 95.1243 146.392 95.5504 146.244C95.9822 146.091 96.3544 145.864 96.6669 145.562C96.9794 145.256 97.2209 144.875 97.3913 144.42L99.3345 144.966C99.13 145.625 98.7862 146.205 98.3033 146.705C97.8203 147.199 97.2237 147.585 96.5135 147.864C95.8033 148.136 95.005 148.273 94.1186 148.273Z" fill="white"/>
<g filter="url(#filter3_bi_195_8198)">
<rect x="30" y="184" width="532" height="67.4499" rx="10" fill="url(#paint6_linear_195_8198)" fill-opacity="0.6"/>
<rect x="30.5" y="184.5" width="531" height="66.4499" rx="9.5" stroke="url(#paint7_linear_195_8198)" stroke-opacity="0.6"/>
</g>
<path d="M67.1591 214H65.0455C64.9205 213.392 64.7017 212.858 64.3892 212.398C64.0824 211.938 63.7074 211.551 63.2642 211.239C62.8267 210.92 62.3409 210.682 61.8068 210.523C61.2727 210.364 60.7159 210.284 60.1364 210.284C59.0795 210.284 58.1222 210.551 57.2642 211.085C56.4119 211.619 55.733 212.406 55.2273 213.446C54.7273 214.486 54.4773 215.761 54.4773 217.273C54.4773 218.784 54.7273 220.06 55.2273 221.099C55.733 222.139 56.4119 222.926 57.2642 223.46C58.1222 223.994 59.0795 224.261 60.1364 224.261C60.7159 224.261 61.2727 224.182 61.8068 224.023C62.3409 223.864 62.8267 223.628 63.2642 223.315C63.7074 222.997 64.0824 222.608 64.3892 222.148C64.7017 221.682 64.9205 221.148 65.0455 220.545H67.1591C67 221.437 66.7102 222.236 66.2898 222.94C65.8693 223.645 65.3466 224.244 64.7216 224.739C64.0966 225.227 63.3949 225.599 62.6165 225.855C61.8438 226.111 61.017 226.239 60.1364 226.239C58.6477 226.239 57.3239 225.875 56.1648 225.148C55.0057 224.42 54.0938 223.386 53.429 222.045C52.7642 220.705 52.4318 219.114 52.4318 217.273C52.4318 215.432 52.7642 213.841 53.429 212.5C54.0938 211.159 55.0057 210.125 56.1648 209.398C57.3239 208.67 58.6477 208.307 60.1364 208.307C61.017 208.307 61.8438 208.435 62.6165 208.69C63.3949 208.946 64.0966 209.321 64.7216 209.815C65.3466 210.304 65.8693 210.901 66.2898 211.605C66.7102 212.304 67 213.102 67.1591 214ZM74.1541 226.307C73.3246 226.307 72.5717 226.151 71.8956 225.838C71.2195 225.52 70.6825 225.062 70.2848 224.466C69.8871 223.864 69.6882 223.136 69.6882 222.284C69.6882 221.534 69.8359 220.926 70.1314 220.46C70.4268 219.989 70.8217 219.619 71.3161 219.352C71.8104 219.085 72.3558 218.886 72.9524 218.756C73.5547 218.619 74.1598 218.511 74.7678 218.432C75.5632 218.33 76.2081 218.253 76.7024 218.202C77.2024 218.145 77.5661 218.051 77.7933 217.92C78.0263 217.79 78.1428 217.562 78.1428 217.239V217.17C78.1428 216.33 77.9126 215.676 77.4524 215.21C76.9979 214.744 76.3075 214.511 75.3814 214.511C74.4212 214.511 73.6683 214.722 73.1229 215.142C72.5774 215.562 72.1939 216.011 71.9723 216.489L70.0632 215.807C70.4041 215.011 70.8587 214.392 71.4268 213.949C72.0007 213.5 72.6257 213.187 73.3018 213.011C73.9837 212.83 74.6541 212.739 75.3132 212.739C75.7337 212.739 76.2166 212.79 76.7621 212.892C77.3132 212.989 77.8445 213.19 78.3558 213.497C78.8729 213.804 79.3018 214.267 79.6428 214.886C79.9837 215.506 80.1541 216.335 80.1541 217.375V226H78.1428V224.227H78.0405C77.9041 224.511 77.6768 224.815 77.3587 225.139C77.0405 225.463 76.6172 225.739 76.0888 225.966C75.5604 226.193 74.9155 226.307 74.1541 226.307ZM74.4609 224.5C75.2564 224.5 75.9268 224.344 76.4723 224.031C77.0234 223.719 77.4382 223.315 77.7166 222.821C78.0007 222.327 78.1428 221.807 78.1428 221.261V219.42C78.0575 219.523 77.87 219.616 77.5803 219.702C77.2962 219.781 76.9666 219.852 76.5916 219.915C76.2223 219.972 75.8615 220.023 75.5092 220.068C75.1626 220.108 74.8814 220.142 74.6655 220.17C74.1428 220.239 73.6541 220.349 73.1996 220.503C72.7507 220.651 72.3871 220.875 72.1087 221.176C71.8359 221.472 71.6996 221.875 71.6996 222.386C71.6996 223.085 71.9581 223.614 72.4751 223.972C72.9979 224.324 73.6598 224.5 74.4609 224.5ZM89.5185 212.909V214.614H82.7344V212.909H89.5185ZM84.7116 209.773H86.723V222.25C86.723 222.818 86.8054 223.244 86.9702 223.528C87.1406 223.807 87.3565 223.994 87.6179 224.091C87.8849 224.182 88.1662 224.227 88.4616 224.227C88.6832 224.227 88.8651 224.216 89.0071 224.193C89.1491 224.165 89.2628 224.142 89.348 224.125L89.7571 225.932C89.6207 225.983 89.4304 226.034 89.1861 226.085C88.9418 226.142 88.6321 226.17 88.2571 226.17C87.6889 226.17 87.1321 226.048 86.5866 225.804C86.0469 225.56 85.598 225.188 85.2401 224.688C84.8878 224.188 84.7116 223.557 84.7116 222.795V209.773ZM97.892 226.273C96.6307 226.273 95.5426 225.994 94.6278 225.438C93.7188 224.875 93.017 224.091 92.5227 223.085C92.0341 222.074 91.7898 220.898 91.7898 219.557C91.7898 218.216 92.0341 217.034 92.5227 216.011C93.017 214.983 93.7045 214.182 94.5852 213.608C95.4716 213.028 96.5057 212.739 97.6875 212.739C98.3693 212.739 99.0426 212.852 99.7074 213.08C100.372 213.307 100.977 213.676 101.523 214.188C102.068 214.693 102.503 215.364 102.827 216.199C103.151 217.034 103.312 218.062 103.312 219.284V220.136H93.2216V218.398H101.267C101.267 217.659 101.119 217 100.824 216.42C100.534 215.841 100.119 215.384 99.5795 215.048C99.0455 214.713 98.4148 214.545 97.6875 214.545C96.8864 214.545 96.1932 214.744 95.608 215.142C95.0284 215.534 94.5824 216.045 94.2699 216.676C93.9574 217.307 93.8011 217.983 93.8011 218.705V219.864C93.8011 220.852 93.9716 221.69 94.3125 222.378C94.6591 223.06 95.1392 223.58 95.7528 223.938C96.3665 224.29 97.0795 224.466 97.892 224.466C98.4205 224.466 98.8977 224.392 99.3239 224.244C99.7557 224.091 100.128 223.864 100.44 223.562C100.753 223.256 100.994 222.875 101.165 222.42L103.108 222.966C102.903 223.625 102.56 224.205 102.077 224.705C101.594 225.199 100.997 225.585 100.287 225.864C99.5767 226.136 98.7784 226.273 97.892 226.273ZM111.656 231.182C110.685 231.182 109.849 231.057 109.151 230.807C108.452 230.562 107.869 230.239 107.403 229.835C106.943 229.438 106.577 229.011 106.304 228.557L107.906 227.432C108.088 227.67 108.318 227.943 108.597 228.25C108.875 228.562 109.256 228.832 109.739 229.06C110.227 229.293 110.866 229.409 111.656 229.409C112.713 229.409 113.585 229.153 114.273 228.642C114.96 228.131 115.304 227.33 115.304 226.239V223.58H115.134C114.986 223.818 114.776 224.114 114.503 224.466C114.236 224.812 113.849 225.122 113.344 225.395C112.844 225.662 112.168 225.795 111.315 225.795C110.259 225.795 109.31 225.545 108.469 225.045C107.634 224.545 106.972 223.818 106.483 222.864C106 221.909 105.759 220.75 105.759 219.386C105.759 218.045 105.994 216.878 106.466 215.884C106.938 214.884 107.594 214.111 108.435 213.565C109.276 213.014 110.247 212.739 111.349 212.739C112.202 212.739 112.878 212.881 113.378 213.165C113.884 213.443 114.27 213.761 114.537 214.119C114.81 214.472 115.02 214.761 115.168 214.989H115.372V212.909H117.315V226.375C117.315 227.5 117.06 228.415 116.548 229.119C116.043 229.83 115.361 230.349 114.503 230.679C113.651 231.014 112.702 231.182 111.656 231.182ZM111.588 223.989C112.395 223.989 113.077 223.804 113.634 223.435C114.19 223.065 114.614 222.534 114.903 221.841C115.193 221.148 115.338 220.318 115.338 219.352C115.338 218.409 115.196 217.577 114.912 216.855C114.628 216.134 114.207 215.568 113.651 215.159C113.094 214.75 112.406 214.545 111.588 214.545C110.736 214.545 110.026 214.761 109.457 215.193C108.895 215.625 108.472 216.205 108.188 216.932C107.909 217.659 107.77 218.466 107.77 219.352C107.77 220.261 107.912 221.065 108.196 221.764C108.486 222.457 108.912 223.003 109.474 223.401C110.043 223.793 110.747 223.989 111.588 223.989ZM126.315 226.273C125.134 226.273 124.097 225.991 123.205 225.429C122.318 224.866 121.625 224.08 121.125 223.068C120.631 222.057 120.384 220.875 120.384 219.523C120.384 218.159 120.631 216.969 121.125 215.952C121.625 214.935 122.318 214.145 123.205 213.582C124.097 213.02 125.134 212.739 126.315 212.739C127.497 212.739 128.531 213.02 129.418 213.582C130.31 214.145 131.003 214.935 131.497 215.952C131.997 216.969 132.247 218.159 132.247 219.523C132.247 220.875 131.997 222.057 131.497 223.068C131.003 224.08 130.31 224.866 129.418 225.429C128.531 225.991 127.497 226.273 126.315 226.273ZM126.315 224.466C127.213 224.466 127.952 224.236 128.531 223.776C129.111 223.315 129.54 222.71 129.818 221.96C130.097 221.21 130.236 220.398 130.236 219.523C130.236 218.648 130.097 217.832 129.818 217.077C129.54 216.321 129.111 215.71 128.531 215.244C127.952 214.778 127.213 214.545 126.315 214.545C125.418 214.545 124.679 214.778 124.099 215.244C123.52 215.71 123.091 216.321 122.812 217.077C122.534 217.832 122.395 218.648 122.395 219.523C122.395 220.398 122.534 221.21 122.812 221.96C123.091 222.71 123.52 223.315 124.099 223.776C124.679 224.236 125.418 224.466 126.315 224.466ZM135.317 226V212.909H137.261V214.886H137.397C137.636 214.239 138.067 213.713 138.692 213.31C139.317 212.906 140.022 212.705 140.806 212.705C140.954 212.705 141.138 212.707 141.36 212.713C141.582 212.719 141.749 212.727 141.863 212.739V214.784C141.795 214.767 141.638 214.741 141.394 214.707C141.156 214.668 140.903 214.648 140.636 214.648C139.999 214.648 139.431 214.781 138.931 215.048C138.437 215.31 138.045 215.673 137.755 216.139C137.471 216.599 137.329 217.125 137.329 217.716V226H135.317ZM145.941 230.909C145.6 230.909 145.296 230.881 145.029 230.824C144.762 230.773 144.577 230.722 144.475 230.67L144.987 228.898C145.475 229.023 145.907 229.068 146.282 229.034C146.657 229 146.989 228.832 147.279 228.531C147.575 228.236 147.844 227.756 148.089 227.091L148.464 226.068L143.623 212.909H145.805L149.418 223.341H149.555L153.168 212.909H155.35L149.793 227.909C149.543 228.585 149.234 229.145 148.864 229.588C148.495 230.037 148.066 230.369 147.577 230.585C147.094 230.801 146.549 230.909 145.941 230.909Z" fill="white"/>
<g filter="url(#filter4_bi_195_8198)">
<rect x="30" y="269.127" width="532" height="183.958" rx="10" fill="url(#paint8_linear_195_8198)" fill-opacity="0.6"/>
<rect x="30.5" y="269.627" width="531" height="182.958" rx="9.5" stroke="url(#paint9_linear_195_8198)" stroke-opacity="0.6"/>
</g>
<path d="M53.8295 307.221H51.6136L58.0227 289.766H60.2045L66.6136 307.221H64.3977L59.1818 292.528H59.0455L53.8295 307.221ZM54.6477 300.403H63.5795V302.278H54.6477V300.403ZM69.0597 307.221V294.13H71.0028V296.107H71.1392C71.3778 295.459 71.8097 294.934 72.4347 294.53C73.0597 294.127 73.7642 293.925 74.5483 293.925C74.696 293.925 74.8807 293.928 75.1023 293.934C75.3239 293.939 75.4915 293.948 75.6051 293.959V296.005C75.5369 295.988 75.3807 295.962 75.1364 295.928C74.8977 295.888 74.6449 295.868 74.3778 295.868C73.7415 295.868 73.1733 296.002 72.6733 296.269C72.179 296.53 71.7869 296.894 71.4972 297.36C71.2131 297.82 71.071 298.346 71.071 298.937V307.221H69.0597ZM84.5028 294.13V295.834H77.7188V294.13H84.5028ZM79.696 290.993H81.7074V303.471C81.7074 304.039 81.7898 304.465 81.9545 304.749C82.125 305.028 82.3409 305.215 82.6023 305.312C82.8693 305.403 83.1506 305.448 83.446 305.448C83.6676 305.448 83.8494 305.437 83.9915 305.414C84.1335 305.385 84.2472 305.363 84.3324 305.346L84.7415 307.153C84.6051 307.204 84.4148 307.255 84.1705 307.306C83.9261 307.363 83.6165 307.391 83.2415 307.391C82.6733 307.391 82.1165 307.269 81.571 307.025C81.0313 306.78 80.5824 306.408 80.2244 305.908C79.8722 305.408 79.696 304.778 79.696 304.016V290.993ZM87.5284 307.221V294.13H89.5398V307.221H87.5284ZM88.5511 291.948C88.1591 291.948 87.821 291.814 87.5369 291.547C87.2585 291.28 87.1193 290.959 87.1193 290.584C87.1193 290.209 87.2585 289.888 87.5369 289.621C87.821 289.354 88.1591 289.221 88.5511 289.221C88.9432 289.221 89.2784 289.354 89.5568 289.621C89.8409 289.888 89.983 290.209 89.983 290.584C89.983 290.959 89.8409 291.28 89.5568 291.547C89.2784 291.814 88.9432 291.948 88.5511 291.948ZM98.5419 307.493C97.3146 307.493 96.2578 307.204 95.3714 306.624C94.4851 306.045 93.8033 305.246 93.326 304.229C92.8487 303.212 92.6101 302.05 92.6101 300.743C92.6101 299.414 92.8544 298.241 93.343 297.224C93.8374 296.201 94.5249 295.403 95.4055 294.829C96.2919 294.249 97.326 293.959 98.5078 293.959C99.4283 293.959 100.258 294.13 100.996 294.471C101.735 294.812 102.34 295.289 102.812 295.903C103.283 296.516 103.576 297.232 103.69 298.05H101.678C101.525 297.454 101.184 296.925 100.656 296.465C100.133 295.999 99.4283 295.766 98.5419 295.766C97.7578 295.766 97.0703 295.971 96.4794 296.38C95.8942 296.783 95.4368 297.354 95.1072 298.093C94.7834 298.826 94.6214 299.687 94.6214 300.675C94.6214 301.687 94.7805 302.567 95.0987 303.317C95.4226 304.067 95.8771 304.65 96.4624 305.064C97.0533 305.479 97.7464 305.687 98.5419 305.687C99.0646 305.687 99.5391 305.596 99.9652 305.414C100.391 305.232 100.752 304.971 101.048 304.63C101.343 304.289 101.553 303.88 101.678 303.403H103.69C103.576 304.175 103.295 304.871 102.846 305.491C102.403 306.104 101.815 306.593 101.082 306.956C100.354 307.314 99.5078 307.493 98.5419 307.493ZM108.641 289.766V307.221H106.63V289.766H108.641ZM117.814 307.493C116.553 307.493 115.464 307.215 114.55 306.658C113.641 306.096 112.939 305.312 112.445 304.306C111.956 303.295 111.712 302.118 111.712 300.778C111.712 299.437 111.956 298.255 112.445 297.232C112.939 296.204 113.626 295.403 114.507 294.829C115.393 294.249 116.428 293.959 117.609 293.959C118.291 293.959 118.964 294.073 119.629 294.3C120.294 294.528 120.899 294.897 121.445 295.408C121.99 295.914 122.425 296.584 122.749 297.42C123.072 298.255 123.234 299.283 123.234 300.505V301.357H113.143V299.618H121.189C121.189 298.88 121.041 298.221 120.746 297.641C120.456 297.062 120.041 296.604 119.501 296.269C118.967 295.934 118.337 295.766 117.609 295.766C116.808 295.766 116.115 295.965 115.53 296.363C114.95 296.755 114.504 297.266 114.192 297.897C113.879 298.528 113.723 299.204 113.723 299.925V301.084C113.723 302.073 113.893 302.911 114.234 303.599C114.581 304.28 115.061 304.8 115.675 305.158C116.288 305.51 117.001 305.687 117.814 305.687C118.342 305.687 118.82 305.613 119.246 305.465C119.678 305.312 120.05 305.084 120.362 304.783C120.675 304.476 120.916 304.096 121.087 303.641L123.03 304.187C122.825 304.846 122.482 305.425 121.999 305.925C121.516 306.42 120.919 306.806 120.209 307.084C119.499 307.357 118.7 307.493 117.814 307.493ZM137.987 307.493C136.896 307.493 135.933 307.218 135.098 306.667C134.263 306.11 133.609 305.326 133.138 304.314C132.666 303.297 132.43 302.096 132.43 300.709C132.43 299.334 132.666 298.141 133.138 297.13C133.609 296.118 134.266 295.337 135.107 294.786C135.947 294.235 136.919 293.959 138.021 293.959C138.874 293.959 139.547 294.101 140.041 294.385C140.541 294.664 140.922 294.982 141.183 295.34C141.45 295.692 141.658 295.982 141.805 296.209H141.976V289.766H143.987V307.221H142.044V305.209H141.805C141.658 305.448 141.447 305.749 141.175 306.113C140.902 306.471 140.513 306.792 140.007 307.076C139.501 307.354 138.828 307.493 137.987 307.493ZM138.26 305.687C139.067 305.687 139.749 305.476 140.305 305.056C140.862 304.63 141.286 304.042 141.575 303.292C141.865 302.536 142.01 301.664 142.01 300.675C142.01 299.698 141.868 298.843 141.584 298.11C141.3 297.371 140.879 296.797 140.322 296.388C139.766 295.974 139.078 295.766 138.26 295.766C137.408 295.766 136.697 295.985 136.129 296.422C135.567 296.854 135.143 297.442 134.859 298.187C134.581 298.925 134.442 299.755 134.442 300.675C134.442 301.607 134.584 302.454 134.868 303.215C135.158 303.971 135.584 304.573 136.146 305.022C136.714 305.465 137.419 305.687 138.26 305.687ZM153.439 307.493C152.178 307.493 151.089 307.215 150.175 306.658C149.266 306.096 148.564 305.312 148.07 304.306C147.581 303.295 147.337 302.118 147.337 300.778C147.337 299.437 147.581 298.255 148.07 297.232C148.564 296.204 149.251 295.403 150.132 294.829C151.018 294.249 152.053 293.959 153.234 293.959C153.916 293.959 154.589 294.073 155.254 294.3C155.919 294.528 156.524 294.897 157.07 295.408C157.615 295.914 158.05 296.584 158.374 297.42C158.697 298.255 158.859 299.283 158.859 300.505V301.357H148.768V299.618H156.814C156.814 298.88 156.666 298.221 156.371 297.641C156.081 297.062 155.666 296.604 155.126 296.269C154.592 295.934 153.962 295.766 153.234 295.766C152.433 295.766 151.74 295.965 151.155 296.363C150.575 296.755 150.129 297.266 149.817 297.897C149.504 298.528 149.348 299.204 149.348 299.925V301.084C149.348 302.073 149.518 302.911 149.859 303.599C150.206 304.28 150.686 304.8 151.3 305.158C151.913 305.51 152.626 305.687 153.439 305.687C153.967 305.687 154.445 305.613 154.871 305.465C155.303 305.312 155.675 305.084 155.987 304.783C156.3 304.476 156.541 304.096 156.712 303.641L158.655 304.187C158.45 304.846 158.107 305.425 157.624 305.925C157.141 306.42 156.544 306.806 155.834 307.084C155.124 307.357 154.325 307.493 153.439 307.493ZM171.192 297.062L169.385 297.573C169.271 297.272 169.104 296.979 168.882 296.695C168.666 296.405 168.371 296.167 167.996 295.979C167.621 295.792 167.141 295.698 166.555 295.698C165.754 295.698 165.087 295.883 164.553 296.252C164.024 296.616 163.76 297.079 163.76 297.641C163.76 298.141 163.942 298.536 164.305 298.826C164.669 299.116 165.237 299.357 166.01 299.55L167.953 300.028C169.124 300.312 169.996 300.746 170.57 301.331C171.143 301.911 171.43 302.658 171.43 303.573C171.43 304.323 171.214 304.993 170.783 305.584C170.357 306.175 169.76 306.641 168.993 306.982C168.226 307.323 167.334 307.493 166.317 307.493C164.982 307.493 163.876 307.204 163.001 306.624C162.126 306.045 161.572 305.198 161.339 304.084L163.249 303.607C163.43 304.312 163.774 304.84 164.28 305.192C164.791 305.545 165.459 305.721 166.283 305.721C167.22 305.721 167.964 305.522 168.516 305.124C169.072 304.721 169.351 304.238 169.351 303.675C169.351 303.221 169.192 302.84 168.874 302.533C168.555 302.221 168.067 301.988 167.408 301.834L165.226 301.323C164.027 301.039 163.146 300.599 162.584 300.002C162.027 299.4 161.749 298.647 161.749 297.743C161.749 297.005 161.956 296.351 162.371 295.783C162.791 295.215 163.362 294.769 164.084 294.445C164.811 294.121 165.635 293.959 166.555 293.959C167.851 293.959 168.868 294.243 169.607 294.812C170.351 295.38 170.879 296.13 171.192 297.062ZM179.776 307.493C178.549 307.493 177.492 307.204 176.606 306.624C175.719 306.045 175.038 305.246 174.56 304.229C174.083 303.212 173.844 302.05 173.844 300.743C173.844 299.414 174.089 298.241 174.577 297.224C175.072 296.201 175.759 295.403 176.64 294.829C177.526 294.249 178.56 293.959 179.742 293.959C180.663 293.959 181.492 294.13 182.231 294.471C182.969 294.812 183.575 295.289 184.046 295.903C184.518 296.516 184.81 297.232 184.924 298.05H182.913C182.759 297.454 182.418 296.925 181.89 296.465C181.367 295.999 180.663 295.766 179.776 295.766C178.992 295.766 178.305 295.971 177.714 296.38C177.129 296.783 176.671 297.354 176.342 298.093C176.018 298.826 175.856 299.687 175.856 300.675C175.856 301.687 176.015 302.567 176.333 303.317C176.657 304.067 177.112 304.65 177.697 305.064C178.288 305.479 178.981 305.687 179.776 305.687C180.299 305.687 180.773 305.596 181.2 305.414C181.626 305.232 181.987 304.971 182.282 304.63C182.577 304.289 182.788 303.88 182.913 303.403H184.924C184.81 304.175 184.529 304.871 184.08 305.491C183.637 306.104 183.049 306.593 182.316 306.956C181.589 307.314 180.742 307.493 179.776 307.493ZM187.864 307.221V294.13H189.808V296.107H189.944C190.183 295.459 190.614 294.934 191.239 294.53C191.864 294.127 192.569 293.925 193.353 293.925C193.501 293.925 193.685 293.928 193.907 293.934C194.129 293.939 194.296 293.948 194.41 293.959V296.005C194.342 295.988 194.185 295.962 193.941 295.928C193.702 295.888 193.45 295.868 193.183 295.868C192.546 295.868 191.978 296.002 191.478 296.269C190.984 296.53 190.592 296.894 190.302 297.36C190.018 297.82 189.876 298.346 189.876 298.937V307.221H187.864ZM196.794 307.221V294.13H198.805V307.221H196.794ZM197.817 291.948C197.425 291.948 197.087 291.814 196.803 291.547C196.524 291.28 196.385 290.959 196.385 290.584C196.385 290.209 196.524 289.888 196.803 289.621C197.087 289.354 197.425 289.221 197.817 289.221C198.209 289.221 198.544 289.354 198.822 289.621C199.107 289.888 199.249 290.209 199.249 290.584C199.249 290.959 199.107 291.28 198.822 291.547C198.544 291.814 198.209 291.948 197.817 291.948ZM202.489 312.13V294.13H204.433V296.209H204.671C204.819 295.982 205.023 295.692 205.285 295.34C205.552 294.982 205.933 294.664 206.427 294.385C206.927 294.101 207.603 293.959 208.455 293.959C209.558 293.959 210.529 294.235 211.37 294.786C212.211 295.337 212.867 296.118 213.339 297.13C213.81 298.141 214.046 299.334 214.046 300.709C214.046 302.096 213.81 303.297 213.339 304.314C212.867 305.326 212.214 306.11 211.379 306.667C210.543 307.218 209.58 307.493 208.489 307.493C207.648 307.493 206.975 307.354 206.469 307.076C205.964 306.792 205.575 306.471 205.302 306.113C205.029 305.749 204.819 305.448 204.671 305.209H204.501V312.13H202.489ZM204.467 300.675C204.467 301.664 204.612 302.536 204.901 303.292C205.191 304.042 205.614 304.63 206.171 305.056C206.728 305.476 207.41 305.687 208.217 305.687C209.058 305.687 209.759 305.465 210.322 305.022C210.89 304.573 211.316 303.971 211.6 303.215C211.89 302.454 212.035 301.607 212.035 300.675C212.035 299.755 211.893 298.925 211.609 298.187C211.33 297.442 210.907 296.854 210.339 296.422C209.776 295.985 209.069 295.766 208.217 295.766C207.398 295.766 206.711 295.974 206.154 296.388C205.597 296.797 205.177 297.371 204.893 298.11C204.609 298.843 204.467 299.698 204.467 300.675ZM222.808 294.13V295.834H216.023V294.13H222.808ZM218.001 290.993H220.012V303.471C220.012 304.039 220.094 304.465 220.259 304.749C220.43 305.028 220.646 305.215 220.907 305.312C221.174 305.403 221.455 305.448 221.751 305.448C221.972 305.448 222.154 305.437 222.296 305.414C222.438 305.385 222.552 305.363 222.637 305.346L223.046 307.153C222.91 307.204 222.719 307.255 222.475 307.306C222.231 307.363 221.921 307.391 221.546 307.391C220.978 307.391 220.421 307.269 219.876 307.025C219.336 306.78 218.887 306.408 218.529 305.908C218.177 305.408 218.001 304.778 218.001 304.016V290.993ZM225.833 307.221V294.13H227.844V307.221H225.833ZM226.856 291.948C226.464 291.948 226.126 291.814 225.842 291.547C225.563 291.28 225.424 290.959 225.424 290.584C225.424 290.209 225.563 289.888 225.842 289.621C226.126 289.354 226.464 289.221 226.856 289.221C227.248 289.221 227.583 289.354 227.862 289.621C228.146 289.888 228.288 290.209 228.288 290.584C228.288 290.959 228.146 291.28 227.862 291.547C227.583 291.814 227.248 291.948 226.856 291.948ZM236.847 307.493C235.665 307.493 234.628 307.212 233.736 306.65C232.849 306.087 232.156 305.3 231.656 304.289C231.162 303.278 230.915 302.096 230.915 300.743C230.915 299.38 231.162 298.189 231.656 297.172C232.156 296.155 232.849 295.366 233.736 294.803C234.628 294.241 235.665 293.959 236.847 293.959C238.028 293.959 239.063 294.241 239.949 294.803C240.841 295.366 241.534 296.155 242.028 297.172C242.528 298.189 242.778 299.38 242.778 300.743C242.778 302.096 242.528 303.278 242.028 304.289C241.534 305.3 240.841 306.087 239.949 306.65C239.063 307.212 238.028 307.493 236.847 307.493ZM236.847 305.687C237.744 305.687 238.483 305.456 239.062 304.996C239.642 304.536 240.071 303.931 240.349 303.181C240.628 302.431 240.767 301.618 240.767 300.743C240.767 299.868 240.628 299.053 240.349 298.297C240.071 297.542 239.642 296.931 239.062 296.465C238.483 295.999 237.744 295.766 236.847 295.766C235.949 295.766 235.21 295.999 234.631 296.465C234.051 296.931 233.622 297.542 233.344 298.297C233.065 299.053 232.926 299.868 232.926 300.743C232.926 301.618 233.065 302.431 233.344 303.181C233.622 303.931 234.051 304.536 234.631 304.996C235.21 305.456 235.949 305.687 236.847 305.687ZM247.86 299.346V307.221H245.849V294.13H247.792V296.175H247.962C248.269 295.51 248.735 294.976 249.36 294.573C249.985 294.164 250.792 293.959 251.781 293.959C252.667 293.959 253.442 294.141 254.107 294.505C254.772 294.863 255.289 295.408 255.658 296.141C256.028 296.868 256.212 297.789 256.212 298.903V307.221H254.201V299.039C254.201 298.01 253.934 297.209 253.4 296.635C252.866 296.056 252.133 295.766 251.201 295.766C250.559 295.766 249.985 295.905 249.479 296.184C248.979 296.462 248.585 296.868 248.295 297.403C248.005 297.937 247.86 298.584 247.86 299.346Z" fill="white"/>
<line y1="-2.71429" x2="23.7655" y2="-2.71429" transform="matrix(0.68538 0.73682 -0.664614 0.738673 510 209)" stroke="white" stroke-width="5.42857"/>
<line y1="-2.71429" x2="23.7655" y2="-2.71429" transform="matrix(-0.664429 0.738841 0.685199 0.736988 542.074 208.955)" stroke="white" stroke-width="5.42857"/>
<g filter="url(#filter5_b_195_8198)">
<path d="M194 504C194 498.477 198.477 494 204 494H387C392.523 494 397 498.477 397 504V541.84C397 547.363 392.523 551.84 387 551.84H204C198.477 551.84 194 547.363 194 541.84V504Z" fill="url(#paint10_linear_195_8198)" fill-opacity="0.6"/>
<path d="M194.5 504C194.5 498.753 198.753 494.5 204 494.5H387C392.247 494.5 396.5 498.753 396.5 504V541.84C396.5 547.087 392.247 551.34 387 551.34H204C198.753 551.34 194.5 547.087 194.5 541.84V504Z" stroke="url(#paint11_linear_195_8198)" stroke-opacity="0.6"/>
</g>
<path d="M279.55 516.909C279.447 516.045 279.033 515.375 278.305 514.898C277.578 514.42 276.686 514.182 275.629 514.182C274.857 514.182 274.18 514.307 273.601 514.557C273.027 514.807 272.578 515.151 272.254 515.588C271.936 516.026 271.777 516.523 271.777 517.08C271.777 517.545 271.888 517.946 272.109 518.281C272.337 518.611 272.626 518.886 272.979 519.108C273.331 519.324 273.7 519.503 274.087 519.645C274.473 519.781 274.828 519.892 275.152 519.977L276.925 520.455C277.379 520.574 277.885 520.739 278.442 520.949C279.004 521.159 279.541 521.446 280.053 521.81C280.57 522.168 280.996 522.628 281.331 523.19C281.666 523.753 281.834 524.443 281.834 525.261C281.834 526.205 281.587 527.057 281.092 527.818C280.604 528.58 279.888 529.185 278.945 529.634C278.007 530.082 276.868 530.307 275.527 530.307C274.277 530.307 273.195 530.105 272.28 529.702C271.371 529.298 270.655 528.736 270.132 528.014C269.615 527.293 269.322 526.455 269.254 525.5H271.436C271.493 526.159 271.714 526.705 272.101 527.136C272.493 527.562 272.987 527.881 273.584 528.091C274.186 528.295 274.834 528.398 275.527 528.398C276.334 528.398 277.058 528.267 277.7 528.006C278.342 527.739 278.851 527.369 279.226 526.898C279.601 526.42 279.788 525.864 279.788 525.227C279.788 524.648 279.626 524.176 279.303 523.812C278.979 523.449 278.553 523.153 278.024 522.926C277.496 522.699 276.925 522.5 276.311 522.33L274.163 521.716C272.8 521.324 271.72 520.764 270.925 520.037C270.129 519.31 269.732 518.358 269.732 517.182C269.732 516.205 269.996 515.352 270.524 514.625C271.058 513.892 271.774 513.324 272.672 512.92C273.575 512.511 274.584 512.307 275.697 512.307C276.822 512.307 277.822 512.509 278.697 512.912C279.572 513.31 280.266 513.855 280.777 514.548C281.294 515.241 281.567 516.028 281.595 516.909H279.55ZM288.888 530.307C288.059 530.307 287.306 530.151 286.63 529.838C285.954 529.52 285.417 529.062 285.019 528.466C284.621 527.864 284.423 527.136 284.423 526.284C284.423 525.534 284.57 524.926 284.866 524.46C285.161 523.989 285.556 523.619 286.05 523.352C286.545 523.085 287.09 522.886 287.687 522.756C288.289 522.619 288.894 522.511 289.502 522.432C290.298 522.33 290.942 522.253 291.437 522.202C291.937 522.145 292.3 522.051 292.528 521.92C292.761 521.79 292.877 521.562 292.877 521.239V521.17C292.877 520.33 292.647 519.676 292.187 519.21C291.732 518.744 291.042 518.511 290.116 518.511C289.156 518.511 288.403 518.722 287.857 519.142C287.312 519.562 286.928 520.011 286.707 520.489L284.798 519.807C285.138 519.011 285.593 518.392 286.161 517.949C286.735 517.5 287.36 517.187 288.036 517.011C288.718 516.83 289.388 516.739 290.048 516.739C290.468 516.739 290.951 516.79 291.496 516.892C292.048 516.989 292.579 517.19 293.09 517.497C293.607 517.804 294.036 518.267 294.377 518.886C294.718 519.506 294.888 520.335 294.888 521.375V530H292.877V528.227H292.775C292.638 528.511 292.411 528.815 292.093 529.139C291.775 529.463 291.352 529.739 290.823 529.966C290.295 530.193 289.65 530.307 288.888 530.307ZM289.195 528.5C289.991 528.5 290.661 528.344 291.207 528.031C291.758 527.719 292.173 527.315 292.451 526.821C292.735 526.327 292.877 525.807 292.877 525.261V523.42C292.792 523.523 292.604 523.616 292.315 523.702C292.031 523.781 291.701 523.852 291.326 523.915C290.957 523.972 290.596 524.023 290.244 524.068C289.897 524.108 289.616 524.142 289.4 524.17C288.877 524.239 288.388 524.349 287.934 524.503C287.485 524.651 287.121 524.875 286.843 525.176C286.57 525.472 286.434 525.875 286.434 526.386C286.434 527.085 286.692 527.614 287.21 527.972C287.732 528.324 288.394 528.5 289.195 528.5ZM308.795 516.909L303.955 530H301.909L297.068 516.909H299.25L302.864 527.341H303L306.614 516.909H308.795ZM316.47 530.273C315.209 530.273 314.121 529.994 313.206 529.438C312.297 528.875 311.595 528.091 311.101 527.085C310.612 526.074 310.368 524.898 310.368 523.557C310.368 522.216 310.612 521.034 311.101 520.011C311.595 518.983 312.283 518.182 313.163 517.608C314.05 517.028 315.084 516.739 316.266 516.739C316.947 516.739 317.621 516.852 318.286 517.08C318.95 517.307 319.555 517.676 320.101 518.188C320.646 518.693 321.081 519.364 321.405 520.199C321.729 521.034 321.891 522.062 321.891 523.284V524.136H311.8V522.398H319.845C319.845 521.659 319.697 521 319.402 520.42C319.112 519.841 318.697 519.384 318.158 519.048C317.624 518.713 316.993 518.545 316.266 518.545C315.464 518.545 314.771 518.744 314.186 519.142C313.607 519.534 313.161 520.045 312.848 520.676C312.536 521.307 312.379 521.983 312.379 522.705V523.864C312.379 524.852 312.55 525.69 312.891 526.378C313.237 527.06 313.717 527.58 314.331 527.938C314.945 528.29 315.658 528.466 316.47 528.466C316.999 528.466 317.476 528.392 317.902 528.244C318.334 528.091 318.706 527.864 319.018 527.562C319.331 527.256 319.572 526.875 319.743 526.42L321.686 526.966C321.482 527.625 321.138 528.205 320.655 528.705C320.172 529.199 319.575 529.585 318.865 529.864C318.155 530.136 317.357 530.273 316.47 530.273Z" fill="white"/>
<path d="M43.5417 489.959H46.25C47.6866 489.959 49.0643 489.388 50.0802 488.372C51.096 487.357 51.6667 485.979 51.6667 484.542C51.6667 483.824 51.952 483.135 52.4599 482.627C52.9678 482.119 53.6567 481.834 54.375 481.834H70.625C71.3433 481.834 72.0322 482.119 72.5401 482.627C73.048 483.135 73.3333 483.824 73.3333 484.542C73.3333 485.979 73.904 487.357 74.9198 488.372C75.9357 489.388 77.3134 489.959 78.75 489.959H81.4583C82.8949 489.959 84.2727 490.53 85.2885 491.545C86.3043 492.561 86.875 493.939 86.875 495.376V519.751C86.875 521.187 86.3043 522.565 85.2885 523.581C84.2727 524.597 82.8949 525.167 81.4583 525.167H43.5417C42.1051 525.167 40.7273 524.597 39.7115 523.581C38.6957 522.565 38.125 521.187 38.125 519.751V495.376C38.125 493.939 38.6957 492.561 39.7115 491.545C40.7273 490.53 42.1051 489.959 43.5417 489.959" stroke="white" stroke-width="3.66667" stroke-linecap="round" stroke-linejoin="round"/>
<path d="M62.5 514.334C66.9873 514.334 70.625 510.696 70.625 506.209C70.625 501.722 66.9873 498.084 62.5 498.084C58.0127 498.084 54.375 501.722 54.375 506.209C54.375 510.696 58.0127 514.334 62.5 514.334Z" stroke="white" stroke-width="3.66667" stroke-linecap="round" stroke-linejoin="round"/>
<defs>
<filter id="filter0_bd_195_8198" x="-96" y="-88" width="784" height="767" filterUnits="userSpaceOnUse" color-interpolation-filters="sRGB">
<feFlood flood-opacity="0" result="BackgroundImageFix"/>
<feGaussianBlur in="BackgroundImage" stdDeviation="50"/>
<feComposite in2="SourceAlpha" operator="in" result="effect1_backgroundBlur_195_8198"/>
<feColorMatrix in="SourceAlpha" type="matrix" values="0 0 0 0 0 0 0 0 0 0 0 0 0 0 0 0 0 0 127 0" result="hardAlpha"/>
<feOffset dy="4"/>
<feGaussianBlur stdDeviation="2"/>
<feComposite in2="hardAlpha" operator="out"/>
<feColorMatrix type="matrix" values="0 0 0 0 0 0 0 0 0 0 0 0 0 0 0 0 0 0 0.25 0"/>
<feBlend mode="normal" in2="effect1_backgroundBlur_195_8198" result="effect2_dropShadow_195_8198"/>
<feBlend mode="normal" in="SourceGraphic" in2="effect2_dropShadow_195_8198" result="shape"/>
</filter>
<filter id="filter1_bd_195_8198" x="-146" y="-150" width="884" height="351" filterUnits="userSpaceOnUse" color-interpolation-filters="sRGB">
<feFlood flood-opacity="0" result="BackgroundImageFix"/>
<feGaussianBlur in="BackgroundImage" stdDeviation="75"/>
<feComposite in2="SourceAlpha" operator="in" result="effect1_backgroundBlur_195_8198"/>
<feColorMatrix in="SourceAlpha" type="matrix" values="0 0 0 0 0 0 0 0 0 0 0 0 0 0 0 0 0 0 127 0" result="hardAlpha"/>
<feOffset dy="4"/>
<feGaussianBlur stdDeviation="2"/>
<feComposite in2="hardAlpha" operator="out"/>
<feColorMatrix type="matrix" values="0 0 0 0 0 0 0 0 0 0 0 0 0 0 0 0 0 0 0.25 0"/>
<feBlend mode="normal" in2="effect1_backgroundBlur_195_8198" result="effect2_dropShadow_195_8198"/>
<feBlend mode="normal" in="SourceGraphic" in2="effect2_dropShadow_195_8198" result="shape"/>
</filter>
<filter id="filter2_bi_195_8198" x="-170" y="-94" width="932" height="467.449" filterUnits="userSpaceOnUse" color-interpolation-filters="sRGB">
<feFlood flood-opacity="0" result="BackgroundImageFix"/>
<feGaussianBlur in="BackgroundImage" stdDeviation="100"/>
<feComposite in2="SourceAlpha" operator="in" result="effect1_backgroundBlur_195_8198"/>
<feBlend mode="normal" in="SourceGraphic" in2="effect1_backgroundBlur_195_8198" result="shape"/>
<feColorMatrix in="SourceAlpha" type="matrix" values="0 0 0 0 0 0 0 0 0 0 0 0 0 0 0 0 0 0 127 0" result="hardAlpha"/>
<feOffset dy="4"/>
<feGaussianBlur stdDeviation="2"/>
<feComposite in2="hardAlpha" operator="arithmetic" k2="-1" k3="1"/>
<feColorMatrix type="matrix" values="0 0 0 0 0 0 0 0 0 0 0 0 0 0 0 0 0 0 0.25 0"/>
<feBlend mode="normal" in2="shape" result="effect2_innerShadow_195_8198"/>
</filter>
<filter id="filter3_bi_195_8198" x="-170" y="-16" width="932" height="467.449" filterUnits="userSpaceOnUse" color-interpolation-filters="sRGB">
<feFlood flood-opacity="0" result="BackgroundImageFix"/>
<feGaussianBlur in="BackgroundImage" stdDeviation="100"/>
<feComposite in2="SourceAlpha" operator="in" result="effect1_backgroundBlur_195_8198"/>
<feBlend mode="normal" in="SourceGraphic" in2="effect1_backgroundBlur_195_8198" result="shape"/>
<feColorMatrix in="SourceAlpha" type="matrix" values="0 0 0 0 0 0 0 0 0 0 0 0 0 0 0 0 0 0 127 0" result="hardAlpha"/>
<feOffset dy="4"/>
<feGaussianBlur stdDeviation="2"/>
<feComposite in2="hardAlpha" operator="arithmetic" k2="-1" k3="1"/>
<feColorMatrix type="matrix" values="0 0 0 0 0 0 0 0 0 0 0 0 0 0 0 0 0 0 0.25 0"/>
<feBlend mode="normal" in2="shape" result="effect2_innerShadow_195_8198"/>
</filter>
<filter id="filter4_bi_195_8198" x="-170" y="69.127" width="932" height="583.957" filterUnits="userSpaceOnUse" color-interpolation-filters="sRGB">
<feFlood flood-opacity="0" result="BackgroundImageFix"/>
<feGaussianBlur in="BackgroundImage" stdDeviation="100"/>
<feComposite in2="SourceAlpha" operator="in" result="effect1_backgroundBlur_195_8198"/>
<feBlend mode="normal" in="SourceGraphic" in2="effect1_backgroundBlur_195_8198" result="shape"/>
<feColorMatrix in="SourceAlpha" type="matrix" values="0 0 0 0 0 0 0 0 0 0 0 0 0 0 0 0 0 0 127 0" result="hardAlpha"/>
<feOffset dy="4"/>
<feGaussianBlur stdDeviation="2"/>
<feComposite in2="hardAlpha" operator="arithmetic" k2="-1" k3="1"/>
<feColorMatrix type="matrix" values="0 0 0 0 0 0 0 0 0 0 0 0 0 0 0 0 0 0 0.25 0"/>
<feBlend mode="normal" in2="shape" result="effect2_innerShadow_195_8198"/>
</filter>
<filter id="filter5_b_195_8198" x="-6" y="294" width="603" height="457.84" filterUnits="userSpaceOnUse" color-interpolation-filters="sRGB">
<feFlood flood-opacity="0" result="BackgroundImageFix"/>
<feGaussianBlur in="BackgroundImage" stdDeviation="100"/>
<feComposite in2="SourceAlpha" operator="in" result="effect1_backgroundBlur_195_8198"/>
<feBlend mode="normal" in="SourceGraphic" in2="effect1_backgroundBlur_195_8198" result="shape"/>
</filter>
<linearGradient id="paint0_linear_195_8198" x1="4" y1="12" x2="695.798" y2="312.946" gradientUnits="userSpaceOnUse">
<stop stop-color="#D9D9D9" stop-opacity="0.8"/>
<stop offset="1" stop-color="#D9D9D9" stop-opacity="0.2"/>
</linearGradient>
<linearGradient id="paint1_linear_195_8198" x1="4" y1="12" x2="702.537" y2="314.572" gradientUnits="userSpaceOnUse">
<stop offset="0.00346385" stop-color="white"/>
<stop offset="1" stop-color="white" stop-opacity="0"/>
</linearGradient>
<linearGradient id="paint2_linear_195_8198" x1="4" y1="0" x2="37.7307" y2="163.135" gradientUnits="userSpaceOnUse">
<stop stop-color="#D9D9D9" stop-opacity="0.8"/>
<stop offset="1" stop-color="#D9D9D9" stop-opacity="0.2"/>
</linearGradient>
<linearGradient id="paint3_linear_195_8198" x1="4" y1="0" x2="38.2948" y2="165.151" gradientUnits="userSpaceOnUse">
<stop offset="0.00346385" stop-color="white"/>
<stop offset="1" stop-color="white" stop-opacity="0"/>
</linearGradient>
<linearGradient id="paint4_linear_195_8198" x1="30" y1="106" x2="91.9525" y2="312.38" gradientUnits="userSpaceOnUse">
<stop stop-color="#D9D9D9" stop-opacity="0.8"/>
<stop offset="1" stop-color="#D9D9D9" stop-opacity="0.6"/>
</linearGradient>
<linearGradient id="paint5_linear_195_8198" x1="30" y1="106" x2="92.9659" y2="314.855" gradientUnits="userSpaceOnUse">
<stop offset="0.00346385" stop-color="white"/>
<stop offset="1" stop-color="white" stop-opacity="0"/>
</linearGradient>
<linearGradient id="paint6_linear_195_8198" x1="30" y1="184" x2="91.9525" y2="390.38" gradientUnits="userSpaceOnUse">
<stop stop-color="#D9D9D9" stop-opacity="0.8"/>
<stop offset="1" stop-color="#D9D9D9" stop-opacity="0.6"/>
</linearGradient>
<linearGradient id="paint7_linear_195_8198" x1="30" y1="184" x2="92.9659" y2="392.855" gradientUnits="userSpaceOnUse">
<stop offset="0.00346385" stop-color="white"/>
<stop offset="1" stop-color="white" stop-opacity="0"/>
</linearGradient>
<linearGradient id="paint8_linear_195_8198" x1="30" y1="269.127" x2="330.756" y2="636.483" gradientUnits="userSpaceOnUse">
<stop stop-color="#D9D9D9" stop-opacity="0.8"/>
<stop offset="1" stop-color="#D9D9D9" stop-opacity="0.6"/>
</linearGradient>
<linearGradient id="paint9_linear_195_8198" x1="30" y1="269.127" x2="334.837" y2="639.867" gradientUnits="userSpaceOnUse">
<stop offset="0.00346385" stop-color="white"/>
<stop offset="1" stop-color="white" stop-opacity="0"/>
</linearGradient>
<linearGradient id="paint10_linear_195_8198" x1="194" y1="494" x2="283.443" y2="626.585" gradientUnits="userSpaceOnUse">
<stop stop-color="#D9D9D9" stop-opacity="0.8"/>
<stop offset="1" stop-color="#D9D9D9" stop-opacity="0.6"/>
</linearGradient>
<linearGradient id="paint11_linear_195_8198" x1="194" y1="494" x2="284.726" y2="627.908" gradientUnits="userSpaceOnUse">
<stop offset="0.00346385" stop-color="white"/>
<stop offset="1" stop-color="white" stop-opacity="0"/>
</linearGradient>
</defs>
</svg>
