<svg width="33" height="10" viewBox="0 0 33 10" fill="none" xmlns="http://www.w3.org/2000/svg">
<path d="M1.11364 0.272727V9H0.0568182V0.272727H1.11364ZM11.1076 3.92045L10.2042 4.17614C10.1474 4.02557 10.0636 3.87926 9.95277 3.73722C9.84482 3.59233 9.69709 3.47301 9.50959 3.37926C9.32209 3.28551 9.08203 3.23864 8.78942 3.23864C8.38885 3.23864 8.05504 3.33097 7.788 3.51562C7.52379 3.69744 7.39169 3.92898 7.39169 4.21023C7.39169 4.46023 7.4826 4.65767 7.66442 4.80256C7.84624 4.94744 8.13033 5.06818 8.51669 5.16477L9.48828 5.40341C10.0735 5.54545 10.5096 5.76278 10.7965 6.0554C11.0835 6.34517 11.2269 6.71875 11.2269 7.17614C11.2269 7.55114 11.119 7.88636 10.9031 8.18182C10.69 8.47727 10.3917 8.71023 10.0082 8.88068C9.62464 9.05114 9.17862 9.13636 8.6701 9.13636C8.00249 9.13636 7.44993 8.99148 7.01243 8.7017C6.57493 8.41193 6.29794 7.98864 6.18146 7.43182L7.13601 7.19318C7.22692 7.54545 7.39879 7.80966 7.65163 7.9858C7.90732 8.16193 8.24112 8.25 8.65305 8.25C9.1218 8.25 9.49396 8.15057 9.76953 7.9517C10.0479 7.75 10.1871 7.50852 10.1871 7.22727C10.1871 7 10.1076 6.80966 9.94851 6.65625C9.78942 6.5 9.5451 6.38352 9.21555 6.30682L8.12464 6.05114C7.52521 5.90909 7.08487 5.68892 6.80362 5.39062C6.52521 5.08949 6.38601 4.71307 6.38601 4.26136C6.38601 3.89205 6.4897 3.56534 6.69709 3.28125C6.90732 2.99716 7.19283 2.77415 7.55362 2.61222C7.91726 2.45028 8.32919 2.36932 8.78942 2.36932C9.43714 2.36932 9.94567 2.51136 10.315 2.79545C10.6871 3.07955 10.9513 3.45455 11.1076 3.92045ZM15.4851 9.13636C14.8544 9.13636 14.3104 8.99716 13.853 8.71875C13.3984 8.4375 13.0476 8.04545 12.8004 7.54261C12.5561 7.03693 12.4339 6.44886 12.4339 5.77841C12.4339 5.10795 12.5561 4.51705 12.8004 4.00568C13.0476 3.49148 13.3913 3.09091 13.8317 2.80398C14.2749 2.5142 14.7919 2.36932 15.3828 2.36932C15.7237 2.36932 16.0604 2.42614 16.3928 2.53977C16.7251 2.65341 17.0277 2.83807 17.3004 3.09375C17.5732 3.34659 17.7905 3.68182 17.9524 4.09943C18.1143 4.51705 18.1953 5.03125 18.1953 5.64205V6.06818H13.1499V5.19886H17.1726C17.1726 4.82955 17.0987 4.5 16.951 4.21023C16.8061 3.92045 16.5987 3.69176 16.3288 3.52415C16.0618 3.35653 15.7464 3.27273 15.3828 3.27273C14.9822 3.27273 14.6357 3.37216 14.343 3.57102C14.0533 3.76705 13.8303 4.02273 13.674 4.33807C13.5178 4.65341 13.4396 4.99148 13.4396 5.35227V5.93182C13.4396 6.42614 13.5249 6.84517 13.6953 7.18892C13.8686 7.52983 14.1087 7.78977 14.4155 7.96875C14.7223 8.14489 15.0788 8.23295 15.4851 8.23295C15.7493 8.23295 15.9879 8.19602 16.201 8.12216C16.4169 8.04545 16.603 7.93182 16.7592 7.78125C16.9155 7.62784 17.0362 7.4375 17.1214 7.21023L18.093 7.48295C17.9908 7.8125 17.8189 8.10227 17.5774 8.35227C17.3359 8.59943 17.0376 8.79261 16.6825 8.93182C16.3274 9.06818 15.9283 9.13636 15.4851 9.13636ZM22.4695 9.13636C21.8388 9.13636 21.2947 8.99716 20.8374 8.71875C20.3828 8.4375 20.032 8.04545 19.7848 7.54261C19.5405 7.03693 19.4183 6.44886 19.4183 5.77841C19.4183 5.10795 19.5405 4.51705 19.7848 4.00568C20.032 3.49148 20.3757 3.09091 20.8161 2.80398C21.2592 2.5142 21.7763 2.36932 22.3672 2.36932C22.7081 2.36932 23.0447 2.42614 23.3771 2.53977C23.7095 2.65341 24.0121 2.83807 24.2848 3.09375C24.5575 3.34659 24.7749 3.68182 24.9368 4.09943C25.0987 4.51705 25.1797 5.03125 25.1797 5.64205V6.06818H20.1342V5.19886H24.157C24.157 4.82955 24.0831 4.5 23.9354 4.21023C23.7905 3.92045 23.5831 3.69176 23.3132 3.52415C23.0462 3.35653 22.7308 3.27273 22.3672 3.27273C21.9666 3.27273 21.62 3.37216 21.3274 3.57102C21.0376 3.76705 20.8146 4.02273 20.6584 4.33807C20.5021 4.65341 20.424 4.99148 20.424 5.35227V5.93182C20.424 6.42614 20.5092 6.84517 20.6797 7.18892C20.853 7.52983 21.093 7.78977 21.3999 7.96875C21.7067 8.14489 22.0632 8.23295 22.4695 8.23295C22.7337 8.23295 22.9723 8.19602 23.1854 8.12216C23.4013 8.04545 23.5874 7.93182 23.7436 7.78125C23.8999 7.62784 24.0206 7.4375 24.1058 7.21023L25.0774 7.48295C24.9751 7.8125 24.8033 8.10227 24.5618 8.35227C24.3203 8.59943 24.022 8.79261 23.6669 8.93182C23.3118 9.06818 22.9126 9.13636 22.4695 9.13636ZM27.647 6.61364L27.63 5.36932H27.8345L30.6982 2.45455H31.9425L28.8913 5.53977H28.8061L27.647 6.61364ZM26.7095 9V0.272727H27.7152V9H26.7095ZM30.8686 9L28.3118 5.76136L29.0277 5.0625L32.147 9H30.8686Z" fill="black"/>
</svg>
