<svg width="592" height="587" viewBox="0 0 592 587" fill="none" xmlns="http://www.w3.org/2000/svg">
<g filter="url(#filter0_bi_195_8197)">
<rect x="4" width="584" height="579.231" rx="10" fill="url(#paint0_linear_195_8197)" fill-opacity="0.6"/>
<g filter="url(#filter1_bd_195_8197)">
<rect x="4" y="12" width="584" height="567" rx="30" fill="url(#paint1_linear_195_8197)" fill-opacity="0.6" shape-rendering="crispEdges"/>
<rect x="4.5" y="12.5" width="583" height="566" rx="29.5" stroke="url(#paint2_linear_195_8197)" stroke-opacity="0.6" shape-rendering="crispEdges"/>
</g>
<g filter="url(#filter2_bi_195_8197)">
<rect x="30" y="106" width="532" height="67.4499" rx="10" fill="url(#paint3_linear_195_8197)" fill-opacity="0.6"/>
<rect x="30.5" y="106.5" width="531" height="66.4499" rx="9.5" stroke="url(#paint4_linear_195_8197)" stroke-opacity="0.6"/>
</g>
<path d="M52.1591 132.42V130.545H65.25V132.42H59.7614V148H57.6477V132.42H52.1591ZM68.2393 148V134.909H70.2507V148H68.2393ZM69.2621 132.727C68.87 132.727 68.532 132.594 68.2479 132.327C67.9695 132.06 67.8303 131.739 67.8303 131.364C67.8303 130.989 67.9695 130.668 68.2479 130.401C68.532 130.134 68.87 130 69.2621 130C69.6541 130 69.9893 130.134 70.2678 130.401C70.5518 130.668 70.6939 130.989 70.6939 131.364C70.6939 131.739 70.5518 132.06 70.2678 132.327C69.9893 132.594 69.6541 132.727 69.2621 132.727ZM79.6278 134.909V136.614H72.8438V134.909H79.6278ZM74.821 131.773H76.8324V144.25C76.8324 144.818 76.9148 145.244 77.0795 145.528C77.25 145.807 77.4659 145.994 77.7273 146.091C77.9943 146.182 78.2756 146.227 78.571 146.227C78.7926 146.227 78.9744 146.216 79.1165 146.193C79.2585 146.165 79.3722 146.142 79.4574 146.125L79.8665 147.932C79.7301 147.983 79.5398 148.034 79.2955 148.085C79.0511 148.142 78.7415 148.17 78.3665 148.17C77.7983 148.17 77.2415 148.048 76.696 147.804C76.1563 147.56 75.7074 147.188 75.3494 146.688C74.9972 146.188 74.821 145.557 74.821 144.795V131.773ZM84.946 130.545V148H82.9347V130.545H84.946ZM94.1186 148.273C92.8572 148.273 91.7692 147.994 90.8544 147.438C89.9453 146.875 89.2436 146.091 88.7493 145.085C88.2607 144.074 88.0163 142.898 88.0163 141.557C88.0163 140.216 88.2607 139.034 88.7493 138.011C89.2436 136.983 89.9311 136.182 90.8118 135.608C91.6982 135.028 92.7322 134.739 93.9141 134.739C94.5959 134.739 95.2692 134.852 95.9339 135.08C96.5987 135.307 97.2038 135.676 97.7493 136.188C98.2947 136.693 98.7294 137.364 99.0533 138.199C99.3771 139.034 99.5391 140.062 99.5391 141.284V142.136H89.4482V140.398H97.4936C97.4936 139.659 97.3459 139 97.0504 138.42C96.7607 137.841 96.3459 137.384 95.8061 137.048C95.272 136.713 94.6413 136.545 93.9141 136.545C93.1129 136.545 92.4197 136.744 91.8345 137.142C91.255 137.534 90.8089 138.045 90.4964 138.676C90.1839 139.307 90.0277 139.983 90.0277 140.705V141.864C90.0277 142.852 90.1982 143.69 90.5391 144.378C90.8857 145.06 91.3658 145.58 91.9794 145.938C92.593 146.29 93.3061 146.466 94.1186 146.466C94.647 146.466 95.1243 146.392 95.5504 146.244C95.9822 146.091 96.3544 145.864 96.6669 145.562C96.9794 145.256 97.2209 144.875 97.3913 144.42L99.3345 144.966C99.13 145.625 98.7862 146.205 98.3033 146.705C97.8203 147.199 97.2237 147.585 96.5135 147.864C95.8033 148.136 95.005 148.273 94.1186 148.273Z" fill="white"/>
<path d="M46.6136 185.729H49.0341L53.875 193.877H54.0795L58.9205 185.729H61.3409L55.0341 195.99V203.184H52.9205V195.99L46.6136 185.729ZM67.2685 203.456C66.0866 203.456 65.0497 203.175 64.1577 202.613C63.2713 202.05 62.5781 201.263 62.0781 200.252C61.5838 199.24 61.3366 198.059 61.3366 196.706C61.3366 195.343 61.5838 194.152 62.0781 193.135C62.5781 192.118 63.2713 191.328 64.1577 190.766C65.0497 190.203 66.0866 189.922 67.2685 189.922C68.4503 189.922 69.4844 190.203 70.3707 190.766C71.2628 191.328 71.956 192.118 72.4503 193.135C72.9503 194.152 73.2003 195.343 73.2003 196.706C73.2003 198.059 72.9503 199.24 72.4503 200.252C71.956 201.263 71.2628 202.05 70.3707 202.613C69.4844 203.175 68.4503 203.456 67.2685 203.456ZM67.2685 201.65C68.1662 201.65 68.9048 201.419 69.4844 200.959C70.0639 200.499 70.4929 199.894 70.7713 199.144C71.0497 198.394 71.1889 197.581 71.1889 196.706C71.1889 195.831 71.0497 195.016 70.7713 194.26C70.4929 193.505 70.0639 192.894 69.4844 192.428C68.9048 191.962 68.1662 191.729 67.2685 191.729C66.3707 191.729 65.6321 191.962 65.0526 192.428C64.473 192.894 64.044 193.505 63.7656 194.26C63.4872 195.016 63.348 195.831 63.348 196.706C63.348 197.581 63.4872 198.394 63.7656 199.144C64.044 199.894 64.473 200.499 65.0526 200.959C65.6321 201.419 66.3707 201.65 67.2685 201.65ZM84.5206 197.831V190.093H86.532V203.184H84.5206V200.968H84.3842C84.0774 201.632 83.6001 202.198 82.9524 202.664C82.3047 203.124 81.4865 203.354 80.4979 203.354C79.6797 203.354 78.9524 203.175 78.3161 202.817C77.6797 202.453 77.1797 201.908 76.8161 201.181C76.4524 200.448 76.2706 199.525 76.2706 198.411V190.093H78.282V198.275C78.282 199.229 78.549 199.99 79.0831 200.559C79.6229 201.127 80.3104 201.411 81.1456 201.411C81.6456 201.411 82.1541 201.283 82.6712 201.027C83.1939 200.772 83.6314 200.38 83.9837 199.851C84.3416 199.323 84.5206 198.65 84.5206 197.831ZM90.2159 203.184V190.093H92.1591V192.07H92.2955C92.5341 191.422 92.9659 190.897 93.5909 190.493C94.2159 190.09 94.9205 189.888 95.7045 189.888C95.8523 189.888 96.0369 189.891 96.2585 189.897C96.4801 189.902 96.6477 189.911 96.7614 189.922V191.968C96.6932 191.951 96.5369 191.925 96.2926 191.891C96.054 191.851 95.8011 191.831 95.5341 191.831C94.8977 191.831 94.3295 191.965 93.8295 192.232C93.3352 192.493 92.9432 192.857 92.6534 193.323C92.3693 193.783 92.2273 194.309 92.2273 194.9V203.184H90.2159ZM105.896 203.184V190.093H107.839V192.138H108.009C108.282 191.439 108.722 190.897 109.33 190.51C109.938 190.118 110.668 189.922 111.521 189.922C112.384 189.922 113.103 190.118 113.677 190.51C114.256 190.897 114.708 191.439 115.032 192.138H115.168C115.504 191.462 116.006 190.925 116.677 190.527C117.347 190.124 118.151 189.922 119.089 189.922C120.259 189.922 121.217 190.289 121.961 191.022C122.705 191.749 123.077 192.882 123.077 194.422V203.184H121.066V194.422C121.066 193.456 120.802 192.766 120.273 192.351C119.745 191.936 119.123 191.729 118.407 191.729C117.487 191.729 116.773 192.007 116.268 192.564C115.762 193.115 115.509 193.814 115.509 194.661V203.184H113.464V194.218C113.464 193.473 113.222 192.874 112.739 192.419C112.256 191.959 111.634 191.729 110.873 191.729C110.35 191.729 109.862 191.868 109.407 192.147C108.958 192.425 108.594 192.811 108.316 193.306C108.043 193.794 107.907 194.36 107.907 195.002V203.184H105.896ZM132.244 203.456C130.982 203.456 129.894 203.178 128.979 202.621C128.07 202.059 127.369 201.275 126.874 200.269C126.386 199.257 126.141 198.081 126.141 196.74C126.141 195.4 126.386 194.218 126.874 193.195C127.369 192.167 128.056 191.365 128.937 190.792C129.823 190.212 130.857 189.922 132.039 189.922C132.721 189.922 133.394 190.036 134.059 190.263C134.724 190.49 135.329 190.86 135.874 191.371C136.42 191.877 136.854 192.547 137.178 193.382C137.502 194.218 137.664 195.246 137.664 196.468V197.32H127.573V195.581H135.619C135.619 194.843 135.471 194.184 135.175 193.604C134.886 193.025 134.471 192.567 133.931 192.232C133.397 191.897 132.766 191.729 132.039 191.729C131.238 191.729 130.545 191.928 129.96 192.326C129.38 192.718 128.934 193.229 128.621 193.86C128.309 194.49 128.153 195.167 128.153 195.888V197.047C128.153 198.036 128.323 198.874 128.664 199.561C129.011 200.243 129.491 200.763 130.104 201.121C130.718 201.473 131.431 201.65 132.244 201.65C132.772 201.65 133.249 201.576 133.675 201.428C134.107 201.275 134.479 201.047 134.792 200.746C135.104 200.439 135.346 200.059 135.516 199.604L137.46 200.15C137.255 200.809 136.911 201.388 136.428 201.888C135.945 202.382 135.349 202.769 134.638 203.047C133.928 203.32 133.13 203.456 132.244 203.456ZM149.996 193.025L148.19 193.536C148.076 193.235 147.908 192.942 147.687 192.658C147.471 192.368 147.175 192.13 146.8 191.942C146.425 191.755 145.945 191.661 145.36 191.661C144.559 191.661 143.891 191.846 143.357 192.215C142.829 192.578 142.565 193.042 142.565 193.604C142.565 194.104 142.746 194.499 143.11 194.789C143.474 195.078 144.042 195.32 144.815 195.513L146.758 195.99C147.928 196.275 148.8 196.709 149.374 197.294C149.948 197.874 150.235 198.621 150.235 199.536C150.235 200.286 150.019 200.956 149.587 201.547C149.161 202.138 148.565 202.604 147.798 202.945C147.031 203.286 146.138 203.456 145.121 203.456C143.786 203.456 142.681 203.167 141.806 202.587C140.931 202.007 140.377 201.161 140.144 200.047L142.053 199.57C142.235 200.275 142.579 200.803 143.085 201.155C143.596 201.507 144.263 201.684 145.087 201.684C146.025 201.684 146.769 201.485 147.32 201.087C147.877 200.684 148.156 200.201 148.156 199.638C148.156 199.184 147.996 198.803 147.678 198.496C147.36 198.184 146.871 197.951 146.212 197.797L144.031 197.286C142.832 197.002 141.951 196.561 141.388 195.965C140.832 195.363 140.553 194.61 140.553 193.706C140.553 192.968 140.761 192.314 141.175 191.746C141.596 191.178 142.167 190.732 142.888 190.408C143.616 190.084 144.44 189.922 145.36 189.922C146.656 189.922 147.673 190.206 148.411 190.775C149.156 191.343 149.684 192.093 149.996 193.025ZM162.536 193.025L160.729 193.536C160.615 193.235 160.447 192.942 160.226 192.658C160.01 192.368 159.714 192.13 159.339 191.942C158.964 191.755 158.484 191.661 157.899 191.661C157.098 191.661 156.43 191.846 155.896 192.215C155.368 192.578 155.104 193.042 155.104 193.604C155.104 194.104 155.286 194.499 155.649 194.789C156.013 195.078 156.581 195.32 157.354 195.513L159.297 195.99C160.467 196.275 161.339 196.709 161.913 197.294C162.487 197.874 162.774 198.621 162.774 199.536C162.774 200.286 162.558 200.956 162.126 201.547C161.7 202.138 161.104 202.604 160.337 202.945C159.57 203.286 158.678 203.456 157.661 203.456C156.325 203.456 155.22 203.167 154.345 202.587C153.47 202.007 152.916 201.161 152.683 200.047L154.592 199.57C154.774 200.275 155.118 200.803 155.624 201.155C156.135 201.507 156.803 201.684 157.626 201.684C158.564 201.684 159.308 201.485 159.859 201.087C160.416 200.684 160.695 200.201 160.695 199.638C160.695 199.184 160.536 198.803 160.217 198.496C159.899 198.184 159.411 197.951 158.751 197.797L156.57 197.286C155.371 197.002 154.49 196.561 153.928 195.965C153.371 195.363 153.092 194.61 153.092 193.706C153.092 192.968 153.3 192.314 153.714 191.746C154.135 191.178 154.706 190.732 155.428 190.408C156.155 190.084 156.979 189.922 157.899 189.922C159.195 189.922 160.212 190.206 160.95 190.775C161.695 191.343 162.223 192.093 162.536 193.025ZM169.654 203.49C168.825 203.49 168.072 203.334 167.396 203.022C166.719 202.703 166.183 202.246 165.785 201.65C165.387 201.047 165.188 200.32 165.188 199.468C165.188 198.718 165.336 198.11 165.631 197.644C165.927 197.172 166.322 196.803 166.816 196.536C167.31 196.269 167.856 196.07 168.452 195.939C169.055 195.803 169.66 195.695 170.268 195.615C171.063 195.513 171.708 195.436 172.202 195.385C172.702 195.328 173.066 195.235 173.293 195.104C173.526 194.973 173.643 194.746 173.643 194.422V194.354C173.643 193.513 173.413 192.86 172.952 192.394C172.498 191.928 171.808 191.695 170.881 191.695C169.921 191.695 169.168 191.905 168.623 192.326C168.077 192.746 167.694 193.195 167.472 193.672L165.563 192.99C165.904 192.195 166.359 191.576 166.927 191.132C167.501 190.684 168.126 190.371 168.802 190.195C169.484 190.013 170.154 189.922 170.813 189.922C171.234 189.922 171.717 189.973 172.262 190.076C172.813 190.172 173.344 190.374 173.856 190.681C174.373 190.988 174.802 191.451 175.143 192.07C175.484 192.689 175.654 193.519 175.654 194.559V203.184H173.643V201.411H173.54C173.404 201.695 173.177 201.999 172.859 202.323C172.54 202.647 172.117 202.922 171.589 203.15C171.06 203.377 170.415 203.49 169.654 203.49ZM169.961 201.684C170.756 201.684 171.427 201.527 171.972 201.215C172.523 200.902 172.938 200.499 173.217 200.005C173.501 199.51 173.643 198.99 173.643 198.445V196.604C173.558 196.706 173.37 196.8 173.08 196.885C172.796 196.965 172.467 197.036 172.092 197.098C171.722 197.155 171.362 197.206 171.009 197.252C170.663 197.292 170.381 197.326 170.165 197.354C169.643 197.422 169.154 197.533 168.7 197.686C168.251 197.834 167.887 198.059 167.609 198.36C167.336 198.655 167.2 199.059 167.2 199.57C167.2 200.269 167.458 200.797 167.975 201.155C168.498 201.507 169.16 201.684 169.961 201.684ZM184.609 208.365C183.638 208.365 182.803 208.24 182.104 207.99C181.405 207.746 180.822 207.422 180.357 207.019C179.896 206.621 179.53 206.195 179.257 205.74L180.859 204.615C181.041 204.854 181.271 205.127 181.55 205.434C181.828 205.746 182.209 206.016 182.692 206.243C183.18 206.476 183.82 206.593 184.609 206.593C185.666 206.593 186.538 206.337 187.226 205.826C187.913 205.314 188.257 204.513 188.257 203.422V200.763H188.087C187.939 201.002 187.729 201.297 187.456 201.65C187.189 201.996 186.803 202.306 186.297 202.578C185.797 202.846 185.121 202.979 184.268 202.979C183.212 202.979 182.263 202.729 181.422 202.229C180.587 201.729 179.925 201.002 179.436 200.047C178.953 199.093 178.712 197.934 178.712 196.57C178.712 195.229 178.947 194.061 179.419 193.067C179.891 192.067 180.547 191.294 181.388 190.749C182.229 190.198 183.2 189.922 184.303 189.922C185.155 189.922 185.831 190.064 186.331 190.348C186.837 190.627 187.223 190.945 187.49 191.303C187.763 191.655 187.973 191.945 188.121 192.172H188.325V190.093H190.268V203.559C190.268 204.684 190.013 205.598 189.501 206.303C188.996 207.013 188.314 207.533 187.456 207.863C186.604 208.198 185.655 208.365 184.609 208.365ZM184.541 201.172C185.348 201.172 186.03 200.988 186.587 200.618C187.143 200.249 187.567 199.718 187.857 199.025C188.146 198.331 188.291 197.502 188.291 196.536C188.291 195.593 188.149 194.76 187.865 194.039C187.581 193.317 187.161 192.752 186.604 192.343C186.047 191.934 185.359 191.729 184.541 191.729C183.689 191.729 182.979 191.945 182.411 192.377C181.848 192.809 181.425 193.388 181.141 194.115C180.862 194.843 180.723 195.65 180.723 196.536C180.723 197.445 180.865 198.249 181.149 198.948C181.439 199.641 181.865 200.186 182.428 200.584C182.996 200.976 183.7 201.172 184.541 201.172ZM199.439 203.456C198.178 203.456 197.089 203.178 196.175 202.621C195.266 202.059 194.564 201.275 194.07 200.269C193.581 199.257 193.337 198.081 193.337 196.74C193.337 195.4 193.581 194.218 194.07 193.195C194.564 192.167 195.251 191.365 196.132 190.792C197.018 190.212 198.053 189.922 199.234 189.922C199.916 189.922 200.589 190.036 201.254 190.263C201.919 190.49 202.524 190.86 203.07 191.371C203.615 191.877 204.05 192.547 204.374 193.382C204.697 194.218 204.859 195.246 204.859 196.468V197.32H194.768V195.581H202.814C202.814 194.843 202.666 194.184 202.371 193.604C202.081 193.025 201.666 192.567 201.126 192.232C200.592 191.897 199.962 191.729 199.234 191.729C198.433 191.729 197.74 191.928 197.155 192.326C196.575 192.718 196.129 193.229 195.817 193.86C195.504 194.49 195.348 195.167 195.348 195.888V197.047C195.348 198.036 195.518 198.874 195.859 199.561C196.206 200.243 196.686 200.763 197.3 201.121C197.913 201.473 198.626 201.65 199.439 201.65C199.967 201.65 200.445 201.576 200.871 201.428C201.303 201.275 201.675 201.047 201.987 200.746C202.3 200.439 202.541 200.059 202.712 199.604L204.655 200.15C204.45 200.809 204.107 201.388 203.624 201.888C203.141 202.382 202.544 202.769 201.834 203.047C201.124 203.32 200.325 203.456 199.439 203.456Z" fill="#D9D9D9"/>
<path d="M60.1591 189.297H58.0455C57.9205 188.689 57.7017 188.155 57.3892 187.695C57.0824 187.234 56.7074 186.848 56.2642 186.536C55.8267 186.217 55.3409 185.979 54.8068 185.82C54.2727 185.661 53.7159 185.581 53.1364 185.581C52.0795 185.581 51.1222 185.848 50.2642 186.382C49.4119 186.916 48.733 187.703 48.2273 188.743C47.7273 189.783 47.4773 191.058 47.4773 192.57C47.4773 194.081 47.7273 195.357 48.2273 196.396C48.733 197.436 49.4119 198.223 50.2642 198.757C51.1222 199.291 52.0795 199.558 53.1364 199.558C53.7159 199.558 54.2727 199.479 54.8068 199.32C55.3409 199.161 55.8267 198.925 56.2642 198.612C56.7074 198.294 57.0824 197.905 57.3892 197.445C57.7017 196.979 57.9205 196.445 58.0455 195.842H60.1591C60 196.734 59.7102 197.533 59.2898 198.237C58.8693 198.942 58.3466 199.541 57.7216 200.036C57.0966 200.524 56.3949 200.896 55.6165 201.152C54.8438 201.408 54.017 201.536 53.1364 201.536C51.6477 201.536 50.3239 201.172 49.1648 200.445C48.0057 199.717 47.0938 198.683 46.429 197.342C45.7642 196.001 45.4318 194.411 45.4318 192.57C45.4318 190.729 45.7642 189.138 46.429 187.797C47.0938 186.456 48.0057 185.422 49.1648 184.695C50.3239 183.967 51.6477 183.604 53.1364 183.604C54.017 183.604 54.8438 183.732 55.6165 183.987C56.3949 184.243 57.0966 184.618 57.7216 185.112C58.3466 185.601 58.8693 186.197 59.2898 186.902C59.7102 187.601 60 188.399 60.1591 189.297ZM67.1541 201.604C66.3246 201.604 65.5717 201.447 64.8956 201.135C64.2195 200.817 63.6825 200.359 63.2848 199.763C62.8871 199.161 62.6882 198.433 62.6882 197.581C62.6882 196.831 62.8359 196.223 63.1314 195.757C63.4268 195.286 63.8217 194.916 64.3161 194.649C64.8104 194.382 65.3558 194.183 65.9524 194.053C66.5547 193.916 67.1598 193.808 67.7678 193.729C68.5632 193.626 69.2081 193.55 69.7024 193.499C70.2024 193.442 70.5661 193.348 70.7933 193.217C71.0263 193.087 71.1428 192.859 71.1428 192.536V192.467C71.1428 191.626 70.9126 190.973 70.4524 190.507C69.9979 190.041 69.3075 189.808 68.3814 189.808C67.4212 189.808 66.6683 190.018 66.1229 190.439C65.5774 190.859 65.1939 191.308 64.9723 191.786L63.0632 191.104C63.4041 190.308 63.8587 189.689 64.4268 189.246C65.0007 188.797 65.6257 188.484 66.3018 188.308C66.9837 188.126 67.6541 188.036 68.3132 188.036C68.7337 188.036 69.2166 188.087 69.7621 188.189C70.3132 188.286 70.8445 188.487 71.3558 188.794C71.8729 189.101 72.3018 189.564 72.6428 190.183C72.9837 190.803 73.1541 191.632 73.1541 192.672V201.297H71.1428V199.524H71.0405C70.9041 199.808 70.6768 200.112 70.3587 200.436C70.0405 200.76 69.6172 201.036 69.0888 201.263C68.5604 201.49 67.9155 201.604 67.1541 201.604ZM67.4609 199.797C68.2564 199.797 68.9268 199.641 69.4723 199.328C70.0234 199.016 70.4382 198.612 70.7166 198.118C71.0007 197.624 71.1428 197.104 71.1428 196.558V194.717C71.0575 194.82 70.87 194.913 70.5803 194.999C70.2962 195.078 69.9666 195.149 69.5916 195.212C69.2223 195.268 68.8615 195.32 68.5092 195.365C68.1626 195.405 67.8814 195.439 67.6655 195.467C67.1428 195.536 66.6541 195.646 66.1996 195.8C65.7507 195.947 65.3871 196.172 65.1087 196.473C64.8359 196.768 64.6996 197.172 64.6996 197.683C64.6996 198.382 64.9581 198.911 65.4751 199.268C65.9979 199.621 66.6598 199.797 67.4609 199.797ZM82.5185 188.206V189.911H75.7344V188.206H82.5185ZM77.7116 185.07H79.723V197.547C79.723 198.115 79.8054 198.541 79.9702 198.825C80.1406 199.104 80.3565 199.291 80.6179 199.388C80.8849 199.479 81.1662 199.524 81.4616 199.524C81.6832 199.524 81.8651 199.513 82.0071 199.49C82.1491 199.462 82.2628 199.439 82.348 199.422L82.7571 201.229C82.6207 201.28 82.4304 201.331 82.1861 201.382C81.9418 201.439 81.6321 201.467 81.2571 201.467C80.6889 201.467 80.1321 201.345 79.5866 201.101C79.0469 200.857 78.598 200.484 78.2401 199.984C77.8878 199.484 77.7116 198.854 77.7116 198.092V185.07ZM90.892 201.57C89.6307 201.57 88.5426 201.291 87.6278 200.734C86.7188 200.172 86.017 199.388 85.5227 198.382C85.0341 197.371 84.7898 196.195 84.7898 194.854C84.7898 193.513 85.0341 192.331 85.5227 191.308C86.017 190.28 86.7045 189.479 87.5852 188.905C88.4716 188.325 89.5057 188.036 90.6875 188.036C91.3693 188.036 92.0426 188.149 92.7074 188.376C93.3722 188.604 93.9773 188.973 94.5227 189.484C95.0682 189.99 95.5028 190.661 95.8267 191.496C96.1506 192.331 96.3125 193.359 96.3125 194.581V195.433H86.2216V193.695H94.267C94.267 192.956 94.1193 192.297 93.8239 191.717C93.5341 191.138 93.1193 190.68 92.5795 190.345C92.0455 190.01 91.4148 189.842 90.6875 189.842C89.8864 189.842 89.1932 190.041 88.608 190.439C88.0284 190.831 87.5824 191.342 87.2699 191.973C86.9574 192.604 86.8011 193.28 86.8011 194.001V195.161C86.8011 196.149 86.9716 196.987 87.3125 197.675C87.6591 198.357 88.1392 198.876 88.7528 199.234C89.3665 199.587 90.0795 199.763 90.892 199.763C91.4205 199.763 91.8977 199.689 92.3239 199.541C92.7557 199.388 93.1278 199.161 93.4403 198.859C93.7528 198.553 93.9943 198.172 94.1648 197.717L96.108 198.263C95.9034 198.922 95.5597 199.501 95.0767 200.001C94.5938 200.496 93.9972 200.882 93.2869 201.161C92.5767 201.433 91.7784 201.57 90.892 201.57ZM104.656 206.479C103.685 206.479 102.849 206.354 102.151 206.104C101.452 205.859 100.869 205.536 100.403 205.132C99.9432 204.734 99.5767 204.308 99.304 203.854L100.906 202.729C101.088 202.967 101.318 203.24 101.597 203.547C101.875 203.859 102.256 204.129 102.739 204.357C103.227 204.589 103.866 204.706 104.656 204.706C105.713 204.706 106.585 204.45 107.273 203.939C107.96 203.428 108.304 202.626 108.304 201.536V198.876H108.134C107.986 199.115 107.776 199.411 107.503 199.763C107.236 200.109 106.849 200.419 106.344 200.692C105.844 200.959 105.168 201.092 104.315 201.092C103.259 201.092 102.31 200.842 101.469 200.342C100.634 199.842 99.9716 199.115 99.483 198.161C99 197.206 98.7585 196.047 98.7585 194.683C98.7585 193.342 98.9943 192.175 99.4659 191.18C99.9375 190.18 100.594 189.408 101.435 188.862C102.276 188.311 103.247 188.036 104.349 188.036C105.202 188.036 105.878 188.178 106.378 188.462C106.884 188.74 107.27 189.058 107.537 189.416C107.81 189.768 108.02 190.058 108.168 190.286H108.372V188.206H110.315V201.672C110.315 202.797 110.06 203.712 109.548 204.416C109.043 205.126 108.361 205.646 107.503 205.976C106.651 206.311 105.702 206.479 104.656 206.479ZM104.588 199.286C105.395 199.286 106.077 199.101 106.634 198.732C107.19 198.362 107.614 197.831 107.903 197.138C108.193 196.445 108.338 195.615 108.338 194.649C108.338 193.706 108.196 192.874 107.912 192.152C107.628 191.43 107.207 190.865 106.651 190.456C106.094 190.047 105.406 189.842 104.588 189.842C103.736 189.842 103.026 190.058 102.457 190.49C101.895 190.922 101.472 191.501 101.188 192.229C100.909 192.956 100.77 193.763 100.77 194.649C100.77 195.558 100.912 196.362 101.196 197.061C101.486 197.754 101.912 198.3 102.474 198.697C103.043 199.089 103.747 199.286 104.588 199.286ZM119.315 201.57C118.134 201.57 117.097 201.288 116.205 200.726C115.318 200.163 114.625 199.376 114.125 198.365C113.631 197.354 113.384 196.172 113.384 194.82C113.384 193.456 113.631 192.266 114.125 191.249C114.625 190.232 115.318 189.442 116.205 188.879C117.097 188.317 118.134 188.036 119.315 188.036C120.497 188.036 121.531 188.317 122.418 188.879C123.31 189.442 124.003 190.232 124.497 191.249C124.997 192.266 125.247 193.456 125.247 194.82C125.247 196.172 124.997 197.354 124.497 198.365C124.003 199.376 123.31 200.163 122.418 200.726C121.531 201.288 120.497 201.57 119.315 201.57ZM119.315 199.763C120.213 199.763 120.952 199.533 121.531 199.072C122.111 198.612 122.54 198.007 122.818 197.257C123.097 196.507 123.236 195.695 123.236 194.82C123.236 193.945 123.097 193.129 122.818 192.374C122.54 191.618 122.111 191.007 121.531 190.541C120.952 190.075 120.213 189.842 119.315 189.842C118.418 189.842 117.679 190.075 117.099 190.541C116.52 191.007 116.091 191.618 115.812 192.374C115.534 193.129 115.395 193.945 115.395 194.82C115.395 195.695 115.534 196.507 115.812 197.257C116.091 198.007 116.52 198.612 117.099 199.072C117.679 199.533 118.418 199.763 119.315 199.763ZM128.317 201.297V188.206H130.261V190.183H130.397C130.636 189.536 131.067 189.01 131.692 188.607C132.317 188.203 133.022 188.001 133.806 188.001C133.954 188.001 134.138 188.004 134.36 188.01C134.582 188.016 134.749 188.024 134.863 188.036V190.081C134.795 190.064 134.638 190.038 134.394 190.004C134.156 189.964 133.903 189.945 133.636 189.945C132.999 189.945 132.431 190.078 131.931 190.345C131.437 190.607 131.045 190.97 130.755 191.436C130.471 191.896 130.329 192.422 130.329 193.013V201.297H128.317ZM138.941 206.206C138.6 206.206 138.296 206.178 138.029 206.121C137.762 206.07 137.577 206.018 137.475 205.967L137.987 204.195C138.475 204.32 138.907 204.365 139.282 204.331C139.657 204.297 139.989 204.129 140.279 203.828C140.575 203.533 140.844 203.053 141.089 202.388L141.464 201.365L136.623 188.206H138.805L142.418 198.638H142.555L146.168 188.206H148.35L142.793 203.206C142.543 203.882 142.234 204.442 141.864 204.885C141.495 205.334 141.066 205.666 140.577 205.882C140.094 206.098 139.549 206.206 138.941 206.206Z" fill="#D9D9D9"/>
<g filter="url(#filter3_bi_195_8197)">
<rect x="30" y="184" width="532" height="67.4499" rx="10" fill="url(#paint5_linear_195_8197)" fill-opacity="0.6"/>
<rect x="30.5" y="184.5" width="531" height="66.4499" rx="9.5" stroke="url(#paint6_linear_195_8197)" stroke-opacity="0.6"/>
</g>
<path d="M67.1591 214H65.0455C64.9205 213.392 64.7017 212.858 64.3892 212.398C64.0824 211.938 63.7074 211.551 63.2642 211.239C62.8267 210.92 62.3409 210.682 61.8068 210.523C61.2727 210.364 60.7159 210.284 60.1364 210.284C59.0795 210.284 58.1222 210.551 57.2642 211.085C56.4119 211.619 55.733 212.406 55.2273 213.446C54.7273 214.486 54.4773 215.761 54.4773 217.273C54.4773 218.784 54.7273 220.06 55.2273 221.099C55.733 222.139 56.4119 222.926 57.2642 223.46C58.1222 223.994 59.0795 224.261 60.1364 224.261C60.7159 224.261 61.2727 224.182 61.8068 224.023C62.3409 223.864 62.8267 223.628 63.2642 223.315C63.7074 222.997 64.0824 222.608 64.3892 222.148C64.7017 221.682 64.9205 221.148 65.0455 220.545H67.1591C67 221.437 66.7102 222.236 66.2898 222.94C65.8693 223.645 65.3466 224.244 64.7216 224.739C64.0966 225.227 63.3949 225.599 62.6165 225.855C61.8438 226.111 61.017 226.239 60.1364 226.239C58.6477 226.239 57.3239 225.875 56.1648 225.148C55.0057 224.42 54.0938 223.386 53.429 222.045C52.7642 220.705 52.4318 219.114 52.4318 217.273C52.4318 215.432 52.7642 213.841 53.429 212.5C54.0938 211.159 55.0057 210.125 56.1648 209.398C57.3239 208.67 58.6477 208.307 60.1364 208.307C61.017 208.307 61.8438 208.435 62.6165 208.69C63.3949 208.946 64.0966 209.321 64.7216 209.815C65.3466 210.304 65.8693 210.901 66.2898 211.605C66.7102 212.304 67 213.102 67.1591 214ZM74.1541 226.307C73.3246 226.307 72.5717 226.151 71.8956 225.838C71.2195 225.52 70.6825 225.062 70.2848 224.466C69.8871 223.864 69.6882 223.136 69.6882 222.284C69.6882 221.534 69.8359 220.926 70.1314 220.46C70.4268 219.989 70.8217 219.619 71.3161 219.352C71.8104 219.085 72.3558 218.886 72.9524 218.756C73.5547 218.619 74.1598 218.511 74.7678 218.432C75.5632 218.33 76.2081 218.253 76.7024 218.202C77.2024 218.145 77.5661 218.051 77.7933 217.92C78.0263 217.79 78.1428 217.562 78.1428 217.239V217.17C78.1428 216.33 77.9126 215.676 77.4524 215.21C76.9979 214.744 76.3075 214.511 75.3814 214.511C74.4212 214.511 73.6683 214.722 73.1229 215.142C72.5774 215.562 72.1939 216.011 71.9723 216.489L70.0632 215.807C70.4041 215.011 70.8587 214.392 71.4268 213.949C72.0007 213.5 72.6257 213.187 73.3018 213.011C73.9837 212.83 74.6541 212.739 75.3132 212.739C75.7337 212.739 76.2166 212.79 76.7621 212.892C77.3132 212.989 77.8445 213.19 78.3558 213.497C78.8729 213.804 79.3018 214.267 79.6428 214.886C79.9837 215.506 80.1541 216.335 80.1541 217.375V226H78.1428V224.227H78.0405C77.9041 224.511 77.6768 224.815 77.3587 225.139C77.0405 225.463 76.6172 225.739 76.0888 225.966C75.5604 226.193 74.9155 226.307 74.1541 226.307ZM74.4609 224.5C75.2564 224.5 75.9268 224.344 76.4723 224.031C77.0234 223.719 77.4382 223.315 77.7166 222.821C78.0007 222.327 78.1428 221.807 78.1428 221.261V219.42C78.0575 219.523 77.87 219.616 77.5803 219.702C77.2962 219.781 76.9666 219.852 76.5916 219.915C76.2223 219.972 75.8615 220.023 75.5092 220.068C75.1626 220.108 74.8814 220.142 74.6655 220.17C74.1428 220.239 73.6541 220.349 73.1996 220.503C72.7507 220.651 72.3871 220.875 72.1087 221.176C71.8359 221.472 71.6996 221.875 71.6996 222.386C71.6996 223.085 71.9581 223.614 72.4751 223.972C72.9979 224.324 73.6598 224.5 74.4609 224.5ZM89.5185 212.909V214.614H82.7344V212.909H89.5185ZM84.7116 209.773H86.723V222.25C86.723 222.818 86.8054 223.244 86.9702 223.528C87.1406 223.807 87.3565 223.994 87.6179 224.091C87.8849 224.182 88.1662 224.227 88.4616 224.227C88.6832 224.227 88.8651 224.216 89.0071 224.193C89.1491 224.165 89.2628 224.142 89.348 224.125L89.7571 225.932C89.6207 225.983 89.4304 226.034 89.1861 226.085C88.9418 226.142 88.6321 226.17 88.2571 226.17C87.6889 226.17 87.1321 226.048 86.5866 225.804C86.0469 225.56 85.598 225.188 85.2401 224.688C84.8878 224.188 84.7116 223.557 84.7116 222.795V209.773ZM97.892 226.273C96.6307 226.273 95.5426 225.994 94.6278 225.438C93.7188 224.875 93.017 224.091 92.5227 223.085C92.0341 222.074 91.7898 220.898 91.7898 219.557C91.7898 218.216 92.0341 217.034 92.5227 216.011C93.017 214.983 93.7045 214.182 94.5852 213.608C95.4716 213.028 96.5057 212.739 97.6875 212.739C98.3693 212.739 99.0426 212.852 99.7074 213.08C100.372 213.307 100.977 213.676 101.523 214.188C102.068 214.693 102.503 215.364 102.827 216.199C103.151 217.034 103.312 218.062 103.312 219.284V220.136H93.2216V218.398H101.267C101.267 217.659 101.119 217 100.824 216.42C100.534 215.841 100.119 215.384 99.5795 215.048C99.0455 214.713 98.4148 214.545 97.6875 214.545C96.8864 214.545 96.1932 214.744 95.608 215.142C95.0284 215.534 94.5824 216.045 94.2699 216.676C93.9574 217.307 93.8011 217.983 93.8011 218.705V219.864C93.8011 220.852 93.9716 221.69 94.3125 222.378C94.6591 223.06 95.1392 223.58 95.7528 223.938C96.3665 224.29 97.0795 224.466 97.892 224.466C98.4205 224.466 98.8977 224.392 99.3239 224.244C99.7557 224.091 100.128 223.864 100.44 223.562C100.753 223.256 100.994 222.875 101.165 222.42L103.108 222.966C102.903 223.625 102.56 224.205 102.077 224.705C101.594 225.199 100.997 225.585 100.287 225.864C99.5767 226.136 98.7784 226.273 97.892 226.273ZM111.656 231.182C110.685 231.182 109.849 231.057 109.151 230.807C108.452 230.562 107.869 230.239 107.403 229.835C106.943 229.438 106.577 229.011 106.304 228.557L107.906 227.432C108.088 227.67 108.318 227.943 108.597 228.25C108.875 228.562 109.256 228.832 109.739 229.06C110.227 229.293 110.866 229.409 111.656 229.409C112.713 229.409 113.585 229.153 114.273 228.642C114.96 228.131 115.304 227.33 115.304 226.239V223.58H115.134C114.986 223.818 114.776 224.114 114.503 224.466C114.236 224.812 113.849 225.122 113.344 225.395C112.844 225.662 112.168 225.795 111.315 225.795C110.259 225.795 109.31 225.545 108.469 225.045C107.634 224.545 106.972 223.818 106.483 222.864C106 221.909 105.759 220.75 105.759 219.386C105.759 218.045 105.994 216.878 106.466 215.884C106.938 214.884 107.594 214.111 108.435 213.565C109.276 213.014 110.247 212.739 111.349 212.739C112.202 212.739 112.878 212.881 113.378 213.165C113.884 213.443 114.27 213.761 114.537 214.119C114.81 214.472 115.02 214.761 115.168 214.989H115.372V212.909H117.315V226.375C117.315 227.5 117.06 228.415 116.548 229.119C116.043 229.83 115.361 230.349 114.503 230.679C113.651 231.014 112.702 231.182 111.656 231.182ZM111.588 223.989C112.395 223.989 113.077 223.804 113.634 223.435C114.19 223.065 114.614 222.534 114.903 221.841C115.193 221.148 115.338 220.318 115.338 219.352C115.338 218.409 115.196 217.577 114.912 216.855C114.628 216.134 114.207 215.568 113.651 215.159C113.094 214.75 112.406 214.545 111.588 214.545C110.736 214.545 110.026 214.761 109.457 215.193C108.895 215.625 108.472 216.205 108.188 216.932C107.909 217.659 107.77 218.466 107.77 219.352C107.77 220.261 107.912 221.065 108.196 221.764C108.486 222.457 108.912 223.003 109.474 223.401C110.043 223.793 110.747 223.989 111.588 223.989ZM126.315 226.273C125.134 226.273 124.097 225.991 123.205 225.429C122.318 224.866 121.625 224.08 121.125 223.068C120.631 222.057 120.384 220.875 120.384 219.523C120.384 218.159 120.631 216.969 121.125 215.952C121.625 214.935 122.318 214.145 123.205 213.582C124.097 213.02 125.134 212.739 126.315 212.739C127.497 212.739 128.531 213.02 129.418 213.582C130.31 214.145 131.003 214.935 131.497 215.952C131.997 216.969 132.247 218.159 132.247 219.523C132.247 220.875 131.997 222.057 131.497 223.068C131.003 224.08 130.31 224.866 129.418 225.429C128.531 225.991 127.497 226.273 126.315 226.273ZM126.315 224.466C127.213 224.466 127.952 224.236 128.531 223.776C129.111 223.315 129.54 222.71 129.818 221.96C130.097 221.21 130.236 220.398 130.236 219.523C130.236 218.648 130.097 217.832 129.818 217.077C129.54 216.321 129.111 215.71 128.531 215.244C127.952 214.778 127.213 214.545 126.315 214.545C125.418 214.545 124.679 214.778 124.099 215.244C123.52 215.71 123.091 216.321 122.812 217.077C122.534 217.832 122.395 218.648 122.395 219.523C122.395 220.398 122.534 221.21 122.812 221.96C123.091 222.71 123.52 223.315 124.099 223.776C124.679 224.236 125.418 224.466 126.315 224.466ZM135.317 226V212.909H137.261V214.886H137.397C137.636 214.239 138.067 213.713 138.692 213.31C139.317 212.906 140.022 212.705 140.806 212.705C140.954 212.705 141.138 212.707 141.36 212.713C141.582 212.719 141.749 212.727 141.863 212.739V214.784C141.795 214.767 141.638 214.741 141.394 214.707C141.156 214.668 140.903 214.648 140.636 214.648C139.999 214.648 139.431 214.781 138.931 215.048C138.437 215.31 138.045 215.673 137.755 216.139C137.471 216.599 137.329 217.125 137.329 217.716V226H135.317ZM145.941 230.909C145.6 230.909 145.296 230.881 145.029 230.824C144.762 230.773 144.577 230.722 144.475 230.67L144.987 228.898C145.475 229.023 145.907 229.068 146.282 229.034C146.657 229 146.989 228.832 147.279 228.531C147.575 228.236 147.844 227.756 148.089 227.091L148.464 226.068L143.623 212.909H145.805L149.418 223.341H149.555L153.168 212.909H155.35L149.793 227.909C149.543 228.585 149.234 229.145 148.864 229.588C148.495 230.037 148.066 230.369 147.577 230.585C147.094 230.801 146.549 230.909 145.941 230.909Z" fill="white"/>
<g filter="url(#filter4_bi_195_8197)">
<rect x="30" y="269.127" width="532" height="183.958" rx="10" fill="url(#paint7_linear_195_8197)" fill-opacity="0.6"/>
<rect x="30.5" y="269.627" width="531" height="182.958" rx="9.5" stroke="url(#paint8_linear_195_8197)" stroke-opacity="0.6"/>
</g>
<path d="M53.8295 307.221H51.6136L58.0227 289.766H60.2045L66.6136 307.221H64.3977L59.1818 292.528H59.0455L53.8295 307.221ZM54.6477 300.403H63.5795V302.278H54.6477V300.403ZM69.0597 307.221V294.13H71.0028V296.107H71.1392C71.3778 295.459 71.8097 294.934 72.4347 294.53C73.0597 294.127 73.7642 293.925 74.5483 293.925C74.696 293.925 74.8807 293.928 75.1023 293.934C75.3239 293.939 75.4915 293.948 75.6051 293.959V296.005C75.5369 295.988 75.3807 295.962 75.1364 295.928C74.8977 295.888 74.6449 295.868 74.3778 295.868C73.7415 295.868 73.1733 296.002 72.6733 296.269C72.179 296.53 71.7869 296.894 71.4972 297.36C71.2131 297.82 71.071 298.346 71.071 298.937V307.221H69.0597ZM84.5028 294.13V295.834H77.7188V294.13H84.5028ZM79.696 290.993H81.7074V303.471C81.7074 304.039 81.7898 304.465 81.9545 304.749C82.125 305.028 82.3409 305.215 82.6023 305.312C82.8693 305.403 83.1506 305.448 83.446 305.448C83.6676 305.448 83.8494 305.437 83.9915 305.414C84.1335 305.385 84.2472 305.363 84.3324 305.346L84.7415 307.153C84.6051 307.204 84.4148 307.255 84.1705 307.306C83.9261 307.363 83.6165 307.391 83.2415 307.391C82.6733 307.391 82.1165 307.269 81.571 307.025C81.0313 306.78 80.5824 306.408 80.2244 305.908C79.8722 305.408 79.696 304.778 79.696 304.016V290.993ZM87.5284 307.221V294.13H89.5398V307.221H87.5284ZM88.5511 291.948C88.1591 291.948 87.821 291.814 87.5369 291.547C87.2585 291.28 87.1193 290.959 87.1193 290.584C87.1193 290.209 87.2585 289.888 87.5369 289.621C87.821 289.354 88.1591 289.221 88.5511 289.221C88.9432 289.221 89.2784 289.354 89.5568 289.621C89.8409 289.888 89.983 290.209 89.983 290.584C89.983 290.959 89.8409 291.28 89.5568 291.547C89.2784 291.814 88.9432 291.948 88.5511 291.948ZM98.5419 307.493C97.3146 307.493 96.2578 307.204 95.3714 306.624C94.4851 306.045 93.8033 305.246 93.326 304.229C92.8487 303.212 92.6101 302.05 92.6101 300.743C92.6101 299.414 92.8544 298.241 93.343 297.224C93.8374 296.201 94.5249 295.403 95.4055 294.829C96.2919 294.249 97.326 293.959 98.5078 293.959C99.4283 293.959 100.258 294.13 100.996 294.471C101.735 294.812 102.34 295.289 102.812 295.903C103.283 296.516 103.576 297.232 103.69 298.05H101.678C101.525 297.454 101.184 296.925 100.656 296.465C100.133 295.999 99.4283 295.766 98.5419 295.766C97.7578 295.766 97.0703 295.971 96.4794 296.38C95.8942 296.783 95.4368 297.354 95.1072 298.093C94.7834 298.826 94.6214 299.687 94.6214 300.675C94.6214 301.687 94.7805 302.567 95.0987 303.317C95.4226 304.067 95.8771 304.65 96.4624 305.064C97.0533 305.479 97.7464 305.687 98.5419 305.687C99.0646 305.687 99.5391 305.596 99.9652 305.414C100.391 305.232 100.752 304.971 101.048 304.63C101.343 304.289 101.553 303.88 101.678 303.403H103.69C103.576 304.175 103.295 304.871 102.846 305.491C102.403 306.104 101.815 306.593 101.082 306.956C100.354 307.314 99.5078 307.493 98.5419 307.493ZM108.641 289.766V307.221H106.63V289.766H108.641ZM117.814 307.493C116.553 307.493 115.464 307.215 114.55 306.658C113.641 306.096 112.939 305.312 112.445 304.306C111.956 303.295 111.712 302.118 111.712 300.778C111.712 299.437 111.956 298.255 112.445 297.232C112.939 296.204 113.626 295.403 114.507 294.829C115.393 294.249 116.428 293.959 117.609 293.959C118.291 293.959 118.964 294.073 119.629 294.3C120.294 294.528 120.899 294.897 121.445 295.408C121.99 295.914 122.425 296.584 122.749 297.42C123.072 298.255 123.234 299.283 123.234 300.505V301.357H113.143V299.618H121.189C121.189 298.88 121.041 298.221 120.746 297.641C120.456 297.062 120.041 296.604 119.501 296.269C118.967 295.934 118.337 295.766 117.609 295.766C116.808 295.766 116.115 295.965 115.53 296.363C114.95 296.755 114.504 297.266 114.192 297.897C113.879 298.528 113.723 299.204 113.723 299.925V301.084C113.723 302.073 113.893 302.911 114.234 303.599C114.581 304.28 115.061 304.8 115.675 305.158C116.288 305.51 117.001 305.687 117.814 305.687C118.342 305.687 118.82 305.613 119.246 305.465C119.678 305.312 120.05 305.084 120.362 304.783C120.675 304.476 120.916 304.096 121.087 303.641L123.03 304.187C122.825 304.846 122.482 305.425 121.999 305.925C121.516 306.42 120.919 306.806 120.209 307.084C119.499 307.357 118.7 307.493 117.814 307.493ZM137.987 307.493C136.896 307.493 135.933 307.218 135.098 306.667C134.263 306.11 133.609 305.326 133.138 304.314C132.666 303.297 132.43 302.096 132.43 300.709C132.43 299.334 132.666 298.141 133.138 297.13C133.609 296.118 134.266 295.337 135.107 294.786C135.947 294.235 136.919 293.959 138.021 293.959C138.874 293.959 139.547 294.101 140.041 294.385C140.541 294.664 140.922 294.982 141.183 295.34C141.45 295.692 141.658 295.982 141.805 296.209H141.976V289.766H143.987V307.221H142.044V305.209H141.805C141.658 305.448 141.447 305.749 141.175 306.113C140.902 306.471 140.513 306.792 140.007 307.076C139.501 307.354 138.828 307.493 137.987 307.493ZM138.26 305.687C139.067 305.687 139.749 305.476 140.305 305.056C140.862 304.63 141.286 304.042 141.575 303.292C141.865 302.536 142.01 301.664 142.01 300.675C142.01 299.698 141.868 298.843 141.584 298.11C141.3 297.371 140.879 296.797 140.322 296.388C139.766 295.974 139.078 295.766 138.26 295.766C137.408 295.766 136.697 295.985 136.129 296.422C135.567 296.854 135.143 297.442 134.859 298.187C134.581 298.925 134.442 299.755 134.442 300.675C134.442 301.607 134.584 302.454 134.868 303.215C135.158 303.971 135.584 304.573 136.146 305.022C136.714 305.465 137.419 305.687 138.26 305.687ZM153.439 307.493C152.178 307.493 151.089 307.215 150.175 306.658C149.266 306.096 148.564 305.312 148.07 304.306C147.581 303.295 147.337 302.118 147.337 300.778C147.337 299.437 147.581 298.255 148.07 297.232C148.564 296.204 149.251 295.403 150.132 294.829C151.018 294.249 152.053 293.959 153.234 293.959C153.916 293.959 154.589 294.073 155.254 294.3C155.919 294.528 156.524 294.897 157.07 295.408C157.615 295.914 158.05 296.584 158.374 297.42C158.697 298.255 158.859 299.283 158.859 300.505V301.357H148.768V299.618H156.814C156.814 298.88 156.666 298.221 156.371 297.641C156.081 297.062 155.666 296.604 155.126 296.269C154.592 295.934 153.962 295.766 153.234 295.766C152.433 295.766 151.74 295.965 151.155 296.363C150.575 296.755 150.129 297.266 149.817 297.897C149.504 298.528 149.348 299.204 149.348 299.925V301.084C149.348 302.073 149.518 302.911 149.859 303.599C150.206 304.28 150.686 304.8 151.3 305.158C151.913 305.51 152.626 305.687 153.439 305.687C153.967 305.687 154.445 305.613 154.871 305.465C155.303 305.312 155.675 305.084 155.987 304.783C156.3 304.476 156.541 304.096 156.712 303.641L158.655 304.187C158.45 304.846 158.107 305.425 157.624 305.925C157.141 306.42 156.544 306.806 155.834 307.084C155.124 307.357 154.325 307.493 153.439 307.493ZM171.192 297.062L169.385 297.573C169.271 297.272 169.104 296.979 168.882 296.695C168.666 296.405 168.371 296.167 167.996 295.979C167.621 295.792 167.141 295.698 166.555 295.698C165.754 295.698 165.087 295.883 164.553 296.252C164.024 296.616 163.76 297.079 163.76 297.641C163.76 298.141 163.942 298.536 164.305 298.826C164.669 299.116 165.237 299.357 166.01 299.55L167.953 300.028C169.124 300.312 169.996 300.746 170.57 301.331C171.143 301.911 171.43 302.658 171.43 303.573C171.43 304.323 171.214 304.993 170.783 305.584C170.357 306.175 169.76 306.641 168.993 306.982C168.226 307.323 167.334 307.493 166.317 307.493C164.982 307.493 163.876 307.204 163.001 306.624C162.126 306.045 161.572 305.198 161.339 304.084L163.249 303.607C163.43 304.312 163.774 304.84 164.28 305.192C164.791 305.545 165.459 305.721 166.283 305.721C167.22 305.721 167.964 305.522 168.516 305.124C169.072 304.721 169.351 304.238 169.351 303.675C169.351 303.221 169.192 302.84 168.874 302.533C168.555 302.221 168.067 301.988 167.408 301.834L165.226 301.323C164.027 301.039 163.146 300.599 162.584 300.002C162.027 299.4 161.749 298.647 161.749 297.743C161.749 297.005 161.956 296.351 162.371 295.783C162.791 295.215 163.362 294.769 164.084 294.445C164.811 294.121 165.635 293.959 166.555 293.959C167.851 293.959 168.868 294.243 169.607 294.812C170.351 295.38 170.879 296.13 171.192 297.062ZM179.776 307.493C178.549 307.493 177.492 307.204 176.606 306.624C175.719 306.045 175.038 305.246 174.56 304.229C174.083 303.212 173.844 302.05 173.844 300.743C173.844 299.414 174.089 298.241 174.577 297.224C175.072 296.201 175.759 295.403 176.64 294.829C177.526 294.249 178.56 293.959 179.742 293.959C180.663 293.959 181.492 294.13 182.231 294.471C182.969 294.812 183.575 295.289 184.046 295.903C184.518 296.516 184.81 297.232 184.924 298.05H182.913C182.759 297.454 182.418 296.925 181.89 296.465C181.367 295.999 180.663 295.766 179.776 295.766C178.992 295.766 178.305 295.971 177.714 296.38C177.129 296.783 176.671 297.354 176.342 298.093C176.018 298.826 175.856 299.687 175.856 300.675C175.856 301.687 176.015 302.567 176.333 303.317C176.657 304.067 177.112 304.65 177.697 305.064C178.288 305.479 178.981 305.687 179.776 305.687C180.299 305.687 180.773 305.596 181.2 305.414C181.626 305.232 181.987 304.971 182.282 304.63C182.577 304.289 182.788 303.88 182.913 303.403H184.924C184.81 304.175 184.529 304.871 184.08 305.491C183.637 306.104 183.049 306.593 182.316 306.956C181.589 307.314 180.742 307.493 179.776 307.493ZM187.864 307.221V294.13H189.808V296.107H189.944C190.183 295.459 190.614 294.934 191.239 294.53C191.864 294.127 192.569 293.925 193.353 293.925C193.501 293.925 193.685 293.928 193.907 293.934C194.129 293.939 194.296 293.948 194.41 293.959V296.005C194.342 295.988 194.185 295.962 193.941 295.928C193.702 295.888 193.45 295.868 193.183 295.868C192.546 295.868 191.978 296.002 191.478 296.269C190.984 296.53 190.592 296.894 190.302 297.36C190.018 297.82 189.876 298.346 189.876 298.937V307.221H187.864ZM196.794 307.221V294.13H198.805V307.221H196.794ZM197.817 291.948C197.425 291.948 197.087 291.814 196.803 291.547C196.524 291.28 196.385 290.959 196.385 290.584C196.385 290.209 196.524 289.888 196.803 289.621C197.087 289.354 197.425 289.221 197.817 289.221C198.209 289.221 198.544 289.354 198.822 289.621C199.107 289.888 199.249 290.209 199.249 290.584C199.249 290.959 199.107 291.28 198.822 291.547C198.544 291.814 198.209 291.948 197.817 291.948ZM202.489 312.13V294.13H204.433V296.209H204.671C204.819 295.982 205.023 295.692 205.285 295.34C205.552 294.982 205.933 294.664 206.427 294.385C206.927 294.101 207.603 293.959 208.455 293.959C209.558 293.959 210.529 294.235 211.37 294.786C212.211 295.337 212.867 296.118 213.339 297.13C213.81 298.141 214.046 299.334 214.046 300.709C214.046 302.096 213.81 303.297 213.339 304.314C212.867 305.326 212.214 306.11 211.379 306.667C210.543 307.218 209.58 307.493 208.489 307.493C207.648 307.493 206.975 307.354 206.469 307.076C205.964 306.792 205.575 306.471 205.302 306.113C205.029 305.749 204.819 305.448 204.671 305.209H204.501V312.13H202.489ZM204.467 300.675C204.467 301.664 204.612 302.536 204.901 303.292C205.191 304.042 205.614 304.63 206.171 305.056C206.728 305.476 207.41 305.687 208.217 305.687C209.058 305.687 209.759 305.465 210.322 305.022C210.89 304.573 211.316 303.971 211.6 303.215C211.89 302.454 212.035 301.607 212.035 300.675C212.035 299.755 211.893 298.925 211.609 298.187C211.33 297.442 210.907 296.854 210.339 296.422C209.776 295.985 209.069 295.766 208.217 295.766C207.398 295.766 206.711 295.974 206.154 296.388C205.597 296.797 205.177 297.371 204.893 298.11C204.609 298.843 204.467 299.698 204.467 300.675ZM222.808 294.13V295.834H216.023V294.13H222.808ZM218.001 290.993H220.012V303.471C220.012 304.039 220.094 304.465 220.259 304.749C220.43 305.028 220.646 305.215 220.907 305.312C221.174 305.403 221.455 305.448 221.751 305.448C221.972 305.448 222.154 305.437 222.296 305.414C222.438 305.385 222.552 305.363 222.637 305.346L223.046 307.153C222.91 307.204 222.719 307.255 222.475 307.306C222.231 307.363 221.921 307.391 221.546 307.391C220.978 307.391 220.421 307.269 219.876 307.025C219.336 306.78 218.887 306.408 218.529 305.908C218.177 305.408 218.001 304.778 218.001 304.016V290.993ZM225.833 307.221V294.13H227.844V307.221H225.833ZM226.856 291.948C226.464 291.948 226.126 291.814 225.842 291.547C225.563 291.28 225.424 290.959 225.424 290.584C225.424 290.209 225.563 289.888 225.842 289.621C226.126 289.354 226.464 289.221 226.856 289.221C227.248 289.221 227.583 289.354 227.862 289.621C228.146 289.888 228.288 290.209 228.288 290.584C228.288 290.959 228.146 291.28 227.862 291.547C227.583 291.814 227.248 291.948 226.856 291.948ZM236.847 307.493C235.665 307.493 234.628 307.212 233.736 306.65C232.849 306.087 232.156 305.3 231.656 304.289C231.162 303.278 230.915 302.096 230.915 300.743C230.915 299.38 231.162 298.189 231.656 297.172C232.156 296.155 232.849 295.366 233.736 294.803C234.628 294.241 235.665 293.959 236.847 293.959C238.028 293.959 239.063 294.241 239.949 294.803C240.841 295.366 241.534 296.155 242.028 297.172C242.528 298.189 242.778 299.38 242.778 300.743C242.778 302.096 242.528 303.278 242.028 304.289C241.534 305.3 240.841 306.087 239.949 306.65C239.063 307.212 238.028 307.493 236.847 307.493ZM236.847 305.687C237.744 305.687 238.483 305.456 239.062 304.996C239.642 304.536 240.071 303.931 240.349 303.181C240.628 302.431 240.767 301.618 240.767 300.743C240.767 299.868 240.628 299.053 240.349 298.297C240.071 297.542 239.642 296.931 239.062 296.465C238.483 295.999 237.744 295.766 236.847 295.766C235.949 295.766 235.21 295.999 234.631 296.465C234.051 296.931 233.622 297.542 233.344 298.297C233.065 299.053 232.926 299.868 232.926 300.743C232.926 301.618 233.065 302.431 233.344 303.181C233.622 303.931 234.051 304.536 234.631 304.996C235.21 305.456 235.949 305.687 236.847 305.687ZM247.86 299.346V307.221H245.849V294.13H247.792V296.175H247.962C248.269 295.51 248.735 294.976 249.36 294.573C249.985 294.164 250.792 293.959 251.781 293.959C252.667 293.959 253.442 294.141 254.107 294.505C254.772 294.863 255.289 295.408 255.658 296.141C256.028 296.868 256.212 297.789 256.212 298.903V307.221H254.201V299.039C254.201 298.01 253.934 297.209 253.4 296.635C252.866 296.056 252.133 295.766 251.201 295.766C250.559 295.766 249.985 295.905 249.479 296.184C248.979 296.462 248.585 296.868 248.295 297.403C248.005 297.937 247.86 298.584 247.86 299.346Z" fill="white"/>
<line y1="-2.71429" x2="23.7655" y2="-2.71429" transform="matrix(0.68538 0.73682 -0.664614 0.738673 510 209)" stroke="white" stroke-width="5.42857"/>
<line y1="-2.71429" x2="23.7655" y2="-2.71429" transform="matrix(-0.664429 0.738841 0.685199 0.736988 542.074 208.955)" stroke="white" stroke-width="5.42857"/>
<g filter="url(#filter5_b_195_8197)">
<path d="M194 504C194 498.477 198.477 494 204 494H387C392.523 494 397 498.477 397 504V541.84C397 547.363 392.523 551.84 387 551.84H204C198.477 551.84 194 547.363 194 541.84V504Z" fill="url(#paint9_linear_195_8197)" fill-opacity="0.6"/>
<path d="M194.5 504C194.5 498.753 198.753 494.5 204 494.5H387C392.247 494.5 396.5 498.753 396.5 504V541.84C396.5 547.087 392.247 551.34 387 551.34H204C198.753 551.34 194.5 547.087 194.5 541.84V504Z" stroke="url(#paint10_linear_195_8197)" stroke-opacity="0.6"/>
</g>
<path d="M279.55 516.909C279.447 516.045 279.033 515.375 278.305 514.898C277.578 514.42 276.686 514.182 275.629 514.182C274.857 514.182 274.18 514.307 273.601 514.557C273.027 514.807 272.578 515.151 272.254 515.588C271.936 516.026 271.777 516.523 271.777 517.08C271.777 517.545 271.888 517.946 272.109 518.281C272.337 518.611 272.626 518.886 272.979 519.108C273.331 519.324 273.7 519.503 274.087 519.645C274.473 519.781 274.828 519.892 275.152 519.977L276.925 520.455C277.379 520.574 277.885 520.739 278.442 520.949C279.004 521.159 279.541 521.446 280.053 521.81C280.57 522.168 280.996 522.628 281.331 523.19C281.666 523.753 281.834 524.443 281.834 525.261C281.834 526.205 281.587 527.057 281.092 527.818C280.604 528.58 279.888 529.185 278.945 529.634C278.007 530.082 276.868 530.307 275.527 530.307C274.277 530.307 273.195 530.105 272.28 529.702C271.371 529.298 270.655 528.736 270.132 528.014C269.615 527.293 269.322 526.455 269.254 525.5H271.436C271.493 526.159 271.714 526.705 272.101 527.136C272.493 527.562 272.987 527.881 273.584 528.091C274.186 528.295 274.834 528.398 275.527 528.398C276.334 528.398 277.058 528.267 277.7 528.006C278.342 527.739 278.851 527.369 279.226 526.898C279.601 526.42 279.788 525.864 279.788 525.227C279.788 524.648 279.626 524.176 279.303 523.812C278.979 523.449 278.553 523.153 278.024 522.926C277.496 522.699 276.925 522.5 276.311 522.33L274.163 521.716C272.8 521.324 271.72 520.764 270.925 520.037C270.129 519.31 269.732 518.358 269.732 517.182C269.732 516.205 269.996 515.352 270.524 514.625C271.058 513.892 271.774 513.324 272.672 512.92C273.575 512.511 274.584 512.307 275.697 512.307C276.822 512.307 277.822 512.509 278.697 512.912C279.572 513.31 280.266 513.855 280.777 514.548C281.294 515.241 281.567 516.028 281.595 516.909H279.55ZM288.888 530.307C288.059 530.307 287.306 530.151 286.63 529.838C285.954 529.52 285.417 529.062 285.019 528.466C284.621 527.864 284.423 527.136 284.423 526.284C284.423 525.534 284.57 524.926 284.866 524.46C285.161 523.989 285.556 523.619 286.05 523.352C286.545 523.085 287.09 522.886 287.687 522.756C288.289 522.619 288.894 522.511 289.502 522.432C290.298 522.33 290.942 522.253 291.437 522.202C291.937 522.145 292.3 522.051 292.528 521.92C292.761 521.79 292.877 521.562 292.877 521.239V521.17C292.877 520.33 292.647 519.676 292.187 519.21C291.732 518.744 291.042 518.511 290.116 518.511C289.156 518.511 288.403 518.722 287.857 519.142C287.312 519.562 286.928 520.011 286.707 520.489L284.798 519.807C285.138 519.011 285.593 518.392 286.161 517.949C286.735 517.5 287.36 517.187 288.036 517.011C288.718 516.83 289.388 516.739 290.048 516.739C290.468 516.739 290.951 516.79 291.496 516.892C292.048 516.989 292.579 517.19 293.09 517.497C293.607 517.804 294.036 518.267 294.377 518.886C294.718 519.506 294.888 520.335 294.888 521.375V530H292.877V528.227H292.775C292.638 528.511 292.411 528.815 292.093 529.139C291.775 529.463 291.352 529.739 290.823 529.966C290.295 530.193 289.65 530.307 288.888 530.307ZM289.195 528.5C289.991 528.5 290.661 528.344 291.207 528.031C291.758 527.719 292.173 527.315 292.451 526.821C292.735 526.327 292.877 525.807 292.877 525.261V523.42C292.792 523.523 292.604 523.616 292.315 523.702C292.031 523.781 291.701 523.852 291.326 523.915C290.957 523.972 290.596 524.023 290.244 524.068C289.897 524.108 289.616 524.142 289.4 524.17C288.877 524.239 288.388 524.349 287.934 524.503C287.485 524.651 287.121 524.875 286.843 525.176C286.57 525.472 286.434 525.875 286.434 526.386C286.434 527.085 286.692 527.614 287.21 527.972C287.732 528.324 288.394 528.5 289.195 528.5ZM308.795 516.909L303.955 530H301.909L297.068 516.909H299.25L302.864 527.341H303L306.614 516.909H308.795ZM316.47 530.273C315.209 530.273 314.121 529.994 313.206 529.438C312.297 528.875 311.595 528.091 311.101 527.085C310.612 526.074 310.368 524.898 310.368 523.557C310.368 522.216 310.612 521.034 311.101 520.011C311.595 518.983 312.283 518.182 313.163 517.608C314.05 517.028 315.084 516.739 316.266 516.739C316.947 516.739 317.621 516.852 318.286 517.08C318.95 517.307 319.555 517.676 320.101 518.188C320.646 518.693 321.081 519.364 321.405 520.199C321.729 521.034 321.891 522.062 321.891 523.284V524.136H311.8V522.398H319.845C319.845 521.659 319.697 521 319.402 520.42C319.112 519.841 318.697 519.384 318.158 519.048C317.624 518.713 316.993 518.545 316.266 518.545C315.464 518.545 314.771 518.744 314.186 519.142C313.607 519.534 313.161 520.045 312.848 520.676C312.536 521.307 312.379 521.983 312.379 522.705V523.864C312.379 524.852 312.55 525.69 312.891 526.378C313.237 527.06 313.717 527.58 314.331 527.938C314.945 528.29 315.658 528.466 316.47 528.466C316.999 528.466 317.476 528.392 317.902 528.244C318.334 528.091 318.706 527.864 319.018 527.562C319.331 527.256 319.572 526.875 319.743 526.42L321.686 526.966C321.482 527.625 321.138 528.205 320.655 528.705C320.172 529.199 319.575 529.585 318.865 529.864C318.155 530.136 317.357 530.273 316.47 530.273Z" fill="white"/>
<path d="M43.5417 489.959H46.25C47.6866 489.959 49.0643 489.388 50.0802 488.372C51.096 487.357 51.6667 485.979 51.6667 484.542C51.6667 483.824 51.952 483.135 52.4599 482.627C52.9678 482.119 53.6567 481.834 54.375 481.834H70.625C71.3433 481.834 72.0322 482.119 72.5401 482.627C73.048 483.135 73.3333 483.824 73.3333 484.542C73.3333 485.979 73.904 487.357 74.9198 488.372C75.9357 489.388 77.3134 489.959 78.75 489.959H81.4583C82.8949 489.959 84.2727 490.53 85.2885 491.545C86.3043 492.561 86.875 493.939 86.875 495.376V519.751C86.875 521.187 86.3043 522.565 85.2885 523.581C84.2727 524.597 82.8949 525.167 81.4583 525.167H43.5417C42.1051 525.167 40.7273 524.597 39.7115 523.581C38.6957 522.565 38.125 521.187 38.125 519.751V495.376C38.125 493.939 38.6957 492.561 39.7115 491.545C40.7273 490.53 42.1051 489.959 43.5417 489.959" stroke="white" stroke-width="3.66667" stroke-linecap="round" stroke-linejoin="round"/>
<path d="M62.5 514.334C66.9873 514.334 70.625 510.696 70.625 506.209C70.625 501.722 66.9873 498.084 62.5 498.084C58.0127 498.084 54.375 501.722 54.375 506.209C54.375 510.696 58.0127 514.334 62.5 514.334Z" stroke="white" stroke-width="3.66667" stroke-linecap="round" stroke-linejoin="round"/>
<rect x="4.5" y="0.5" width="583" height="578.231" rx="9.5" stroke="url(#paint11_linear_195_8197)" stroke-opacity="0.6"/>
</g>
<defs>
<filter id="filter0_bi_195_8197" x="-196" y="-200" width="984" height="979.23" filterUnits="userSpaceOnUse" color-interpolation-filters="sRGB">
<feFlood flood-opacity="0" result="BackgroundImageFix"/>
<feGaussianBlur in="BackgroundImage" stdDeviation="100"/>
<feComposite in2="SourceAlpha" operator="in" result="effect1_backgroundBlur_195_8197"/>
<feBlend mode="normal" in="SourceGraphic" in2="effect1_backgroundBlur_195_8197" result="shape"/>
<feColorMatrix in="SourceAlpha" type="matrix" values="0 0 0 0 0 0 0 0 0 0 0 0 0 0 0 0 0 0 127 0" result="hardAlpha"/>
<feOffset dy="4"/>
<feGaussianBlur stdDeviation="2"/>
<feComposite in2="hardAlpha" operator="arithmetic" k2="-1" k3="1"/>
<feColorMatrix type="matrix" values="0 0 0 0 0 0 0 0 0 0 0 0 0 0 0 0 0 0 0.25 0"/>
<feBlend mode="normal" in2="shape" result="effect2_innerShadow_195_8197"/>
</filter>
<filter id="filter1_bd_195_8197" x="-96" y="-88" width="784" height="767" filterUnits="userSpaceOnUse" color-interpolation-filters="sRGB">
<feFlood flood-opacity="0" result="BackgroundImageFix"/>
<feGaussianBlur in="BackgroundImage" stdDeviation="50"/>
<feComposite in2="SourceAlpha" operator="in" result="effect1_backgroundBlur_195_8197"/>
<feColorMatrix in="SourceAlpha" type="matrix" values="0 0 0 0 0 0 0 0 0 0 0 0 0 0 0 0 0 0 127 0" result="hardAlpha"/>
<feOffset dy="4"/>
<feGaussianBlur stdDeviation="2"/>
<feComposite in2="hardAlpha" operator="out"/>
<feColorMatrix type="matrix" values="0 0 0 0 0 0 0 0 0 0 0 0 0 0 0 0 0 0 0.25 0"/>
<feBlend mode="normal" in2="effect1_backgroundBlur_195_8197" result="effect2_dropShadow_195_8197"/>
<feBlend mode="normal" in="SourceGraphic" in2="effect2_dropShadow_195_8197" result="shape"/>
</filter>
<filter id="filter2_bi_195_8197" x="-170" y="-94" width="932" height="467.449" filterUnits="userSpaceOnUse" color-interpolation-filters="sRGB">
<feFlood flood-opacity="0" result="BackgroundImageFix"/>
<feGaussianBlur in="BackgroundImage" stdDeviation="100"/>
<feComposite in2="SourceAlpha" operator="in" result="effect1_backgroundBlur_195_8197"/>
<feBlend mode="normal" in="SourceGraphic" in2="effect1_backgroundBlur_195_8197" result="shape"/>
<feColorMatrix in="SourceAlpha" type="matrix" values="0 0 0 0 0 0 0 0 0 0 0 0 0 0 0 0 0 0 127 0" result="hardAlpha"/>
<feOffset dy="4"/>
<feGaussianBlur stdDeviation="2"/>
<feComposite in2="hardAlpha" operator="arithmetic" k2="-1" k3="1"/>
<feColorMatrix type="matrix" values="0 0 0 0 0 0 0 0 0 0 0 0 0 0 0 0 0 0 0.25 0"/>
<feBlend mode="normal" in2="shape" result="effect2_innerShadow_195_8197"/>
</filter>
<filter id="filter3_bi_195_8197" x="-170" y="-16" width="932" height="467.449" filterUnits="userSpaceOnUse" color-interpolation-filters="sRGB">
<feFlood flood-opacity="0" result="BackgroundImageFix"/>
<feGaussianBlur in="BackgroundImage" stdDeviation="100"/>
<feComposite in2="SourceAlpha" operator="in" result="effect1_backgroundBlur_195_8197"/>
<feBlend mode="normal" in="SourceGraphic" in2="effect1_backgroundBlur_195_8197" result="shape"/>
<feColorMatrix in="SourceAlpha" type="matrix" values="0 0 0 0 0 0 0 0 0 0 0 0 0 0 0 0 0 0 127 0" result="hardAlpha"/>
<feOffset dy="4"/>
<feGaussianBlur stdDeviation="2"/>
<feComposite in2="hardAlpha" operator="arithmetic" k2="-1" k3="1"/>
<feColorMatrix type="matrix" values="0 0 0 0 0 0 0 0 0 0 0 0 0 0 0 0 0 0 0.25 0"/>
<feBlend mode="normal" in2="shape" result="effect2_innerShadow_195_8197"/>
</filter>
<filter id="filter4_bi_195_8197" x="-170" y="69.127" width="932" height="583.957" filterUnits="userSpaceOnUse" color-interpolation-filters="sRGB">
<feFlood flood-opacity="0" result="BackgroundImageFix"/>
<feGaussianBlur in="BackgroundImage" stdDeviation="100"/>
<feComposite in2="SourceAlpha" operator="in" result="effect1_backgroundBlur_195_8197"/>
<feBlend mode="normal" in="SourceGraphic" in2="effect1_backgroundBlur_195_8197" result="shape"/>
<feColorMatrix in="SourceAlpha" type="matrix" values="0 0 0 0 0 0 0 0 0 0 0 0 0 0 0 0 0 0 127 0" result="hardAlpha"/>
<feOffset dy="4"/>
<feGaussianBlur stdDeviation="2"/>
<feComposite in2="hardAlpha" operator="arithmetic" k2="-1" k3="1"/>
<feColorMatrix type="matrix" values="0 0 0 0 0 0 0 0 0 0 0 0 0 0 0 0 0 0 0.25 0"/>
<feBlend mode="normal" in2="shape" result="effect2_innerShadow_195_8197"/>
</filter>
<filter id="filter5_b_195_8197" x="-6" y="294" width="603" height="457.84" filterUnits="userSpaceOnUse" color-interpolation-filters="sRGB">
<feFlood flood-opacity="0" result="BackgroundImageFix"/>
<feGaussianBlur in="BackgroundImage" stdDeviation="100"/>
<feComposite in2="SourceAlpha" operator="in" result="effect1_backgroundBlur_195_8197"/>
<feBlend mode="normal" in="SourceGraphic" in2="effect1_backgroundBlur_195_8197" result="shape"/>
</filter>
<linearGradient id="paint0_linear_195_8197" x1="4" y1="0" x2="700.429" y2="296.563" gradientUnits="userSpaceOnUse">
<stop stop-color="#D9D9D9" stop-opacity="0.8"/>
<stop offset="1" stop-color="#D9D9D9" stop-opacity="0.6"/>
</linearGradient>
<linearGradient id="paint1_linear_195_8197" x1="4" y1="12" x2="695.798" y2="312.946" gradientUnits="userSpaceOnUse">
<stop stop-color="#D9D9D9" stop-opacity="0.8"/>
<stop offset="1" stop-color="#D9D9D9" stop-opacity="0.2"/>
</linearGradient>
<linearGradient id="paint2_linear_195_8197" x1="4" y1="12" x2="702.537" y2="314.572" gradientUnits="userSpaceOnUse">
<stop offset="0.00346385" stop-color="white"/>
<stop offset="1" stop-color="white" stop-opacity="0"/>
</linearGradient>
<linearGradient id="paint3_linear_195_8197" x1="30" y1="106" x2="91.9525" y2="312.38" gradientUnits="userSpaceOnUse">
<stop stop-color="#D9D9D9" stop-opacity="0.8"/>
<stop offset="1" stop-color="#D9D9D9" stop-opacity="0.6"/>
</linearGradient>
<linearGradient id="paint4_linear_195_8197" x1="30" y1="106" x2="92.9659" y2="314.855" gradientUnits="userSpaceOnUse">
<stop offset="0.00346385" stop-color="white"/>
<stop offset="1" stop-color="white" stop-opacity="0"/>
</linearGradient>
<linearGradient id="paint5_linear_195_8197" x1="30" y1="184" x2="91.9525" y2="390.38" gradientUnits="userSpaceOnUse">
<stop stop-color="#D9D9D9" stop-opacity="0.8"/>
<stop offset="1" stop-color="#D9D9D9" stop-opacity="0.6"/>
</linearGradient>
<linearGradient id="paint6_linear_195_8197" x1="30" y1="184" x2="92.9659" y2="392.855" gradientUnits="userSpaceOnUse">
<stop offset="0.00346385" stop-color="white"/>
<stop offset="1" stop-color="white" stop-opacity="0"/>
</linearGradient>
<linearGradient id="paint7_linear_195_8197" x1="30" y1="269.127" x2="330.756" y2="636.483" gradientUnits="userSpaceOnUse">
<stop stop-color="#D9D9D9" stop-opacity="0.8"/>
<stop offset="1" stop-color="#D9D9D9" stop-opacity="0.6"/>
</linearGradient>
<linearGradient id="paint8_linear_195_8197" x1="30" y1="269.127" x2="334.837" y2="639.867" gradientUnits="userSpaceOnUse">
<stop offset="0.00346385" stop-color="white"/>
<stop offset="1" stop-color="white" stop-opacity="0"/>
</linearGradient>
<linearGradient id="paint9_linear_195_8197" x1="194" y1="494" x2="283.443" y2="626.585" gradientUnits="userSpaceOnUse">
<stop stop-color="#D9D9D9" stop-opacity="0.8"/>
<stop offset="1" stop-color="#D9D9D9" stop-opacity="0.6"/>
</linearGradient>
<linearGradient id="paint10_linear_195_8197" x1="194" y1="494" x2="284.726" y2="627.908" gradientUnits="userSpaceOnUse">
<stop offset="0.00346385" stop-color="white"/>
<stop offset="1" stop-color="white" stop-opacity="0"/>
</linearGradient>
<linearGradient id="paint11_linear_195_8197" x1="4" y1="0" x2="707.179" y2="298.151" gradientUnits="userSpaceOnUse">
<stop offset="0.00346385" stop-color="white"/>
<stop offset="1" stop-color="white" stop-opacity="0"/>
</linearGradient>
</defs>
</svg>
