<svg width="80" height="24" viewBox="0 0 80 24" fill="none" xmlns="http://www.w3.org/2000/svg">
<path d="M3.55114 1.54545V19H0.917614V1.54545H3.55114ZM7.18182 19V5.90909H9.62784V8.03977H9.78977C10.0625 7.31818 10.5085 6.75568 11.1278 6.35227C11.7472 5.94318 12.4886 5.73864 13.3523 5.73864C14.2273 5.73864 14.9602 5.94318 15.5511 6.35227C16.1477 6.76136 16.5881 7.32386 16.8722 8.03977H17.0085C17.321 7.34091 17.8182 6.78409 18.5 6.36932C19.1818 5.94886 19.9943 5.73864 20.9375 5.73864C22.125 5.73864 23.0938 6.1108 23.8438 6.85511C24.5994 7.59943 24.9773 8.72159 24.9773 10.2216V19H22.429V10.4602C22.429 9.57386 22.1875 8.93182 21.7045 8.53409C21.2216 8.13636 20.6449 7.9375 19.9744 7.9375C19.1449 7.9375 18.5 8.19318 18.0398 8.70455C17.5795 9.21023 17.3494 9.8608 17.3494 10.6562V19H14.8097V10.2983C14.8097 9.58807 14.5881 9.01705 14.1449 8.58523C13.7017 8.15341 13.125 7.9375 12.4148 7.9375C11.9318 7.9375 11.4858 8.06534 11.0767 8.32102C10.6733 8.57102 10.3466 8.92045 10.0966 9.36932C9.85227 9.81818 9.73011 10.3381 9.73011 10.929V19H7.18182ZM28.3928 23.9091V5.90909H30.8814V8.03125H31.0945C31.2422 7.75852 31.4553 7.44318 31.7337 7.08523C32.0121 6.72727 32.3984 6.41477 32.8928 6.14773C33.3871 5.875 34.0405 5.73864 34.853 5.73864C35.9098 5.73864 36.853 6.00568 37.6825 6.53977C38.5121 7.07386 39.1626 7.84375 39.6342 8.84943C40.1115 9.85511 40.3501 11.0653 40.3501 12.4801C40.3501 13.8949 40.1143 15.108 39.6428 16.1193C39.1712 17.125 38.5234 17.9006 37.6996 18.446C36.8757 18.9858 35.9354 19.2557 34.8786 19.2557C34.0831 19.2557 33.4325 19.1222 32.9268 18.8551C32.4268 18.5881 32.0348 18.2756 31.7507 17.9176C31.4666 17.5597 31.2479 17.2415 31.0945 16.9631H30.9411V23.9091H28.3928ZM30.8899 12.4545C30.8899 13.375 31.0234 14.1818 31.2905 14.875C31.5575 15.5682 31.9439 16.1108 32.4496 16.5028C32.9553 16.8892 33.5746 17.0824 34.3075 17.0824C35.0689 17.0824 35.7053 16.8807 36.2166 16.4773C36.728 16.0682 37.1143 15.5142 37.3757 14.8153C37.6428 14.1165 37.7763 13.3295 37.7763 12.4545C37.7763 11.5909 37.6456 10.8153 37.3842 10.1278C37.1286 9.44034 36.7422 8.89773 36.2251 8.5C35.7138 8.10227 35.0746 7.90341 34.3075 7.90341C33.5689 7.90341 32.9439 8.09375 32.4325 8.47443C31.9268 8.85511 31.5433 9.38636 31.282 10.0682C31.0206 10.75 30.8899 11.5455 30.8899 12.4545ZM43.2053 19V5.90909H45.6683V7.98864H45.8047C46.0433 7.28409 46.4638 6.73011 47.0661 6.3267C47.674 5.91761 48.3615 5.71307 49.1286 5.71307C49.2876 5.71307 49.4751 5.71875 49.6911 5.73011C49.9126 5.74148 50.0859 5.75568 50.2109 5.77273V8.21023C50.1087 8.18182 49.9268 8.15057 49.6655 8.11648C49.4041 8.0767 49.1428 8.05682 48.8814 8.05682C48.2791 8.05682 47.7422 8.18466 47.2706 8.44034C46.8047 8.69034 46.4354 9.03977 46.1626 9.48864C45.8899 9.93182 45.7536 10.4375 45.7536 11.0057V19H43.2053ZM52.4162 19V5.90909H54.9645V19H52.4162ZM53.7031 3.8892C53.2599 3.8892 52.8793 3.74148 52.5611 3.44602C52.2486 3.14489 52.0923 2.78693 52.0923 2.37216C52.0923 1.9517 52.2486 1.59375 52.5611 1.29829C52.8793 0.997159 53.2599 0.846591 53.7031 0.846591C54.1463 0.846591 54.5241 0.997159 54.8366 1.29829C55.1548 1.59375 55.3139 1.9517 55.3139 2.37216C55.3139 2.78693 55.1548 3.14489 54.8366 3.44602C54.5241 3.74148 54.1463 3.8892 53.7031 3.8892ZM60.9411 11.2273V19H58.3928V5.90909H60.8388V8.03977H61.0007C61.3018 7.34659 61.7734 6.78977 62.4155 6.36932C63.0632 5.94886 63.8786 5.73864 64.8615 5.73864C65.7536 5.73864 66.5348 5.92614 67.2053 6.30114C67.8757 6.67045 68.3956 7.22159 68.7649 7.95455C69.1342 8.6875 69.3189 9.59375 69.3189 10.6733V19H66.7706V10.9801C66.7706 10.0312 66.5234 9.28977 66.0291 8.75568C65.5348 8.21591 64.8558 7.94602 63.9922 7.94602C63.4013 7.94602 62.8757 8.07386 62.4155 8.32955C61.9609 8.58523 61.6001 8.96023 61.3331 9.45455C61.0717 9.94318 60.9411 10.5341 60.9411 11.2273ZM78.8473 5.90909V7.95455H71.6967V5.90909H78.8473ZM73.6143 2.77273H76.1626V15.1562C76.1626 15.6506 76.2365 16.0227 76.3842 16.2727C76.532 16.517 76.7223 16.6847 76.9553 16.7756C77.1939 16.8608 77.4524 16.9034 77.7308 16.9034C77.9354 16.9034 78.1143 16.8892 78.2678 16.8608C78.4212 16.8324 78.5405 16.8097 78.6257 16.7926L79.0859 18.8977C78.9382 18.9545 78.728 19.0114 78.4553 19.0682C78.1825 19.1307 77.8416 19.1648 77.4325 19.1705C76.7621 19.1818 76.1371 19.0625 75.5575 18.8125C74.978 18.5625 74.5092 18.1761 74.1513 17.6534C73.7933 17.1307 73.6143 16.4744 73.6143 15.6847V2.77273Z" fill="white"/>
</svg>
