<svg width="650" height="553" viewBox="0 0 650 553" fill="none" xmlns="http://www.w3.org/2000/svg">
<path d="M0 24.4258C0 18.9029 4.47715 14.4258 10 14.4258H640C645.523 14.4258 650 18.9029 650 24.4258V553H0V24.4258Z" fill="#D9D9D9"/>
<path d="M36.4447 513.421V512.696L39.6407 507.639H40.1663V508.762H39.8112L37.3964 512.583V512.639H41.7004V513.421H36.4447ZM39.868 514.912V513.2V512.863V507.639H40.7061V514.912H39.868ZM46.6959 511.631V514.912H45.8579V507.639H46.6959V510.31H46.767C46.8948 510.028 47.0866 509.804 47.3422 509.639C47.6003 509.471 47.9436 509.387 48.3721 509.387C48.7438 509.387 49.0693 509.461 49.3486 509.61C49.628 509.757 49.8446 509.983 49.9985 510.289C50.1547 510.592 50.2329 510.977 50.2329 511.446V514.912H49.3948V511.503C49.3948 511.07 49.2823 510.735 49.0574 510.498C48.8349 510.259 48.526 510.139 48.1306 510.139C47.856 510.139 47.6098 510.197 47.392 510.313C47.1765 510.429 47.0061 510.599 46.8806 510.821C46.7575 511.044 46.6959 511.314 46.6959 511.631ZM53.982 515.026C53.4896 515.026 53.0575 514.909 52.6858 514.674C52.3165 514.44 52.0277 514.112 51.8193 513.691C51.6134 513.269 51.5104 512.777 51.5104 512.213C51.5104 511.645 51.6134 511.149 51.8193 510.725C52.0277 510.302 52.3165 509.972 52.6858 509.738C53.0575 509.504 53.4896 509.387 53.982 509.387C54.4744 509.387 54.9053 509.504 55.2746 509.738C55.6463 509.972 55.9351 510.302 56.1411 510.725C56.3494 511.149 56.4536 511.645 56.4536 512.213C56.4536 512.777 56.3494 513.269 56.1411 513.691C55.9351 514.112 55.6463 514.44 55.2746 514.674C54.9053 514.909 54.4744 515.026 53.982 515.026ZM53.982 514.273C54.356 514.273 54.6638 514.177 54.9053 513.985C55.1468 513.794 55.3255 513.541 55.4415 513.229C55.5575 512.916 55.6155 512.578 55.6155 512.213C55.6155 511.849 55.5575 511.509 55.4415 511.194C55.3255 510.879 55.1468 510.625 54.9053 510.431C54.6638 510.236 54.356 510.139 53.982 510.139C53.6079 510.139 53.3002 510.236 53.0587 510.431C52.8172 510.625 52.6385 510.879 52.5225 511.194C52.4065 511.509 52.3485 511.849 52.3485 512.213C52.3485 512.578 52.4065 512.916 52.5225 513.229C52.6385 513.541 52.8172 513.794 53.0587 513.985C53.3002 514.177 53.6079 514.273 53.982 514.273ZM61.1704 512.682V509.458H62.0084V514.912H61.1704V513.989H61.1135C60.9857 514.266 60.7868 514.501 60.517 514.695C60.2471 514.887 59.9062 514.983 59.4942 514.983C59.1533 514.983 58.8503 514.909 58.5851 514.759C58.32 514.608 58.1117 514.381 57.9601 514.078C57.8086 513.772 57.7329 513.387 57.7329 512.923V509.458H58.5709V512.867C58.5709 513.264 58.6822 513.582 58.9047 513.818C59.1296 514.055 59.4161 514.173 59.7641 514.173C59.9724 514.173 60.1843 514.12 60.3998 514.014C60.6176 513.907 60.7999 513.744 60.9466 513.524C61.0958 513.303 61.1704 513.023 61.1704 512.682ZM63.5434 514.912V509.458H64.3531V510.281H64.4099C64.5093 510.012 64.6892 509.793 64.9497 509.624C65.2101 509.456 65.5036 509.372 65.8303 509.372C65.8919 509.372 65.9688 509.374 66.0612 509.376C66.1535 509.378 66.2233 509.382 66.2707 509.387V510.239C66.2423 510.232 66.1772 510.221 66.0754 510.207C65.9759 510.19 65.8706 510.182 65.7593 510.182C65.4942 510.182 65.2574 510.238 65.0491 510.349C64.8431 510.458 64.6798 510.609 64.559 510.803C64.4407 510.995 64.3815 511.214 64.3815 511.46V514.912H63.5434ZM71.1278 510.679L70.3749 510.892C70.3276 510.767 70.2577 510.645 70.1654 510.526C70.0754 510.406 69.9523 510.306 69.7961 510.228C69.6398 510.15 69.4398 510.111 69.1959 510.111C68.8621 510.111 68.584 510.188 68.3614 510.342C68.1412 510.493 68.0312 510.686 68.0312 510.921C68.0312 511.129 68.1069 511.294 68.2584 511.414C68.4099 511.535 68.6467 511.636 68.9687 511.716L69.7783 511.915C70.266 512.033 70.6294 512.214 70.8685 512.458C71.1076 512.7 71.2272 513.011 71.2272 513.392C71.2272 513.705 71.1372 513.984 70.9573 514.23C70.7797 514.477 70.5312 514.671 70.2116 514.813C69.892 514.955 69.5203 515.026 69.0965 515.026C68.5402 515.026 68.0797 514.905 67.7151 514.664C67.3505 514.422 67.1197 514.069 67.0226 513.605L67.8181 513.406C67.8939 513.7 68.0371 513.92 68.2478 514.067C68.4608 514.214 68.739 514.287 69.0823 514.287C69.4729 514.287 69.7831 514.204 70.0127 514.039C70.2447 513.87 70.3607 513.669 70.3607 513.435C70.3607 513.245 70.2944 513.087 70.1618 512.959C70.0293 512.829 69.8257 512.732 69.551 512.668L68.642 512.455C68.1424 512.336 67.7755 512.153 67.5411 511.904C67.3091 511.653 67.1931 511.34 67.1931 510.963C67.1931 510.655 67.2795 510.383 67.4523 510.146C67.6275 509.91 67.8654 509.724 68.1661 509.589C68.4691 509.454 68.8124 509.387 69.1959 509.387C69.7357 509.387 70.1595 509.505 70.4672 509.742C70.7774 509.978 70.9975 510.291 71.1278 510.679ZM76.9063 515.04C76.5607 515.04 76.247 514.975 75.9653 514.845C75.6836 514.712 75.4598 514.521 75.2941 514.273C75.1284 514.022 75.0455 513.719 75.0455 513.364C75.0455 513.051 75.1071 512.798 75.2302 512.604C75.3533 512.407 75.5178 512.253 75.7238 512.142C75.9298 512.031 76.157 511.948 76.4056 511.894C76.6566 511.837 76.9087 511.792 77.162 511.759C77.4935 511.716 77.7622 511.684 77.9681 511.663C78.1765 511.639 78.328 511.6 78.4227 511.546C78.5197 511.491 78.5683 511.396 78.5683 511.262V511.233C78.5683 510.883 78.4724 510.61 78.2806 510.416C78.0912 510.222 77.8036 510.125 77.4177 510.125C77.0176 510.125 76.7039 510.213 76.4767 510.388C76.2494 510.563 76.0896 510.75 75.9972 510.949L75.2018 510.665C75.3438 510.334 75.5332 510.075 75.77 509.891C76.0091 509.704 76.2695 509.574 76.5512 509.5C76.8353 509.424 77.1147 509.387 77.3893 509.387C77.5645 509.387 77.7657 509.408 77.993 509.45C78.2226 509.491 78.444 509.575 78.657 509.703C78.8725 509.83 79.0512 510.023 79.1933 510.281C79.3353 510.539 79.4063 510.885 79.4063 511.318V514.912H78.5683V514.173H78.5257C78.4688 514.292 78.3741 514.419 78.2416 514.553C78.109 514.688 77.9326 514.803 77.7124 514.898C77.4923 514.993 77.2236 515.04 76.9063 515.04ZM77.0342 514.287C77.3656 514.287 77.645 514.222 77.8722 514.092C78.1019 513.962 78.2747 513.794 78.3907 513.588C78.5091 513.382 78.5683 513.165 78.5683 512.938V512.171C78.5328 512.213 78.4546 512.252 78.3339 512.288C78.2155 512.321 78.0782 512.351 77.922 512.377C77.7681 512.4 77.6177 512.422 77.471 512.441C77.3266 512.457 77.2094 512.471 77.1194 512.483C76.9016 512.512 76.698 512.558 76.5086 512.622C76.3216 512.683 76.1701 512.777 76.0541 512.902C75.9404 513.025 75.8836 513.193 75.8836 513.406C75.8836 513.698 75.9913 513.918 76.2068 514.067C76.4246 514.214 76.7004 514.287 77.0342 514.287ZM83.1377 517.071C82.7329 517.071 82.3849 517.019 82.0937 516.915C81.8025 516.813 81.5598 516.678 81.3657 516.51C81.1739 516.344 81.0212 516.167 80.9076 515.977L81.5752 515.509C81.651 515.608 81.7468 515.722 81.8628 515.85C81.9788 515.98 82.1375 516.092 82.3387 516.187C82.5423 516.284 82.8086 516.333 83.1377 516.333C83.578 516.333 83.9414 516.226 84.2279 516.013C84.5144 515.8 84.6576 515.466 84.6576 515.012V513.904H84.5866C84.525 514.003 84.4374 514.126 84.3238 514.273C84.2125 514.417 84.0515 514.546 83.8408 514.66C83.6325 514.771 83.3508 514.827 82.9956 514.827C82.5553 514.827 82.1599 514.723 81.8096 514.514C81.4616 514.306 81.1858 514.003 80.9822 513.605C80.7809 513.208 80.6803 512.725 80.6803 512.156C80.6803 511.598 80.7786 511.111 80.9751 510.697C81.1715 510.28 81.445 509.958 81.7954 509.731C82.1457 509.501 82.5506 509.387 83.0099 509.387C83.365 509.387 83.6467 509.446 83.855 509.564C84.0657 509.68 84.2267 509.813 84.338 509.962C84.4516 510.109 84.5392 510.229 84.6008 510.324H84.686V509.458H85.4957V515.068C85.4957 515.537 85.3891 515.918 85.176 516.212C84.9653 516.508 84.6813 516.724 84.3238 516.862C83.9687 517.001 83.5733 517.071 83.1377 517.071ZM83.1093 514.074C83.4455 514.074 83.7296 513.997 83.9616 513.843C84.1936 513.689 84.3699 513.468 84.4907 513.179C84.6114 512.89 84.6718 512.545 84.6718 512.142C84.6718 511.749 84.6126 511.402 84.4942 511.102C84.3759 510.801 84.2007 510.566 83.9687 510.395C83.7367 510.225 83.4502 510.139 83.1093 510.139C82.7542 510.139 82.4582 510.229 82.2215 510.409C81.9871 510.589 81.8108 510.831 81.6924 511.134C81.5764 511.437 81.5184 511.773 81.5184 512.142C81.5184 512.521 81.5776 512.856 81.6959 513.147C81.8167 513.436 81.9942 513.663 82.2286 513.829C82.4653 513.992 82.7589 514.074 83.1093 514.074ZM89.2456 515.026C88.7532 515.026 88.3212 514.909 87.9495 514.674C87.5802 514.44 87.2913 514.112 87.083 513.691C86.877 513.269 86.7741 512.777 86.7741 512.213C86.7741 511.645 86.877 511.149 87.083 510.725C87.2913 510.302 87.5802 509.972 87.9495 509.738C88.3212 509.504 88.7532 509.387 89.2456 509.387C89.7381 509.387 90.1689 509.504 90.5383 509.738C90.9099 509.972 91.1988 510.302 91.4047 510.725C91.6131 511.149 91.7172 511.645 91.7172 512.213C91.7172 512.777 91.6131 513.269 91.4047 513.691C91.1988 514.112 90.9099 514.44 90.5383 514.674C90.1689 514.909 89.7381 515.026 89.2456 515.026ZM89.2456 514.273C89.6197 514.273 89.9275 514.177 90.1689 513.985C90.4104 513.794 90.5892 513.541 90.7052 513.229C90.8212 512.916 90.8792 512.578 90.8792 512.213C90.8792 511.849 90.8212 511.509 90.7052 511.194C90.5892 510.879 90.4104 510.625 90.1689 510.431C89.9275 510.236 89.6197 510.139 89.2456 510.139C88.8716 510.139 88.5638 510.236 88.3224 510.431C88.0809 510.625 87.9021 510.879 87.7861 511.194C87.6701 511.509 87.6121 511.849 87.6121 512.213C87.6121 512.578 87.6701 512.916 87.7861 513.229C87.9021 513.541 88.0809 513.794 88.3224 513.985C88.5638 514.177 88.8716 514.273 89.2456 514.273Z" fill="#A8A8A8"/>
<path d="M32.6999 446.783V435.874H39.2837V437.046H34.021V440.732H38.9428V441.904H34.021V445.611H39.369V446.783H32.6999ZM42.7514 435.874V446.783H41.4943V435.874H42.7514ZM48.4843 446.954C47.6959 446.954 47.0159 446.78 46.4442 446.432C45.876 446.08 45.4374 445.59 45.1285 444.961C44.8231 444.329 44.6704 443.594 44.6704 442.756C44.6704 441.918 44.8231 441.18 45.1285 440.54C45.4374 439.898 45.8671 439.397 46.4175 439.038C46.9715 438.676 47.6178 438.495 48.3564 438.495C48.7826 438.495 49.2034 438.566 49.6189 438.708C50.0344 438.85 50.4126 439.081 50.7535 439.4C51.0944 439.716 51.366 440.135 51.5684 440.657C51.7709 441.18 51.8721 441.822 51.8721 442.586V443.118H45.5653V442.032H50.5937C50.5937 441.57 50.5013 441.158 50.3167 440.796C50.1356 440.434 49.8763 440.148 49.539 439.938C49.2052 439.729 48.811 439.624 48.3564 439.624C47.8557 439.624 47.4225 439.748 47.0567 439.997C46.6945 440.242 46.4157 440.562 46.2204 440.956C46.0251 441.35 45.9275 441.773 45.9275 442.224V442.948C45.9275 443.566 46.034 444.09 46.2471 444.519C46.4637 444.945 46.7638 445.27 47.1473 445.494C47.5308 445.714 47.9765 445.824 48.4843 445.824C48.8145 445.824 49.1128 445.778 49.3792 445.686C49.6491 445.59 49.8817 445.448 50.077 445.26C50.2723 445.068 50.4232 444.83 50.5297 444.546L51.7442 444.887C51.6164 445.299 51.4015 445.661 51.0997 445.974C50.7979 446.282 50.425 446.524 49.9811 446.698C49.5372 446.868 49.0383 446.954 48.4843 446.954ZM57.1082 446.954C56.3412 446.954 55.6807 446.773 55.1267 446.41C54.5727 446.048 54.1466 445.549 53.8483 444.914C53.55 444.278 53.4008 443.552 53.4008 442.735C53.4008 441.904 53.5535 441.171 53.8589 440.535C54.1679 439.896 54.5976 439.397 55.148 439.038C55.702 438.676 56.3483 438.495 57.0869 438.495C57.6622 438.495 58.1807 438.601 58.6423 438.814C59.104 439.028 59.4822 439.326 59.7769 439.709C60.0716 440.093 60.2545 440.54 60.3256 441.052H59.0684C58.9726 440.679 58.7595 440.349 58.4292 440.061C58.1025 439.77 57.6622 439.624 57.1082 439.624C56.6182 439.624 56.1885 439.752 55.8192 440.008C55.4534 440.26 55.1675 440.617 54.9616 441.078C54.7591 441.536 54.6579 442.074 54.6579 442.692C54.6579 443.324 54.7574 443.875 54.9562 444.344C55.1586 444.812 55.4427 445.176 55.8085 445.436C56.1778 445.695 56.6111 445.824 57.1082 445.824C57.4349 445.824 57.7314 445.768 57.9978 445.654C58.2641 445.54 58.4896 445.377 58.6743 445.164C58.8589 444.951 58.9903 444.695 59.0684 444.397H60.3256C60.2545 444.88 60.0787 445.315 59.7982 445.702C59.5212 446.085 59.1537 446.391 58.6956 446.618C58.241 446.842 57.7119 446.954 57.1082 446.954ZM65.7215 438.601V439.667H61.4814V438.601H65.7215ZM62.7172 436.641H63.9743V444.439C63.9743 444.795 64.0258 445.061 64.1288 445.238C64.2354 445.412 64.3703 445.53 64.5336 445.59C64.7006 445.647 64.8763 445.675 65.061 445.675C65.1995 445.675 65.3131 445.668 65.4019 445.654C65.4907 445.636 65.5617 445.622 65.615 445.611L65.8707 446.741C65.7854 446.773 65.6665 446.805 65.5138 446.836C65.3611 446.872 65.1675 446.89 64.9332 446.89C64.578 446.89 64.23 446.813 63.8891 446.661C63.5518 446.508 63.2712 446.275 63.0475 445.963C62.8273 445.65 62.7172 445.256 62.7172 444.78V436.641ZM67.6125 446.783V438.601H68.827V439.837H68.9122C69.0613 439.432 69.3312 439.104 69.7219 438.852C70.1125 438.6 70.5528 438.474 71.0429 438.474C71.1352 438.474 71.2506 438.475 71.3891 438.479C71.5276 438.482 71.6324 438.488 71.7034 438.495V439.773C71.6608 439.763 71.5631 439.747 71.4104 439.725C71.2613 439.7 71.1032 439.688 70.9363 439.688C70.5386 439.688 70.1835 439.771 69.871 439.938C69.5621 440.102 69.317 440.329 69.1359 440.62C68.9584 440.908 68.8696 441.236 68.8696 441.606V446.783H67.6125ZM73.1935 446.783V438.601H74.4506V446.783H73.1935ZM73.8327 437.238C73.5877 437.238 73.3764 437.154 73.1989 436.987C73.0249 436.82 72.9379 436.62 72.9379 436.385C72.9379 436.151 73.0249 435.95 73.1989 435.784C73.3764 435.617 73.5877 435.533 73.8327 435.533C74.0778 435.533 74.2873 435.617 74.4613 435.784C74.6388 435.95 74.7276 436.151 74.7276 436.385C74.7276 436.62 74.6388 436.82 74.4613 436.987C74.2873 437.154 74.0778 437.238 73.8327 437.238ZM80.077 446.954C79.3099 446.954 78.6494 446.773 78.0954 446.41C77.5415 446.048 77.1153 445.549 76.817 444.914C76.5187 444.278 76.3696 443.552 76.3696 442.735C76.3696 441.904 76.5223 441.171 76.8277 440.535C77.1366 439.896 77.5663 439.397 78.1167 439.038C78.6707 438.676 79.317 438.495 80.0557 438.495C80.6309 438.495 81.1494 438.601 81.6111 438.814C82.0727 439.028 82.4509 439.326 82.7457 439.709C83.0404 440.093 83.2233 440.54 83.2943 441.052H82.0372C81.9413 440.679 81.7282 440.349 81.398 440.061C81.0713 439.77 80.6309 439.624 80.077 439.624C79.5869 439.624 79.1572 439.752 78.7879 440.008C78.4221 440.26 78.1363 440.617 77.9303 441.078C77.7279 441.536 77.6267 442.074 77.6267 442.692C77.6267 443.324 77.7261 443.875 77.925 444.344C78.1274 444.812 78.4115 445.176 78.7773 445.436C79.1466 445.695 79.5798 445.824 80.077 445.824C80.4037 445.824 80.7002 445.768 80.9665 445.654C81.2329 445.54 81.4584 445.377 81.643 445.164C81.8277 444.951 81.9591 444.695 82.0372 444.397H83.2943C83.2233 444.88 83.0475 445.315 82.767 445.702C82.49 446.085 82.1224 446.391 81.6643 446.618C81.2098 446.842 80.6807 446.954 80.077 446.954ZM85.132 446.783V438.601H86.3891V446.783H85.132ZM85.7712 437.238C85.5262 437.238 85.3149 437.154 85.1373 436.987C84.9633 436.82 84.8763 436.62 84.8763 436.385C84.8763 436.151 84.9633 435.95 85.1373 435.784C85.3149 435.617 85.5262 435.533 85.7712 435.533C86.0162 435.533 86.2258 435.617 86.3998 435.784C86.5773 435.95 86.6661 436.151 86.6661 436.385C86.6661 436.62 86.5773 436.82 86.3998 436.987C86.2258 437.154 86.0162 437.238 85.7712 437.238ZM92.2498 438.601V439.667H88.0098V438.601H92.2498ZM89.2456 436.641H90.5027V444.439C90.5027 444.795 90.5542 445.061 90.6571 445.238C90.7637 445.412 90.8986 445.53 91.062 445.59C91.2289 445.647 91.4047 445.675 91.5893 445.675C91.7278 445.675 91.8414 445.668 91.9302 445.654C92.019 445.636 92.09 445.622 92.1433 445.611L92.399 446.741C92.3137 446.773 92.1948 446.805 92.0421 446.836C91.8894 446.872 91.6958 446.89 91.4615 446.89C91.1064 446.89 90.7583 446.813 90.4174 446.661C90.0801 446.508 89.7995 446.275 89.5758 445.963C89.3556 445.65 89.2456 445.256 89.2456 444.78V436.641ZM94.9505 449.851C94.7374 449.851 94.5474 449.834 94.3805 449.798C94.2136 449.766 94.0982 449.734 94.0343 449.702L94.3539 448.594C94.6593 448.672 94.9292 448.701 95.1635 448.68C95.3979 448.658 95.6056 448.553 95.7868 448.365C95.9714 448.181 96.1401 447.881 96.2928 447.465L96.5272 446.826L93.5016 438.601H94.8652L97.1238 445.121H97.209L99.4675 438.601H100.831L97.3581 447.976C97.2019 448.399 97.0083 448.749 96.7775 449.026C96.5467 449.306 96.2786 449.514 95.9732 449.649C95.6713 449.784 95.3304 449.851 94.9505 449.851ZM109.117 446.975C108.598 446.975 108.128 446.877 107.705 446.682C107.283 446.483 106.947 446.197 106.699 445.824C106.45 445.448 106.326 444.993 106.326 444.461C106.326 443.992 106.418 443.612 106.603 443.321C106.787 443.026 107.034 442.795 107.343 442.628C107.652 442.461 107.993 442.337 108.366 442.256C108.742 442.17 109.12 442.103 109.5 442.053C109.998 441.989 110.401 441.941 110.71 441.909C111.022 441.874 111.249 441.815 111.391 441.733C111.537 441.652 111.61 441.51 111.61 441.307V441.265C111.61 440.739 111.466 440.331 111.178 440.04C110.894 439.748 110.463 439.603 109.884 439.603C109.284 439.603 108.813 439.734 108.472 439.997C108.131 440.26 107.892 440.54 107.753 440.839L106.56 440.412C106.773 439.915 107.057 439.528 107.412 439.251C107.771 438.971 108.162 438.775 108.584 438.665C109.01 438.552 109.429 438.495 109.841 438.495C110.104 438.495 110.406 438.527 110.747 438.591C111.091 438.651 111.423 438.777 111.743 438.969C112.066 439.161 112.334 439.45 112.547 439.837C112.76 440.224 112.867 440.743 112.867 441.393V446.783H111.61V445.675H111.546C111.461 445.853 111.319 446.043 111.12 446.245C110.921 446.448 110.656 446.62 110.326 446.762C109.996 446.904 109.593 446.975 109.117 446.975ZM109.309 445.846C109.806 445.846 110.225 445.748 110.566 445.553C110.91 445.357 111.169 445.105 111.343 444.796C111.521 444.487 111.61 444.162 111.61 443.822V442.671C111.556 442.735 111.439 442.794 111.258 442.847C111.081 442.896 110.875 442.941 110.64 442.98C110.409 443.015 110.184 443.047 109.964 443.076C109.747 443.101 109.571 443.122 109.436 443.14C109.11 443.182 108.804 443.252 108.52 443.347C108.24 443.44 108.012 443.58 107.838 443.768C107.668 443.953 107.583 444.205 107.583 444.525C107.583 444.961 107.744 445.292 108.067 445.515C108.394 445.736 108.808 445.846 109.309 445.846ZM118.251 446.954C117.569 446.954 116.967 446.781 116.445 446.437C115.923 446.089 115.515 445.599 115.22 444.967C114.925 444.331 114.778 443.58 114.778 442.714C114.778 441.854 114.925 441.108 115.22 440.476C115.515 439.844 115.925 439.356 116.45 439.012C116.976 438.667 117.583 438.495 118.272 438.495C118.805 438.495 119.226 438.584 119.535 438.761C119.847 438.935 120.085 439.134 120.248 439.358C120.415 439.578 120.545 439.759 120.637 439.901H120.744V435.874H122.001V446.783H120.786V445.526H120.637C120.545 445.675 120.413 445.863 120.243 446.091C120.073 446.314 119.829 446.515 119.513 446.693C119.197 446.867 118.776 446.954 118.251 446.954ZM118.421 445.824C118.926 445.824 119.352 445.693 119.7 445.43C120.048 445.164 120.312 444.796 120.493 444.328C120.674 443.855 120.765 443.31 120.765 442.692C120.765 442.081 120.676 441.547 120.499 441.089C120.321 440.627 120.058 440.269 119.71 440.013C119.362 439.754 118.933 439.624 118.421 439.624C117.889 439.624 117.445 439.761 117.09 440.034C116.738 440.304 116.473 440.672 116.296 441.137C116.122 441.599 116.035 442.117 116.035 442.692C116.035 443.275 116.124 443.804 116.301 444.28C116.482 444.752 116.749 445.128 117.1 445.409C117.455 445.686 117.896 445.824 118.421 445.824ZM126.885 446.975C126.367 446.975 125.896 446.877 125.474 446.682C125.051 446.483 124.716 446.197 124.467 445.824C124.218 445.448 124.094 444.993 124.094 444.461C124.094 443.992 124.187 443.612 124.371 443.321C124.556 443.026 124.803 442.795 125.112 442.628C125.421 442.461 125.761 442.337 126.134 442.256C126.511 442.17 126.889 442.103 127.269 442.053C127.766 441.989 128.169 441.941 128.478 441.909C128.791 441.874 129.018 441.815 129.16 441.733C129.305 441.652 129.378 441.51 129.378 441.307V441.265C129.378 440.739 129.234 440.331 128.947 440.04C128.663 439.748 128.231 439.603 127.652 439.603C127.052 439.603 126.582 439.734 126.241 439.997C125.9 440.26 125.66 440.54 125.522 440.839L124.329 440.412C124.542 439.915 124.826 439.528 125.181 439.251C125.54 438.971 125.93 438.775 126.353 438.665C126.779 438.552 127.198 438.495 127.61 438.495C127.873 438.495 128.174 438.527 128.515 438.591C128.86 438.651 129.192 438.777 129.511 438.969C129.835 439.161 130.103 439.45 130.316 439.837C130.529 440.224 130.635 440.743 130.635 441.393V446.783H129.378V445.675H129.314C129.229 445.853 129.087 446.043 128.888 446.245C128.689 446.448 128.425 446.62 128.095 446.762C127.764 446.904 127.361 446.975 126.885 446.975ZM127.077 445.846C127.574 445.846 127.993 445.748 128.334 445.553C128.679 445.357 128.938 445.105 129.112 444.796C129.29 444.487 129.378 444.162 129.378 443.822V442.671C129.325 442.735 129.208 442.794 129.027 442.847C128.849 442.896 128.643 442.941 128.409 442.98C128.178 443.015 127.953 443.047 127.732 443.076C127.516 443.101 127.34 443.122 127.205 443.14C126.878 443.182 126.573 443.252 126.289 443.347C126.008 443.44 125.781 443.58 125.607 443.768C125.437 443.953 125.351 444.205 125.351 444.525C125.351 444.961 125.513 445.292 125.836 445.515C126.163 445.736 126.576 445.846 127.077 445.846ZM132.93 449.851V438.601H134.144V439.901H134.294C134.386 439.759 134.514 439.578 134.677 439.358C134.844 439.134 135.082 438.935 135.391 438.761C135.703 438.584 136.126 438.495 136.659 438.495C137.347 438.495 137.955 438.667 138.48 439.012C139.006 439.356 139.416 439.844 139.711 440.476C140.006 441.108 140.153 441.854 140.153 442.714C140.153 443.58 140.006 444.331 139.711 444.967C139.416 445.599 139.008 446.089 138.486 446.437C137.964 446.781 137.362 446.954 136.68 446.954C136.154 446.954 135.733 446.867 135.417 446.693C135.101 446.515 134.858 446.314 134.688 446.091C134.517 445.863 134.386 445.675 134.294 445.526H134.187V449.851H132.93ZM134.166 442.692C134.166 443.31 134.256 443.855 134.437 444.328C134.618 444.796 134.883 445.164 135.231 445.43C135.579 445.693 136.005 445.824 136.509 445.824C137.035 445.824 137.474 445.686 137.825 445.409C138.18 445.128 138.447 444.752 138.624 444.28C138.805 443.804 138.896 443.275 138.896 442.692C138.896 442.117 138.807 441.599 138.629 441.137C138.455 440.672 138.191 440.304 137.836 440.034C137.484 439.761 137.042 439.624 136.509 439.624C135.998 439.624 135.568 439.754 135.22 440.013C134.872 440.269 134.61 440.627 134.432 441.089C134.254 441.547 134.166 442.081 134.166 442.692ZM145.629 438.601V439.667H141.389V438.601H145.629ZM142.624 436.641H143.882V444.439C143.882 444.795 143.933 445.061 144.036 445.238C144.143 445.412 144.278 445.53 144.441 445.59C144.608 445.647 144.784 445.675 144.968 445.675C145.107 445.675 145.22 445.668 145.309 445.654C145.398 445.636 145.469 445.622 145.522 445.611L145.778 446.741C145.693 446.773 145.574 446.805 145.421 446.836C145.268 446.872 145.075 446.89 144.84 446.89C144.485 446.89 144.137 446.813 143.796 446.661C143.459 446.508 143.178 446.275 142.955 445.963C142.735 445.65 142.624 445.256 142.624 444.78V436.641ZM150.862 446.954C150.074 446.954 149.394 446.78 148.822 446.432C148.254 446.08 147.815 445.59 147.506 444.961C147.201 444.329 147.048 443.594 147.048 442.756C147.048 441.918 147.201 441.18 147.506 440.54C147.815 439.898 148.245 439.397 148.795 439.038C149.349 438.676 149.996 438.495 150.734 438.495C151.161 438.495 151.581 438.566 151.997 438.708C152.412 438.85 152.79 439.081 153.131 439.4C153.472 439.716 153.744 440.135 153.946 440.657C154.149 441.18 154.25 441.822 154.25 442.586V443.118H147.943V442.032H152.972C152.972 441.57 152.879 441.158 152.695 440.796C152.513 440.434 152.254 440.148 151.917 439.938C151.583 439.729 151.189 439.624 150.734 439.624C150.234 439.624 149.8 439.748 149.435 439.997C149.072 440.242 148.794 440.562 148.598 440.956C148.403 441.35 148.305 441.773 148.305 442.224V442.948C148.305 443.566 148.412 444.09 148.625 444.519C148.842 444.945 149.142 445.27 149.525 445.494C149.909 445.714 150.354 445.824 150.862 445.824C151.192 445.824 151.491 445.778 151.757 445.686C152.027 445.59 152.26 445.448 152.455 445.26C152.65 445.068 152.801 444.83 152.908 444.546L154.122 444.887C153.994 445.299 153.779 445.661 153.478 445.974C153.176 446.282 152.803 446.524 152.359 446.698C151.915 446.868 151.416 446.954 150.862 446.954ZM156.162 446.783V438.601H157.377V439.837H157.462C157.611 439.432 157.881 439.104 158.272 438.852C158.662 438.6 159.103 438.474 159.593 438.474C159.685 438.474 159.8 438.475 159.939 438.479C160.077 438.482 160.182 438.488 160.253 438.495V439.773C160.211 439.763 160.113 439.747 159.96 439.725C159.811 439.7 159.653 439.688 159.486 439.688C159.088 439.688 158.733 439.771 158.421 439.938C158.112 440.102 157.867 440.329 157.686 440.62C157.508 440.908 157.419 441.236 157.419 441.606V446.783H156.162ZM173.292 435.874H174.613V443.097C174.613 443.843 174.437 444.509 174.085 445.095C173.737 445.677 173.245 446.137 172.61 446.474C171.974 446.808 171.228 446.975 170.373 446.975C169.517 446.975 168.771 446.808 168.135 446.474C167.5 446.137 167.006 445.677 166.655 445.095C166.307 444.509 166.133 443.843 166.133 443.097V435.874H167.454V442.991C167.454 443.523 167.571 443.997 167.805 444.413C168.04 444.825 168.373 445.15 168.807 445.388C169.243 445.622 169.765 445.739 170.373 445.739C170.98 445.739 171.502 445.622 171.939 445.388C172.375 445.15 172.709 444.825 172.94 444.413C173.174 443.997 173.292 443.523 173.292 442.991V435.874ZM177.251 446.783V435.874H178.572V441.286H178.7L183.6 435.874H185.326L180.745 440.796L185.326 446.783H183.728L179.935 441.712L178.572 443.246V446.783H177.251Z" fill="black"/>
<path d="M0 0H650V36.0652H0V0Z" fill="#A8A8A8"/>
<rect x="31.3789" y="69.7266" width="587.241" height="329.396" fill="#F5F5F5"/>
<line x1="1.18606e-07" y1="497.199" x2="645.517" y2="497.199" stroke="#F5F5F5"/>
<path d="M613.764 526.408V515.115C613.764 512.315 613.764 510.915 613.219 509.845C612.74 508.904 611.975 508.14 611.034 507.66C609.965 507.115 608.564 507.115 605.764 507.115H602.339C599.539 507.115 598.138 507.115 597.069 507.66C596.128 508.14 595.363 508.904 594.884 509.845C594.339 510.915 594.339 512.315 594.339 515.115V526.408C594.339 527.31 594.339 527.762 594.529 528.024C594.694 528.253 594.948 528.401 595.229 528.432C595.551 528.468 595.943 528.245 596.728 527.8L601.683 524.989C602.547 524.499 602.978 524.254 603.437 524.158C603.842 524.073 604.261 524.073 604.666 524.158C605.125 524.254 605.556 524.499 606.42 524.989L611.375 527.8C612.16 528.245 612.552 528.468 612.874 528.432C613.155 528.401 613.409 528.253 613.574 528.024C613.764 527.762 613.764 527.31 613.764 526.408Z" stroke="#676767" stroke-width="1.5" stroke-linecap="round" stroke-linejoin="round"/>
</svg>
