<svg width="67" height="25" viewBox="0 0 67 25" fill="none" xmlns="http://www.w3.org/2000/svg">
<path d="M0.920455 9V2.45455H1.89205V3.44318H1.96023C2.07955 3.11932 2.29545 2.85653 2.60795 2.65483C2.92045 2.45312 3.27273 2.35227 3.66477 2.35227C3.73864 2.35227 3.83097 2.35369 3.94176 2.35653C4.05256 2.35937 4.13636 2.36364 4.19318 2.36932V3.39205C4.15909 3.38352 4.08097 3.37074 3.95881 3.35369C3.83949 3.33381 3.71307 3.32386 3.57955 3.32386C3.26136 3.32386 2.97727 3.39062 2.72727 3.52415C2.48011 3.65483 2.28409 3.83665 2.1392 4.0696C1.99716 4.29972 1.92614 4.5625 1.92614 4.85795V9H0.920455ZM7.9304 9.13636C7.29972 9.13636 6.75568 8.99716 6.2983 8.71875C5.84375 8.4375 5.4929 8.04545 5.24574 7.54261C5.00142 7.03693 4.87926 6.44886 4.87926 5.77841C4.87926 5.10795 5.00142 4.51705 5.24574 4.00568C5.4929 3.49148 5.83665 3.09091 6.27699 2.80398C6.72017 2.5142 7.23722 2.36932 7.82812 2.36932C8.16903 2.36932 8.50568 2.42614 8.83807 2.53977C9.17045 2.65341 9.47301 2.83807 9.74574 3.09375C10.0185 3.34659 10.2358 3.68182 10.3977 4.09943C10.5597 4.51705 10.6406 5.03125 10.6406 5.64205V6.06818H5.59517V5.19886H9.6179C9.6179 4.82955 9.54403 4.5 9.39631 4.21023C9.25142 3.92045 9.04403 3.69176 8.77415 3.52415C8.5071 3.35653 8.19176 3.27273 7.82812 3.27273C7.42756 3.27273 7.08097 3.37216 6.78835 3.57102C6.49858 3.76705 6.27557 4.02273 6.11932 4.33807C5.96307 4.65341 5.88494 4.99148 5.88494 5.35227V5.93182C5.88494 6.42614 5.97017 6.84517 6.14062 7.18892C6.31392 7.52983 6.55398 7.78977 6.8608 7.96875C7.16761 8.14489 7.52415 8.23295 7.9304 8.23295C8.1946 8.23295 8.43324 8.19602 8.64631 8.12216C8.86222 8.04545 9.0483 7.93182 9.20455 7.78125C9.3608 7.62784 9.48153 7.4375 9.56676 7.21023L10.5384 7.48295C10.4361 7.8125 10.2642 8.10227 10.0227 8.35227C9.78125 8.59943 9.48295 8.79261 9.12784 8.93182C8.77273 9.06818 8.37358 9.13636 7.9304 9.13636ZM14.8295 9.13636C14.2159 9.13636 13.6875 8.99148 13.2443 8.7017C12.8011 8.41193 12.4602 8.01278 12.2216 7.50426C11.983 6.99574 11.8636 6.41477 11.8636 5.76136C11.8636 5.09659 11.9858 4.50994 12.2301 4.00142C12.4773 3.49006 12.821 3.09091 13.2614 2.80398C13.7045 2.5142 14.2216 2.36932 14.8125 2.36932C15.2727 2.36932 15.6875 2.45455 16.0568 2.625C16.4261 2.79545 16.7287 3.03409 16.9645 3.34091C17.2003 3.64773 17.3466 4.00568 17.4034 4.41477H16.3977C16.321 4.11648 16.1506 3.85227 15.8864 3.62216C15.625 3.3892 15.2727 3.27273 14.8295 3.27273C14.4375 3.27273 14.0938 3.375 13.7983 3.57955C13.5057 3.78125 13.277 4.06676 13.1122 4.43608C12.9503 4.80256 12.8693 5.23295 12.8693 5.72727C12.8693 6.23295 12.9489 6.6733 13.108 7.0483C13.2699 7.4233 13.4972 7.71449 13.7898 7.92188C14.0852 8.12926 14.4318 8.23295 14.8295 8.23295C15.0909 8.23295 15.3281 8.1875 15.5412 8.09659C15.7543 8.00568 15.9347 7.875 16.0824 7.70455C16.2301 7.53409 16.3352 7.32955 16.3977 7.09091H17.4034C17.3466 7.47727 17.206 7.82528 16.9815 8.13494C16.7599 8.44176 16.4659 8.68608 16.0994 8.8679C15.7358 9.04688 15.3125 9.13636 14.8295 9.13636ZM21.5327 9.13636C20.9418 9.13636 20.4233 8.99574 19.9773 8.71449C19.5341 8.43324 19.1875 8.03977 18.9375 7.53409C18.6903 7.02841 18.5668 6.4375 18.5668 5.76136C18.5668 5.07955 18.6903 4.48437 18.9375 3.97585C19.1875 3.46733 19.5341 3.07244 19.9773 2.79119C20.4233 2.50994 20.9418 2.36932 21.5327 2.36932C22.1236 2.36932 22.6406 2.50994 23.0838 2.79119C23.5298 3.07244 23.8764 3.46733 24.1236 3.97585C24.3736 4.48437 24.4986 5.07955 24.4986 5.76136C24.4986 6.4375 24.3736 7.02841 24.1236 7.53409C23.8764 8.03977 23.5298 8.43324 23.0838 8.71449C22.6406 8.99574 22.1236 9.13636 21.5327 9.13636ZM21.5327 8.23295C21.9815 8.23295 22.3509 8.1179 22.6406 7.88778C22.9304 7.65767 23.1449 7.35511 23.2841 6.98011C23.4233 6.60511 23.4929 6.19886 23.4929 5.76136C23.4929 5.32386 23.4233 4.91619 23.2841 4.53835C23.1449 4.16051 22.9304 3.85511 22.6406 3.62216C22.3509 3.3892 21.9815 3.27273 21.5327 3.27273C21.0838 3.27273 20.7145 3.3892 20.4247 3.62216C20.1349 3.85511 19.9205 4.16051 19.7812 4.53835C19.642 4.91619 19.5724 5.32386 19.5724 5.76136C19.5724 6.19886 19.642 6.60511 19.7812 6.98011C19.9205 7.35511 20.1349 7.65767 20.4247 7.88778C20.7145 8.1179 21.0838 8.23295 21.5327 8.23295ZM26.0337 9V2.45455H27.0053V3.47727H27.0906C27.2269 3.12784 27.4471 2.85653 27.7511 2.66335C28.055 2.46733 28.4201 2.36932 28.8462 2.36932C29.2781 2.36932 29.6374 2.46733 29.9244 2.66335C30.2141 2.85653 30.44 3.12784 30.6019 3.47727H30.6701C30.8377 3.1392 31.0891 2.87074 31.4244 2.67188C31.7596 2.47017 32.1616 2.36932 32.6303 2.36932C33.2156 2.36932 33.6942 2.55256 34.0664 2.91903C34.4386 3.28267 34.6246 3.84943 34.6246 4.61932V9H33.619V4.61932C33.619 4.13636 33.4869 3.79119 33.2227 3.58381C32.9585 3.37642 32.6474 3.27273 32.2894 3.27273C31.8292 3.27273 31.4727 3.41193 31.2198 3.69034C30.967 3.96591 30.8406 4.31534 30.8406 4.73864V9H29.8178V4.51705C29.8178 4.14489 29.6971 3.84517 29.4556 3.6179C29.2141 3.38778 28.9031 3.27273 28.5224 3.27273C28.261 3.27273 28.0167 3.34233 27.7894 3.48153C27.565 3.62074 27.3832 3.81392 27.244 4.06108C27.1076 4.3054 27.0394 4.58807 27.0394 4.90909V9H26.0337ZM36.4634 9V2.45455H37.435V3.47727H37.5202C37.6566 3.12784 37.8768 2.85653 38.1808 2.66335C38.4847 2.46733 38.8498 2.36932 39.2759 2.36932C39.7077 2.36932 40.0671 2.46733 40.354 2.66335C40.6438 2.85653 40.8697 3.12784 41.0316 3.47727H41.0998C41.2674 3.1392 41.5188 2.87074 41.854 2.67188C42.1893 2.47017 42.5913 2.36932 43.06 2.36932C43.6452 2.36932 44.1239 2.55256 44.4961 2.91903C44.8683 3.28267 45.0543 3.84943 45.0543 4.61932V9H44.0487V4.61932C44.0487 4.13636 43.9165 3.79119 43.6523 3.58381C43.3881 3.37642 43.0771 3.27273 42.7191 3.27273C42.2589 3.27273 41.9023 3.41193 41.6495 3.69034C41.3967 3.96591 41.2702 4.31534 41.2702 4.73864V9H40.2475V4.51705C40.2475 4.14489 40.1268 3.84517 39.8853 3.6179C39.6438 3.38778 39.3327 3.27273 38.9521 3.27273C38.6907 3.27273 38.4464 3.34233 38.2191 3.48153C37.9947 3.62074 37.8129 3.81392 37.6737 4.06108C37.5373 4.3054 37.4691 4.58807 37.4691 4.90909V9H36.4634ZM49.6374 9.13636C49.0067 9.13636 48.4627 8.99716 48.0053 8.71875C47.5508 8.4375 47.1999 8.04545 46.9528 7.54261C46.7085 7.03693 46.5863 6.44886 46.5863 5.77841C46.5863 5.10795 46.7085 4.51705 46.9528 4.00568C47.1999 3.49148 47.5437 3.09091 47.984 2.80398C48.4272 2.5142 48.9442 2.36932 49.5352 2.36932C49.8761 2.36932 50.2127 2.42614 50.5451 2.53977C50.8775 2.65341 51.18 2.83807 51.4528 3.09375C51.7255 3.34659 51.9428 3.68182 52.1048 4.09943C52.2667 4.51705 52.3477 5.03125 52.3477 5.64205V6.06818H47.3022V5.19886H51.3249C51.3249 4.82955 51.2511 4.5 51.1033 4.21023C50.9585 3.92045 50.7511 3.69176 50.4812 3.52415C50.2141 3.35653 49.8988 3.27273 49.5352 3.27273C49.1346 3.27273 48.788 3.37216 48.4954 3.57102C48.2056 3.76705 47.9826 4.02273 47.8263 4.33807C47.6701 4.65341 47.592 4.99148 47.592 5.35227V5.93182C47.592 6.42614 47.6772 6.84517 47.8477 7.18892C48.021 7.52983 48.261 7.78977 48.5678 7.96875C48.8746 8.14489 49.2312 8.23295 49.6374 8.23295C49.9016 8.23295 50.1403 8.19602 50.3533 8.12216C50.5692 8.04545 50.7553 7.93182 50.9116 7.78125C51.0678 7.62784 51.1886 7.4375 51.2738 7.21023L52.2454 7.48295C52.1431 7.8125 51.9712 8.10227 51.7298 8.35227C51.4883 8.59943 51.19 8.79261 50.8349 8.93182C50.4798 9.06818 50.0806 9.13636 49.6374 9.13636ZM54.8832 5.0625V9H53.8775V2.45455H54.8491V3.47727H54.9343C55.0877 3.14489 55.3207 2.87784 55.6332 2.67614C55.9457 2.47159 56.3491 2.36932 56.8434 2.36932C57.2866 2.36932 57.6744 2.46023 58.0067 2.64205C58.3391 2.82102 58.5977 3.09375 58.7823 3.46023C58.967 3.82386 59.0593 4.28409 59.0593 4.84091V9H58.0536V4.90909C58.0536 4.39489 57.9201 3.99432 57.6531 3.70739C57.386 3.41761 57.0195 3.27273 56.5536 3.27273C56.2326 3.27273 55.9457 3.34233 55.6928 3.48153C55.4428 3.62074 55.2454 3.82386 55.1005 4.09091C54.9556 4.35795 54.8832 4.68182 54.8832 5.0625ZM63.3686 9.13636C62.8232 9.13636 62.3416 8.99858 61.924 8.72301C61.5064 8.4446 61.1797 8.05256 60.9439 7.54688C60.7081 7.03835 60.5902 6.4375 60.5902 5.74432C60.5902 5.05682 60.7081 4.46023 60.9439 3.95455C61.1797 3.44886 61.5078 3.05824 61.9283 2.78267C62.3487 2.5071 62.8345 2.36932 63.3857 2.36932C63.8118 2.36932 64.1484 2.44034 64.3956 2.58239C64.6456 2.72159 64.8359 2.88068 64.9666 3.05966C65.1001 3.2358 65.2038 3.38068 65.2777 3.49432H65.3629V0.272727H66.3686V9H65.397V7.99432H65.2777C65.2038 8.11364 65.0987 8.2642 64.9624 8.44602C64.826 8.625 64.6314 8.78551 64.3786 8.92756C64.1257 9.06676 63.7891 9.13636 63.3686 9.13636ZM63.505 8.23295C63.9084 8.23295 64.2493 8.12784 64.5277 7.91761C64.8061 7.70455 65.0178 7.41051 65.1626 7.03551C65.3075 6.65767 65.38 6.22159 65.38 5.72727C65.38 5.23864 65.3089 4.81108 65.1669 4.4446C65.0249 4.07528 64.8146 3.78835 64.5362 3.58381C64.2578 3.37642 63.9141 3.27273 63.505 3.27273C63.0788 3.27273 62.7237 3.3821 62.4396 3.60085C62.1584 3.81676 61.9467 4.1108 61.8047 4.48295C61.6655 4.85227 61.5959 5.26705 61.5959 5.72727C61.5959 6.19318 61.6669 6.61648 61.8089 6.99716C61.9538 7.375 62.1669 7.67614 62.4482 7.90057C62.7322 8.12216 63.0845 8.23295 63.505 8.23295ZM2.84659 24.1534C2.43182 24.1534 2.0554 24.0753 1.71733 23.919C1.37926 23.7599 1.1108 23.5312 0.911932 23.233C0.713068 22.9318 0.613636 22.5682 0.613636 22.142C0.613636 21.767 0.6875 21.4631 0.835227 21.2301C0.982955 20.9943 1.1804 20.8097 1.42756 20.6761C1.67472 20.5426 1.94744 20.4432 2.24574 20.3778C2.54688 20.3097 2.84943 20.2557 3.15341 20.2159C3.55114 20.1648 3.87358 20.1264 4.12074 20.1009C4.37074 20.0724 4.55256 20.0256 4.66619 19.9602C4.78267 19.8949 4.84091 19.7812 4.84091 19.6193V19.5852C4.84091 19.1648 4.72585 18.8381 4.49574 18.6051C4.26847 18.3722 3.9233 18.2557 3.46023 18.2557C2.98011 18.2557 2.60369 18.3608 2.33097 18.571C2.05824 18.7812 1.86648 19.0057 1.75568 19.2443L0.801136 18.9034C0.971591 18.5057 1.19886 18.196 1.48295 17.9744C1.76989 17.75 2.08239 17.5937 2.42045 17.5057C2.76136 17.4148 3.09659 17.3693 3.42614 17.3693C3.63636 17.3693 3.87784 17.3949 4.15057 17.446C4.42614 17.4943 4.69176 17.5952 4.94744 17.7486C5.20597 17.902 5.42045 18.1335 5.59091 18.4432C5.76136 18.7528 5.84659 19.1676 5.84659 19.6875V24H4.84091V23.1136H4.78977C4.72159 23.2557 4.60795 23.4077 4.44886 23.5696C4.28977 23.7315 4.07813 23.8693 3.81392 23.983C3.54972 24.0966 3.22727 24.1534 2.84659 24.1534ZM3 23.25C3.39773 23.25 3.73295 23.1719 4.00568 23.0156C4.28125 22.8594 4.48864 22.6577 4.62784 22.4105C4.76989 22.1634 4.84091 21.9034 4.84091 21.6307V20.7102C4.7983 20.7614 4.70455 20.8082 4.55966 20.8509C4.41761 20.8906 4.25284 20.9261 4.06534 20.9574C3.88068 20.9858 3.70028 21.0114 3.52415 21.0341C3.35085 21.054 3.21023 21.071 3.10227 21.0852C2.84091 21.1193 2.59659 21.1747 2.36932 21.2514C2.14489 21.3253 1.96307 21.4375 1.82386 21.5881C1.6875 21.7358 1.61932 21.9375 1.61932 22.1932C1.61932 22.5426 1.74858 22.8068 2.0071 22.9858C2.26847 23.1619 2.59943 23.25 3 23.25ZM10.5288 17.4545V18.3068H7.13672V17.4545H10.5288ZM8.12536 15.8864H9.13104V22.125C9.13104 22.4091 9.17223 22.6222 9.25462 22.7642C9.33984 22.9034 9.4478 22.9972 9.57848 23.0455C9.712 23.0909 9.85263 23.1136 10.0004 23.1136C10.1112 23.1136 10.2021 23.108 10.2731 23.0966C10.3441 23.0824 10.4009 23.071 10.4435 23.0625L10.6481 23.9659C10.5799 23.9915 10.4847 24.017 10.3626 24.0426C10.2404 24.071 10.0856 24.0852 9.89808 24.0852C9.61399 24.0852 9.33558 24.0241 9.06286 23.902C8.79297 23.7798 8.56854 23.5938 8.38956 23.3438C8.21342 23.0938 8.12536 22.7784 8.12536 22.3977V15.8864ZM12.0415 24V17.4545H13.0472V24H12.0415ZM12.5529 16.3636C12.3569 16.3636 12.1879 16.2969 12.0458 16.1634C11.9066 16.0298 11.837 15.8693 11.837 15.6818C11.837 15.4943 11.9066 15.3338 12.0458 15.2003C12.1879 15.0668 12.3569 15 12.5529 15C12.7489 15 12.9165 15.0668 13.0558 15.2003C13.1978 15.3338 13.2688 15.4943 13.2688 15.6818C13.2688 15.8693 13.1978 16.0298 13.0558 16.1634C12.9165 16.2969 12.7489 16.3636 12.5529 16.3636ZM17.5483 24.1364C16.9574 24.1364 16.4389 23.9957 15.9929 23.7145C15.5497 23.4332 15.2031 23.0398 14.9531 22.5341C14.706 22.0284 14.5824 21.4375 14.5824 20.7614C14.5824 20.0795 14.706 19.4844 14.9531 18.9759C15.2031 18.4673 15.5497 18.0724 15.9929 17.7912C16.4389 17.5099 16.9574 17.3693 17.5483 17.3693C18.1392 17.3693 18.6563 17.5099 19.0994 17.7912C19.5455 18.0724 19.892 18.4673 20.1392 18.9759C20.3892 19.4844 20.5142 20.0795 20.5142 20.7614C20.5142 21.4375 20.3892 22.0284 20.1392 22.5341C19.892 23.0398 19.5455 23.4332 19.0994 23.7145C18.6563 23.9957 18.1392 24.1364 17.5483 24.1364ZM17.5483 23.233C17.9972 23.233 18.3665 23.1179 18.6562 22.8878C18.946 22.6577 19.1605 22.3551 19.2997 21.9801C19.4389 21.6051 19.5085 21.1989 19.5085 20.7614C19.5085 20.3239 19.4389 19.9162 19.2997 19.5384C19.1605 19.1605 18.946 18.8551 18.6562 18.6222C18.3665 18.3892 17.9972 18.2727 17.5483 18.2727C17.0994 18.2727 16.7301 18.3892 16.4403 18.6222C16.1506 18.8551 15.9361 19.1605 15.7969 19.5384C15.6577 19.9162 15.5881 20.3239 15.5881 20.7614C15.5881 21.1989 15.6577 21.6051 15.7969 21.9801C15.9361 22.3551 16.1506 22.6577 16.4403 22.8878C16.7301 23.1179 17.0994 23.233 17.5483 23.233ZM23.055 20.0625V24H22.0494V17.4545H23.021V18.4773H23.1062C23.2596 18.1449 23.4925 17.8778 23.805 17.6761C24.1175 17.4716 24.521 17.3693 25.0153 17.3693C25.4585 17.3693 25.8462 17.4602 26.1786 17.642C26.511 17.821 26.7695 18.0938 26.9542 18.4602C27.1388 18.8239 27.2312 19.2841 27.2312 19.8409V24H26.2255V19.9091C26.2255 19.3949 26.092 18.9943 25.8249 18.7074C25.5579 18.4176 25.1914 18.2727 24.7255 18.2727C24.4045 18.2727 24.1175 18.3423 23.8647 18.4815C23.6147 18.6207 23.4173 18.8239 23.2724 19.0909C23.1275 19.358 23.055 19.6818 23.055 20.0625Z" fill="black"/>
</svg>
