<svg width="150" height="20" viewBox="0 0 150 20" fill="none" xmlns="http://www.w3.org/2000/svg">
<path d="M0.0568182 3.8125V1.54545H13.5653V3.8125H8.11932V19H5.49432V3.8125H0.0568182ZM20.0895 19.2642C18.7997 19.2642 17.6889 18.9886 16.7571 18.4375C15.831 17.8807 15.1151 17.0994 14.6094 16.0938C14.1094 15.0824 13.8594 13.8977 13.8594 12.5398C13.8594 11.1989 14.1094 10.017 14.6094 8.99432C15.1151 7.97159 15.8196 7.1733 16.723 6.59943C17.6321 6.02557 18.6946 5.73864 19.9105 5.73864C20.6491 5.73864 21.3651 5.8608 22.0582 6.10511C22.7514 6.34943 23.3736 6.73295 23.9247 7.25568C24.4759 7.77841 24.9105 8.45739 25.2287 9.29261C25.5469 10.1222 25.706 11.1307 25.706 12.3182V13.2216H15.2997V11.3125H23.2088C23.2088 10.642 23.0724 10.0483 22.7997 9.53125C22.527 9.00852 22.1435 8.59659 21.6491 8.29545C21.1605 7.99432 20.5866 7.84375 19.9276 7.84375C19.2116 7.84375 18.5866 8.01989 18.0526 8.37216C17.5241 8.71875 17.1151 9.1733 16.8253 9.7358C16.5412 10.2926 16.3991 10.8977 16.3991 11.5511V13.0426C16.3991 13.9176 16.5526 14.6619 16.8594 15.2756C17.1719 15.8892 17.6065 16.358 18.1634 16.6818C18.7202 17 19.3707 17.1591 20.1151 17.1591C20.598 17.1591 21.0384 17.0909 21.4361 16.9545C21.8338 16.8125 22.1776 16.6023 22.4673 16.3239C22.7571 16.0455 22.9787 15.7017 23.1321 15.2926L25.544 15.7273C25.3509 16.4375 25.0043 17.0597 24.5043 17.5938C24.0099 18.1222 23.3878 18.5341 22.6378 18.8295C21.8935 19.1193 21.044 19.2642 20.0895 19.2642ZM28.5334 19V5.90909H30.9964V7.98864H31.1328C31.3714 7.28409 31.7919 6.73011 32.3942 6.3267C33.0021 5.91761 33.6896 5.71307 34.4567 5.71307C34.6158 5.71307 34.8033 5.71875 35.0192 5.73011C35.2408 5.74148 35.4141 5.75568 35.5391 5.77273V8.21023C35.4368 8.18182 35.255 8.15057 34.9936 8.11648C34.7322 8.0767 34.4709 8.05682 34.2095 8.05682C33.6072 8.05682 33.0703 8.18466 32.5987 8.44034C32.1328 8.69034 31.7635 9.03977 31.4908 9.48864C31.218 9.93182 31.0817 10.4375 31.0817 11.0057V19H28.5334ZM37.7443 19V5.90909H40.1903V8.03977H40.3523C40.625 7.31818 41.071 6.75568 41.6903 6.35227C42.3097 5.94318 43.0511 5.73864 43.9148 5.73864C44.7898 5.73864 45.5227 5.94318 46.1136 6.35227C46.7102 6.76136 47.1506 7.32386 47.4347 8.03977H47.571C47.8835 7.34091 48.3807 6.78409 49.0625 6.36932C49.7443 5.94886 50.5568 5.73864 51.5 5.73864C52.6875 5.73864 53.6562 6.1108 54.4062 6.85511C55.1619 7.59943 55.5398 8.72159 55.5398 10.2216V19H52.9915V10.4602C52.9915 9.57386 52.75 8.93182 52.267 8.53409C51.7841 8.13636 51.2074 7.9375 50.5369 7.9375C49.7074 7.9375 49.0625 8.19318 48.6023 8.70455C48.142 9.21023 47.9119 9.8608 47.9119 10.6562V19H45.3722V10.2983C45.3722 9.58807 45.1506 9.01705 44.7074 8.58523C44.2642 8.15341 43.6875 7.9375 42.9773 7.9375C42.4943 7.9375 42.0483 8.06534 41.6392 8.32102C41.2358 8.57102 40.9091 8.92045 40.6591 9.36932C40.4148 9.81818 40.2926 10.3381 40.2926 10.929V19H37.7443ZM68.7649 9.10511L66.4553 9.5142C66.3587 9.21875 66.2053 8.9375 65.995 8.67045C65.7905 8.40341 65.5121 8.18466 65.1598 8.0142C64.8075 7.84375 64.3672 7.75852 63.8388 7.75852C63.1172 7.75852 62.5149 7.92045 62.032 8.24432C61.549 8.5625 61.3075 8.97443 61.3075 9.48011C61.3075 9.91761 61.4695 10.2699 61.7933 10.5369C62.1172 10.804 62.6399 11.0227 63.3615 11.1932L65.4411 11.6705C66.6456 11.9489 67.5433 12.3778 68.1342 12.9574C68.7251 13.5369 69.0206 14.2898 69.0206 15.2159C69.0206 16 68.7933 16.6989 68.3388 17.3125C67.8899 17.9205 67.2621 18.3977 66.4553 18.7443C65.6541 19.0909 64.7251 19.2642 63.6683 19.2642C62.2024 19.2642 61.0064 18.9517 60.0803 18.3267C59.1541 17.696 58.5859 16.8011 58.3757 15.642L60.8388 15.267C60.9922 15.9091 61.3075 16.3949 61.7848 16.7244C62.2621 17.0483 62.8842 17.2102 63.6513 17.2102C64.4865 17.2102 65.1541 17.0369 65.6541 16.6903C66.1541 16.3381 66.4041 15.9091 66.4041 15.4034C66.4041 14.9943 66.2507 14.6506 65.9439 14.3722C65.6428 14.0937 65.1797 13.8835 64.5547 13.7415L62.3388 13.2557C61.1172 12.9773 60.2138 12.5341 59.6286 11.9261C59.049 11.3182 58.7592 10.5483 58.7592 9.61648C58.7592 8.84375 58.9751 8.16761 59.407 7.58807C59.8388 7.00852 60.4354 6.55682 61.1967 6.23295C61.9581 5.90341 62.8303 5.73864 63.8132 5.73864C65.228 5.73864 66.3416 6.04545 67.1541 6.65909C67.9666 7.26705 68.5036 8.08239 68.7649 9.10511ZM83.6882 19.2642C82.4609 19.2642 81.3899 18.983 80.4751 18.4205C79.5604 17.858 78.8501 17.071 78.3445 16.0597C77.8388 15.0483 77.5859 13.8665 77.5859 12.5142C77.5859 11.1562 77.8388 9.96875 78.3445 8.9517C78.8501 7.93466 79.5604 7.14489 80.4751 6.58239C81.3899 6.01989 82.4609 5.73864 83.6882 5.73864C84.9155 5.73864 85.9865 6.01989 86.9013 6.58239C87.8161 7.14489 88.5263 7.93466 89.032 8.9517C89.5376 9.96875 89.7905 11.1562 89.7905 12.5142C89.7905 13.8665 89.5376 15.0483 89.032 16.0597C88.5263 17.071 87.8161 17.858 86.9013 18.4205C85.9865 18.983 84.9155 19.2642 83.6882 19.2642ZM83.6967 17.125C84.4922 17.125 85.1513 16.9148 85.674 16.4943C86.1967 16.0739 86.5831 15.5142 86.8331 14.8153C87.0888 14.1165 87.2166 13.3466 87.2166 12.5057C87.2166 11.6705 87.0888 10.9034 86.8331 10.2045C86.5831 9.5 86.1967 8.93466 85.674 8.50852C85.1513 8.08239 84.4922 7.86932 83.6967 7.86932C82.8956 7.86932 82.2308 8.08239 81.7024 8.50852C81.1797 8.93466 80.7905 9.5 80.5348 10.2045C80.2848 10.9034 80.1598 11.6705 80.1598 12.5057C80.1598 13.3466 80.2848 14.1165 80.5348 14.8153C80.7905 15.5142 81.1797 16.0739 81.7024 16.4943C82.2308 16.9148 82.8956 17.125 83.6967 17.125ZM98.8651 5.90909V7.95455H91.4673V5.90909H98.8651ZM93.4957 19V4.39204C93.4957 3.57386 93.6747 2.89489 94.0327 2.35511C94.3906 1.80966 94.8651 1.40341 95.456 1.13636C96.0469 0.863636 96.6889 0.727272 97.3821 0.727272C97.8935 0.727272 98.331 0.769886 98.6946 0.855114C99.0582 0.934659 99.3281 1.00852 99.5043 1.0767L98.9077 3.1392C98.7884 3.10511 98.6349 3.06534 98.4474 3.01989C98.2599 2.96875 98.0327 2.94318 97.7656 2.94318C97.1463 2.94318 96.7031 3.09659 96.4361 3.40341C96.1747 3.71023 96.044 4.15341 96.044 4.73295V19H93.4957ZM119.275 1.54545H121.917V13.0256C121.917 14.2472 121.63 15.3295 121.056 16.2727C120.482 17.2102 119.675 17.9489 118.636 18.4886C117.596 19.0227 116.377 19.2898 114.979 19.2898C113.587 19.2898 112.371 19.0227 111.332 18.4886C110.292 17.9489 109.485 17.2102 108.911 16.2727C108.337 15.3295 108.05 14.2472 108.05 13.0256V1.54545H110.684V12.8125C110.684 13.6023 110.857 14.304 111.204 14.9176C111.556 15.5312 112.053 16.0142 112.695 16.3665C113.337 16.7131 114.099 16.8864 114.979 16.8864C115.866 16.8864 116.63 16.7131 117.272 16.3665C117.92 16.0142 118.414 15.5312 118.755 14.9176C119.102 14.304 119.275 13.6023 119.275 12.8125V1.54545ZM135.351 9.10511L133.041 9.5142C132.945 9.21875 132.791 8.9375 132.581 8.67045C132.376 8.40341 132.098 8.18466 131.746 8.0142C131.393 7.84375 130.953 7.75852 130.425 7.75852C129.703 7.75852 129.101 7.92045 128.618 8.24432C128.135 8.5625 127.893 8.97443 127.893 9.48011C127.893 9.91761 128.055 10.2699 128.379 10.5369C128.703 10.804 129.226 11.0227 129.947 11.1932L132.027 11.6705C133.232 11.9489 134.129 12.3778 134.72 12.9574C135.311 13.5369 135.607 14.2898 135.607 15.2159C135.607 16 135.379 16.6989 134.925 17.3125C134.476 17.9205 133.848 18.3977 133.041 18.7443C132.24 19.0909 131.311 19.2642 130.254 19.2642C128.788 19.2642 127.592 18.9517 126.666 18.3267C125.74 17.696 125.172 16.8011 124.962 15.642L127.425 15.267C127.578 15.9091 127.893 16.3949 128.371 16.7244C128.848 17.0483 129.47 17.2102 130.237 17.2102C131.072 17.2102 131.74 17.0369 132.24 16.6903C132.74 16.3381 132.99 15.9091 132.99 15.4034C132.99 14.9943 132.837 14.6506 132.53 14.3722C132.229 14.0937 131.766 13.8835 131.141 13.7415L128.925 13.2557C127.703 12.9773 126.8 12.5341 126.214 11.9261C125.635 11.3182 125.345 10.5483 125.345 9.61648C125.345 8.84375 125.561 8.16761 125.993 7.58807C126.425 7.00852 127.021 6.55682 127.783 6.23295C128.544 5.90341 129.416 5.73864 130.399 5.73864C131.814 5.73864 132.928 6.04545 133.74 6.65909C134.553 7.26705 135.089 8.08239 135.351 9.10511ZM144.05 19.2642C142.761 19.2642 141.65 18.9886 140.718 18.4375C139.792 17.8807 139.076 17.0994 138.57 16.0938C138.07 15.0824 137.82 13.8977 137.82 12.5398C137.82 11.1989 138.07 10.017 138.57 8.99432C139.076 7.97159 139.781 7.1733 140.684 6.59943C141.593 6.02557 142.656 5.73864 143.871 5.73864C144.61 5.73864 145.326 5.8608 146.019 6.10511C146.712 6.34943 147.335 6.73295 147.886 7.25568C148.437 7.77841 148.871 8.45739 149.19 9.29261C149.508 10.1222 149.667 11.1307 149.667 12.3182V13.2216H139.261V11.3125H147.17C147.17 10.642 147.033 10.0483 146.761 9.53125C146.488 9.00852 146.104 8.59659 145.61 8.29545C145.121 7.99432 144.548 7.84375 143.888 7.84375C143.173 7.84375 142.548 8.01989 142.013 8.37216C141.485 8.71875 141.076 9.1733 140.786 9.7358C140.502 10.2926 140.36 10.8977 140.36 11.5511V13.0426C140.36 13.9176 140.513 14.6619 140.82 15.2756C141.133 15.8892 141.567 16.358 142.124 16.6818C142.681 17 143.332 17.1591 144.076 17.1591C144.559 17.1591 144.999 17.0909 145.397 16.9545C145.795 16.8125 146.138 16.6023 146.428 16.3239C146.718 16.0455 146.94 15.7017 147.093 15.2926L149.505 15.7273C149.312 16.4375 148.965 17.0597 148.465 17.5938C147.971 18.1222 147.349 18.5341 146.599 18.8295C145.854 19.1193 145.005 19.2642 144.05 19.2642Z" fill="white"/>
</svg>
