<svg width="423" height="189" viewBox="0 0 423 189" fill="none" xmlns="http://www.w3.org/2000/svg">
<rect width="423" height="189" rx="10" fill="#D9D9D9"/>
<path fill-rule="evenodd" clip-rule="evenodd" d="M383.843 16.187C384.136 15.8941 384.136 15.4192 383.843 15.1263C383.55 14.8334 383.075 14.8334 382.782 15.1263L375.484 22.4244L368.186 15.1263C367.893 14.8334 367.419 14.8334 367.126 15.1263C366.833 15.4192 366.833 15.8941 367.126 16.187L374.424 23.4851L367.126 30.7832C366.833 31.0761 366.833 31.5509 367.126 31.8438C367.419 32.1367 367.893 32.1367 368.186 31.8438L375.484 24.5457L382.782 31.8438C383.075 32.1367 383.55 32.1367 383.843 31.8438C384.136 31.5509 384.136 31.0761 383.843 30.7832L376.545 23.4851L383.843 16.187Z" fill="#18191A"/>
<rect x="123.5" y="87.5" width="79" height="79" rx="4.5" fill="#F5F5F5" stroke="#838383"/>
<rect x="229.5" y="88.5" width="79" height="79" rx="4.5" fill="#F5F5F5" stroke="#838383"/>
<path d="M22.4659 28H20.7045C20.6004 27.4934 20.4181 27.0483 20.1577 26.6648C19.902 26.2812 19.5895 25.9593 19.2202 25.6989C18.8556 25.4337 18.4508 25.2348 18.0057 25.1023C17.5606 24.9697 17.0966 24.9034 16.6136 24.9034C15.733 24.9034 14.9351 25.1259 14.2202 25.571C13.5099 26.0161 12.9441 26.6719 12.5227 27.5384C12.1061 28.4048 11.8977 29.4678 11.8977 30.7273C11.8977 31.9867 12.1061 33.0497 12.5227 33.9162C12.9441 34.7827 13.5099 35.4384 14.2202 35.8835C14.9351 36.3286 15.733 36.5511 16.6136 36.5511C17.0966 36.5511 17.5606 36.4848 18.0057 36.3523C18.4508 36.2197 18.8556 36.0232 19.2202 35.7628C19.5895 35.4976 19.902 35.1733 20.1577 34.7898C20.4181 34.4015 20.6004 33.9564 20.7045 33.4545H22.4659C22.3333 34.1979 22.0919 34.8632 21.7415 35.4503C21.3911 36.0374 20.9555 36.5369 20.4347 36.9489C19.9138 37.3561 19.3291 37.6662 18.6804 37.8793C18.0365 38.0923 17.3475 38.1989 16.6136 38.1989C15.3731 38.1989 14.2699 37.8958 13.304 37.2898C12.3381 36.6837 11.5781 35.822 11.0241 34.7045C10.4702 33.5871 10.1932 32.2614 10.1932 30.7273C10.1932 29.1932 10.4702 27.8674 11.0241 26.75C11.5781 25.6326 12.3381 24.7708 13.304 24.1648C14.2699 23.5587 15.3731 23.2557 16.6136 23.2557C17.3475 23.2557 18.0365 23.3622 18.6804 23.5753C19.3291 23.7884 19.9138 24.1009 20.4347 24.5128C20.9555 24.92 21.3911 25.4171 21.7415 26.0043C22.0919 26.5866 22.3333 27.2519 22.4659 28ZM26.761 31.4375V38H25.0849V23.4545H26.761V28.7955H26.9031C27.1587 28.232 27.5423 27.7846 28.0536 27.4531C28.5697 27.117 29.2563 26.9489 30.1133 26.9489C30.8567 26.9489 31.5077 27.098 32.0664 27.3963C32.6251 27.6899 33.0584 28.142 33.3661 28.7528C33.6786 29.3589 33.8349 30.1307 33.8349 31.0682V38H32.1587V31.1818C32.1587 30.3153 31.9338 29.6454 31.484 29.1719C31.0389 28.6937 30.421 28.4545 29.6303 28.4545C29.0811 28.4545 28.5887 28.5705 28.1531 28.8026C27.7222 29.0346 27.3813 29.3731 27.1303 29.8182C26.8841 30.2633 26.761 30.803 26.761 31.4375ZM41.3331 38.2273C40.3482 38.2273 39.4841 37.9929 38.7408 37.5241C38.0021 37.0554 37.4245 36.3996 37.0078 35.5568C36.5959 34.714 36.3899 33.7292 36.3899 32.6023C36.3899 31.4659 36.5959 30.474 37.0078 29.6264C37.4245 28.7789 38.0021 28.1207 38.7408 27.652C39.4841 27.1832 40.3482 26.9489 41.3331 26.9489C42.3179 26.9489 43.1797 27.1832 43.9183 27.652C44.6617 28.1207 45.2393 28.7789 45.6513 29.6264C46.0679 30.474 46.2763 31.4659 46.2763 32.6023C46.2763 33.7292 46.0679 34.714 45.6513 35.5568C45.2393 36.3996 44.6617 37.0554 43.9183 37.5241C43.1797 37.9929 42.3179 38.2273 41.3331 38.2273ZM41.3331 36.7216C42.0812 36.7216 42.6967 36.5298 43.1797 36.1463C43.6626 35.7628 44.0201 35.2585 44.2521 34.6335C44.4841 34.0085 44.6001 33.3314 44.6001 32.6023C44.6001 31.8731 44.4841 31.1937 44.2521 30.5639C44.0201 29.9342 43.6626 29.4252 43.1797 29.0369C42.6967 28.6487 42.0812 28.4545 41.3331 28.4545C40.585 28.4545 39.9695 28.6487 39.4865 29.0369C39.0036 29.4252 38.6461 29.9342 38.4141 30.5639C38.1821 31.1937 38.0661 31.8731 38.0661 32.6023C38.0661 33.3314 38.1821 34.0085 38.4141 34.6335C38.6461 35.2585 39.0036 35.7628 39.4865 36.1463C39.9695 36.5298 40.585 36.7216 41.3331 36.7216ZM53.2667 38.2273C52.2818 38.2273 51.4177 37.9929 50.6744 37.5241C49.9357 37.0554 49.3581 36.3996 48.9414 35.5568C48.5295 34.714 48.3235 33.7292 48.3235 32.6023C48.3235 31.4659 48.5295 30.474 48.9414 29.6264C49.3581 28.7789 49.9357 28.1207 50.6744 27.652C51.4177 27.1832 52.2818 26.9489 53.2667 26.9489C54.2515 26.9489 55.1133 27.1832 55.8519 27.652C56.5953 28.1207 57.1729 28.7789 57.5849 29.6264C58.0015 30.474 58.2099 31.4659 58.2099 32.6023C58.2099 33.7292 58.0015 34.714 57.5849 35.5568C57.1729 36.3996 56.5953 37.0554 55.8519 37.5241C55.1133 37.9929 54.2515 38.2273 53.2667 38.2273ZM53.2667 36.7216C54.0148 36.7216 54.6303 36.5298 55.1133 36.1463C55.5962 35.7628 55.9537 35.2585 56.1857 34.6335C56.4177 34.0085 56.5337 33.3314 56.5337 32.6023C56.5337 31.8731 56.4177 31.1937 56.1857 30.5639C55.9537 29.9342 55.5962 29.4252 55.1133 29.0369C54.6303 28.6487 54.0148 28.4545 53.2667 28.4545C52.5186 28.4545 51.9031 28.6487 51.4201 29.0369C50.9371 29.4252 50.5797 29.9342 50.3477 30.5639C50.1156 31.1937 49.9996 31.8731 49.9996 32.6023C49.9996 33.3314 50.1156 34.0085 50.3477 34.6335C50.5797 35.2585 50.9371 35.7628 51.4201 36.1463C51.9031 36.5298 52.5186 36.7216 53.2667 36.7216ZM68.4957 29.5341L66.9901 29.9602C66.8954 29.7093 66.7557 29.4654 66.571 29.2287C66.3911 28.9872 66.1449 28.7884 65.8324 28.6321C65.5199 28.4759 65.1198 28.3977 64.6321 28.3977C63.9645 28.3977 63.4081 28.5516 62.9631 28.8594C62.5227 29.1624 62.3026 29.5483 62.3026 30.017C62.3026 30.4337 62.4541 30.7628 62.7571 31.0043C63.0601 31.2457 63.5336 31.447 64.1776 31.608L65.7969 32.0057C66.7723 32.2424 67.4991 32.6046 67.9773 33.0923C68.4555 33.5753 68.6946 34.1979 68.6946 34.9602C68.6946 35.5852 68.5147 36.1439 68.1548 36.6364C67.7997 37.1288 67.3026 37.517 66.6634 37.8011C66.0241 38.0852 65.2808 38.2273 64.4332 38.2273C63.3205 38.2273 62.3996 37.9858 61.6705 37.5028C60.9413 37.0199 60.4796 36.3144 60.2855 35.3864L61.8764 34.9886C62.0279 35.5758 62.3144 36.0161 62.7358 36.3097C63.1619 36.6032 63.7183 36.75 64.4048 36.75C65.1861 36.75 65.8063 36.5843 66.2656 36.2528C66.7296 35.9167 66.9616 35.5142 66.9616 35.0455C66.9616 34.6667 66.8291 34.3494 66.5639 34.0938C66.2988 33.8333 65.8916 33.6392 65.3423 33.5114L63.5241 33.0852C62.5251 32.8485 61.7912 32.4815 61.3224 31.9844C60.8584 31.4825 60.6264 30.8551 60.6264 30.1023C60.6264 29.4867 60.7992 28.9422 61.1449 28.4688C61.4953 27.9953 61.9711 27.6236 62.5724 27.3537C63.1785 27.0838 63.8651 26.9489 64.6321 26.9489C65.7116 26.9489 66.5592 27.1856 67.1747 27.6591C67.795 28.1326 68.2353 28.7576 68.4957 29.5341ZM75.7915 38.2273C74.7404 38.2273 73.8337 37.9953 73.0714 37.5312C72.3138 37.0625 71.729 36.4091 71.3171 35.571C70.9099 34.7282 70.7063 33.7481 70.7063 32.6307C70.7063 31.5133 70.9099 30.5284 71.3171 29.6761C71.729 28.8191 72.302 28.1515 73.0359 27.6733C73.7745 27.1903 74.6362 26.9489 75.6211 26.9489C76.1893 26.9489 76.7504 27.0436 77.3043 27.233C77.8583 27.4223 78.3626 27.7301 78.8171 28.1562C79.2717 28.5777 79.6339 29.1364 79.9038 29.8324C80.1737 30.5284 80.3086 31.3854 80.3086 32.4034V33.1136H71.8995V31.6648H78.604C78.604 31.0492 78.4809 30.5 78.2347 30.017C77.9933 29.5341 77.6476 29.1529 77.1978 28.8736C76.7527 28.5942 76.2272 28.4545 75.6211 28.4545C74.9535 28.4545 74.3758 28.6203 73.8881 28.9517C73.4052 29.2784 73.0335 29.7045 72.7731 30.2301C72.5127 30.7557 72.3825 31.3191 72.3825 31.9205V32.8864C72.3825 33.7102 72.5245 34.4086 72.8086 34.9815C73.0974 35.5497 73.4975 35.983 74.0089 36.2812C74.5202 36.5748 75.1145 36.7216 75.7915 36.7216C76.2319 36.7216 76.6296 36.66 76.9847 36.5369C77.3446 36.4091 77.6547 36.2197 77.9151 35.9688C78.1755 35.7131 78.3768 35.3958 78.5188 35.017L80.1381 35.4716C79.9677 36.0208 79.6812 36.5038 79.2788 36.9205C78.8763 37.3324 78.3791 37.6544 77.7873 37.8864C77.1954 38.1136 76.5302 38.2273 75.7915 38.2273ZM91.6935 38.2557C91.0022 38.2557 90.3749 38.1255 89.8114 37.8651C89.248 37.5999 88.8005 37.2188 88.4691 36.7216C88.1377 36.2197 87.9719 35.6136 87.9719 34.9034C87.9719 34.2784 88.0951 33.7718 88.3413 33.3835C88.5875 32.9905 88.9165 32.6828 89.3285 32.4602C89.7404 32.2377 90.195 32.072 90.6921 31.9631C91.194 31.8494 91.6983 31.7595 92.2049 31.6932C92.8678 31.608 93.4052 31.544 93.8171 31.5014C94.2338 31.4541 94.5368 31.3759 94.7262 31.267C94.9203 31.1581 95.0174 30.9687 95.0174 30.6989V30.642C95.0174 29.9413 94.8256 29.3968 94.4421 29.0085C94.0633 28.6203 93.488 28.4261 92.7163 28.4261C91.9161 28.4261 91.2887 28.6013 90.8342 28.9517C90.3796 29.3021 90.06 29.6761 89.8754 30.0739L88.2844 29.5057C88.5685 28.8428 88.9473 28.3267 89.4208 27.9574C89.899 27.5833 90.4199 27.3229 90.9833 27.1761C91.5515 27.0246 92.1102 26.9489 92.6594 26.9489C93.0098 26.9489 93.4123 26.9915 93.8668 27.0767C94.3261 27.1572 94.7688 27.3253 95.195 27.581C95.6258 27.8366 95.9833 28.2225 96.2674 28.7386C96.5515 29.2547 96.6935 29.946 96.6935 30.8125V38H95.0174V36.5227H94.9322C94.8185 36.7595 94.6291 37.0128 94.364 37.2827C94.0988 37.5526 93.7461 37.7822 93.3058 37.9716C92.8654 38.161 92.328 38.2557 91.6935 38.2557ZM91.9492 36.75C92.6121 36.75 93.1708 36.6198 93.6254 36.3594C94.0846 36.099 94.4303 35.7628 94.6623 35.3509C94.899 34.9389 95.0174 34.5057 95.0174 34.0511V32.517C94.9464 32.6023 94.7901 32.6804 94.5487 32.7514C94.3119 32.8177 94.0373 32.8769 93.7248 32.929C93.417 32.9763 93.1164 33.0189 92.8228 33.0568C92.534 33.09 92.2996 33.1184 92.1197 33.142C91.6841 33.1989 91.2769 33.2912 90.8981 33.419C90.524 33.5421 90.221 33.7292 89.989 33.9801C89.7617 34.2263 89.6481 34.5625 89.6481 34.9886C89.6481 35.571 89.8635 36.0114 90.2944 36.3097C90.73 36.6032 91.2816 36.75 91.9492 36.75ZM101.429 31.4375V38H99.7528V27.0909H101.372V28.7955H101.514C101.77 28.2415 102.158 27.7964 102.679 27.4602C103.2 27.1193 103.872 26.9489 104.696 26.9489C105.435 26.9489 106.081 27.1004 106.635 27.4034C107.189 27.7017 107.62 28.1562 107.928 28.767C108.235 29.3731 108.389 30.1402 108.389 31.0682V38H106.713V31.1818C106.713 30.3248 106.491 29.6572 106.045 29.179C105.6 28.696 104.99 28.4545 104.213 28.4545C103.678 28.4545 103.2 28.5705 102.778 28.8026C102.362 29.0346 102.033 29.3731 101.791 29.8182C101.55 30.2633 101.429 30.803 101.429 31.4375ZM121.509 38.2273C120.524 38.2273 119.66 37.9929 118.917 37.5241C118.178 37.0554 117.6 36.3996 117.184 35.5568C116.772 34.714 116.566 33.7292 116.566 32.6023C116.566 31.4659 116.772 30.474 117.184 29.6264C117.6 28.7789 118.178 28.1207 118.917 27.652C119.66 27.1832 120.524 26.9489 121.509 26.9489C122.494 26.9489 123.355 27.1832 124.094 27.652C124.837 28.1207 125.415 28.7789 125.827 29.6264C126.244 30.474 126.452 31.4659 126.452 32.6023C126.452 33.7292 126.244 34.714 125.827 35.5568C125.415 36.3996 124.837 37.0554 124.094 37.5241C123.355 37.9929 122.494 38.2273 121.509 38.2273ZM121.509 36.7216C122.257 36.7216 122.873 36.5298 123.355 36.1463C123.838 35.7628 124.196 35.2585 124.428 34.6335C124.66 34.0085 124.776 33.3314 124.776 32.6023C124.776 31.8731 124.66 31.1937 124.428 30.5639C124.196 29.9342 123.838 29.4252 123.355 29.0369C122.873 28.6487 122.257 28.4545 121.509 28.4545C120.761 28.4545 120.145 28.6487 119.662 29.0369C119.179 29.4252 118.822 29.9342 118.59 30.5639C118.358 31.1937 118.242 31.8731 118.242 32.6023C118.242 33.3314 118.358 34.0085 118.59 34.6335C118.822 35.2585 119.179 35.7628 119.662 36.1463C120.145 36.5298 120.761 36.7216 121.509 36.7216ZM129.011 42.0909V27.0909H130.63V28.8239H130.829C130.952 28.6345 131.122 28.393 131.34 28.0994C131.563 27.8011 131.88 27.536 132.292 27.304C132.709 27.0672 133.272 26.9489 133.982 26.9489C134.901 26.9489 135.71 27.1785 136.411 27.6378C137.112 28.0971 137.659 28.7481 138.052 29.5909C138.445 30.4337 138.641 31.428 138.641 32.5739C138.641 33.7292 138.445 34.7306 138.052 35.5781C137.659 36.4209 137.114 37.0743 136.418 37.5384C135.722 37.9976 134.92 38.2273 134.011 38.2273C133.31 38.2273 132.749 38.1113 132.327 37.8793C131.906 37.6425 131.582 37.375 131.354 37.0767C131.127 36.7737 130.952 36.5227 130.829 36.3239H130.687V42.0909H129.011ZM130.658 32.5455C130.658 33.3693 130.779 34.0961 131.021 34.7259C131.262 35.3509 131.615 35.8409 132.079 36.196C132.543 36.5464 133.111 36.7216 133.783 36.7216C134.484 36.7216 135.069 36.5369 135.538 36.1676C136.011 35.7936 136.366 35.2917 136.603 34.6619C136.844 34.0275 136.965 33.322 136.965 32.5455C136.965 31.7784 136.847 31.0871 136.61 30.4716C136.378 29.8513 136.025 29.3613 135.552 29.0014C135.083 28.6368 134.494 28.4545 133.783 28.4545C133.102 28.4545 132.529 28.6274 132.065 28.973C131.601 29.3139 131.25 29.7921 131.013 30.4077C130.777 31.0185 130.658 31.7311 130.658 32.5455ZM145.942 27.0909V28.5114H140.289V27.0909H145.942ZM141.937 24.4773H143.613V34.875C143.613 35.3485 143.682 35.7036 143.819 35.9403C143.961 36.1723 144.141 36.3286 144.359 36.4091C144.581 36.4848 144.816 36.5227 145.062 36.5227C145.246 36.5227 145.398 36.5133 145.516 36.4943C145.635 36.4706 145.729 36.4517 145.8 36.4375L146.141 37.9432C146.028 37.9858 145.869 38.0284 145.665 38.071C145.462 38.1184 145.204 38.142 144.891 38.142C144.418 38.142 143.954 38.0402 143.499 37.8366C143.049 37.633 142.675 37.3229 142.377 36.9062C142.084 36.4896 141.937 35.964 141.937 35.3295V24.4773ZM148.464 38V27.0909H150.14V38H148.464ZM149.316 25.2727C148.989 25.2727 148.708 25.1615 148.471 24.9389C148.239 24.7164 148.123 24.4489 148.123 24.1364C148.123 23.8239 148.239 23.5563 148.471 23.3338C148.708 23.1113 148.989 23 149.316 23C149.643 23 149.922 23.1113 150.154 23.3338C150.391 23.5563 150.509 23.8239 150.509 24.1364C150.509 24.4489 150.391 24.7164 150.154 24.9389C149.922 25.1615 149.643 25.2727 149.316 25.2727ZM157.642 38.2273C156.657 38.2273 155.793 37.9929 155.049 37.5241C154.311 37.0554 153.733 36.3996 153.316 35.5568C152.904 34.714 152.699 33.7292 152.699 32.6023C152.699 31.4659 152.904 30.474 153.316 29.6264C153.733 28.7789 154.311 28.1207 155.049 27.652C155.793 27.1832 156.657 26.9489 157.642 26.9489C158.627 26.9489 159.488 27.1832 160.227 27.652C160.97 28.1207 161.548 28.7789 161.96 29.6264C162.377 30.474 162.585 31.4659 162.585 32.6023C162.585 33.7292 162.377 34.714 161.96 35.5568C161.548 36.3996 160.97 37.0554 160.227 37.5241C159.488 37.9929 158.627 38.2273 157.642 38.2273ZM157.642 36.7216C158.39 36.7216 159.005 36.5298 159.488 36.1463C159.971 35.7628 160.329 35.2585 160.561 34.6335C160.793 34.0085 160.909 33.3314 160.909 32.6023C160.909 31.8731 160.793 31.1937 160.561 30.5639C160.329 29.9342 159.971 29.4252 159.488 29.0369C159.005 28.6487 158.39 28.4545 157.642 28.4545C156.894 28.4545 156.278 28.6487 155.795 29.0369C155.312 29.4252 154.955 29.9342 154.723 30.5639C154.491 31.1937 154.375 31.8731 154.375 32.6023C154.375 33.3314 154.491 34.0085 154.723 34.6335C154.955 35.2585 155.312 35.7628 155.795 36.1463C156.278 36.5298 156.894 36.7216 157.642 36.7216ZM166.82 31.4375V38H165.143V27.0909H166.763V28.7955H166.905C167.161 28.2415 167.549 27.7964 168.07 27.4602C168.59 27.1193 169.263 26.9489 170.087 26.9489C170.825 26.9489 171.472 27.1004 172.026 27.4034C172.58 27.7017 173.01 28.1562 173.318 28.767C173.626 29.3731 173.78 30.1402 173.78 31.0682V38H172.104V31.1818C172.104 30.3248 171.881 29.6572 171.436 29.179C170.991 28.696 170.38 28.4545 169.604 28.4545C169.069 28.4545 168.59 28.5705 168.169 28.8026C167.752 29.0346 167.423 29.3731 167.182 29.8182C166.94 30.2633 166.82 30.803 166.82 31.4375ZM178.064 38.1136C177.714 38.1136 177.413 37.9882 177.162 37.7372C176.911 37.4863 176.786 37.1856 176.786 36.8352C176.786 36.4848 176.911 36.1842 177.162 35.9332C177.413 35.6823 177.714 35.5568 178.064 35.5568C178.415 35.5568 178.715 35.6823 178.966 35.9332C179.217 36.1842 179.343 36.4848 179.343 36.8352C179.343 37.0672 179.283 37.2803 179.165 37.4744C179.051 37.6686 178.898 37.8248 178.703 37.9432C178.514 38.0568 178.301 38.1136 178.064 38.1136ZM178.064 30.017C177.714 30.017 177.413 29.8916 177.162 29.6406C176.911 29.3897 176.786 29.089 176.786 28.7386C176.786 28.3883 176.911 28.0876 177.162 27.8366C177.413 27.5857 177.714 27.4602 178.064 27.4602C178.415 27.4602 178.715 27.5857 178.966 27.8366C179.217 28.0876 179.343 28.3883 179.343 28.7386C179.343 28.9706 179.283 29.1837 179.165 29.3778C179.051 29.572 178.898 29.7282 178.703 29.8466C178.514 29.9602 178.301 30.017 178.064 30.017Z" fill="black"/>
<line y1="46.5" x2="423" y2="46.5" stroke="black"/>
<path d="M139.114 119.273V128H138.057V119.273H139.114ZM149.108 122.92L148.204 123.176C148.147 123.026 148.064 122.879 147.953 122.737C147.845 122.592 147.697 122.473 147.51 122.379C147.322 122.286 147.082 122.239 146.789 122.239C146.389 122.239 146.055 122.331 145.788 122.516C145.524 122.697 145.392 122.929 145.392 123.21C145.392 123.46 145.483 123.658 145.664 123.803C145.846 123.947 146.13 124.068 146.517 124.165L147.488 124.403C148.074 124.545 148.51 124.763 148.797 125.055C149.083 125.345 149.227 125.719 149.227 126.176C149.227 126.551 149.119 126.886 148.903 127.182C148.69 127.477 148.392 127.71 148.008 127.881C147.625 128.051 147.179 128.136 146.67 128.136C146.002 128.136 145.45 127.991 145.012 127.702C144.575 127.412 144.298 126.989 144.181 126.432L145.136 126.193C145.227 126.545 145.399 126.81 145.652 126.986C145.907 127.162 146.241 127.25 146.653 127.25C147.122 127.25 147.494 127.151 147.77 126.952C148.048 126.75 148.187 126.509 148.187 126.227C148.187 126 148.108 125.81 147.949 125.656C147.789 125.5 147.545 125.384 147.216 125.307L146.125 125.051C145.525 124.909 145.085 124.689 144.804 124.391C144.525 124.089 144.386 123.713 144.386 123.261C144.386 122.892 144.49 122.565 144.697 122.281C144.907 121.997 145.193 121.774 145.554 121.612C145.917 121.45 146.329 121.369 146.789 121.369C147.437 121.369 147.946 121.511 148.315 121.795C148.687 122.08 148.951 122.455 149.108 122.92ZM153.485 128.136C152.854 128.136 152.31 127.997 151.853 127.719C151.398 127.438 151.048 127.045 150.8 126.543C150.556 126.037 150.434 125.449 150.434 124.778C150.434 124.108 150.556 123.517 150.8 123.006C151.048 122.491 151.391 122.091 151.832 121.804C152.275 121.514 152.792 121.369 153.383 121.369C153.724 121.369 154.06 121.426 154.393 121.54C154.725 121.653 155.028 121.838 155.3 122.094C155.573 122.347 155.79 122.682 155.952 123.099C156.114 123.517 156.195 124.031 156.195 124.642V125.068H151.15V124.199H155.173C155.173 123.83 155.099 123.5 154.951 123.21C154.806 122.92 154.599 122.692 154.329 122.524C154.062 122.357 153.746 122.273 153.383 122.273C152.982 122.273 152.636 122.372 152.343 122.571C152.053 122.767 151.83 123.023 151.674 123.338C151.518 123.653 151.44 123.991 151.44 124.352V124.932C151.44 125.426 151.525 125.845 151.695 126.189C151.869 126.53 152.109 126.79 152.415 126.969C152.722 127.145 153.079 127.233 153.485 127.233C153.749 127.233 153.988 127.196 154.201 127.122C154.417 127.045 154.603 126.932 154.759 126.781C154.915 126.628 155.036 126.437 155.121 126.21L156.093 126.483C155.991 126.812 155.819 127.102 155.577 127.352C155.336 127.599 155.038 127.793 154.683 127.932C154.327 128.068 153.928 128.136 153.485 128.136ZM160.469 128.136C159.839 128.136 159.295 127.997 158.837 127.719C158.383 127.438 158.032 127.045 157.785 126.543C157.54 126.037 157.418 125.449 157.418 124.778C157.418 124.108 157.54 123.517 157.785 123.006C158.032 122.491 158.376 122.091 158.816 121.804C159.259 121.514 159.776 121.369 160.367 121.369C160.708 121.369 161.045 121.426 161.377 121.54C161.71 121.653 162.012 121.838 162.285 122.094C162.558 122.347 162.775 122.682 162.937 123.099C163.099 123.517 163.18 124.031 163.18 124.642V125.068H158.134V124.199H162.157C162.157 123.83 162.083 123.5 161.935 123.21C161.79 122.92 161.583 122.692 161.313 122.524C161.046 122.357 160.731 122.273 160.367 122.273C159.967 122.273 159.62 122.372 159.327 122.571C159.038 122.767 158.815 123.023 158.658 123.338C158.502 123.653 158.424 123.991 158.424 124.352V124.932C158.424 125.426 158.509 125.845 158.68 126.189C158.853 126.53 159.093 126.79 159.4 126.969C159.707 127.145 160.063 127.233 160.469 127.233C160.734 127.233 160.972 127.196 161.185 127.122C161.401 127.045 161.587 126.932 161.744 126.781C161.9 126.628 162.021 126.437 162.106 126.21L163.077 126.483C162.975 126.812 162.803 127.102 162.562 127.352C162.32 127.599 162.022 127.793 161.667 127.932C161.312 128.068 160.913 128.136 160.469 128.136ZM165.647 125.614L165.63 124.369H165.835L168.698 121.455H169.942L166.891 124.54H166.806L165.647 125.614ZM164.71 128V119.273H165.715V128H164.71ZM168.869 128L166.312 124.761L167.028 124.062L170.147 128H168.869Z" fill="black"/>
<path d="M251.114 119.273V128H250.057V119.273H251.114ZM259.13 128.136C258.539 128.136 258.021 127.996 257.575 127.714C257.132 127.433 256.785 127.04 256.535 126.534C256.288 126.028 256.164 125.437 256.164 124.761C256.164 124.08 256.288 123.484 256.535 122.976C256.785 122.467 257.132 122.072 257.575 121.791C258.021 121.51 258.539 121.369 259.13 121.369C259.721 121.369 260.238 121.51 260.681 121.791C261.127 122.072 261.474 122.467 261.721 122.976C261.971 123.484 262.096 124.08 262.096 124.761C262.096 125.437 261.971 126.028 261.721 126.534C261.474 127.04 261.127 127.433 260.681 127.714C260.238 127.996 259.721 128.136 259.13 128.136ZM259.13 127.233C259.579 127.233 259.949 127.118 260.238 126.888C260.528 126.658 260.743 126.355 260.882 125.98C261.021 125.605 261.091 125.199 261.091 124.761C261.091 124.324 261.021 123.916 260.882 123.538C260.743 123.161 260.528 122.855 260.238 122.622C259.949 122.389 259.579 122.273 259.13 122.273C258.681 122.273 258.312 122.389 258.022 122.622C257.733 122.855 257.518 123.161 257.379 123.538C257.24 123.916 257.17 124.324 257.17 124.761C257.17 125.199 257.24 125.605 257.379 125.98C257.518 126.355 257.733 126.658 258.022 126.888C258.312 127.118 258.681 127.233 259.13 127.233ZM266.546 121.455V122.307H263.018V121.455H266.546ZM264.075 128V120.551C264.075 120.176 264.163 119.864 264.339 119.614C264.515 119.364 264.744 119.176 265.025 119.051C265.306 118.926 265.603 118.864 265.915 118.864C266.163 118.864 266.364 118.884 266.521 118.923C266.677 118.963 266.793 119 266.87 119.034L266.58 119.903C266.529 119.886 266.458 119.865 266.367 119.839C266.279 119.814 266.163 119.801 266.018 119.801C265.685 119.801 265.445 119.885 265.298 120.053C265.153 120.22 265.08 120.466 265.08 120.79V128H264.075ZM270.87 121.455V122.307H267.342V121.455H270.87ZM268.399 128V120.551C268.399 120.176 268.487 119.864 268.663 119.614C268.839 119.364 269.068 119.176 269.349 119.051C269.63 118.926 269.927 118.864 270.24 118.864C270.487 118.864 270.689 118.884 270.845 118.923C271.001 118.963 271.118 119 271.194 119.034L270.904 119.903C270.853 119.886 270.782 119.865 270.691 119.839C270.603 119.814 270.487 119.801 270.342 119.801C270.01 119.801 269.77 119.885 269.622 120.053C269.477 120.22 269.404 120.466 269.404 120.79V128H268.399ZM274.755 128.136C274.124 128.136 273.58 127.997 273.123 127.719C272.668 127.438 272.317 127.045 272.07 126.543C271.826 126.037 271.703 125.449 271.703 124.778C271.703 124.108 271.826 123.517 272.07 123.006C272.317 122.491 272.661 122.091 273.101 121.804C273.544 121.514 274.061 121.369 274.652 121.369C274.993 121.369 275.33 121.426 275.662 121.54C275.995 121.653 276.297 121.838 276.57 122.094C276.843 122.347 277.06 122.682 277.222 123.099C277.384 123.517 277.465 124.031 277.465 124.642V125.068H272.419V124.199H276.442C276.442 123.83 276.368 123.5 276.221 123.21C276.076 122.92 275.868 122.692 275.598 122.524C275.331 122.357 275.016 122.273 274.652 122.273C274.252 122.273 273.905 122.372 273.613 122.571C273.323 122.767 273.1 123.023 272.944 123.338C272.787 123.653 272.709 123.991 272.709 124.352V124.932C272.709 125.426 272.794 125.845 272.965 126.189C273.138 126.53 273.378 126.79 273.685 126.969C273.992 127.145 274.348 127.233 274.755 127.233C275.019 127.233 275.257 127.196 275.471 127.122C275.686 127.045 275.873 126.932 276.029 126.781C276.185 126.628 276.306 126.437 276.391 126.21L277.363 126.483C277.26 126.812 277.088 127.102 276.847 127.352C276.605 127.599 276.307 127.793 275.952 127.932C275.597 128.068 275.198 128.136 274.755 128.136ZM278.995 128V121.455H279.966V122.443H280.034C280.154 122.119 280.37 121.857 280.682 121.655C280.995 121.453 281.347 121.352 281.739 121.352C281.813 121.352 281.905 121.354 282.016 121.357C282.127 121.359 282.211 121.364 282.267 121.369V122.392C282.233 122.384 282.155 122.371 282.033 122.354C281.914 122.334 281.787 122.324 281.654 122.324C281.336 122.324 281.051 122.391 280.801 122.524C280.554 122.655 280.358 122.837 280.213 123.07C280.071 123.3 280 123.562 280 123.858V128H278.995Z" fill="black"/>
</svg>
