<svg width="592" height="838" viewBox="0 0 592 838" fill="none" xmlns="http://www.w3.org/2000/svg">
<g filter="url(#filter0_bd_188_8312)">
<rect x="4" width="584" height="830" rx="30" fill="#EBEBEB"/>
<rect x="4.5" y="0.5" width="583" height="829" rx="29.5" stroke="url(#paint0_linear_188_8312)" stroke-opacity="0.6"/>
</g>
<g filter="url(#filter1_bd_188_8312)">
<rect x="4" width="584" height="51" rx="25.5" fill="url(#paint1_linear_188_8312)" fill-opacity="0.6" shape-rendering="crispEdges"/>
<rect x="4.5" y="0.5" width="583" height="50" rx="25" stroke="url(#paint2_linear_188_8312)" stroke-opacity="0.6" shape-rendering="crispEdges"/>
</g>
<path d="M48.0227 38V14.7273H63.7045V18.7841H52.9432V24.3295H62.8977V28.3864H52.9432V33.9432H63.75V38H48.0227ZM83.7983 20.5455L77.696 38H72.2415L66.1392 20.5455H71.2528L74.8778 33.0341H75.0597L78.6733 20.5455H83.7983ZM93.6676 38.3409C91.8722 38.3409 90.3267 37.9773 89.0312 37.25C87.7434 36.5152 86.7509 35.4773 86.054 34.1364C85.357 32.7879 85.0085 31.1932 85.0085 29.3523C85.0085 27.5568 85.357 25.9811 86.054 24.625C86.7509 23.2689 87.732 22.2121 88.9972 21.4545C90.2699 20.697 91.7623 20.3182 93.4744 20.3182C94.6259 20.3182 95.6979 20.5038 96.6903 20.875C97.6903 21.2386 98.5616 21.7879 99.304 22.5227C100.054 23.2576 100.637 24.1818 101.054 25.2955C101.471 26.4015 101.679 27.697 101.679 29.1818V30.5114H86.9403V27.5114H97.1222C97.1222 26.8144 96.9706 26.197 96.6676 25.6591C96.3646 25.1212 95.9441 24.7008 95.4062 24.3977C94.8759 24.0871 94.2585 23.9318 93.554 23.9318C92.8191 23.9318 92.1676 24.1023 91.5994 24.4432C91.0388 24.7765 90.5994 25.2273 90.2812 25.7955C89.9631 26.3561 89.8002 26.9811 89.7926 27.6705V30.5227C89.7926 31.3864 89.9517 32.1326 90.2699 32.7614C90.5956 33.3902 91.054 33.875 91.6449 34.2159C92.2358 34.5568 92.9366 34.7273 93.7472 34.7273C94.285 34.7273 94.7775 34.6515 95.2244 34.5C95.6714 34.3485 96.054 34.1212 96.3722 33.8182C96.6903 33.5152 96.9328 33.1439 97.0994 32.7045L101.577 33C101.349 34.0758 100.884 35.0152 100.179 35.8182C99.482 36.6136 98.5805 37.2348 97.4744 37.6818C96.3759 38.1212 95.107 38.3409 93.6676 38.3409ZM109.679 27.9091V38H104.838V20.5455H109.452V23.625H109.656C110.043 22.6098 110.69 21.8068 111.599 21.2159C112.509 20.6174 113.611 20.3182 114.906 20.3182C116.118 20.3182 117.175 20.5833 118.077 21.1136C118.978 21.6439 119.679 22.4015 120.179 23.3864C120.679 24.3636 120.929 25.5303 120.929 26.8864V38H116.088V27.75C116.096 26.6818 115.823 25.8485 115.27 25.25C114.717 24.6439 113.955 24.3409 112.986 24.3409C112.334 24.3409 111.759 24.4811 111.259 24.7614C110.766 25.0417 110.38 25.4508 110.099 25.9886C109.827 26.5189 109.687 27.1591 109.679 27.9091ZM134.028 20.5455V24.1818H123.517V20.5455H134.028ZM125.903 16.3636H130.744V32.6364C130.744 33.0833 130.813 33.4318 130.949 33.6818C131.085 33.9242 131.275 34.0947 131.517 34.1932C131.767 34.2917 132.055 34.3409 132.381 34.3409C132.608 34.3409 132.835 34.322 133.062 34.2841C133.29 34.2386 133.464 34.2045 133.585 34.1818L134.347 37.7841C134.104 37.8598 133.763 37.947 133.324 38.0455C132.884 38.1515 132.35 38.2159 131.722 38.2386C130.555 38.2841 129.532 38.1288 128.653 37.7727C127.782 37.4167 127.104 36.8636 126.619 36.1136C126.134 35.3636 125.896 34.4167 125.903 33.2727V16.3636Z" fill="white"/>
<line y1="-2.71429" x2="18.0934" y2="-2.71429" transform="matrix(-0.693177 0.719198 -0.689793 -0.725565 26.5723 12)" stroke="white" stroke-width="5.42857"/>
<line y1="-2.71429" x2="18.0934" y2="-2.71429" transform="matrix(-0.689793 -0.725565 -0.693177 0.719198 26.5117 38.1406)" stroke="white" stroke-width="5.42857"/>
<g filter="url(#filter2_bi_188_8312)">
<rect x="27" y="73" width="532" height="71.4986" rx="10" fill="url(#paint3_linear_188_8312)" fill-opacity="0.6"/>
<rect x="27.5" y="73.5" width="531" height="70.4986" rx="9.5" stroke="url(#paint4_linear_188_8312)" stroke-opacity="0.6"/>
</g>
<path d="M62.0057 99.5455V117H59.5852L50.7131 104.199H50.5511V117H47.9176V99.5455H50.3551L59.2358 112.364H59.3977V99.5455H62.0057ZM69.4524 117.29C68.6229 117.29 67.8729 117.136 67.2024 116.83C66.532 116.517 66.0007 116.065 65.6087 115.474C65.2223 114.884 65.0291 114.159 65.0291 113.301C65.0291 112.562 65.1712 111.955 65.4553 111.477C65.7393 111 66.1229 110.622 66.6058 110.344C67.0888 110.065 67.6286 109.855 68.2251 109.713C68.8217 109.571 69.4297 109.463 70.049 109.389C70.8331 109.298 71.4695 109.224 71.9581 109.168C72.4467 109.105 72.8018 109.006 73.0234 108.869C73.245 108.733 73.3558 108.511 73.3558 108.205V108.145C73.3558 107.401 73.1456 106.824 72.7251 106.415C72.3104 106.006 71.6911 105.801 70.8672 105.801C70.0092 105.801 69.3331 105.991 68.8388 106.372C68.3501 106.747 68.0121 107.165 67.8246 107.625L65.4297 107.08C65.7138 106.284 66.1286 105.642 66.674 105.153C67.2251 104.659 67.8587 104.301 68.5746 104.08C69.2905 103.852 70.0433 103.739 70.8331 103.739C71.3558 103.739 71.9098 103.801 72.495 103.926C73.0859 104.045 73.6371 104.267 74.1484 104.591C74.6655 104.915 75.0888 105.378 75.4183 105.98C75.7479 106.577 75.9126 107.352 75.9126 108.307V117H73.424V115.21H73.3217C73.157 115.54 72.9098 115.864 72.5803 116.182C72.2507 116.5 71.8274 116.764 71.3104 116.974C70.7933 117.185 70.174 117.29 69.4524 117.29ZM70.0064 115.244C70.7109 115.244 71.3132 115.105 71.8132 114.827C72.3189 114.548 72.7024 114.185 72.9638 113.736C73.2308 113.281 73.3643 112.795 73.3643 112.278V110.591C73.2734 110.682 73.0973 110.767 72.8359 110.847C72.5803 110.92 72.2876 110.986 71.9581 111.043C71.6286 111.094 71.3075 111.142 70.995 111.188C70.6825 111.227 70.4212 111.261 70.2109 111.29C69.7166 111.352 69.2649 111.457 68.8558 111.605C68.4524 111.753 68.1286 111.966 67.8842 112.244C67.6456 112.517 67.5263 112.881 67.5263 113.335C67.5263 113.966 67.7592 114.443 68.2251 114.767C68.6911 115.085 69.2848 115.244 70.0064 115.244ZM79.3068 117V103.909H81.7528V106.04H81.9148C82.1875 105.318 82.6335 104.756 83.2528 104.352C83.8722 103.943 84.6136 103.739 85.4773 103.739C86.3523 103.739 87.0852 103.943 87.6761 104.352C88.2727 104.761 88.7131 105.324 88.9972 106.04H89.1335C89.446 105.341 89.9432 104.784 90.625 104.369C91.3068 103.949 92.1193 103.739 93.0625 103.739C94.25 103.739 95.2188 104.111 95.9688 104.855C96.7244 105.599 97.1023 106.722 97.1023 108.222V117H94.554V108.46C94.554 107.574 94.3125 106.932 93.8295 106.534C93.3466 106.136 92.7699 105.938 92.0994 105.938C91.2699 105.938 90.625 106.193 90.1648 106.705C89.7045 107.21 89.4744 107.861 89.4744 108.656V117H86.9347V108.298C86.9347 107.588 86.7131 107.017 86.2699 106.585C85.8267 106.153 85.25 105.938 84.5398 105.938C84.0568 105.938 83.6108 106.065 83.2017 106.321C82.7983 106.571 82.4716 106.92 82.2216 107.369C81.9773 107.818 81.8551 108.338 81.8551 108.929V117H79.3068ZM106.16 117.264C104.87 117.264 103.759 116.989 102.827 116.438C101.901 115.881 101.185 115.099 100.68 114.094C100.18 113.082 99.9297 111.898 99.9297 110.54C99.9297 109.199 100.18 108.017 100.68 106.994C101.185 105.972 101.89 105.173 102.793 104.599C103.702 104.026 104.765 103.739 105.981 103.739C106.719 103.739 107.435 103.861 108.129 104.105C108.822 104.349 109.444 104.733 109.995 105.256C110.546 105.778 110.981 106.457 111.299 107.293C111.617 108.122 111.776 109.131 111.776 110.318V111.222H101.37V109.312H109.279C109.279 108.642 109.143 108.048 108.87 107.531C108.597 107.009 108.214 106.597 107.719 106.295C107.231 105.994 106.657 105.844 105.998 105.844C105.282 105.844 104.657 106.02 104.123 106.372C103.594 106.719 103.185 107.173 102.896 107.736C102.612 108.293 102.469 108.898 102.469 109.551V111.043C102.469 111.918 102.623 112.662 102.93 113.276C103.242 113.889 103.677 114.358 104.234 114.682C104.79 115 105.441 115.159 106.185 115.159C106.668 115.159 107.109 115.091 107.506 114.955C107.904 114.812 108.248 114.602 108.538 114.324C108.827 114.045 109.049 113.702 109.202 113.293L111.614 113.727C111.421 114.437 111.075 115.06 110.575 115.594C110.08 116.122 109.458 116.534 108.708 116.83C107.964 117.119 107.114 117.264 106.16 117.264ZM126.469 117.264C125.242 117.264 124.171 116.983 123.256 116.42C122.342 115.858 121.631 115.071 121.126 114.06C120.62 113.048 120.367 111.866 120.367 110.514C120.367 109.156 120.62 107.969 121.126 106.952C121.631 105.935 122.342 105.145 123.256 104.582C124.171 104.02 125.242 103.739 126.469 103.739C127.697 103.739 128.768 104.02 129.683 104.582C130.597 105.145 131.308 105.935 131.813 106.952C132.319 107.969 132.572 109.156 132.572 110.514C132.572 111.866 132.319 113.048 131.813 114.06C131.308 115.071 130.597 115.858 129.683 116.42C128.768 116.983 127.697 117.264 126.469 117.264ZM126.478 115.125C127.273 115.125 127.933 114.915 128.455 114.494C128.978 114.074 129.364 113.514 129.614 112.815C129.87 112.116 129.998 111.347 129.998 110.506C129.998 109.67 129.87 108.903 129.614 108.205C129.364 107.5 128.978 106.935 128.455 106.509C127.933 106.082 127.273 105.869 126.478 105.869C125.677 105.869 125.012 106.082 124.484 106.509C123.961 106.935 123.572 107.5 123.316 108.205C123.066 108.903 122.941 109.67 122.941 110.506C122.941 111.347 123.066 112.116 123.316 112.815C123.572 113.514 123.961 114.074 124.484 114.494C125.012 114.915 125.677 115.125 126.478 115.125ZM141.646 103.909V105.955H134.249V103.909H141.646ZM136.277 117V102.392C136.277 101.574 136.456 100.895 136.814 100.355C137.172 99.8097 137.646 99.4034 138.237 99.1364C138.828 98.8636 139.47 98.7273 140.163 98.7273C140.675 98.7273 141.112 98.7699 141.476 98.8551C141.839 98.9347 142.109 99.0085 142.286 99.0767L141.689 101.139C141.57 101.105 141.416 101.065 141.229 101.02C141.041 100.969 140.814 100.943 140.547 100.943C139.928 100.943 139.484 101.097 139.217 101.403C138.956 101.71 138.825 102.153 138.825 102.733V117H136.277ZM156.738 103.909V105.955H149.587V103.909H156.738ZM151.505 100.773H154.053V113.156C154.053 113.651 154.127 114.023 154.275 114.273C154.423 114.517 154.613 114.685 154.846 114.776C155.085 114.861 155.343 114.903 155.621 114.903C155.826 114.903 156.005 114.889 156.158 114.861C156.312 114.832 156.431 114.81 156.516 114.793L156.977 116.898C156.829 116.955 156.619 117.011 156.346 117.068C156.073 117.131 155.732 117.165 155.323 117.17C154.653 117.182 154.028 117.062 153.448 116.812C152.869 116.562 152.4 116.176 152.042 115.653C151.684 115.131 151.505 114.474 151.505 113.685V100.773ZM162.386 109.227V117H159.838V99.5455H162.352V106.04H162.514C162.821 105.335 163.29 104.776 163.92 104.361C164.551 103.946 165.375 103.739 166.392 103.739C167.29 103.739 168.074 103.923 168.744 104.293C169.42 104.662 169.943 105.213 170.312 105.946C170.688 106.673 170.875 107.582 170.875 108.673V117H168.327V108.98C168.327 108.02 168.08 107.276 167.585 106.747C167.091 106.213 166.403 105.946 165.523 105.946C164.92 105.946 164.381 106.074 163.903 106.33C163.432 106.585 163.06 106.96 162.787 107.455C162.52 107.943 162.386 108.534 162.386 109.227ZM179.918 117.264C178.628 117.264 177.517 116.989 176.585 116.438C175.659 115.881 174.943 115.099 174.438 114.094C173.938 113.082 173.688 111.898 173.688 110.54C173.688 109.199 173.938 108.017 174.438 106.994C174.943 105.972 175.648 105.173 176.551 104.599C177.46 104.026 178.523 103.739 179.739 103.739C180.477 103.739 181.193 103.861 181.886 104.105C182.58 104.349 183.202 104.733 183.753 105.256C184.304 105.778 184.739 106.457 185.057 107.293C185.375 108.122 185.534 109.131 185.534 110.318V111.222H175.128V109.312H183.037C183.037 108.642 182.901 108.048 182.628 107.531C182.355 107.009 181.972 106.597 181.477 106.295C180.989 105.994 180.415 105.844 179.756 105.844C179.04 105.844 178.415 106.02 177.881 106.372C177.352 106.719 176.943 107.173 176.653 107.736C176.369 108.293 176.227 108.898 176.227 109.551V111.043C176.227 111.918 176.381 112.662 176.688 113.276C177 113.889 177.435 114.358 177.991 114.682C178.548 115 179.199 115.159 179.943 115.159C180.426 115.159 180.866 115.091 181.264 114.955C181.662 114.812 182.006 114.602 182.295 114.324C182.585 114.045 182.807 113.702 182.96 113.293L185.372 113.727C185.179 114.437 184.832 115.06 184.332 115.594C183.838 116.122 183.216 116.534 182.466 116.83C181.722 117.119 180.872 117.264 179.918 117.264ZM200.355 117.264C199.065 117.264 197.955 116.989 197.023 116.438C196.097 115.881 195.381 115.099 194.875 114.094C194.375 113.082 194.125 111.898 194.125 110.54C194.125 109.199 194.375 108.017 194.875 106.994C195.381 105.972 196.085 105.173 196.989 104.599C197.898 104.026 198.96 103.739 200.176 103.739C200.915 103.739 201.631 103.861 202.324 104.105C203.017 104.349 203.639 104.733 204.19 105.256C204.741 105.778 205.176 106.457 205.494 107.293C205.813 108.122 205.972 109.131 205.972 110.318V111.222H195.565V109.312H203.474C203.474 108.642 203.338 108.048 203.065 107.531C202.793 107.009 202.409 106.597 201.915 106.295C201.426 105.994 200.852 105.844 200.193 105.844C199.477 105.844 198.852 106.02 198.318 106.372C197.79 106.719 197.381 107.173 197.091 107.736C196.807 108.293 196.665 108.898 196.665 109.551V111.043C196.665 111.918 196.818 112.662 197.125 113.276C197.438 113.889 197.872 114.358 198.429 114.682C198.986 115 199.636 115.159 200.381 115.159C200.864 115.159 201.304 115.091 201.702 114.955C202.099 114.812 202.443 114.602 202.733 114.324C203.023 114.045 203.244 113.702 203.398 113.293L205.81 113.727C205.616 114.437 205.27 115.06 204.77 115.594C204.276 116.122 203.653 116.534 202.903 116.83C202.159 117.119 201.31 117.264 200.355 117.264ZM219.623 103.909L214.876 117H212.148L207.393 103.909H210.129L213.444 113.983H213.58L216.887 103.909H219.623ZM227.214 117.264C225.925 117.264 224.814 116.989 223.882 116.438C222.956 115.881 222.24 115.099 221.734 114.094C221.234 113.082 220.984 111.898 220.984 110.54C220.984 109.199 221.234 108.017 221.734 106.994C222.24 105.972 222.945 105.173 223.848 104.599C224.757 104.026 225.82 103.739 227.036 103.739C227.774 103.739 228.49 103.861 229.183 104.105C229.876 104.349 230.499 104.733 231.05 105.256C231.601 105.778 232.036 106.457 232.354 107.293C232.672 108.122 232.831 109.131 232.831 110.318V111.222H222.425V109.312H230.334C230.334 108.642 230.197 108.048 229.925 107.531C229.652 107.009 229.268 106.597 228.774 106.295C228.286 105.994 227.712 105.844 227.053 105.844C226.337 105.844 225.712 106.02 225.178 106.372C224.649 106.719 224.24 107.173 223.95 107.736C223.666 108.293 223.524 108.898 223.524 109.551V111.043C223.524 111.918 223.678 112.662 223.984 113.276C224.297 113.889 224.732 114.358 225.288 114.682C225.845 115 226.496 115.159 227.24 115.159C227.723 115.159 228.163 115.091 228.561 114.955C228.959 114.812 229.303 114.602 229.592 114.324C229.882 114.045 230.104 113.702 230.257 113.293L232.669 113.727C232.476 114.437 232.129 115.06 231.629 115.594C231.135 116.122 230.513 116.534 229.763 116.83C229.018 117.119 228.169 117.264 227.214 117.264ZM238.207 109.227V117H235.658V103.909H238.104V106.04H238.266C238.567 105.347 239.039 104.79 239.681 104.369C240.329 103.949 241.144 103.739 242.127 103.739C243.019 103.739 243.8 103.926 244.471 104.301C245.141 104.67 245.661 105.222 246.031 105.955C246.4 106.687 246.585 107.594 246.585 108.673V117H244.036V108.98C244.036 108.031 243.789 107.29 243.295 106.756C242.8 106.216 242.121 105.946 241.258 105.946C240.667 105.946 240.141 106.074 239.681 106.33C239.227 106.585 238.866 106.96 238.599 107.455C238.337 107.943 238.207 108.534 238.207 109.227ZM256.113 103.909V105.955H248.962V103.909H256.113ZM250.88 100.773H253.428V113.156C253.428 113.651 253.502 114.023 253.65 114.273C253.798 114.517 253.988 114.685 254.221 114.776C254.46 114.861 254.718 114.903 254.996 114.903C255.201 114.903 255.38 114.889 255.533 114.861C255.687 114.832 255.806 114.81 255.891 114.793L256.352 116.898C256.204 116.955 255.994 117.011 255.721 117.068C255.448 117.131 255.107 117.165 254.698 117.17C254.028 117.182 253.403 117.062 252.823 116.812C252.244 116.562 251.775 116.176 251.417 115.653C251.059 115.131 250.88 114.474 250.88 113.685V100.773Z" fill="white"/>
<g filter="url(#filter3_bi_188_8312)">
<rect x="27" y="166" width="532" height="71.4986" rx="10" fill="url(#paint5_linear_188_8312)" fill-opacity="0.6"/>
<rect x="27.5" y="166.5" width="531" height="70.4986" rx="9.5" stroke="url(#paint6_linear_188_8312)" stroke-opacity="0.6"/>
</g>
<path d="M47.9176 210V192.545H50.5511V207.733H58.4602V210H47.9176ZM66.7741 210.264C65.5469 210.264 64.4759 209.983 63.5611 209.42C62.6463 208.858 61.9361 208.071 61.4304 207.06C60.9247 206.048 60.6719 204.866 60.6719 203.514C60.6719 202.156 60.9247 200.969 61.4304 199.952C61.9361 198.935 62.6463 198.145 63.5611 197.582C64.4759 197.02 65.5469 196.739 66.7741 196.739C68.0014 196.739 69.0724 197.02 69.9872 197.582C70.902 198.145 71.6122 198.935 72.1179 199.952C72.6236 200.969 72.8764 202.156 72.8764 203.514C72.8764 204.866 72.6236 206.048 72.1179 207.06C71.6122 208.071 70.902 208.858 69.9872 209.42C69.0724 209.983 68.0014 210.264 66.7741 210.264ZM66.7827 208.125C67.5781 208.125 68.2372 207.915 68.7599 207.494C69.2827 207.074 69.669 206.514 69.919 205.815C70.1747 205.116 70.3026 204.347 70.3026 203.506C70.3026 202.67 70.1747 201.903 69.919 201.205C69.669 200.5 69.2827 199.935 68.7599 199.509C68.2372 199.082 67.5781 198.869 66.7827 198.869C65.9815 198.869 65.3168 199.082 64.7884 199.509C64.2656 199.935 63.8764 200.5 63.6207 201.205C63.3707 201.903 63.2457 202.67 63.2457 203.506C63.2457 204.347 63.3707 205.116 63.6207 205.815C63.8764 206.514 64.2656 207.074 64.7884 207.494C65.3168 207.915 65.9815 208.125 66.7827 208.125ZM81.2351 210.264C79.968 210.264 78.8771 209.977 77.9624 209.403C77.0533 208.824 76.3544 208.026 75.8658 207.009C75.3771 205.991 75.1328 204.827 75.1328 203.514C75.1328 202.185 75.3828 201.011 75.8828 199.994C76.3828 198.972 77.0874 198.173 77.9964 197.599C78.9055 197.026 79.9766 196.739 81.2095 196.739C82.2038 196.739 83.0902 196.923 83.8686 197.293C84.647 197.656 85.2749 198.168 85.7521 198.827C86.2351 199.486 86.522 200.256 86.6129 201.136H84.1328C83.9964 200.523 83.6839 199.994 83.1953 199.551C82.7124 199.108 82.0646 198.886 81.2521 198.886C80.5419 198.886 79.9197 199.074 79.3857 199.449C78.8572 199.818 78.4453 200.347 78.1499 201.034C77.8544 201.716 77.7067 202.523 77.7067 203.455C77.7067 204.409 77.8516 205.233 78.1413 205.926C78.4311 206.619 78.8402 207.156 79.3686 207.537C79.9027 207.918 80.5305 208.108 81.2521 208.108C81.7351 208.108 82.1726 208.02 82.5646 207.844C82.9624 207.662 83.2947 207.403 83.5618 207.068C83.8345 206.733 84.0249 206.33 84.1328 205.858H86.6129C86.522 206.705 86.2464 207.46 85.7862 208.125C85.326 208.79 84.7095 209.312 83.9368 209.693C83.1697 210.074 82.2692 210.264 81.2351 210.264ZM93.1477 210.29C92.3182 210.29 91.5682 210.136 90.8977 209.83C90.2273 209.517 89.696 209.065 89.304 208.474C88.9176 207.884 88.7244 207.159 88.7244 206.301C88.7244 205.562 88.8665 204.955 89.1506 204.477C89.4347 204 89.8182 203.622 90.3011 203.344C90.7841 203.065 91.3239 202.855 91.9205 202.713C92.517 202.571 93.125 202.463 93.7443 202.389C94.5284 202.298 95.1648 202.224 95.6534 202.168C96.142 202.105 96.4972 202.006 96.7188 201.869C96.9403 201.733 97.0511 201.511 97.0511 201.205V201.145C97.0511 200.401 96.8409 199.824 96.4205 199.415C96.0057 199.006 95.3864 198.801 94.5625 198.801C93.7045 198.801 93.0284 198.991 92.5341 199.372C92.0455 199.747 91.7074 200.165 91.5199 200.625L89.125 200.08C89.4091 199.284 89.8239 198.642 90.3693 198.153C90.9205 197.659 91.554 197.301 92.2699 197.08C92.9858 196.852 93.7386 196.739 94.5284 196.739C95.0511 196.739 95.6051 196.801 96.1903 196.926C96.7813 197.045 97.3324 197.267 97.8438 197.591C98.3608 197.915 98.7841 198.378 99.1136 198.98C99.4432 199.577 99.608 200.352 99.608 201.307V210H97.1193V208.21H97.017C96.8523 208.54 96.6051 208.864 96.2756 209.182C95.946 209.5 95.5227 209.764 95.0057 209.974C94.4886 210.185 93.8693 210.29 93.1477 210.29ZM93.7017 208.244C94.4063 208.244 95.0085 208.105 95.5085 207.827C96.0142 207.548 96.3977 207.185 96.6591 206.736C96.9261 206.281 97.0597 205.795 97.0597 205.278V203.591C96.9688 203.682 96.7926 203.767 96.5312 203.847C96.2756 203.92 95.983 203.986 95.6534 204.043C95.3239 204.094 95.0028 204.142 94.6903 204.188C94.3778 204.227 94.1165 204.261 93.9062 204.29C93.4119 204.352 92.9602 204.457 92.5511 204.605C92.1477 204.753 91.8239 204.966 91.5795 205.244C91.3409 205.517 91.2216 205.881 91.2216 206.335C91.2216 206.966 91.4545 207.443 91.9205 207.767C92.3864 208.085 92.9801 208.244 93.7017 208.244ZM109.113 196.909V198.955H101.962V196.909H109.113ZM103.88 193.773H106.428V206.156C106.428 206.651 106.502 207.023 106.65 207.273C106.798 207.517 106.988 207.685 107.221 207.776C107.46 207.861 107.718 207.903 107.996 207.903C108.201 207.903 108.38 207.889 108.533 207.861C108.687 207.832 108.806 207.81 108.891 207.793L109.352 209.898C109.204 209.955 108.994 210.011 108.721 210.068C108.448 210.131 108.107 210.165 107.698 210.17C107.028 210.182 106.403 210.062 105.823 209.812C105.244 209.562 104.775 209.176 104.417 208.653C104.059 208.131 103.88 207.474 103.88 206.685V193.773ZM111.932 210V196.909H114.48V210H111.932ZM113.219 194.889C112.776 194.889 112.395 194.741 112.077 194.446C111.764 194.145 111.608 193.787 111.608 193.372C111.608 192.952 111.764 192.594 112.077 192.298C112.395 191.997 112.776 191.847 113.219 191.847C113.662 191.847 114.04 191.997 114.352 192.298C114.67 192.594 114.83 192.952 114.83 193.372C114.83 193.787 114.67 194.145 114.352 194.446C114.04 194.741 113.662 194.889 113.219 194.889ZM123.423 210.264C122.195 210.264 121.124 209.983 120.21 209.42C119.295 208.858 118.585 208.071 118.079 207.06C117.573 206.048 117.32 204.866 117.32 203.514C117.32 202.156 117.573 200.969 118.079 199.952C118.585 198.935 119.295 198.145 120.21 197.582C121.124 197.02 122.195 196.739 123.423 196.739C124.65 196.739 125.721 197.02 126.636 197.582C127.55 198.145 128.261 198.935 128.766 199.952C129.272 200.969 129.525 202.156 129.525 203.514C129.525 204.866 129.272 206.048 128.766 207.06C128.261 208.071 127.55 208.858 126.636 209.42C125.721 209.983 124.65 210.264 123.423 210.264ZM123.431 208.125C124.227 208.125 124.886 207.915 125.408 207.494C125.931 207.074 126.317 206.514 126.567 205.815C126.823 205.116 126.951 204.347 126.951 203.506C126.951 202.67 126.823 201.903 126.567 201.205C126.317 200.5 125.931 199.935 125.408 199.509C124.886 199.082 124.227 198.869 123.431 198.869C122.63 198.869 121.965 199.082 121.437 199.509C120.914 199.935 120.525 200.5 120.269 201.205C120.019 201.903 119.894 202.67 119.894 203.506C119.894 204.347 120.019 205.116 120.269 205.815C120.525 206.514 120.914 207.074 121.437 207.494C121.965 207.915 122.63 208.125 123.431 208.125ZM134.918 202.227V210H132.369V196.909H134.815V199.04H134.977C135.278 198.347 135.75 197.79 136.392 197.369C137.04 196.949 137.855 196.739 138.838 196.739C139.73 196.739 140.511 196.926 141.182 197.301C141.852 197.67 142.372 198.222 142.741 198.955C143.111 199.687 143.295 200.594 143.295 201.673V210H140.747V201.98C140.747 201.031 140.5 200.29 140.006 199.756C139.511 199.216 138.832 198.946 137.969 198.946C137.378 198.946 136.852 199.074 136.392 199.33C135.938 199.585 135.577 199.96 135.31 200.455C135.048 200.943 134.918 201.534 134.918 202.227ZM158.579 210.264C157.352 210.264 156.281 209.983 155.366 209.42C154.451 208.858 153.741 208.071 153.235 207.06C152.729 206.048 152.477 204.866 152.477 203.514C152.477 202.156 152.729 200.969 153.235 199.952C153.741 198.935 154.451 198.145 155.366 197.582C156.281 197.02 157.352 196.739 158.579 196.739C159.806 196.739 160.877 197.02 161.792 197.582C162.707 198.145 163.417 198.935 163.923 199.952C164.428 200.969 164.681 202.156 164.681 203.514C164.681 204.866 164.428 206.048 163.923 207.06C163.417 208.071 162.707 208.858 161.792 209.42C160.877 209.983 159.806 210.264 158.579 210.264ZM158.587 208.125C159.383 208.125 160.042 207.915 160.565 207.494C161.087 207.074 161.474 206.514 161.724 205.815C161.979 205.116 162.107 204.347 162.107 203.506C162.107 202.67 161.979 201.903 161.724 201.205C161.474 200.5 161.087 199.935 160.565 199.509C160.042 199.082 159.383 198.869 158.587 198.869C157.786 198.869 157.121 199.082 156.593 199.509C156.07 199.935 155.681 200.5 155.425 201.205C155.175 201.903 155.05 202.67 155.05 203.506C155.05 204.347 155.175 205.116 155.425 205.815C155.681 206.514 156.07 207.074 156.593 207.494C157.121 207.915 157.786 208.125 158.587 208.125ZM173.756 196.909V198.955H166.358V196.909H173.756ZM168.386 210V195.392C168.386 194.574 168.565 193.895 168.923 193.355C169.281 192.81 169.756 192.403 170.347 192.136C170.938 191.864 171.58 191.727 172.273 191.727C172.784 191.727 173.222 191.77 173.585 191.855C173.949 191.935 174.219 192.009 174.395 192.077L173.798 194.139C173.679 194.105 173.526 194.065 173.338 194.02C173.151 193.969 172.923 193.943 172.656 193.943C172.037 193.943 171.594 194.097 171.327 194.403C171.065 194.71 170.935 195.153 170.935 195.733V210H168.386ZM188.847 196.909V198.955H181.697V196.909H188.847ZM183.614 193.773H186.163V206.156C186.163 206.651 186.237 207.023 186.384 207.273C186.532 207.517 186.722 207.685 186.955 207.776C187.194 207.861 187.452 207.903 187.731 207.903C187.935 207.903 188.114 207.889 188.268 207.861C188.421 207.832 188.54 207.81 188.626 207.793L189.086 209.898C188.938 209.955 188.728 210.011 188.455 210.068C188.183 210.131 187.842 210.165 187.433 210.17C186.762 210.182 186.137 210.062 185.558 209.812C184.978 209.562 184.509 209.176 184.151 208.653C183.793 208.131 183.614 207.474 183.614 206.685V193.773ZM194.496 202.227V210H191.947V192.545H194.462V199.04H194.624C194.93 198.335 195.399 197.776 196.03 197.361C196.661 196.946 197.484 196.739 198.501 196.739C199.399 196.739 200.183 196.923 200.854 197.293C201.53 197.662 202.053 198.213 202.422 198.946C202.797 199.673 202.984 200.582 202.984 201.673V210H200.436V201.98C200.436 201.02 200.189 200.276 199.695 199.747C199.2 199.213 198.513 198.946 197.632 198.946C197.03 198.946 196.49 199.074 196.013 199.33C195.541 199.585 195.169 199.96 194.896 200.455C194.629 200.943 194.496 201.534 194.496 202.227ZM212.027 210.264C210.737 210.264 209.626 209.989 208.695 209.438C207.768 208.881 207.053 208.099 206.547 207.094C206.047 206.082 205.797 204.898 205.797 203.54C205.797 202.199 206.047 201.017 206.547 199.994C207.053 198.972 207.757 198.173 208.661 197.599C209.57 197.026 210.632 196.739 211.848 196.739C212.587 196.739 213.303 196.861 213.996 197.105C214.689 197.349 215.311 197.733 215.862 198.256C216.413 198.778 216.848 199.457 217.166 200.293C217.484 201.122 217.643 202.131 217.643 203.318V204.222H207.237V202.312H215.146C215.146 201.642 215.01 201.048 214.737 200.531C214.464 200.009 214.081 199.597 213.587 199.295C213.098 198.994 212.524 198.844 211.865 198.844C211.149 198.844 210.524 199.02 209.99 199.372C209.462 199.719 209.053 200.173 208.763 200.736C208.479 201.293 208.337 201.898 208.337 202.551V204.043C208.337 204.918 208.49 205.662 208.797 206.276C209.109 206.889 209.544 207.358 210.101 207.682C210.658 208 211.308 208.159 212.053 208.159C212.536 208.159 212.976 208.091 213.374 207.955C213.771 207.812 214.115 207.602 214.405 207.324C214.695 207.045 214.916 206.702 215.07 206.293L217.482 206.727C217.288 207.437 216.942 208.06 216.442 208.594C215.947 209.122 215.325 209.534 214.575 209.83C213.831 210.119 212.982 210.264 212.027 210.264ZM232.464 210.264C231.175 210.264 230.064 209.989 229.132 209.438C228.206 208.881 227.49 208.099 226.984 207.094C226.484 206.082 226.234 204.898 226.234 203.54C226.234 202.199 226.484 201.017 226.984 199.994C227.49 198.972 228.195 198.173 229.098 197.599C230.007 197.026 231.07 196.739 232.286 196.739C233.024 196.739 233.74 196.861 234.433 197.105C235.126 197.349 235.749 197.733 236.3 198.256C236.851 198.778 237.286 199.457 237.604 200.293C237.922 201.122 238.081 202.131 238.081 203.318V204.222H227.675V202.312H235.584C235.584 201.642 235.447 201.048 235.175 200.531C234.902 200.009 234.518 199.597 234.024 199.295C233.536 198.994 232.962 198.844 232.303 198.844C231.587 198.844 230.962 199.02 230.428 199.372C229.899 199.719 229.49 200.173 229.2 200.736C228.916 201.293 228.774 201.898 228.774 202.551V204.043C228.774 204.918 228.928 205.662 229.234 206.276C229.547 206.889 229.982 207.358 230.538 207.682C231.095 208 231.746 208.159 232.49 208.159C232.973 208.159 233.413 208.091 233.811 207.955C234.209 207.812 234.553 207.602 234.842 207.324C235.132 207.045 235.354 206.702 235.507 206.293L237.919 206.727C237.726 207.437 237.379 208.06 236.879 208.594C236.385 209.122 235.763 209.534 235.013 209.83C234.268 210.119 233.419 210.264 232.464 210.264ZM251.732 196.909L246.985 210H244.258L239.502 196.909H242.238L245.553 206.983H245.69L248.996 196.909H251.732ZM259.324 210.264C258.034 210.264 256.923 209.989 255.991 209.438C255.065 208.881 254.349 208.099 253.844 207.094C253.344 206.082 253.094 204.898 253.094 203.54C253.094 202.199 253.344 201.017 253.844 199.994C254.349 198.972 255.054 198.173 255.957 197.599C256.866 197.026 257.929 196.739 259.145 196.739C259.884 196.739 260.599 196.861 261.293 197.105C261.986 197.349 262.608 197.733 263.159 198.256C263.71 198.778 264.145 199.457 264.463 200.293C264.781 201.122 264.94 202.131 264.94 203.318V204.222H254.534V202.312H262.443C262.443 201.642 262.307 201.048 262.034 200.531C261.761 200.009 261.378 199.597 260.884 199.295C260.395 198.994 259.821 198.844 259.162 198.844C258.446 198.844 257.821 199.02 257.287 199.372C256.759 199.719 256.349 200.173 256.06 200.736C255.776 201.293 255.634 201.898 255.634 202.551V204.043C255.634 204.918 255.787 205.662 256.094 206.276C256.406 206.889 256.841 207.358 257.398 207.682C257.955 208 258.605 208.159 259.349 208.159C259.832 208.159 260.273 208.091 260.67 207.955C261.068 207.812 261.412 207.602 261.702 207.324C261.991 207.045 262.213 206.702 262.366 206.293L264.778 206.727C264.585 207.437 264.239 208.06 263.739 208.594C263.244 209.122 262.622 209.534 261.872 209.83C261.128 210.119 260.278 210.264 259.324 210.264ZM270.316 202.227V210H267.768V196.909H270.214V199.04H270.376C270.677 198.347 271.148 197.79 271.79 197.369C272.438 196.949 273.254 196.739 274.237 196.739C275.129 196.739 275.91 196.926 276.58 197.301C277.251 197.67 277.771 198.222 278.14 198.955C278.509 199.687 278.694 200.594 278.694 201.673V210H276.146V201.98C276.146 201.031 275.898 200.29 275.404 199.756C274.91 199.216 274.231 198.946 273.367 198.946C272.776 198.946 272.251 199.074 271.79 199.33C271.336 199.585 270.975 199.96 270.708 200.455C270.447 200.943 270.316 201.534 270.316 202.227ZM288.222 196.909V198.955H281.072V196.909H288.222ZM282.989 193.773H285.538V206.156C285.538 206.651 285.612 207.023 285.759 207.273C285.907 207.517 286.097 207.685 286.33 207.776C286.569 207.861 286.827 207.903 287.106 207.903C287.31 207.903 287.489 207.889 287.643 207.861C287.796 207.832 287.915 207.81 288.001 207.793L288.461 209.898C288.313 209.955 288.103 210.011 287.83 210.068C287.558 210.131 287.217 210.165 286.808 210.17C286.137 210.182 285.512 210.062 284.933 209.812C284.353 209.562 283.884 209.176 283.526 208.653C283.168 208.131 282.989 207.474 282.989 206.685V193.773Z" fill="white"/>
<g filter="url(#filter4_bi_188_8312)">
<path d="M27 270C27 264.477 31.4772 260 37 260H272C277.523 260 282 264.477 282 270V321.499C282 327.021 277.523 331.499 272 331.499H37C31.4772 331.499 27 327.021 27 321.499V270Z" fill="url(#paint7_linear_188_8312)" fill-opacity="0.6"/>
<path d="M27.5 270C27.5 264.753 31.7533 260.5 37 260.5H272C277.247 260.5 281.5 264.753 281.5 270V321.499C281.5 326.745 277.247 330.999 272 330.999H37C31.7533 330.999 27.5 326.745 27.5 321.499V270Z" stroke="url(#paint8_linear_188_8312)" stroke-opacity="0.6"/>
</g>
<g filter="url(#filter5_bi_188_8312)">
<rect x="304" y="260" width="255" height="71.4986" rx="10" fill="url(#paint9_linear_188_8312)" fill-opacity="0.6"/>
<rect x="304.5" y="260.5" width="254" height="70.4986" rx="9.5" stroke="url(#paint10_linear_188_8312)" stroke-opacity="0.6"/>
</g>
<path d="M51.5682 304H45.9176V286.545H51.7472C53.4574 286.545 54.9261 286.895 56.1534 287.594C57.3807 288.287 58.321 289.284 58.9744 290.585C59.6335 291.881 59.9631 293.435 59.9631 295.247C59.9631 297.065 59.6307 298.628 58.9659 299.935C58.3068 301.241 57.3523 302.247 56.1023 302.952C54.8523 303.651 53.3409 304 51.5682 304ZM48.5511 301.699H51.4233C52.7528 301.699 53.858 301.449 54.7386 300.949C55.6193 300.443 56.2784 299.713 56.7159 298.759C57.1534 297.798 57.3722 296.628 57.3722 295.247C57.3722 293.878 57.1534 292.716 56.7159 291.761C56.2841 290.807 55.6392 290.082 54.7812 289.588C53.9233 289.094 52.858 288.847 51.5852 288.847H48.5511V301.699ZM66.843 304.29C66.0135 304.29 65.2635 304.136 64.593 303.83C63.9226 303.517 63.3913 303.065 62.9993 302.474C62.6129 301.884 62.4197 301.159 62.4197 300.301C62.4197 299.562 62.5618 298.955 62.8459 298.477C63.13 298 63.5135 297.622 63.9964 297.344C64.4794 297.065 65.0192 296.855 65.6158 296.713C66.2124 296.571 66.8203 296.463 67.4396 296.389C68.2237 296.298 68.8601 296.224 69.3487 296.168C69.8374 296.105 70.1925 296.006 70.4141 295.869C70.6357 295.733 70.7464 295.511 70.7464 295.205V295.145C70.7464 294.401 70.5362 293.824 70.1158 293.415C69.701 293.006 69.0817 292.801 68.2578 292.801C67.3999 292.801 66.7237 292.991 66.2294 293.372C65.7408 293.747 65.4027 294.165 65.2152 294.625L62.8203 294.08C63.1044 293.284 63.5192 292.642 64.0646 292.153C64.6158 291.659 65.2493 291.301 65.9652 291.08C66.6811 290.852 67.4339 290.739 68.2237 290.739C68.7464 290.739 69.3004 290.801 69.8857 290.926C70.4766 291.045 71.0277 291.267 71.5391 291.591C72.0561 291.915 72.4794 292.378 72.8089 292.98C73.1385 293.577 73.3033 294.352 73.3033 295.307V304H70.8146V302.21H70.7124C70.5476 302.54 70.3004 302.864 69.9709 303.182C69.6413 303.5 69.218 303.764 68.701 303.974C68.1839 304.185 67.5646 304.29 66.843 304.29ZM67.397 302.244C68.1016 302.244 68.7038 302.105 69.2038 301.827C69.7095 301.548 70.093 301.185 70.3544 300.736C70.6214 300.281 70.755 299.795 70.755 299.278V297.591C70.6641 297.682 70.4879 297.767 70.2266 297.847C69.9709 297.92 69.6783 297.986 69.3487 298.043C69.0192 298.094 68.6982 298.142 68.3857 298.188C68.0732 298.227 67.8118 298.261 67.6016 298.29C67.1072 298.352 66.6555 298.457 66.2464 298.605C65.843 298.753 65.5192 298.966 65.2749 299.244C65.0362 299.517 64.9169 299.881 64.9169 300.335C64.9169 300.966 65.1499 301.443 65.6158 301.767C66.0817 302.085 66.6754 302.244 67.397 302.244ZM77.8395 308.909C77.4588 308.909 77.1122 308.878 76.7997 308.815C76.4872 308.759 76.2543 308.696 76.1009 308.628L76.7145 306.54C77.1804 306.665 77.5952 306.719 77.9588 306.702C78.3224 306.685 78.6435 306.548 78.9219 306.293C79.206 306.037 79.456 305.619 79.6719 305.04L79.9872 304.17L75.1974 290.909H77.9247L81.2401 301.068H81.3764L84.6918 290.909H87.4276L82.0327 305.747C81.7827 306.429 81.4645 307.006 81.0781 307.477C80.6918 307.955 80.2315 308.313 79.6974 308.551C79.1634 308.79 78.544 308.909 77.8395 308.909Z" fill="white"/>
<path d="M325.057 288.812V286.545H338.565V288.812H333.119V304H330.494V288.812H325.057ZM341.346 304V290.909H343.894V304H341.346ZM342.633 288.889C342.19 288.889 341.809 288.741 341.491 288.446C341.178 288.145 341.022 287.787 341.022 287.372C341.022 286.952 341.178 286.594 341.491 286.298C341.809 285.997 342.19 285.847 342.633 285.847C343.076 285.847 343.454 285.997 343.766 286.298C344.085 286.594 344.244 286.952 344.244 287.372C344.244 287.787 344.085 288.145 343.766 288.446C343.454 288.741 343.076 288.889 342.633 288.889ZM347.322 304V290.909H349.768V293.04H349.93C350.203 292.318 350.649 291.756 351.268 291.352C351.888 290.943 352.629 290.739 353.493 290.739C354.368 290.739 355.101 290.943 355.692 291.352C356.288 291.761 356.729 292.324 357.013 293.04H357.149C357.462 292.341 357.959 291.784 358.641 291.369C359.322 290.949 360.135 290.739 361.078 290.739C362.266 290.739 363.234 291.111 363.984 291.855C364.74 292.599 365.118 293.722 365.118 295.222V304H362.57V295.46C362.57 294.574 362.328 293.932 361.845 293.534C361.362 293.136 360.786 292.938 360.115 292.938C359.286 292.938 358.641 293.193 358.18 293.705C357.72 294.21 357.49 294.861 357.49 295.656V304H354.95V295.298C354.95 294.588 354.729 294.017 354.286 293.585C353.842 293.153 353.266 292.938 352.555 292.938C352.072 292.938 351.626 293.065 351.217 293.321C350.814 293.571 350.487 293.92 350.237 294.369C349.993 294.818 349.871 295.338 349.871 295.929V304H347.322ZM374.175 304.264C372.886 304.264 371.775 303.989 370.843 303.438C369.917 302.881 369.201 302.099 368.695 301.094C368.195 300.082 367.945 298.898 367.945 297.54C367.945 296.199 368.195 295.017 368.695 293.994C369.201 292.972 369.906 292.173 370.809 291.599C371.718 291.026 372.781 290.739 373.996 290.739C374.735 290.739 375.451 290.861 376.144 291.105C376.837 291.349 377.46 291.733 378.011 292.256C378.562 292.778 378.996 293.457 379.315 294.293C379.633 295.122 379.792 296.131 379.792 297.318V298.222H369.386V296.312H377.295C377.295 295.642 377.158 295.048 376.886 294.531C376.613 294.009 376.229 293.597 375.735 293.295C375.246 292.994 374.673 292.844 374.013 292.844C373.298 292.844 372.673 293.02 372.138 293.372C371.61 293.719 371.201 294.173 370.911 294.736C370.627 295.293 370.485 295.898 370.485 296.551V298.043C370.485 298.918 370.638 299.662 370.945 300.276C371.258 300.889 371.692 301.358 372.249 301.682C372.806 302 373.457 302.159 374.201 302.159C374.684 302.159 375.124 302.091 375.522 301.955C375.92 301.812 376.263 301.602 376.553 301.324C376.843 301.045 377.065 300.702 377.218 300.293L379.63 300.727C379.437 301.437 379.09 302.06 378.59 302.594C378.096 303.122 377.474 303.534 376.724 303.83C375.979 304.119 375.13 304.264 374.175 304.264Z" fill="white"/>
<line y1="-2.71429" x2="23.7655" y2="-2.71429" transform="matrix(0.68538 0.73682 -0.664614 0.738673 516 288.044)" stroke="white" stroke-width="5.42857"/>
<line y1="-2.71429" x2="23.7655" y2="-2.71429" transform="matrix(-0.664429 0.738841 0.685199 0.736988 548.074 288)" stroke="white" stroke-width="5.42857"/>
<g filter="url(#filter6_bi_188_8312)">
<rect x="27" y="356" width="532" height="71.4986" rx="10" fill="url(#paint11_linear_188_8312)" fill-opacity="0.6"/>
<rect x="27.5" y="356.5" width="531" height="70.4986" rx="9.5" stroke="url(#paint12_linear_188_8312)" stroke-opacity="0.6"/>
</g>
<path d="M60.4148 388.222H57.7557C57.6534 387.653 57.4631 387.153 57.1847 386.722C56.9063 386.29 56.5653 385.923 56.1619 385.622C55.7585 385.321 55.3068 385.094 54.8068 384.94C54.3125 384.787 53.7869 384.71 53.2301 384.71C52.2244 384.71 51.3239 384.963 50.5284 385.469C49.7386 385.974 49.1136 386.716 48.6534 387.693C48.1989 388.67 47.9716 389.864 47.9716 391.273C47.9716 392.693 48.1989 393.892 48.6534 394.869C49.1136 395.847 49.7415 396.585 50.5369 397.085C51.3324 397.585 52.2273 397.835 53.2216 397.835C53.7727 397.835 54.2955 397.761 54.7898 397.614C55.2898 397.46 55.7415 397.236 56.1449 396.94C56.5483 396.645 56.8892 396.284 57.1676 395.858C57.4517 395.426 57.6477 394.932 57.7557 394.375L60.4148 394.384C60.2727 395.241 59.9972 396.031 59.5881 396.753C59.1847 397.469 58.6648 398.088 58.0284 398.611C57.3977 399.128 56.6761 399.528 55.8636 399.812C55.0511 400.097 54.1648 400.239 53.2045 400.239C51.6932 400.239 50.3466 399.881 49.1648 399.165C47.983 398.443 47.0511 397.412 46.3693 396.071C45.6932 394.73 45.3551 393.131 45.3551 391.273C45.3551 389.409 45.696 387.81 46.3778 386.474C47.0597 385.134 47.9915 384.105 49.1733 383.389C50.3551 382.668 51.6989 382.307 53.2045 382.307C54.1307 382.307 54.9943 382.44 55.7955 382.707C56.6023 382.969 57.3267 383.355 57.9688 383.866C58.6108 384.372 59.142 384.991 59.5625 385.724C59.983 386.452 60.267 387.284 60.4148 388.222ZM67.1712 400.29C66.3416 400.29 65.5916 400.136 64.9212 399.83C64.2507 399.517 63.7195 399.065 63.3274 398.474C62.9411 397.884 62.7479 397.159 62.7479 396.301C62.7479 395.562 62.8899 394.955 63.174 394.477C63.4581 394 63.8416 393.622 64.3246 393.344C64.8075 393.065 65.3473 392.855 65.9439 392.713C66.5405 392.571 67.1484 392.463 67.7678 392.389C68.5518 392.298 69.1882 392.224 69.6768 392.168C70.1655 392.105 70.5206 392.006 70.7422 391.869C70.9638 391.733 71.0746 391.511 71.0746 391.205V391.145C71.0746 390.401 70.8643 389.824 70.4439 389.415C70.0291 389.006 69.4098 388.801 68.5859 388.801C67.728 388.801 67.0518 388.991 66.5575 389.372C66.0689 389.747 65.7308 390.165 65.5433 390.625L63.1484 390.08C63.4325 389.284 63.8473 388.642 64.3928 388.153C64.9439 387.659 65.5774 387.301 66.2933 387.08C67.0092 386.852 67.7621 386.739 68.5518 386.739C69.0746 386.739 69.6286 386.801 70.2138 386.926C70.8047 387.045 71.3558 387.267 71.8672 387.591C72.3842 387.915 72.8075 388.378 73.1371 388.98C73.4666 389.577 73.6314 390.352 73.6314 391.307V400H71.1428V398.21H71.0405C70.8757 398.54 70.6286 398.864 70.299 399.182C69.9695 399.5 69.5462 399.764 69.0291 399.974C68.5121 400.185 67.8928 400.29 67.1712 400.29ZM67.7251 398.244C68.4297 398.244 69.032 398.105 69.532 397.827C70.0376 397.548 70.4212 397.185 70.6825 396.736C70.9496 396.281 71.0831 395.795 71.0831 395.278V393.591C70.9922 393.682 70.8161 393.767 70.5547 393.847C70.299 393.92 70.0064 393.986 69.6768 394.043C69.3473 394.094 69.0263 394.142 68.7138 394.188C68.4013 394.227 68.1399 394.261 67.9297 394.29C67.4354 394.352 66.9837 394.457 66.5746 394.605C66.1712 394.753 65.8473 394.966 65.603 395.244C65.3643 395.517 65.245 395.881 65.245 396.335C65.245 396.966 65.478 397.443 65.9439 397.767C66.4098 398.085 67.0036 398.244 67.7251 398.244ZM83.1364 386.909V388.955H75.9858V386.909H83.1364ZM77.9034 383.773H80.4517V396.156C80.4517 396.651 80.5256 397.023 80.6733 397.273C80.821 397.517 81.0114 397.685 81.2443 397.776C81.483 397.861 81.7415 397.903 82.0199 397.903C82.2244 397.903 82.4034 397.889 82.5568 397.861C82.7102 397.832 82.8295 397.81 82.9148 397.793L83.375 399.898C83.2273 399.955 83.017 400.011 82.7443 400.068C82.4716 400.131 82.1307 400.165 81.7216 400.17C81.0511 400.182 80.4261 400.062 79.8466 399.812C79.267 399.562 78.7983 399.176 78.4403 398.653C78.0824 398.131 77.9034 397.474 77.9034 396.685V383.773ZM91.4567 400.264C90.1669 400.264 89.0561 399.989 88.1243 399.438C87.1982 398.881 86.4822 398.099 85.9766 397.094C85.4766 396.082 85.2266 394.898 85.2266 393.54C85.2266 392.199 85.4766 391.017 85.9766 389.994C86.4822 388.972 87.1868 388.173 88.0902 387.599C88.9993 387.026 90.0618 386.739 91.2777 386.739C92.0163 386.739 92.7322 386.861 93.4254 387.105C94.1186 387.349 94.7408 387.733 95.2919 388.256C95.843 388.778 96.2777 389.457 96.5959 390.293C96.9141 391.122 97.0732 392.131 97.0732 393.318V394.222H86.6669V392.312H94.576C94.576 391.642 94.4396 391.048 94.1669 390.531C93.8942 390.009 93.5107 389.597 93.0163 389.295C92.5277 388.994 91.9538 388.844 91.2947 388.844C90.5788 388.844 89.9538 389.02 89.4197 389.372C88.8913 389.719 88.4822 390.173 88.1925 390.736C87.9084 391.293 87.7663 391.898 87.7663 392.551V394.043C87.7663 394.918 87.9197 395.662 88.2266 396.276C88.5391 396.889 88.9737 397.358 89.5305 397.682C90.0874 398 90.7379 398.159 91.4822 398.159C91.9652 398.159 92.4055 398.091 92.8033 397.955C93.201 397.812 93.5447 397.602 93.8345 397.324C94.1243 397.045 94.3459 396.702 94.4993 396.293L96.9112 396.727C96.718 397.437 96.3714 398.06 95.8714 398.594C95.3771 399.122 94.755 399.534 94.005 399.83C93.2607 400.119 92.4112 400.264 91.4567 400.264ZM105.389 405.182C104.349 405.182 103.455 405.045 102.705 404.773C101.96 404.5 101.352 404.139 100.881 403.69C100.409 403.241 100.057 402.75 99.8239 402.216L102.014 401.312C102.168 401.562 102.372 401.827 102.628 402.105C102.889 402.389 103.241 402.631 103.685 402.83C104.134 403.028 104.71 403.128 105.415 403.128C106.381 403.128 107.179 402.892 107.81 402.42C108.44 401.955 108.756 401.21 108.756 400.188V397.614H108.594C108.44 397.892 108.219 398.202 107.929 398.543C107.645 398.884 107.253 399.179 106.753 399.429C106.253 399.679 105.602 399.804 104.801 399.804C103.767 399.804 102.835 399.562 102.006 399.08C101.182 398.591 100.528 397.872 100.045 396.923C99.5682 395.969 99.3295 394.795 99.3295 393.403C99.3295 392.011 99.5653 390.818 100.037 389.824C100.514 388.83 101.168 388.068 101.997 387.54C102.827 387.006 103.767 386.739 104.818 386.739C105.631 386.739 106.287 386.875 106.787 387.148C107.287 387.415 107.676 387.727 107.955 388.085C108.239 388.443 108.457 388.759 108.611 389.031H108.798V386.909H111.295V400.29C111.295 401.415 111.034 402.338 110.511 403.06C109.989 403.781 109.281 404.315 108.389 404.662C107.503 405.009 106.503 405.182 105.389 405.182ZM105.364 397.69C106.097 397.69 106.716 397.52 107.222 397.179C107.733 396.832 108.119 396.338 108.381 395.696C108.648 395.048 108.781 394.273 108.781 393.369C108.781 392.489 108.651 391.713 108.389 391.043C108.128 390.372 107.744 389.849 107.239 389.474C106.733 389.094 106.108 388.903 105.364 388.903C104.597 388.903 103.957 389.102 103.446 389.5C102.935 389.892 102.548 390.426 102.287 391.102C102.031 391.778 101.903 392.534 101.903 393.369C101.903 394.227 102.034 394.98 102.295 395.628C102.557 396.276 102.943 396.781 103.455 397.145C103.972 397.509 104.608 397.69 105.364 397.69ZM120.227 400.264C119 400.264 117.929 399.983 117.014 399.42C116.099 398.858 115.389 398.071 114.884 397.06C114.378 396.048 114.125 394.866 114.125 393.514C114.125 392.156 114.378 390.969 114.884 389.952C115.389 388.935 116.099 388.145 117.014 387.582C117.929 387.02 119 386.739 120.227 386.739C121.455 386.739 122.526 387.02 123.44 387.582C124.355 388.145 125.065 388.935 125.571 389.952C126.077 390.969 126.33 392.156 126.33 393.514C126.33 394.866 126.077 396.048 125.571 397.06C125.065 398.071 124.355 398.858 123.44 399.42C122.526 399.983 121.455 400.264 120.227 400.264ZM120.236 398.125C121.031 398.125 121.69 397.915 122.213 397.494C122.736 397.074 123.122 396.514 123.372 395.815C123.628 395.116 123.756 394.347 123.756 393.506C123.756 392.67 123.628 391.903 123.372 391.205C123.122 390.5 122.736 389.935 122.213 389.509C121.69 389.082 121.031 388.869 120.236 388.869C119.435 388.869 118.77 389.082 118.241 389.509C117.719 389.935 117.33 390.5 117.074 391.205C116.824 391.903 116.699 392.67 116.699 393.506C116.699 394.347 116.824 395.116 117.074 395.815C117.33 396.514 117.719 397.074 118.241 397.494C118.77 397.915 119.435 398.125 120.236 398.125ZM129.174 400V386.909H131.637V388.989H131.773C132.012 388.284 132.433 387.73 133.035 387.327C133.643 386.918 134.33 386.713 135.097 386.713C135.256 386.713 135.444 386.719 135.66 386.73C135.881 386.741 136.055 386.756 136.18 386.773V389.21C136.077 389.182 135.896 389.151 135.634 389.116C135.373 389.077 135.112 389.057 134.85 389.057C134.248 389.057 133.711 389.185 133.239 389.44C132.773 389.69 132.404 390.04 132.131 390.489C131.859 390.932 131.722 391.437 131.722 392.006V400H129.174ZM140.394 404.909C140.013 404.909 139.667 404.878 139.354 404.815C139.042 404.759 138.809 404.696 138.656 404.628L139.269 402.54C139.735 402.665 140.15 402.719 140.513 402.702C140.877 402.685 141.198 402.548 141.477 402.293C141.761 402.037 142.011 401.619 142.227 401.04L142.542 400.17L137.752 386.909H140.479L143.795 397.068H143.931L147.246 386.909H149.982L144.587 401.747C144.337 402.429 144.019 403.006 143.633 403.477C143.246 403.955 142.786 404.313 142.252 404.551C141.718 404.79 141.099 404.909 140.394 404.909Z" fill="white"/>
<g filter="url(#filter7_bi_188_8312)">
<rect x="27" y="445" width="532" height="195" rx="10" fill="url(#paint13_linear_188_8312)" fill-opacity="0.6"/>
<rect x="27.5" y="445.5" width="531" height="194" rx="9.5" stroke="url(#paint14_linear_188_8312)" stroke-opacity="0.6"/>
</g>
<path d="M45.9176 486V468.545H56.8608V470.812H48.5511V476.131H56.2898V478.389H48.5511V483.733H56.9631V486H45.9176ZM71.3729 472.909L66.6257 486H63.8984L59.1428 472.909H61.8786L65.1939 482.983H65.3303L68.6371 472.909H71.3729ZM78.9645 486.264C77.6747 486.264 76.5639 485.989 75.6321 485.438C74.706 484.881 73.9901 484.099 73.4844 483.094C72.9844 482.082 72.7344 480.898 72.7344 479.54C72.7344 478.199 72.9844 477.017 73.4844 475.994C73.9901 474.972 74.6946 474.173 75.598 473.599C76.5071 473.026 77.5696 472.739 78.7855 472.739C79.5241 472.739 80.2401 472.861 80.9332 473.105C81.6264 473.349 82.2486 473.733 82.7997 474.256C83.3509 474.778 83.7855 475.457 84.1037 476.293C84.4219 477.122 84.581 478.131 84.581 479.318V480.222H74.1747V478.312H82.0838C82.0838 477.642 81.9474 477.048 81.6747 476.531C81.402 476.009 81.0185 475.597 80.5241 475.295C80.0355 474.994 79.4616 474.844 78.8026 474.844C78.0866 474.844 77.4616 475.02 76.9276 475.372C76.3991 475.719 75.9901 476.173 75.7003 476.736C75.4162 477.293 75.2741 477.898 75.2741 478.551V480.043C75.2741 480.918 75.4276 481.662 75.7344 482.276C76.0469 482.889 76.4815 483.358 77.0384 483.682C77.5952 484 78.2457 484.159 78.9901 484.159C79.473 484.159 79.9134 484.091 80.3111 483.955C80.7088 483.812 81.0526 483.602 81.3423 483.324C81.6321 483.045 81.8537 482.702 82.0071 482.293L84.419 482.727C84.2259 483.437 83.8793 484.06 83.3793 484.594C82.8849 485.122 82.2628 485.534 81.5128 485.83C80.7685 486.119 79.919 486.264 78.9645 486.264ZM89.9567 478.227V486H87.4084V472.909H89.8544V475.04H90.0163C90.3175 474.347 90.7891 473.79 91.4311 473.369C92.0788 472.949 92.8942 472.739 93.8771 472.739C94.7692 472.739 95.5504 472.926 96.2209 473.301C96.8913 473.67 97.4112 474.222 97.7805 474.955C98.1499 475.687 98.3345 476.594 98.3345 477.673V486H95.7862V477.98C95.7862 477.031 95.5391 476.29 95.0447 475.756C94.5504 475.216 93.8714 474.946 93.0078 474.946C92.4169 474.946 91.8913 475.074 91.4311 475.33C90.9766 475.585 90.6158 475.96 90.3487 476.455C90.0874 476.943 89.9567 477.534 89.9567 478.227ZM107.863 472.909V474.955H100.712V472.909H107.863ZM102.63 469.773H105.178V482.156C105.178 482.651 105.252 483.023 105.4 483.273C105.548 483.517 105.738 483.685 105.971 483.776C106.21 483.861 106.468 483.903 106.746 483.903C106.951 483.903 107.13 483.889 107.283 483.861C107.437 483.832 107.556 483.81 107.641 483.793L108.102 485.898C107.954 485.955 107.744 486.011 107.471 486.068C107.198 486.131 106.857 486.165 106.448 486.17C105.778 486.182 105.153 486.062 104.573 485.812C103.994 485.562 103.525 485.176 103.167 484.653C102.809 484.131 102.63 483.474 102.63 482.685V469.773ZM121.934 486.256C120.877 486.256 119.934 485.986 119.104 485.446C118.281 484.901 117.633 484.125 117.161 483.119C116.695 482.108 116.462 480.895 116.462 479.48C116.462 478.065 116.698 476.855 117.17 475.849C117.647 474.844 118.3 474.074 119.13 473.54C119.96 473.006 120.9 472.739 121.951 472.739C122.763 472.739 123.417 472.875 123.911 473.148C124.411 473.415 124.798 473.727 125.07 474.085C125.349 474.443 125.565 474.759 125.718 475.031H125.871V468.545H128.42V486H125.931V483.963H125.718C125.565 484.241 125.343 484.56 125.053 484.918C124.769 485.276 124.377 485.588 123.877 485.855C123.377 486.122 122.729 486.256 121.934 486.256ZM122.496 484.082C123.229 484.082 123.849 483.889 124.354 483.503C124.866 483.111 125.252 482.568 125.513 481.875C125.781 481.182 125.914 480.375 125.914 479.455C125.914 478.545 125.783 477.75 125.522 477.068C125.261 476.386 124.877 475.855 124.371 475.474C123.866 475.094 123.241 474.903 122.496 474.903C121.729 474.903 121.09 475.102 120.579 475.5C120.067 475.898 119.681 476.44 119.42 477.128C119.164 477.815 119.036 478.591 119.036 479.455C119.036 480.33 119.167 481.116 119.428 481.815C119.69 482.514 120.076 483.068 120.587 483.477C121.104 483.881 121.741 484.082 122.496 484.082ZM137.699 486.264C136.409 486.264 135.298 485.989 134.366 485.438C133.44 484.881 132.724 484.099 132.219 483.094C131.719 482.082 131.469 480.898 131.469 479.54C131.469 478.199 131.719 477.017 132.219 475.994C132.724 474.972 133.429 474.173 134.332 473.599C135.241 473.026 136.304 472.739 137.52 472.739C138.259 472.739 138.974 472.861 139.668 473.105C140.361 473.349 140.983 473.733 141.534 474.256C142.085 474.778 142.52 475.457 142.838 476.293C143.156 477.122 143.315 478.131 143.315 479.318V480.222H132.909V478.312H140.818C140.818 477.642 140.682 477.048 140.409 476.531C140.136 476.009 139.753 475.597 139.259 475.295C138.77 474.994 138.196 474.844 137.537 474.844C136.821 474.844 136.196 475.02 135.662 475.372C135.134 475.719 134.724 476.173 134.435 476.736C134.151 477.293 134.009 477.898 134.009 478.551V480.043C134.009 480.918 134.162 481.662 134.469 482.276C134.781 482.889 135.216 483.358 135.773 483.682C136.33 484 136.98 484.159 137.724 484.159C138.207 484.159 138.648 484.091 139.045 483.955C139.443 483.812 139.787 483.602 140.077 483.324C140.366 483.045 140.588 482.702 140.741 482.293L143.153 482.727C142.96 483.437 142.614 484.06 142.114 484.594C141.619 485.122 140.997 485.534 140.247 485.83C139.503 486.119 138.653 486.264 137.699 486.264ZM155.952 476.105L153.643 476.514C153.546 476.219 153.393 475.937 153.183 475.67C152.978 475.403 152.7 475.185 152.347 475.014C151.995 474.844 151.555 474.759 151.026 474.759C150.305 474.759 149.702 474.92 149.219 475.244C148.737 475.562 148.495 475.974 148.495 476.48C148.495 476.918 148.657 477.27 148.981 477.537C149.305 477.804 149.827 478.023 150.549 478.193L152.629 478.67C153.833 478.949 154.731 479.378 155.322 479.957C155.913 480.537 156.208 481.29 156.208 482.216C156.208 483 155.981 483.699 155.526 484.312C155.077 484.92 154.45 485.398 153.643 485.744C152.842 486.091 151.913 486.264 150.856 486.264C149.39 486.264 148.194 485.952 147.268 485.327C146.342 484.696 145.773 483.801 145.563 482.642L148.026 482.267C148.18 482.909 148.495 483.395 148.972 483.724C149.45 484.048 150.072 484.21 150.839 484.21C151.674 484.21 152.342 484.037 152.842 483.69C153.342 483.338 153.592 482.909 153.592 482.403C153.592 481.994 153.438 481.651 153.131 481.372C152.83 481.094 152.367 480.884 151.742 480.741L149.526 480.256C148.305 479.977 147.401 479.534 146.816 478.926C146.237 478.318 145.947 477.548 145.947 476.616C145.947 475.844 146.163 475.168 146.594 474.588C147.026 474.009 147.623 473.557 148.384 473.233C149.146 472.903 150.018 472.739 151.001 472.739C152.415 472.739 153.529 473.045 154.342 473.659C155.154 474.267 155.691 475.082 155.952 476.105ZM164.524 486.264C163.257 486.264 162.166 485.977 161.251 485.403C160.342 484.824 159.643 484.026 159.155 483.009C158.666 481.991 158.422 480.827 158.422 479.514C158.422 478.185 158.672 477.011 159.172 475.994C159.672 474.972 160.376 474.173 161.286 473.599C162.195 473.026 163.266 472.739 164.499 472.739C165.493 472.739 166.379 472.923 167.158 473.293C167.936 473.656 168.564 474.168 169.041 474.827C169.524 475.486 169.811 476.256 169.902 477.136H167.422C167.286 476.523 166.973 475.994 166.484 475.551C166.001 475.108 165.354 474.886 164.541 474.886C163.831 474.886 163.209 475.074 162.675 475.449C162.146 475.818 161.734 476.347 161.439 477.034C161.143 477.716 160.996 478.523 160.996 479.455C160.996 480.409 161.141 481.233 161.43 481.926C161.72 482.619 162.129 483.156 162.658 483.537C163.192 483.918 163.82 484.108 164.541 484.108C165.024 484.108 165.462 484.02 165.854 483.844C166.251 483.662 166.584 483.403 166.851 483.068C167.124 482.733 167.314 482.33 167.422 481.858H169.902C169.811 482.705 169.536 483.46 169.075 484.125C168.615 484.79 167.999 485.312 167.226 485.693C166.459 486.074 165.558 486.264 164.524 486.264ZM172.627 486V472.909H175.09V474.989H175.227C175.465 474.284 175.886 473.73 176.488 473.327C177.096 472.918 177.783 472.713 178.55 472.713C178.71 472.713 178.897 472.719 179.113 472.73C179.335 472.741 179.508 472.756 179.633 472.773V475.21C179.531 475.182 179.349 475.151 179.087 475.116C178.826 475.077 178.565 475.057 178.303 475.057C177.701 475.057 177.164 475.185 176.692 475.44C176.227 475.69 175.857 476.04 175.585 476.489C175.312 476.932 175.175 477.437 175.175 478.006V486H172.627ZM181.838 486V472.909H184.386V486H181.838ZM183.125 470.889C182.682 470.889 182.301 470.741 181.983 470.446C181.67 470.145 181.514 469.787 181.514 469.372C181.514 468.952 181.67 468.594 181.983 468.298C182.301 467.997 182.682 467.847 183.125 467.847C183.568 467.847 183.946 467.997 184.259 468.298C184.577 468.594 184.736 468.952 184.736 469.372C184.736 469.787 184.577 470.145 184.259 470.446C183.946 470.741 183.568 470.889 183.125 470.889ZM187.815 490.909V472.909H190.303V475.031H190.516C190.664 474.759 190.877 474.443 191.156 474.085C191.434 473.727 191.82 473.415 192.315 473.148C192.809 472.875 193.462 472.739 194.275 472.739C195.332 472.739 196.275 473.006 197.104 473.54C197.934 474.074 198.585 474.844 199.056 475.849C199.533 476.855 199.772 478.065 199.772 479.48C199.772 480.895 199.536 482.108 199.065 483.119C198.593 484.125 197.945 484.901 197.121 485.446C196.298 485.986 195.357 486.256 194.3 486.256C193.505 486.256 192.854 486.122 192.349 485.855C191.849 485.588 191.457 485.276 191.173 484.918C190.888 484.56 190.67 484.241 190.516 483.963H190.363V490.909H187.815ZM190.312 479.455C190.312 480.375 190.445 481.182 190.712 481.875C190.979 482.568 191.366 483.111 191.871 483.503C192.377 483.889 192.996 484.082 193.729 484.082C194.491 484.082 195.127 483.881 195.638 483.477C196.15 483.068 196.536 482.514 196.798 481.815C197.065 481.116 197.198 480.33 197.198 479.455C197.198 478.591 197.067 477.815 196.806 477.128C196.55 476.44 196.164 475.898 195.647 475.5C195.136 475.102 194.496 474.903 193.729 474.903C192.991 474.903 192.366 475.094 191.854 475.474C191.349 475.855 190.965 476.386 190.704 477.068C190.442 477.75 190.312 478.545 190.312 479.455ZM208.738 472.909V474.955H201.587V472.909H208.738ZM203.505 469.773H206.053V482.156C206.053 482.651 206.127 483.023 206.275 483.273C206.423 483.517 206.613 483.685 206.846 483.776C207.085 483.861 207.343 483.903 207.621 483.903C207.826 483.903 208.005 483.889 208.158 483.861C208.312 483.832 208.431 483.81 208.516 483.793L208.977 485.898C208.829 485.955 208.619 486.011 208.346 486.068C208.073 486.131 207.732 486.165 207.323 486.17C206.653 486.182 206.028 486.062 205.448 485.812C204.869 485.562 204.4 485.176 204.042 484.653C203.684 484.131 203.505 483.474 203.505 482.685V469.773ZM211.557 486V472.909H214.105V486H211.557ZM212.844 470.889C212.401 470.889 212.02 470.741 211.702 470.446C211.389 470.145 211.233 469.787 211.233 469.372C211.233 468.952 211.389 468.594 211.702 468.298C212.02 467.997 212.401 467.847 212.844 467.847C213.287 467.847 213.665 467.997 213.977 468.298C214.295 468.594 214.455 468.952 214.455 469.372C214.455 469.787 214.295 470.145 213.977 470.446C213.665 470.741 213.287 470.889 212.844 470.889ZM223.048 486.264C221.82 486.264 220.749 485.983 219.835 485.42C218.92 484.858 218.21 484.071 217.704 483.06C217.198 482.048 216.945 480.866 216.945 479.514C216.945 478.156 217.198 476.969 217.704 475.952C218.21 474.935 218.92 474.145 219.835 473.582C220.749 473.02 221.82 472.739 223.048 472.739C224.275 472.739 225.346 473.02 226.261 473.582C227.175 474.145 227.886 474.935 228.391 475.952C228.897 476.969 229.15 478.156 229.15 479.514C229.15 480.866 228.897 482.048 228.391 483.06C227.886 484.071 227.175 484.858 226.261 485.42C225.346 485.983 224.275 486.264 223.048 486.264ZM223.056 484.125C223.852 484.125 224.511 483.915 225.033 483.494C225.556 483.074 225.942 482.514 226.192 481.815C226.448 481.116 226.576 480.347 226.576 479.506C226.576 478.67 226.448 477.903 226.192 477.205C225.942 476.5 225.556 475.935 225.033 475.509C224.511 475.082 223.852 474.869 223.056 474.869C222.255 474.869 221.59 475.082 221.062 475.509C220.539 475.935 220.15 476.5 219.894 477.205C219.644 477.903 219.519 478.67 219.519 479.506C219.519 480.347 219.644 481.116 219.894 481.815C220.15 482.514 220.539 483.074 221.062 483.494C221.59 483.915 222.255 484.125 223.056 484.125ZM234.543 478.227V486H231.994V472.909H234.44V475.04H234.602C234.903 474.347 235.375 473.79 236.017 473.369C236.665 472.949 237.48 472.739 238.463 472.739C239.355 472.739 240.136 472.926 240.807 473.301C241.477 473.67 241.997 474.222 242.366 474.955C242.736 475.687 242.92 476.594 242.92 477.673V486H240.372V477.98C240.372 477.031 240.125 476.29 239.631 475.756C239.136 475.216 238.457 474.946 237.594 474.946C237.003 474.946 236.477 475.074 236.017 475.33C235.563 475.585 235.202 475.96 234.935 476.455C234.673 476.943 234.543 477.534 234.543 478.227Z" fill="white"/>
<g filter="url(#filter8_b_188_8312)">
<path d="M194 734C194 728.477 198.477 724 204 724H387C392.523 724 397 728.477 397 734V771.84C397 777.363 392.523 781.84 387 781.84H204C198.477 781.84 194 777.363 194 771.84V734Z" fill="url(#paint15_linear_188_8312)" fill-opacity="0.6"/>
<path d="M194.5 734C194.5 728.753 198.753 724.5 204 724.5H387C392.247 724.5 396.5 728.753 396.5 734V771.84C396.5 777.087 392.247 781.34 387 781.34H204C198.753 781.34 194.5 777.087 194.5 771.84V734Z" stroke="url(#paint16_linear_188_8312)" stroke-opacity="0.6"/>
</g>
<path d="M279.55 746.909C279.447 746.045 279.033 745.375 278.305 744.898C277.578 744.42 276.686 744.182 275.629 744.182C274.857 744.182 274.18 744.307 273.601 744.557C273.027 744.807 272.578 745.151 272.254 745.588C271.936 746.026 271.777 746.523 271.777 747.08C271.777 747.545 271.888 747.946 272.109 748.281C272.337 748.611 272.626 748.886 272.979 749.108C273.331 749.324 273.7 749.503 274.087 749.645C274.473 749.781 274.828 749.892 275.152 749.977L276.925 750.455C277.379 750.574 277.885 750.739 278.442 750.949C279.004 751.159 279.541 751.446 280.053 751.81C280.57 752.168 280.996 752.628 281.331 753.19C281.666 753.753 281.834 754.443 281.834 755.261C281.834 756.205 281.587 757.057 281.092 757.818C280.604 758.58 279.888 759.185 278.945 759.634C278.007 760.082 276.868 760.307 275.527 760.307C274.277 760.307 273.195 760.105 272.28 759.702C271.371 759.298 270.655 758.736 270.132 758.014C269.615 757.293 269.322 756.455 269.254 755.5H271.436C271.493 756.159 271.714 756.705 272.101 757.136C272.493 757.562 272.987 757.881 273.584 758.091C274.186 758.295 274.834 758.398 275.527 758.398C276.334 758.398 277.058 758.267 277.7 758.006C278.342 757.739 278.851 757.369 279.226 756.898C279.601 756.42 279.788 755.864 279.788 755.227C279.788 754.648 279.626 754.176 279.303 753.812C278.979 753.449 278.553 753.153 278.024 752.926C277.496 752.699 276.925 752.5 276.311 752.33L274.163 751.716C272.8 751.324 271.72 750.764 270.925 750.037C270.129 749.31 269.732 748.358 269.732 747.182C269.732 746.205 269.996 745.352 270.524 744.625C271.058 743.892 271.774 743.324 272.672 742.92C273.575 742.511 274.584 742.307 275.697 742.307C276.822 742.307 277.822 742.509 278.697 742.912C279.572 743.31 280.266 743.855 280.777 744.548C281.294 745.241 281.567 746.028 281.595 746.909H279.55ZM288.888 760.307C288.059 760.307 287.306 760.151 286.63 759.838C285.954 759.52 285.417 759.062 285.019 758.466C284.621 757.864 284.423 757.136 284.423 756.284C284.423 755.534 284.57 754.926 284.866 754.46C285.161 753.989 285.556 753.619 286.05 753.352C286.545 753.085 287.09 752.886 287.687 752.756C288.289 752.619 288.894 752.511 289.502 752.432C290.298 752.33 290.942 752.253 291.437 752.202C291.937 752.145 292.3 752.051 292.528 751.92C292.761 751.79 292.877 751.562 292.877 751.239V751.17C292.877 750.33 292.647 749.676 292.187 749.21C291.732 748.744 291.042 748.511 290.116 748.511C289.156 748.511 288.403 748.722 287.857 749.142C287.312 749.562 286.928 750.011 286.707 750.489L284.798 749.807C285.138 749.011 285.593 748.392 286.161 747.949C286.735 747.5 287.36 747.187 288.036 747.011C288.718 746.83 289.388 746.739 290.048 746.739C290.468 746.739 290.951 746.79 291.496 746.892C292.048 746.989 292.579 747.19 293.09 747.497C293.607 747.804 294.036 748.267 294.377 748.886C294.718 749.506 294.888 750.335 294.888 751.375V760H292.877V758.227H292.775C292.638 758.511 292.411 758.815 292.093 759.139C291.775 759.463 291.352 759.739 290.823 759.966C290.295 760.193 289.65 760.307 288.888 760.307ZM289.195 758.5C289.991 758.5 290.661 758.344 291.207 758.031C291.758 757.719 292.173 757.315 292.451 756.821C292.735 756.327 292.877 755.807 292.877 755.261V753.42C292.792 753.523 292.604 753.616 292.315 753.702C292.031 753.781 291.701 753.852 291.326 753.915C290.957 753.972 290.596 754.023 290.244 754.068C289.897 754.108 289.616 754.142 289.4 754.17C288.877 754.239 288.388 754.349 287.934 754.503C287.485 754.651 287.121 754.875 286.843 755.176C286.57 755.472 286.434 755.875 286.434 756.386C286.434 757.085 286.692 757.614 287.21 757.972C287.732 758.324 288.394 758.5 289.195 758.5ZM308.795 746.909L303.955 760H301.909L297.068 746.909H299.25L302.864 757.341H303L306.614 746.909H308.795ZM316.47 760.273C315.209 760.273 314.121 759.994 313.206 759.438C312.297 758.875 311.595 758.091 311.101 757.085C310.612 756.074 310.368 754.898 310.368 753.557C310.368 752.216 310.612 751.034 311.101 750.011C311.595 748.983 312.283 748.182 313.163 747.608C314.05 747.028 315.084 746.739 316.266 746.739C316.947 746.739 317.621 746.852 318.286 747.08C318.95 747.307 319.555 747.676 320.101 748.188C320.646 748.693 321.081 749.364 321.405 750.199C321.729 751.034 321.891 752.062 321.891 753.284V754.136H311.8V752.398H319.845C319.845 751.659 319.697 751 319.402 750.42C319.112 749.841 318.697 749.384 318.158 749.048C317.624 748.713 316.993 748.545 316.266 748.545C315.464 748.545 314.771 748.744 314.186 749.142C313.607 749.534 313.161 750.045 312.848 750.676C312.536 751.307 312.379 751.983 312.379 752.705V753.864C312.379 754.852 312.55 755.69 312.891 756.378C313.237 757.06 313.717 757.58 314.331 757.938C314.945 758.29 315.658 758.466 316.47 758.466C316.999 758.466 317.476 758.392 317.902 758.244C318.334 758.091 318.706 757.864 319.018 757.562C319.331 757.256 319.572 756.875 319.743 756.42L321.686 756.966C321.482 757.625 321.138 758.205 320.655 758.705C320.172 759.199 319.575 759.585 318.865 759.864C318.155 760.136 317.357 760.273 316.47 760.273Z" fill="white"/>
<line y1="-2.71429" x2="23.7655" y2="-2.71429" transform="matrix(0.68538 0.73682 -0.664614 0.738673 516 388.044)" stroke="white" stroke-width="5.42857"/>
<line y1="-2.71429" x2="23.7655" y2="-2.71429" transform="matrix(-0.664429 0.738841 0.685199 0.736988 548.074 388)" stroke="white" stroke-width="5.42857"/>
<path d="M40.5417 669.958H43.25C44.6866 669.958 46.0643 669.387 47.0802 668.372C48.096 667.356 48.6667 665.978 48.6667 664.541C48.6667 663.823 48.952 663.134 49.4599 662.626C49.9678 662.118 50.6567 661.833 51.375 661.833H67.625C68.3433 661.833 69.0322 662.118 69.5401 662.626C70.048 663.134 70.3333 663.823 70.3333 664.541C70.3333 665.978 70.904 667.356 71.9198 668.372C72.9357 669.387 74.3134 669.958 75.75 669.958H78.4583C79.8949 669.958 81.2727 670.529 82.2885 671.545C83.3043 672.56 83.875 673.938 83.875 675.375V699.75C83.875 701.186 83.3043 702.564 82.2885 703.58C81.2727 704.596 79.8949 705.166 78.4583 705.166H40.5417C39.1051 705.166 37.7273 704.596 36.7115 703.58C35.6957 702.564 35.125 701.186 35.125 699.75V675.375C35.125 673.938 35.6957 672.56 36.7115 671.545C37.7273 670.529 39.1051 669.958 40.5417 669.958" stroke="white" stroke-width="3.66667" stroke-linecap="round" stroke-linejoin="round"/>
<path d="M59.5 694.333C63.9873 694.333 67.625 690.695 67.625 686.208C67.625 681.721 63.9873 678.083 59.5 678.083C55.0127 678.083 51.375 681.721 51.375 686.208C51.375 690.695 55.0127 694.333 59.5 694.333Z" stroke="white" stroke-width="3.66667" stroke-linecap="round" stroke-linejoin="round"/>
<defs>
<filter id="filter0_bd_188_8312" x="-296" y="-300" width="1184" height="1430" filterUnits="userSpaceOnUse" color-interpolation-filters="sRGB">
<feFlood flood-opacity="0" result="BackgroundImageFix"/>
<feGaussianBlur in="BackgroundImage" stdDeviation="150"/>
<feComposite in2="SourceAlpha" operator="in" result="effect1_backgroundBlur_188_8312"/>
<feColorMatrix in="SourceAlpha" type="matrix" values="0 0 0 0 0 0 0 0 0 0 0 0 0 0 0 0 0 0 127 0" result="hardAlpha"/>
<feOffset dy="4"/>
<feGaussianBlur stdDeviation="2"/>
<feComposite in2="hardAlpha" operator="out"/>
<feColorMatrix type="matrix" values="0 0 0 0 0 0 0 0 0 0 0 0 0 0 0 0 0 0 0.25 0"/>
<feBlend mode="normal" in2="effect1_backgroundBlur_188_8312" result="effect2_dropShadow_188_8312"/>
<feBlend mode="normal" in="SourceGraphic" in2="effect2_dropShadow_188_8312" result="shape"/>
</filter>
<filter id="filter1_bd_188_8312" x="-146" y="-150" width="884" height="351" filterUnits="userSpaceOnUse" color-interpolation-filters="sRGB">
<feFlood flood-opacity="0" result="BackgroundImageFix"/>
<feGaussianBlur in="BackgroundImage" stdDeviation="75"/>
<feComposite in2="SourceAlpha" operator="in" result="effect1_backgroundBlur_188_8312"/>
<feColorMatrix in="SourceAlpha" type="matrix" values="0 0 0 0 0 0 0 0 0 0 0 0 0 0 0 0 0 0 127 0" result="hardAlpha"/>
<feOffset dy="4"/>
<feGaussianBlur stdDeviation="2"/>
<feComposite in2="hardAlpha" operator="out"/>
<feColorMatrix type="matrix" values="0 0 0 0 0 0 0 0 0 0 0 0 0 0 0 0 0 0 0.25 0"/>
<feBlend mode="normal" in2="effect1_backgroundBlur_188_8312" result="effect2_dropShadow_188_8312"/>
<feBlend mode="normal" in="SourceGraphic" in2="effect2_dropShadow_188_8312" result="shape"/>
</filter>
<filter id="filter2_bi_188_8312" x="-173" y="-127" width="932" height="471.499" filterUnits="userSpaceOnUse" color-interpolation-filters="sRGB">
<feFlood flood-opacity="0" result="BackgroundImageFix"/>
<feGaussianBlur in="BackgroundImage" stdDeviation="100"/>
<feComposite in2="SourceAlpha" operator="in" result="effect1_backgroundBlur_188_8312"/>
<feBlend mode="normal" in="SourceGraphic" in2="effect1_backgroundBlur_188_8312" result="shape"/>
<feColorMatrix in="SourceAlpha" type="matrix" values="0 0 0 0 0 0 0 0 0 0 0 0 0 0 0 0 0 0 127 0" result="hardAlpha"/>
<feOffset dy="4"/>
<feGaussianBlur stdDeviation="2"/>
<feComposite in2="hardAlpha" operator="arithmetic" k2="-1" k3="1"/>
<feColorMatrix type="matrix" values="0 0 0 0 0 0 0 0 0 0 0 0 0 0 0 0 0 0 0.25 0"/>
<feBlend mode="normal" in2="shape" result="effect2_innerShadow_188_8312"/>
</filter>
<filter id="filter3_bi_188_8312" x="-173" y="-34" width="932" height="471.499" filterUnits="userSpaceOnUse" color-interpolation-filters="sRGB">
<feFlood flood-opacity="0" result="BackgroundImageFix"/>
<feGaussianBlur in="BackgroundImage" stdDeviation="100"/>
<feComposite in2="SourceAlpha" operator="in" result="effect1_backgroundBlur_188_8312"/>
<feBlend mode="normal" in="SourceGraphic" in2="effect1_backgroundBlur_188_8312" result="shape"/>
<feColorMatrix in="SourceAlpha" type="matrix" values="0 0 0 0 0 0 0 0 0 0 0 0 0 0 0 0 0 0 127 0" result="hardAlpha"/>
<feOffset dy="4"/>
<feGaussianBlur stdDeviation="2"/>
<feComposite in2="hardAlpha" operator="arithmetic" k2="-1" k3="1"/>
<feColorMatrix type="matrix" values="0 0 0 0 0 0 0 0 0 0 0 0 0 0 0 0 0 0 0.25 0"/>
<feBlend mode="normal" in2="shape" result="effect2_innerShadow_188_8312"/>
</filter>
<filter id="filter4_bi_188_8312" x="-173" y="60" width="655" height="471.499" filterUnits="userSpaceOnUse" color-interpolation-filters="sRGB">
<feFlood flood-opacity="0" result="BackgroundImageFix"/>
<feGaussianBlur in="BackgroundImage" stdDeviation="100"/>
<feComposite in2="SourceAlpha" operator="in" result="effect1_backgroundBlur_188_8312"/>
<feBlend mode="normal" in="SourceGraphic" in2="effect1_backgroundBlur_188_8312" result="shape"/>
<feColorMatrix in="SourceAlpha" type="matrix" values="0 0 0 0 0 0 0 0 0 0 0 0 0 0 0 0 0 0 127 0" result="hardAlpha"/>
<feOffset dy="4"/>
<feGaussianBlur stdDeviation="2"/>
<feComposite in2="hardAlpha" operator="arithmetic" k2="-1" k3="1"/>
<feColorMatrix type="matrix" values="0 0 0 0 0 0 0 0 0 0 0 0 0 0 0 0 0 0 0.25 0"/>
<feBlend mode="normal" in2="shape" result="effect2_innerShadow_188_8312"/>
</filter>
<filter id="filter5_bi_188_8312" x="104" y="60" width="655" height="471.499" filterUnits="userSpaceOnUse" color-interpolation-filters="sRGB">
<feFlood flood-opacity="0" result="BackgroundImageFix"/>
<feGaussianBlur in="BackgroundImage" stdDeviation="100"/>
<feComposite in2="SourceAlpha" operator="in" result="effect1_backgroundBlur_188_8312"/>
<feBlend mode="normal" in="SourceGraphic" in2="effect1_backgroundBlur_188_8312" result="shape"/>
<feColorMatrix in="SourceAlpha" type="matrix" values="0 0 0 0 0 0 0 0 0 0 0 0 0 0 0 0 0 0 127 0" result="hardAlpha"/>
<feOffset dy="4"/>
<feGaussianBlur stdDeviation="2"/>
<feComposite in2="hardAlpha" operator="arithmetic" k2="-1" k3="1"/>
<feColorMatrix type="matrix" values="0 0 0 0 0 0 0 0 0 0 0 0 0 0 0 0 0 0 0.25 0"/>
<feBlend mode="normal" in2="shape" result="effect2_innerShadow_188_8312"/>
</filter>
<filter id="filter6_bi_188_8312" x="-173" y="156" width="932" height="471.499" filterUnits="userSpaceOnUse" color-interpolation-filters="sRGB">
<feFlood flood-opacity="0" result="BackgroundImageFix"/>
<feGaussianBlur in="BackgroundImage" stdDeviation="100"/>
<feComposite in2="SourceAlpha" operator="in" result="effect1_backgroundBlur_188_8312"/>
<feBlend mode="normal" in="SourceGraphic" in2="effect1_backgroundBlur_188_8312" result="shape"/>
<feColorMatrix in="SourceAlpha" type="matrix" values="0 0 0 0 0 0 0 0 0 0 0 0 0 0 0 0 0 0 127 0" result="hardAlpha"/>
<feOffset dy="4"/>
<feGaussianBlur stdDeviation="2"/>
<feComposite in2="hardAlpha" operator="arithmetic" k2="-1" k3="1"/>
<feColorMatrix type="matrix" values="0 0 0 0 0 0 0 0 0 0 0 0 0 0 0 0 0 0 0.25 0"/>
<feBlend mode="normal" in2="shape" result="effect2_innerShadow_188_8312"/>
</filter>
<filter id="filter7_bi_188_8312" x="-173" y="245" width="932" height="595" filterUnits="userSpaceOnUse" color-interpolation-filters="sRGB">
<feFlood flood-opacity="0" result="BackgroundImageFix"/>
<feGaussianBlur in="BackgroundImage" stdDeviation="100"/>
<feComposite in2="SourceAlpha" operator="in" result="effect1_backgroundBlur_188_8312"/>
<feBlend mode="normal" in="SourceGraphic" in2="effect1_backgroundBlur_188_8312" result="shape"/>
<feColorMatrix in="SourceAlpha" type="matrix" values="0 0 0 0 0 0 0 0 0 0 0 0 0 0 0 0 0 0 127 0" result="hardAlpha"/>
<feOffset dy="4"/>
<feGaussianBlur stdDeviation="2"/>
<feComposite in2="hardAlpha" operator="arithmetic" k2="-1" k3="1"/>
<feColorMatrix type="matrix" values="0 0 0 0 0 0 0 0 0 0 0 0 0 0 0 0 0 0 0.25 0"/>
<feBlend mode="normal" in2="shape" result="effect2_innerShadow_188_8312"/>
</filter>
<filter id="filter8_b_188_8312" x="-6" y="524" width="603" height="457.84" filterUnits="userSpaceOnUse" color-interpolation-filters="sRGB">
<feFlood flood-opacity="0" result="BackgroundImageFix"/>
<feGaussianBlur in="BackgroundImage" stdDeviation="100"/>
<feComposite in2="SourceAlpha" operator="in" result="effect1_backgroundBlur_188_8312"/>
<feBlend mode="normal" in="SourceGraphic" in2="effect1_backgroundBlur_188_8312" result="shape"/>
</filter>
<linearGradient id="paint0_linear_188_8312" x1="4" y1="0" x2="766.808" y2="225.714" gradientUnits="userSpaceOnUse">
<stop offset="0.00346385" stop-color="white"/>
<stop offset="1" stop-color="white" stop-opacity="0"/>
</linearGradient>
<linearGradient id="paint1_linear_188_8312" x1="4" y1="0" x2="37.7307" y2="163.135" gradientUnits="userSpaceOnUse">
<stop stop-color="#D9D9D9" stop-opacity="0.8"/>
<stop offset="1" stop-color="#D9D9D9" stop-opacity="0.2"/>
</linearGradient>
<linearGradient id="paint2_linear_188_8312" x1="4" y1="0" x2="38.2948" y2="165.151" gradientUnits="userSpaceOnUse">
<stop offset="0.00346385" stop-color="white"/>
<stop offset="1" stop-color="white" stop-opacity="0"/>
</linearGradient>
<linearGradient id="paint3_linear_188_8312" x1="27" y1="73" x2="95.9088" y2="289.555" gradientUnits="userSpaceOnUse">
<stop stop-color="#D9D9D9" stop-opacity="0.8"/>
<stop offset="1" stop-color="#D9D9D9" stop-opacity="0.6"/>
</linearGradient>
<linearGradient id="paint4_linear_188_8312" x1="27" y1="73" x2="97.0304" y2="292.134" gradientUnits="userSpaceOnUse">
<stop offset="0.00346385" stop-color="white"/>
<stop offset="1" stop-color="white" stop-opacity="0"/>
</linearGradient>
<linearGradient id="paint5_linear_188_8312" x1="27" y1="166" x2="95.9088" y2="382.555" gradientUnits="userSpaceOnUse">
<stop stop-color="#D9D9D9" stop-opacity="0.8"/>
<stop offset="1" stop-color="#D9D9D9" stop-opacity="0.6"/>
</linearGradient>
<linearGradient id="paint6_linear_188_8312" x1="27" y1="166" x2="97.0304" y2="385.134" gradientUnits="userSpaceOnUse">
<stop offset="0.00346385" stop-color="white"/>
<stop offset="1" stop-color="white" stop-opacity="0"/>
</linearGradient>
<linearGradient id="paint7_linear_188_8312" x1="27" y1="260" x2="136.889" y2="425.53" gradientUnits="userSpaceOnUse">
<stop stop-color="#D9D9D9" stop-opacity="0.8"/>
<stop offset="1" stop-color="#D9D9D9" stop-opacity="0.6"/>
</linearGradient>
<linearGradient id="paint8_linear_188_8312" x1="27" y1="260" x2="138.472" y2="427.193" gradientUnits="userSpaceOnUse">
<stop offset="0.00346385" stop-color="white"/>
<stop offset="1" stop-color="white" stop-opacity="0"/>
</linearGradient>
<linearGradient id="paint9_linear_188_8312" x1="304" y1="260" x2="413.889" y2="425.53" gradientUnits="userSpaceOnUse">
<stop stop-color="#D9D9D9" stop-opacity="0.8"/>
<stop offset="1" stop-color="#D9D9D9" stop-opacity="0.6"/>
</linearGradient>
<linearGradient id="paint10_linear_188_8312" x1="304" y1="260" x2="415.472" y2="427.193" gradientUnits="userSpaceOnUse">
<stop offset="0.00346385" stop-color="white"/>
<stop offset="1" stop-color="white" stop-opacity="0"/>
</linearGradient>
<linearGradient id="paint11_linear_188_8312" x1="27" y1="356" x2="95.9088" y2="572.555" gradientUnits="userSpaceOnUse">
<stop stop-color="#D9D9D9" stop-opacity="0.8"/>
<stop offset="1" stop-color="#D9D9D9" stop-opacity="0.6"/>
</linearGradient>
<linearGradient id="paint12_linear_188_8312" x1="27" y1="356" x2="97.0304" y2="575.134" gradientUnits="userSpaceOnUse">
<stop offset="0.00346385" stop-color="white"/>
<stop offset="1" stop-color="white" stop-opacity="0"/>
</linearGradient>
<linearGradient id="paint13_linear_188_8312" x1="27" y1="445" x2="348.969" y2="815.997" gradientUnits="userSpaceOnUse">
<stop stop-color="#D9D9D9" stop-opacity="0.8"/>
<stop offset="1" stop-color="#D9D9D9" stop-opacity="0.6"/>
</linearGradient>
<linearGradient id="paint14_linear_188_8312" x1="27" y1="445" x2="353.258" y2="819.323" gradientUnits="userSpaceOnUse">
<stop offset="0.00346385" stop-color="white"/>
<stop offset="1" stop-color="white" stop-opacity="0"/>
</linearGradient>
<linearGradient id="paint15_linear_188_8312" x1="194" y1="724" x2="283.443" y2="856.585" gradientUnits="userSpaceOnUse">
<stop stop-color="#D9D9D9" stop-opacity="0.8"/>
<stop offset="1" stop-color="#D9D9D9" stop-opacity="0.6"/>
</linearGradient>
<linearGradient id="paint16_linear_188_8312" x1="194" y1="724" x2="284.726" y2="857.908" gradientUnits="userSpaceOnUse">
<stop offset="0.00346385" stop-color="white"/>
<stop offset="1" stop-color="white" stop-opacity="0"/>
</linearGradient>
</defs>
</svg>
