<svg width="32" height="10" viewBox="0 0 32 10" fill="none" xmlns="http://www.w3.org/2000/svg">
<path d="M3.66477 9.13636C3.03409 9.13636 2.49006 8.99716 2.03267 8.71875C1.57812 8.4375 1.22727 8.04545 0.980114 7.54261C0.735795 7.03693 0.613636 6.44886 0.613636 5.77841C0.613636 5.10795 0.735795 4.51705 0.980114 4.00568C1.22727 3.49148 1.57102 3.09091 2.01136 2.80398C2.45455 2.5142 2.97159 2.36932 3.5625 2.36932C3.90341 2.36932 4.24006 2.42614 4.57244 2.53977C4.90483 2.65341 5.20739 2.83807 5.48011 3.09375C5.75284 3.34659 5.97017 3.68182 6.1321 4.09943C6.29403 4.51705 6.375 5.03125 6.375 5.64205V6.06818H1.32955V5.19886H5.35227C5.35227 4.82955 5.27841 4.5 5.13068 4.21023C4.9858 3.92045 4.77841 3.69176 4.50852 3.52415C4.24148 3.35653 3.92614 3.27273 3.5625 3.27273C3.16193 3.27273 2.81534 3.37216 2.52273 3.57102C2.23295 3.76705 2.00994 4.02273 1.85369 4.33807C1.69744 4.65341 1.61932 4.99148 1.61932 5.35227V5.93182C1.61932 6.42614 1.70455 6.84517 1.875 7.18892C2.0483 7.52983 2.28835 7.78977 2.59517 7.96875C2.90199 8.14489 3.25852 8.23295 3.66477 8.23295C3.92898 8.23295 4.16761 8.19602 4.38068 8.12216C4.59659 8.04545 4.78267 7.93182 4.93892 7.78125C5.09517 7.62784 5.21591 7.4375 5.30114 7.21023L6.27273 7.48295C6.17045 7.8125 5.99858 8.10227 5.7571 8.35227C5.51563 8.59943 5.21733 8.79261 4.86222 8.93182C4.5071 9.06818 4.10795 9.13636 3.66477 9.13636ZM13.0579 2.45455L10.6374 9H9.6147L7.19425 2.45455H8.28516L10.092 7.67045H10.1602L11.967 2.45455H13.0579ZM16.8952 9.13636C16.2646 9.13636 15.7205 8.99716 15.2631 8.71875C14.8086 8.4375 14.4577 8.04545 14.2106 7.54261C13.9663 7.03693 13.8441 6.44886 13.8441 5.77841C13.8441 5.10795 13.9663 4.51705 14.2106 4.00568C14.4577 3.49148 14.8015 3.09091 15.2418 2.80398C15.685 2.5142 16.2021 2.36932 16.793 2.36932C17.1339 2.36932 17.4705 2.42614 17.8029 2.53977C18.1353 2.65341 18.4379 2.83807 18.7106 3.09375C18.9833 3.34659 19.2006 3.68182 19.3626 4.09943C19.5245 4.51705 19.6055 5.03125 19.6055 5.64205V6.06818H14.56V5.19886H18.5827C18.5827 4.82955 18.5089 4.5 18.3612 4.21023C18.2163 3.92045 18.0089 3.69176 17.739 3.52415C17.4719 3.35653 17.1566 3.27273 16.793 3.27273C16.3924 3.27273 16.0458 3.37216 15.7532 3.57102C15.4634 3.76705 15.2404 4.02273 15.0842 4.33807C14.9279 4.65341 14.8498 4.99148 14.8498 5.35227V5.93182C14.8498 6.42614 14.935 6.84517 15.1055 7.18892C15.2788 7.52983 15.5188 7.78977 15.8256 7.96875C16.1325 8.14489 16.489 8.23295 16.8952 8.23295C17.1594 8.23295 17.3981 8.19602 17.6112 8.12216C17.8271 8.04545 18.0131 7.93182 18.1694 7.78125C18.3256 7.62784 18.4464 7.4375 18.5316 7.21023L19.5032 7.48295C19.4009 7.8125 19.229 8.10227 18.9876 8.35227C18.7461 8.59943 18.4478 8.79261 18.0927 8.93182C17.7376 9.06818 17.3384 9.13636 16.8952 9.13636ZM22.141 5.0625V9H21.1353V2.45455H22.1069V3.47727H22.1921C22.3455 3.14489 22.5785 2.87784 22.891 2.67614C23.2035 2.47159 23.6069 2.36932 24.1012 2.36932C24.5444 2.36932 24.9322 2.46023 25.2646 2.64205C25.5969 2.82102 25.8555 3.09375 26.0401 3.46023C26.2248 3.82386 26.3171 4.28409 26.3171 4.84091V9H25.3114V4.90909C25.3114 4.39489 25.1779 3.99432 24.9109 3.70739C24.6438 3.41761 24.2773 3.27273 23.8114 3.27273C23.4904 3.27273 23.2035 3.34233 22.9506 3.48153C22.7006 3.62074 22.5032 3.82386 22.3583 4.09091C22.2134 4.35795 22.141 4.68182 22.141 5.0625ZM31.0014 2.45455V3.30682H27.6094V2.45455H31.0014ZM28.598 0.886364H29.6037V7.125C29.6037 7.40909 29.6449 7.62216 29.7273 7.7642C29.8125 7.90341 29.9205 7.99716 30.0511 8.04545C30.1847 8.09091 30.3253 8.11364 30.473 8.11364C30.5838 8.11364 30.6747 8.10795 30.7457 8.09659C30.8168 8.08239 30.8736 8.07102 30.9162 8.0625L31.1207 8.96591C31.0526 8.99148 30.9574 9.01705 30.8352 9.04261C30.7131 9.07102 30.5582 9.08523 30.3707 9.08523C30.0866 9.08523 29.8082 9.02415 29.5355 8.90199C29.2656 8.77983 29.0412 8.59375 28.8622 8.34375C28.6861 8.09375 28.598 7.77841 28.598 7.39773V0.886364Z" fill="black"/>
</svg>
