<svg width="51" height="23" viewBox="0 0 51 23" fill="none" xmlns="http://www.w3.org/2000/svg">
<path d="M0.917614 18V0.545454H3.55114V8.13068H12.2528V0.545454H14.8949V18H12.2528V10.3892H3.55114V18H0.917614ZM24.1676 18.2642C22.8778 18.2642 21.767 17.9886 20.8352 17.4375C19.9091 16.8807 19.1932 16.0994 18.6875 15.0938C18.1875 14.0824 17.9375 12.8977 17.9375 11.5398C17.9375 10.1989 18.1875 9.01705 18.6875 7.99432C19.1932 6.97159 19.8977 6.1733 20.8011 5.59943C21.7102 5.02557 22.7727 4.73864 23.9886 4.73864C24.7273 4.73864 25.4432 4.8608 26.1364 5.10511C26.8295 5.34943 27.4517 5.73295 28.0028 6.25568C28.554 6.77841 28.9886 7.45739 29.3068 8.29261C29.625 9.12216 29.7841 10.1307 29.7841 11.3182V12.2216H19.3778V10.3125H27.2869C27.2869 9.64205 27.1506 9.0483 26.8778 8.53125C26.6051 8.00852 26.2216 7.59659 25.7273 7.29545C25.2386 6.99432 24.6648 6.84375 24.0057 6.84375C23.2898 6.84375 22.6648 7.01989 22.1307 7.37216C21.6023 7.71875 21.1932 8.1733 20.9034 8.7358C20.6193 9.29261 20.4773 9.89773 20.4773 10.5511V12.0426C20.4773 12.9176 20.6307 13.6619 20.9375 14.2756C21.25 14.8892 21.6847 15.358 22.2415 15.6818C22.7983 16 23.4489 16.1591 24.1932 16.1591C24.6761 16.1591 25.1165 16.0909 25.5142 15.9545C25.9119 15.8125 26.2557 15.6023 26.5455 15.3239C26.8352 15.0455 27.0568 14.7017 27.2102 14.2926L29.6222 14.7273C29.429 15.4375 29.0824 16.0597 28.5824 16.5938C28.0881 17.1222 27.4659 17.5341 26.7159 17.8295C25.9716 18.1193 25.1222 18.2642 24.1676 18.2642ZM35.1598 0.545454V18H32.6115V0.545454H35.1598ZM38.5881 22.9091V4.90909H41.0767V7.03125H41.2898C41.4375 6.75852 41.6506 6.44318 41.929 6.08523C42.2074 5.72727 42.5938 5.41477 43.0881 5.14773C43.5824 4.875 44.2358 4.73864 45.0483 4.73864C46.1051 4.73864 47.0483 5.00568 47.8778 5.53977C48.7074 6.07386 49.358 6.84375 49.8295 7.84943C50.3068 8.85511 50.5455 10.0653 50.5455 11.4801C50.5455 12.8949 50.3097 14.108 49.8381 15.1193C49.3665 16.125 48.7188 16.9006 47.8949 17.446C47.071 17.9858 46.1307 18.2557 45.0739 18.2557C44.2784 18.2557 43.6278 18.1222 43.1222 17.8551C42.6222 17.5881 42.2301 17.2756 41.946 16.9176C41.6619 16.5597 41.4432 16.2415 41.2898 15.9631H41.1364V22.9091H38.5881ZM41.0852 11.4545C41.0852 12.375 41.2188 13.1818 41.4858 13.875C41.7528 14.5682 42.1392 15.1108 42.6449 15.5028C43.1506 15.8892 43.7699 16.0824 44.5028 16.0824C45.2642 16.0824 45.9006 15.8807 46.4119 15.4773C46.9233 15.0682 47.3097 14.5142 47.571 13.8153C47.8381 13.1165 47.9716 12.3295 47.9716 11.4545C47.9716 10.5909 47.8409 9.81534 47.5795 9.12784C47.3239 8.44034 46.9375 7.89773 46.4205 7.5C45.9091 7.10227 45.2699 6.90341 44.5028 6.90341C43.7642 6.90341 43.1392 7.09375 42.6278 7.47443C42.1222 7.85511 41.7386 8.38636 41.4773 9.06818C41.2159 9.75 41.0852 10.5455 41.0852 11.4545Z" fill="white"/>
</svg>
