<svg width="33" height="11" viewBox="0 0 33 11" fill="none" xmlns="http://www.w3.org/2000/svg">
<path d="M1.11364 1.27273V10H0.0568182V1.27273H1.11364ZM9.13033 10.1364C8.53942 10.1364 8.02095 9.99574 7.57493 9.71449C7.13175 9.43324 6.78516 9.03977 6.53516 8.53409C6.288 8.02841 6.16442 7.4375 6.16442 6.76136C6.16442 6.07955 6.288 5.48437 6.53516 4.97585C6.78516 4.46733 7.13175 4.07244 7.57493 3.79119C8.02095 3.50994 8.53942 3.36932 9.13033 3.36932C9.72124 3.36932 10.2383 3.50994 10.6815 3.79119C11.1275 4.07244 11.4741 4.46733 11.7212 4.97585C11.9712 5.48437 12.0962 6.07955 12.0962 6.76136C12.0962 7.4375 11.9712 8.02841 11.7212 8.53409C11.4741 9.03977 11.1275 9.43324 10.6815 9.71449C10.2383 9.99574 9.72124 10.1364 9.13033 10.1364ZM9.13033 9.23295C9.57919 9.23295 9.94851 9.1179 10.2383 8.88778C10.5281 8.65767 10.7425 8.35511 10.8817 7.98011C11.021 7.60511 11.0906 7.19886 11.0906 6.76136C11.0906 6.32386 11.021 5.91619 10.8817 5.53835C10.7425 5.16051 10.5281 4.85511 10.2383 4.62216C9.94851 4.3892 9.57919 4.27273 9.13033 4.27273C8.68146 4.27273 8.31214 4.3892 8.02237 4.62216C7.7326 4.85511 7.51811 5.16051 7.37891 5.53835C7.2397 5.91619 7.1701 6.32386 7.1701 6.76136C7.1701 7.19886 7.2397 7.60511 7.37891 7.98011C7.51811 8.35511 7.7326 8.65767 8.02237 8.88778C8.31214 9.1179 8.68146 9.23295 9.13033 9.23295ZM16.5462 3.45455V4.30682H13.0178V3.45455H16.5462ZM14.0746 10V2.55114C14.0746 2.17614 14.1626 1.86364 14.3388 1.61364C14.5149 1.36364 14.7436 1.17614 15.0249 1.05114C15.3061 0.926136 15.603 0.863636 15.9155 0.863636C16.1626 0.863636 16.3643 0.883522 16.5206 0.923295C16.6768 0.963068 16.7933 1 16.87 1.03409L16.5803 1.90341C16.5291 1.88636 16.4581 1.86506 16.3672 1.83949C16.2791 1.81392 16.1626 1.80114 16.0178 1.80114C15.6854 1.80114 15.4453 1.88494 15.2976 2.05256C15.1527 2.22017 15.0803 2.46591 15.0803 2.78977V10H14.0746ZM20.8704 3.45455V4.30682H17.342V3.45455H20.8704ZM18.3988 10V2.55114C18.3988 2.17614 18.4869 1.86364 18.663 1.61364C18.8391 1.36364 19.0678 1.17614 19.3491 1.05114C19.6303 0.926136 19.9272 0.863636 20.2397 0.863636C20.4869 0.863636 20.6886 0.883522 20.8448 0.923295C21.0011 0.963068 21.1175 1 21.1942 1.03409L20.9045 1.90341C20.8533 1.88636 20.7823 1.86506 20.6914 1.83949C20.6033 1.81392 20.4869 1.80114 20.342 1.80114C20.0096 1.80114 19.7695 1.88494 19.6218 2.05256C19.4769 2.22017 19.4045 2.46591 19.4045 2.78977V10H18.3988ZM24.7546 10.1364C24.1239 10.1364 23.5799 9.99716 23.1225 9.71875C22.668 9.4375 22.3171 9.04545 22.07 8.54261C21.8256 8.03693 21.7035 7.44886 21.7035 6.77841C21.7035 6.10795 21.8256 5.51705 22.07 5.00568C22.3171 4.49148 22.6609 4.09091 23.1012 3.80398C23.5444 3.5142 24.0614 3.36932 24.6523 3.36932C24.9933 3.36932 25.3299 3.42614 25.6623 3.53977C25.9947 3.65341 26.2972 3.83807 26.57 4.09375C26.8427 4.34659 27.06 4.68182 27.2219 5.09943C27.3839 5.51705 27.4648 6.03125 27.4648 6.64205V7.06818H22.4194V6.19886H26.4421C26.4421 5.82955 26.3683 5.5 26.2205 5.21023C26.0756 4.92045 25.8683 4.69176 25.5984 4.52415C25.3313 4.35653 25.016 4.27273 24.6523 4.27273C24.2518 4.27273 23.9052 4.37216 23.6126 4.57102C23.3228 4.76705 23.0998 5.02273 22.9435 5.33807C22.7873 5.65341 22.7092 5.99148 22.7092 6.35227V6.93182C22.7092 7.42614 22.7944 7.84517 22.9648 8.18892C23.1381 8.52983 23.3782 8.78977 23.685 8.96875C23.9918 9.14489 24.3484 9.23295 24.7546 9.23295C25.0188 9.23295 25.2575 9.19602 25.4705 9.12216C25.6864 9.04545 25.8725 8.93182 26.0288 8.78125C26.185 8.62784 26.3058 8.4375 26.391 8.21023L27.3626 8.48295C27.2603 8.8125 27.0884 9.10227 26.8469 9.35227C26.6055 9.59943 26.3072 9.79261 25.9521 9.93182C25.5969 10.0682 25.1978 10.1364 24.7546 10.1364ZM28.9947 10V3.45455H29.9663V4.44318H30.0344C30.1538 4.11932 30.3697 3.85653 30.6822 3.65483C30.9947 3.45312 31.3469 3.35227 31.739 3.35227C31.8129 3.35227 31.9052 3.35369 32.016 3.35653C32.1268 3.35937 32.2106 3.36364 32.2674 3.36932V4.39205C32.2333 4.38352 32.1552 4.37074 32.033 4.35369C31.9137 4.33381 31.7873 4.32386 31.6538 4.32386C31.3356 4.32386 31.0515 4.39062 30.8015 4.52415C30.5543 4.65483 30.3583 4.83665 30.2134 5.0696C30.0714 5.29972 30.0004 5.5625 30.0004 5.85795V10H28.9947Z" fill="black"/>
</svg>
