<svg width="650" height="459" viewBox="0 0 650 459" fill="none" xmlns="http://www.w3.org/2000/svg">
<path d="M0 21.9746C0 16.4518 4.47715 11.9746 10 11.9746H640C645.523 11.9746 650 16.4518 650 21.9746V459.001H0V21.9746Z" fill="#D9D9D9"/>
<path d="M36.4447 427.596V426.872L39.6407 421.815H40.1663V422.937H39.8112L37.3964 426.758V426.815H41.7004V427.596H36.4447ZM39.868 429.088V427.376V427.039V421.815H40.7061V429.088H39.868ZM46.6959 425.807V429.088H45.8579V421.815H46.6959V424.486H46.767C46.8948 424.204 47.0866 423.98 47.3422 423.814C47.6003 423.646 47.9436 423.562 48.3721 423.562C48.7438 423.562 49.0693 423.637 49.3486 423.786C49.628 423.933 49.8446 424.159 49.9985 424.464C50.1547 424.767 50.2329 425.153 50.2329 425.622V429.088H49.3948V425.679C49.3948 425.246 49.2823 424.911 49.0574 424.674C48.8349 424.435 48.526 424.315 48.1306 424.315C47.856 424.315 47.6098 424.373 47.392 424.489C47.1765 424.605 47.0061 424.774 46.8806 424.997C46.7575 425.22 46.6959 425.489 46.6959 425.807ZM53.982 429.202C53.4896 429.202 53.0575 429.084 52.6858 428.85C52.3165 428.616 52.0277 428.288 51.8193 427.866C51.6134 427.445 51.5104 426.952 51.5104 426.389C51.5104 425.821 51.6134 425.325 51.8193 424.901C52.0277 424.477 52.3165 424.148 52.6858 423.914C53.0575 423.68 53.4896 423.562 53.982 423.562C54.4744 423.562 54.9053 423.68 55.2746 423.914C55.6463 424.148 55.9351 424.477 56.1411 424.901C56.3494 425.325 56.4536 425.821 56.4536 426.389C56.4536 426.952 56.3494 427.445 56.1411 427.866C55.9351 428.288 55.6463 428.616 55.2746 428.85C54.9053 429.084 54.4744 429.202 53.982 429.202ZM53.982 428.449C54.356 428.449 54.6638 428.353 54.9053 428.161C55.1468 427.969 55.3255 427.717 55.4415 427.405C55.5575 427.092 55.6155 426.754 55.6155 426.389C55.6155 426.024 55.5575 425.685 55.4415 425.37C55.3255 425.055 55.1468 424.8 54.9053 424.606C54.6638 424.412 54.356 424.315 53.982 424.315C53.6079 424.315 53.3002 424.412 53.0587 424.606C52.8172 424.8 52.6385 425.055 52.5225 425.37C52.4065 425.685 52.3485 426.024 52.3485 426.389C52.3485 426.754 52.4065 427.092 52.5225 427.405C52.6385 427.717 52.8172 427.969 53.0587 428.161C53.3002 428.353 53.6079 428.449 53.982 428.449ZM61.1704 426.858V423.633H62.0084V429.088H61.1704V428.165H61.1135C60.9857 428.442 60.7868 428.677 60.517 428.871C60.2471 429.063 59.9062 429.159 59.4942 429.159C59.1533 429.159 58.8503 429.084 58.5851 428.935C58.32 428.784 58.1117 428.556 57.9601 428.253C57.8086 427.948 57.7329 427.563 57.7329 427.099V423.633H58.5709V427.042C58.5709 427.44 58.6822 427.757 58.9047 427.994C59.1296 428.231 59.4161 428.349 59.7641 428.349C59.9724 428.349 60.1843 428.296 60.3998 428.189C60.6176 428.083 60.7999 427.92 60.9466 427.699C61.0958 427.479 61.1704 427.199 61.1704 426.858ZM63.5434 429.088V423.633H64.3531V424.457H64.4099C64.5093 424.187 64.6892 423.968 64.9497 423.8C65.2101 423.632 65.5036 423.548 65.8303 423.548C65.8919 423.548 65.9688 423.549 66.0612 423.552C66.1535 423.554 66.2233 423.558 66.2707 423.562V424.415C66.2423 424.407 66.1772 424.397 66.0754 424.383C65.9759 424.366 65.8706 424.358 65.7593 424.358C65.4942 424.358 65.2574 424.413 65.0491 424.525C64.8431 424.634 64.6798 424.785 64.559 424.979C64.4407 425.171 64.3815 425.39 64.3815 425.636V429.088H63.5434ZM71.1278 424.855L70.3749 425.068C70.3276 424.943 70.2577 424.821 70.1654 424.702C70.0754 424.581 69.9523 424.482 69.7961 424.404C69.6398 424.326 69.4398 424.287 69.1959 424.287C68.8621 424.287 68.584 424.364 68.3614 424.518C68.1412 424.669 68.0312 424.862 68.0312 425.096C68.0312 425.305 68.1069 425.469 68.2584 425.59C68.4099 425.711 68.6467 425.811 68.9687 425.892L69.7783 426.091C70.266 426.209 70.6294 426.39 70.8685 426.634C71.1076 426.876 71.2272 427.187 71.2272 427.568C71.2272 427.881 71.1372 428.16 70.9573 428.406C70.7797 428.652 70.5312 428.846 70.2116 428.988C69.892 429.131 69.5203 429.202 69.0965 429.202C68.5402 429.202 68.0797 429.081 67.7151 428.839C67.3505 428.598 67.1197 428.245 67.0226 427.781L67.8181 427.582C67.8939 427.876 68.0371 428.096 68.2478 428.243C68.4608 428.39 68.739 428.463 69.0823 428.463C69.4729 428.463 69.7831 428.38 70.0127 428.214C70.2447 428.046 70.3607 427.845 70.3607 427.611C70.3607 427.421 70.2944 427.263 70.1618 427.135C70.0293 427.005 69.8257 426.907 69.551 426.844L68.642 426.631C68.1424 426.512 67.7755 426.329 67.5411 426.08C67.3091 425.829 67.1931 425.515 67.1931 425.139C67.1931 424.831 67.2795 424.559 67.4523 424.322C67.6275 424.086 67.8654 423.9 68.1661 423.765C68.4691 423.63 68.8124 423.562 69.1959 423.562C69.7357 423.562 70.1595 423.681 70.4672 423.917C70.7774 424.154 70.9975 424.467 71.1278 424.855ZM76.9063 429.216C76.5607 429.216 76.247 429.151 75.9653 429.02C75.6836 428.888 75.4598 428.697 75.2941 428.449C75.1284 428.198 75.0455 427.895 75.0455 427.54C75.0455 427.227 75.1071 426.974 75.2302 426.78C75.3533 426.583 75.5178 426.429 75.7238 426.318C75.9298 426.207 76.157 426.124 76.4056 426.069C76.6566 426.013 76.9087 425.968 77.162 425.934C77.4935 425.892 77.7622 425.86 77.9681 425.839C78.1765 425.815 78.328 425.776 78.4227 425.721C78.5197 425.667 78.5683 425.572 78.5683 425.437V425.409C78.5683 425.059 78.4724 424.786 78.2806 424.592C78.0912 424.398 77.8036 424.301 77.4177 424.301C77.0176 424.301 76.7039 424.389 76.4767 424.564C76.2494 424.739 76.0896 424.926 75.9972 425.125L75.2018 424.841C75.3438 424.509 75.5332 424.251 75.77 424.067C76.0091 423.88 76.2695 423.749 76.5512 423.676C76.8353 423.6 77.1147 423.562 77.3893 423.562C77.5645 423.562 77.7657 423.584 77.993 423.626C78.2226 423.666 78.444 423.751 78.657 423.878C78.8725 424.006 79.0512 424.199 79.1933 424.457C79.3353 424.715 79.4063 425.061 79.4063 425.494V429.088H78.5683V428.349H78.5257C78.4688 428.468 78.3741 428.594 78.2416 428.729C78.109 428.864 77.9326 428.979 77.7124 429.074C77.4923 429.168 77.2236 429.216 76.9063 429.216ZM77.0342 428.463C77.3656 428.463 77.645 428.398 77.8722 428.268C78.1019 428.137 78.2747 427.969 78.3907 427.763C78.5091 427.557 78.5683 427.341 78.5683 427.113V426.346C78.5328 426.389 78.4546 426.428 78.3339 426.464C78.2155 426.497 78.0782 426.526 77.922 426.552C77.7681 426.576 77.6177 426.597 77.471 426.616C77.3266 426.633 77.2094 426.647 77.1194 426.659C76.9016 426.687 76.698 426.733 76.5086 426.797C76.3216 426.859 76.1701 426.952 76.0541 427.078C75.9404 427.201 75.8836 427.369 75.8836 427.582C75.8836 427.873 75.9913 428.094 76.2068 428.243C76.4246 428.39 76.7004 428.463 77.0342 428.463ZM83.1377 431.247C82.7329 431.247 82.3849 431.195 82.0937 431.091C81.8025 430.989 81.5598 430.854 81.3657 430.686C81.1739 430.52 81.0212 430.343 80.9076 430.153L81.5752 429.684C81.651 429.784 81.7468 429.898 81.8628 430.025C81.9788 430.156 82.1375 430.268 82.3387 430.363C82.5423 430.46 82.8086 430.508 83.1377 430.508C83.578 430.508 83.9414 430.402 84.2279 430.189C84.5144 429.976 84.6576 429.642 84.6576 429.187V428.079H84.5866C84.525 428.179 84.4374 428.302 84.3238 428.449C84.2125 428.593 84.0515 428.722 83.8408 428.836C83.6325 428.947 83.3508 429.003 82.9956 429.003C82.5553 429.003 82.1599 428.898 81.8096 428.69C81.4616 428.482 81.1858 428.179 80.9822 427.781C80.7809 427.383 80.6803 426.9 80.6803 426.332C80.6803 425.773 80.7786 425.287 80.9751 424.873C81.1715 424.456 81.445 424.134 81.7954 423.907C82.1457 423.677 82.5506 423.562 83.0099 423.562C83.365 423.562 83.6467 423.622 83.855 423.74C84.0657 423.856 84.2267 423.988 84.338 424.138C84.4516 424.284 84.5392 424.405 84.6008 424.5H84.686V423.633H85.4957V429.244C85.4957 429.713 85.3891 430.094 85.176 430.388C84.9653 430.684 84.6813 430.9 84.3238 431.037C83.9687 431.177 83.5733 431.247 83.1377 431.247ZM83.1093 428.25C83.4455 428.25 83.7296 428.173 83.9616 428.019C84.1936 427.865 84.3699 427.644 84.4907 427.355C84.6114 427.066 84.6718 426.72 84.6718 426.318C84.6718 425.925 84.6126 425.578 84.4942 425.278C84.3759 424.977 84.2007 424.741 83.9687 424.571C83.7367 424.4 83.4502 424.315 83.1093 424.315C82.7542 424.315 82.4582 424.405 82.2215 424.585C81.9871 424.765 81.8108 425.006 81.6924 425.309C81.5764 425.613 81.5184 425.949 81.5184 426.318C81.5184 426.697 81.5776 427.032 81.6959 427.323C81.8167 427.612 81.9942 427.839 82.2286 428.005C82.4653 428.168 82.7589 428.25 83.1093 428.25ZM89.2456 429.202C88.7532 429.202 88.3212 429.084 87.9495 428.85C87.5802 428.616 87.2913 428.288 87.083 427.866C86.877 427.445 86.7741 426.952 86.7741 426.389C86.7741 425.821 86.877 425.325 87.083 424.901C87.2913 424.477 87.5802 424.148 87.9495 423.914C88.3212 423.68 88.7532 423.562 89.2456 423.562C89.7381 423.562 90.1689 423.68 90.5383 423.914C90.9099 424.148 91.1988 424.477 91.4047 424.901C91.6131 425.325 91.7172 425.821 91.7172 426.389C91.7172 426.952 91.6131 427.445 91.4047 427.866C91.1988 428.288 90.9099 428.616 90.5383 428.85C90.1689 429.084 89.7381 429.202 89.2456 429.202ZM89.2456 428.449C89.6197 428.449 89.9275 428.353 90.1689 428.161C90.4104 427.969 90.5892 427.717 90.7052 427.405C90.8212 427.092 90.8792 426.754 90.8792 426.389C90.8792 426.024 90.8212 425.685 90.7052 425.37C90.5892 425.055 90.4104 424.8 90.1689 424.606C89.9275 424.412 89.6197 424.315 89.2456 424.315C88.8716 424.315 88.5638 424.412 88.3224 424.606C88.0809 424.8 87.9021 425.055 87.7861 425.37C87.6701 425.685 87.6121 426.024 87.6121 426.389C87.6121 426.754 87.6701 427.092 87.7861 427.405C87.9021 427.717 88.0809 427.969 88.3224 428.161C88.5638 428.353 88.8716 428.449 89.2456 428.449Z" fill="#A8A8A8"/>
<path d="M33.1474 373.217H31.7624L35.7681 362.308H37.1317L41.1374 373.217H39.7525L36.4925 364.034H36.4073L33.1474 373.217ZM33.6587 368.955H39.2411V370.127H33.6587V368.955ZM43.9233 362.308V373.217H42.6662V362.308H43.9233ZM49.5496 373.387C48.811 373.387 48.1629 373.211 47.6054 372.86C47.0514 372.508 46.6182 372.017 46.3057 371.384C45.9967 370.752 45.8422 370.014 45.8422 369.169C45.8422 368.316 45.9967 367.572 46.3057 366.937C46.6182 366.301 47.0514 365.807 47.6054 365.456C48.1629 365.104 48.811 364.928 49.5496 364.928C50.2883 364.928 50.9346 365.104 51.4885 365.456C52.0461 365.807 52.4793 366.301 52.7883 366.937C53.1008 367.572 53.257 368.316 53.257 369.169C53.257 370.014 53.1008 370.752 52.7883 371.384C52.4793 372.017 52.0461 372.508 51.4885 372.86C50.9346 373.211 50.2883 373.387 49.5496 373.387ZM49.5496 372.258C50.1107 372.258 50.5724 372.114 50.9346 371.827C51.2968 371.539 51.5649 371.161 51.7389 370.692C51.9129 370.223 51.9999 369.715 51.9999 369.169C51.9999 368.622 51.9129 368.112 51.7389 367.64C51.5649 367.167 51.2968 366.786 50.9346 366.494C50.5724 366.203 50.1107 366.058 49.5496 366.058C48.9885 366.058 48.5269 366.203 48.1647 366.494C47.8025 366.786 47.5344 367.167 47.3604 367.64C47.1863 368.112 47.0993 368.622 47.0993 369.169C47.0993 369.715 47.1863 370.223 47.3604 370.692C47.5344 371.161 47.8025 371.539 48.1647 371.827C48.5269 372.114 48.9885 372.258 49.5496 372.258ZM58.6064 373.387C57.818 373.387 57.138 373.213 56.5662 372.865C55.998 372.514 55.5595 372.024 55.2505 371.395C54.9451 370.763 54.7924 370.028 54.7924 369.19C54.7924 368.352 54.9451 367.613 55.2505 366.974C55.5595 366.331 55.9892 365.83 56.5396 365.472C57.0936 365.11 57.7399 364.928 58.4785 364.928C58.9047 364.928 59.3255 364.999 59.7409 365.142C60.1564 365.284 60.5346 365.514 60.8755 365.834C61.2164 366.15 61.4881 366.569 61.6905 367.091C61.8929 367.613 61.9941 368.256 61.9941 369.019V369.552H55.6873V368.465H60.7157C60.7157 368.004 60.6234 367.592 60.4387 367.23C60.2576 366.867 59.9984 366.581 59.661 366.372C59.3272 366.162 58.9331 366.058 58.4785 366.058C57.9778 366.058 57.5446 366.182 57.1788 366.431C56.8166 366.676 56.5378 366.995 56.3425 367.389C56.1472 367.784 56.0495 368.206 56.0495 368.657V369.382C56.0495 369.999 56.1561 370.523 56.3691 370.953C56.5858 371.379 56.8858 371.704 57.2694 371.928C57.6529 372.148 58.0985 372.258 58.6064 372.258C58.9366 372.258 59.2349 372.212 59.5012 372.119C59.7711 372.024 60.0037 371.882 60.199 371.693C60.3944 371.502 60.5453 371.264 60.6518 370.98L61.8663 371.32C61.7385 371.732 61.5236 372.095 61.2218 372.407C60.9199 372.716 60.5471 372.958 60.1032 373.132C59.6593 373.302 59.1603 373.387 58.6064 373.387ZM68.7431 362.308L71.9817 371.491H72.1096L75.3482 362.308H76.7331L72.7275 373.217H71.3638L67.3581 362.308H68.7431ZM80.9306 373.387C80.1422 373.387 79.4622 373.213 78.8904 372.865C78.3223 372.514 77.8837 372.024 77.5748 371.395C77.2694 370.763 77.1167 370.028 77.1167 369.19C77.1167 368.352 77.2694 367.613 77.5748 366.974C77.8837 366.331 78.3134 365.83 78.8638 365.472C79.4178 365.11 80.0641 364.928 80.8027 364.928C81.2289 364.928 81.6497 364.999 82.0652 365.142C82.4806 365.284 82.8588 365.514 83.1998 365.834C83.5407 366.15 83.8123 366.569 84.0147 367.091C84.2172 367.613 84.3184 368.256 84.3184 369.019V369.552H78.0115V368.465H83.04C83.04 368.004 82.9476 367.592 82.763 367.23C82.5819 366.867 82.3226 366.581 81.9853 366.372C81.6515 366.162 81.2573 366.058 80.8027 366.058C80.302 366.058 79.8688 366.182 79.503 366.431C79.1408 366.676 78.862 366.995 78.6667 367.389C78.4714 367.784 78.3738 368.206 78.3738 368.657V369.382C78.3738 369.999 78.4803 370.523 78.6934 370.953C78.91 371.379 79.21 371.704 79.5936 371.928C79.9771 372.148 80.4228 372.258 80.9306 372.258C81.2608 372.258 81.5591 372.212 81.8255 372.119C82.0953 372.024 82.3279 371.882 82.5233 371.693C82.7186 371.502 82.8695 371.264 82.976 370.98L84.1905 371.32C84.0627 371.732 83.8478 372.095 83.546 372.407C83.2441 372.716 82.8713 372.958 82.4274 373.132C81.9835 373.302 81.4846 373.387 80.9306 373.387ZM86.2306 373.217V365.035H87.4451V366.271H87.5304C87.6795 365.866 87.9494 365.537 88.34 365.285C88.7306 365.033 89.171 364.907 89.661 364.907C89.7534 364.907 89.8688 364.909 90.0073 364.912C90.1458 364.916 90.2505 364.921 90.3216 364.928V366.207C90.2789 366.196 90.1813 366.18 90.0286 366.159C89.8794 366.134 89.7214 366.122 89.5545 366.122C89.1568 366.122 88.8017 366.205 88.4892 366.372C88.1802 366.535 87.9352 366.763 87.7541 367.054C87.5765 367.341 87.4877 367.67 87.4877 368.039V373.217H86.2306ZM94.2194 373.409C93.7009 373.409 93.2304 373.311 92.8078 373.116C92.3852 372.917 92.0496 372.631 91.801 372.258C91.5525 371.882 91.4282 371.427 91.4282 370.894C91.4282 370.426 91.5205 370.046 91.7052 369.754C91.8898 369.46 92.1366 369.229 92.4456 369.062C92.7545 368.895 93.0954 368.771 93.4683 368.689C93.8447 368.604 94.2229 368.536 94.6029 368.487C95.1001 368.423 95.5031 368.375 95.8121 368.343C96.1246 368.307 96.3518 368.249 96.4939 368.167C96.6395 368.085 96.7123 367.943 96.7123 367.741V367.698C96.7123 367.173 96.5684 366.764 96.2808 366.473C95.9967 366.182 95.5653 366.036 94.9864 366.036C94.3863 366.036 93.9157 366.168 93.5748 366.431C93.2339 366.693 92.9942 366.974 92.8557 367.272L91.6626 366.846C91.8756 366.349 92.1597 365.962 92.5148 365.685C92.8735 365.404 93.2641 365.209 93.6867 365.099C94.1128 364.985 94.5319 364.928 94.9438 364.928C95.2066 364.928 95.5084 364.96 95.8493 365.024C96.1938 365.085 96.5258 365.211 96.8454 365.403C97.1686 365.594 97.4367 365.884 97.6498 366.271C97.8628 366.658 97.9694 367.176 97.9694 367.826V373.217H96.7123V372.109H96.6483C96.5631 372.286 96.4211 372.476 96.2222 372.679C96.0233 372.881 95.7588 373.053 95.4285 373.195C95.0983 373.338 94.6952 373.409 94.2194 373.409ZM94.4111 372.279C94.9083 372.279 95.3273 372.182 95.6682 371.986C96.0127 371.791 96.2719 371.539 96.4459 371.23C96.6235 370.921 96.7123 370.596 96.7123 370.255V369.105C96.659 369.169 96.5418 369.227 96.3607 369.28C96.1831 369.33 95.9772 369.374 95.7428 369.414C95.512 369.449 95.2865 369.481 95.0663 369.509C94.8497 369.534 94.6739 369.556 94.539 369.573C94.2123 369.616 93.9069 369.685 93.6228 369.781C93.3422 369.873 93.115 370.014 92.941 370.202C92.7705 370.387 92.6853 370.639 92.6853 370.958C92.6853 371.395 92.8469 371.725 93.17 371.949C93.4967 372.169 93.9104 372.279 94.4111 372.279ZM108.041 365.035V366.1H103.801V365.035H108.041ZM105.037 363.075H106.294V370.873C106.294 371.228 106.345 371.494 106.448 371.672C106.555 371.846 106.69 371.963 106.853 372.024C107.02 372.08 107.196 372.109 107.38 372.109C107.519 372.109 107.632 372.102 107.721 372.088C107.81 372.07 107.881 372.056 107.934 372.045L108.19 373.174C108.105 373.206 107.986 373.238 107.833 373.27C107.68 373.306 107.487 373.323 107.252 373.323C106.897 373.323 106.549 373.247 106.208 373.094C105.871 372.942 105.591 372.709 105.367 372.396C105.147 372.084 105.037 371.69 105.037 371.214V363.075ZM113.168 373.387C112.429 373.387 111.781 373.211 111.224 372.86C110.67 372.508 110.236 372.017 109.924 371.384C109.615 370.752 109.46 370.014 109.46 369.169C109.46 368.316 109.615 367.572 109.924 366.937C110.236 366.301 110.67 365.807 111.224 365.456C111.781 365.104 112.429 364.928 113.168 364.928C113.906 364.928 114.553 365.104 115.107 365.456C115.664 365.807 116.097 366.301 116.406 366.937C116.719 367.572 116.875 368.316 116.875 369.169C116.875 370.014 116.719 370.752 116.406 371.384C116.097 372.017 115.664 372.508 115.107 372.86C114.553 373.211 113.906 373.387 113.168 373.387ZM113.168 372.258C113.729 372.258 114.191 372.114 114.553 371.827C114.915 371.539 115.183 371.161 115.357 370.692C115.531 370.223 115.618 369.715 115.618 369.169C115.618 368.622 115.531 368.112 115.357 367.64C115.183 367.167 114.915 366.786 114.553 366.494C114.191 366.203 113.729 366.058 113.168 366.058C112.607 366.058 112.145 366.203 111.783 366.494C111.421 366.786 111.153 367.167 110.979 367.64C110.805 368.112 110.718 368.622 110.718 369.169C110.718 369.715 110.805 370.223 110.979 370.692C111.153 371.161 111.421 371.539 111.783 371.827C112.145 372.114 112.607 372.258 113.168 372.258ZM126.315 376.455C125.708 376.455 125.186 376.377 124.749 376.221C124.313 376.068 123.949 375.866 123.657 375.614C123.37 375.365 123.141 375.099 122.97 374.815L123.972 374.112C124.085 374.261 124.229 374.431 124.403 374.623C124.577 374.818 124.815 374.987 125.117 375.129C125.422 375.275 125.822 375.347 126.315 375.347C126.976 375.347 127.521 375.188 127.951 374.868C128.38 374.548 128.595 374.048 128.595 373.366V371.704H128.489C128.396 371.853 128.265 372.038 128.095 372.258C127.928 372.475 127.686 372.668 127.37 372.839C127.058 373.006 126.635 373.089 126.102 373.089C125.442 373.089 124.849 372.933 124.323 372.62C123.801 372.308 123.388 371.853 123.082 371.257C122.78 370.66 122.629 369.936 122.629 369.083C122.629 368.245 122.777 367.515 123.071 366.894C123.366 366.269 123.776 365.786 124.302 365.445C124.828 365.101 125.435 364.928 126.124 364.928C126.656 364.928 127.079 365.017 127.391 365.195C127.707 365.369 127.949 365.568 128.116 365.791C128.286 366.012 128.418 366.193 128.51 366.335H128.638V365.035H129.852V373.451C129.852 374.154 129.693 374.726 129.373 375.166C129.057 375.61 128.631 375.935 128.095 376.141C127.562 376.351 126.969 376.455 126.315 376.455ZM126.273 371.96C126.777 371.96 127.203 371.844 127.551 371.613C127.899 371.383 128.164 371.051 128.345 370.617C128.526 370.184 128.617 369.666 128.617 369.062C128.617 368.472 128.528 367.952 128.35 367.501C128.173 367.05 127.91 366.697 127.562 366.441C127.214 366.186 126.784 366.058 126.273 366.058C125.74 366.058 125.296 366.193 124.941 366.463C124.59 366.732 124.325 367.095 124.147 367.549C123.973 368.004 123.886 368.508 123.886 369.062C123.886 369.63 123.975 370.133 124.153 370.569C124.334 371.003 124.6 371.344 124.952 371.592C125.307 371.837 125.747 371.96 126.273 371.96ZM132.153 373.217V365.035H133.411V373.217H132.153ZM132.793 363.671C132.548 363.671 132.336 363.588 132.159 363.421C131.985 363.254 131.898 363.053 131.898 362.819C131.898 362.585 131.985 362.384 132.159 362.217C132.336 362.05 132.548 361.967 132.793 361.967C133.038 361.967 133.247 362.05 133.421 362.217C133.599 362.384 133.688 362.585 133.688 362.819C133.688 363.053 133.599 363.254 133.421 363.421C133.247 363.588 133.038 363.671 132.793 363.671ZM142.403 365.035L139.378 373.217H138.099L135.074 365.035H136.438L138.696 371.555H138.781L141.04 365.035H142.403ZM147.2 373.387C146.412 373.387 145.732 373.213 145.16 372.865C144.592 372.514 144.153 372.024 143.844 371.395C143.539 370.763 143.386 370.028 143.386 369.19C143.386 368.352 143.539 367.613 143.844 366.974C144.153 366.331 144.583 365.83 145.133 365.472C145.687 365.11 146.334 364.928 147.072 364.928C147.498 364.928 147.919 364.999 148.335 365.142C148.75 365.284 149.128 365.514 149.469 365.834C149.81 366.15 150.082 366.569 150.284 367.091C150.487 367.613 150.588 368.256 150.588 369.019V369.552H144.281V368.465H149.309C149.309 368.004 149.217 367.592 149.032 367.23C148.851 366.867 148.592 366.581 148.255 366.372C147.921 366.162 147.527 366.058 147.072 366.058C146.572 366.058 146.138 366.182 145.773 366.431C145.41 366.676 145.132 366.995 144.936 367.389C144.741 367.784 144.643 368.206 144.643 368.657V369.382C144.643 369.999 144.75 370.523 144.963 370.953C145.18 371.379 145.48 371.704 145.863 371.928C146.247 372.148 146.692 372.258 147.2 372.258C147.53 372.258 147.829 372.212 148.095 372.119C148.365 372.024 148.597 371.882 148.793 371.693C148.988 371.502 149.139 371.264 149.246 370.98L150.46 371.32C150.332 371.732 150.117 372.095 149.816 372.407C149.514 372.716 149.141 372.958 148.697 373.132C148.253 373.302 147.754 373.387 147.2 373.387ZM159.127 373.409C158.608 373.409 158.138 373.311 157.715 373.116C157.292 372.917 156.957 372.631 156.708 372.258C156.46 371.882 156.335 371.427 156.335 370.894C156.335 370.426 156.428 370.046 156.612 369.754C156.797 369.46 157.044 369.229 157.353 369.062C157.662 368.895 158.003 368.771 158.376 368.689C158.752 368.604 159.13 368.536 159.51 368.487C160.007 368.423 160.41 368.375 160.719 368.343C161.032 368.307 161.259 368.249 161.401 368.167C161.547 368.085 161.619 367.943 161.619 367.741V367.698C161.619 367.173 161.476 366.764 161.188 366.473C160.904 366.182 160.472 366.036 159.894 366.036C159.294 366.036 158.823 366.168 158.482 366.431C158.141 366.693 157.901 366.974 157.763 367.272L156.57 366.846C156.783 366.349 157.067 365.962 157.422 365.685C157.781 365.404 158.171 365.209 158.594 365.099C159.02 364.985 159.439 364.928 159.851 364.928C160.114 364.928 160.416 364.96 160.757 365.024C161.101 365.085 161.433 365.211 161.753 365.403C162.076 365.594 162.344 365.884 162.557 366.271C162.77 366.658 162.877 367.176 162.877 367.826V373.217H161.619V372.109H161.556C161.47 372.286 161.328 372.476 161.129 372.679C160.931 372.881 160.666 373.053 160.336 373.195C160.006 373.338 159.602 373.409 159.127 373.409ZM159.318 372.279C159.816 372.279 160.235 372.182 160.575 371.986C160.92 371.791 161.179 371.539 161.353 371.23C161.531 370.921 161.619 370.596 161.619 370.255V369.105C161.566 369.169 161.449 369.227 161.268 369.28C161.09 369.33 160.884 369.374 160.65 369.414C160.419 369.449 160.194 369.481 159.974 369.509C159.757 369.534 159.581 369.556 159.446 369.573C159.119 369.616 158.814 369.685 158.53 369.781C158.249 369.873 158.022 370.014 157.848 370.202C157.678 370.387 157.593 370.639 157.593 370.958C157.593 371.395 157.754 371.725 158.077 371.949C158.404 372.169 158.818 372.279 159.318 372.279ZM167.025 373.217L164.532 365.035H165.853L167.621 371.299H167.707L169.454 365.035H170.796L172.522 371.278H172.607L174.376 365.035H175.697L173.204 373.217H171.968L170.178 366.931H170.05L168.261 373.217H167.025ZM179.766 373.409C179.248 373.409 178.777 373.311 178.355 373.116C177.932 372.917 177.597 372.631 177.348 372.258C177.099 371.882 176.975 371.427 176.975 370.894C176.975 370.426 177.067 370.046 177.252 369.754C177.437 369.46 177.684 369.229 177.992 369.062C178.301 368.895 178.642 368.771 179.015 368.689C179.392 368.604 179.77 368.536 180.15 368.487C180.647 368.423 181.05 368.375 181.359 368.343C181.671 368.307 181.899 368.249 182.041 368.167C182.186 368.085 182.259 367.943 182.259 367.741V367.698C182.259 367.173 182.115 366.764 181.828 366.473C181.544 366.182 181.112 366.036 180.533 366.036C179.933 366.036 179.463 366.168 179.122 366.431C178.781 366.693 178.541 366.974 178.403 367.272L177.209 366.846C177.422 366.349 177.707 365.962 178.062 365.685C178.42 365.404 178.811 365.209 179.234 365.099C179.66 364.985 180.079 364.928 180.491 364.928C180.753 364.928 181.055 364.96 181.396 365.024C181.741 365.085 182.073 365.211 182.392 365.403C182.715 365.594 182.984 365.884 183.197 366.271C183.41 366.658 183.516 367.176 183.516 367.826V373.217H182.259V372.109H182.195C182.11 372.286 181.968 372.476 181.769 372.679C181.57 372.881 181.306 373.053 180.975 373.195C180.645 373.338 180.242 373.409 179.766 373.409ZM179.958 372.279C180.455 372.279 180.874 372.182 181.215 371.986C181.56 371.791 181.819 371.539 181.993 371.23C182.17 370.921 182.259 370.596 182.259 370.255V369.105C182.206 369.169 182.089 369.227 181.908 369.28C181.73 369.33 181.524 369.374 181.29 369.414C181.059 369.449 180.833 369.481 180.613 369.509C180.397 369.534 180.221 369.556 180.086 369.573C179.759 369.616 179.454 369.685 179.17 369.781C178.889 369.873 178.662 370.014 178.488 370.202C178.317 370.387 178.232 370.639 178.232 370.958C178.232 371.395 178.394 371.725 178.717 371.949C179.044 372.169 179.457 372.279 179.958 372.279ZM186.327 376.285C186.114 376.285 185.924 376.267 185.757 376.232C185.591 376.2 185.475 376.168 185.411 376.136L185.731 375.028C186.036 375.106 186.306 375.134 186.54 375.113C186.775 375.092 186.983 374.987 187.164 374.799C187.348 374.614 187.517 374.314 187.67 373.899L187.904 373.259L184.879 365.035H186.242L188.501 371.555H188.586L190.844 365.035H192.208L188.735 374.41C188.579 374.833 188.385 375.182 188.154 375.459C187.924 375.74 187.656 375.948 187.35 376.083C187.048 376.218 186.707 376.285 186.327 376.285Z" fill="black"/>
<path d="M0 0H650V29.9348H0V0Z" fill="#A8A8A8"/>
<rect x="31.3789" y="57.873" width="587.241" height="273.404" fill="#F5F5F5"/>
<line x1="1.18606e-07" y1="412.6" x2="645.517" y2="412.6" stroke="#F5F5F5"/>
<path d="M613.764 436.69V428.918C613.764 426.118 613.764 424.718 613.219 423.648C612.74 422.707 611.975 421.942 611.034 421.463C609.965 420.918 608.564 420.918 605.764 420.918H602.339C599.539 420.918 598.138 420.918 597.069 421.463C596.128 421.942 595.363 422.707 594.884 423.648C594.339 424.718 594.339 426.118 594.339 428.918V436.69C594.339 437.527 594.339 437.946 594.515 438.203C594.67 438.426 594.908 438.578 595.176 438.622C595.483 438.673 595.862 438.494 596.62 438.137L602.007 435.601C602.758 435.247 603.134 435.07 603.526 435C603.874 434.939 604.229 434.939 604.577 435C604.969 435.07 605.345 435.247 606.096 435.601L611.483 438.137L611.483 438.137C612.241 438.494 612.62 438.673 612.927 438.622C613.195 438.578 613.433 438.426 613.588 438.203C613.764 437.946 613.764 437.527 613.764 436.69Z" stroke="#676767" stroke-width="1.5" stroke-linecap="round" stroke-linejoin="round"/>
</svg>
