<svg width="51" height="10" viewBox="0 0 51 10" fill="none" xmlns="http://www.w3.org/2000/svg">
<path d="M0.920455 7V0.454545H1.89205V1.47727H1.97727C2.11364 1.12784 2.33381 0.856534 2.63778 0.663352C2.94176 0.46733 3.30682 0.369318 3.73295 0.369318C4.16477 0.369318 4.52415 0.46733 4.81108 0.663352C5.10085 0.856534 5.3267 1.12784 5.48864 1.47727H5.55682C5.72443 1.1392 5.97585 0.870739 6.31108 0.671875C6.64631 0.47017 7.0483 0.369318 7.51705 0.369318C8.10227 0.369318 8.58097 0.552557 8.95312 0.919034C9.32528 1.28267 9.51136 1.84943 9.51136 2.61932V7H8.50568V2.61932C8.50568 2.13636 8.37358 1.79119 8.10938 1.58381C7.84517 1.37642 7.53409 1.27273 7.17614 1.27273C6.71591 1.27273 6.35938 1.41193 6.10653 1.69034C5.85369 1.96591 5.72727 2.31534 5.72727 2.73864V7H4.70455V2.51705C4.70455 2.14489 4.58381 1.84517 4.34233 1.6179C4.10085 1.38778 3.78977 1.27273 3.40909 1.27273C3.14773 1.27273 2.90341 1.34233 2.67614 1.48153C2.4517 1.62074 2.26989 1.81392 2.13068 2.06108C1.99432 2.3054 1.92614 2.58807 1.92614 2.90909V7H0.920455ZM14.0945 7.13636C13.4638 7.13636 12.9197 6.99716 12.4624 6.71875C12.0078 6.4375 11.657 6.04545 11.4098 5.54261C11.1655 5.03693 11.0433 4.44886 11.0433 3.77841C11.0433 3.10795 11.1655 2.51705 11.4098 2.00568C11.657 1.49148 12.0007 1.09091 12.4411 0.803977C12.8842 0.514205 13.4013 0.369318 13.9922 0.369318C14.3331 0.369318 14.6697 0.426136 15.0021 0.539772C15.3345 0.653409 15.6371 0.838068 15.9098 1.09375C16.1825 1.34659 16.3999 1.68182 16.5618 2.09943C16.7237 2.51705 16.8047 3.03125 16.8047 3.64205V4.06818H11.7592V3.19886H15.782C15.782 2.82955 15.7081 2.5 15.5604 2.21023C15.4155 1.92045 15.2081 1.69176 14.9382 1.52415C14.6712 1.35653 14.3558 1.27273 13.9922 1.27273C13.5916 1.27273 13.245 1.37216 12.9524 1.57102C12.6626 1.76705 12.4396 2.02273 12.2834 2.33807C12.1271 2.65341 12.049 2.99148 12.049 3.35227V3.93182C12.049 4.42614 12.1342 4.84517 12.3047 5.18892C12.478 5.52983 12.718 5.78977 13.0249 5.96875C13.3317 6.14489 13.6882 6.23295 14.0945 6.23295C14.3587 6.23295 14.5973 6.19602 14.8104 6.12216C15.0263 6.04545 15.2124 5.93182 15.3686 5.78125C15.5249 5.62784 15.6456 5.4375 15.7308 5.21023L16.7024 5.48295C16.6001 5.8125 16.4283 6.10227 16.1868 6.35227C15.9453 6.59943 15.647 6.79261 15.2919 6.93182C14.9368 7.06818 14.5376 7.13636 14.0945 7.13636ZM22.9709 1.92045L22.0675 2.17614C22.0107 2.02557 21.9268 1.87926 21.8161 1.73722C21.7081 1.59233 21.5604 1.47301 21.3729 1.37926C21.1854 1.28551 20.9453 1.23864 20.6527 1.23864C20.2521 1.23864 19.9183 1.33097 19.6513 1.51562C19.3871 1.69744 19.255 1.92898 19.255 2.21023C19.255 2.46023 19.3459 2.65767 19.5277 2.80256C19.7095 2.94744 19.9936 3.06818 20.38 3.16477L21.3516 3.40341C21.9368 3.54545 22.3729 3.76278 22.6598 4.0554C22.9467 4.34517 23.0902 4.71875 23.0902 5.17614C23.0902 5.55114 22.9822 5.88636 22.7663 6.18182C22.5533 6.47727 22.255 6.71023 21.8714 6.88068C21.4879 7.05114 21.0419 7.13636 20.5334 7.13636C19.8658 7.13636 19.3132 6.99148 18.8757 6.7017C18.4382 6.41193 18.1612 5.98864 18.0447 5.43182L18.9993 5.19318C19.0902 5.54545 19.2621 5.80966 19.5149 5.9858C19.7706 6.16193 20.1044 6.25 20.5163 6.25C20.9851 6.25 21.3572 6.15057 21.6328 5.9517C21.9112 5.75 22.0504 5.50852 22.0504 5.22727C22.0504 5 21.9709 4.80966 21.8118 4.65625C21.6527 4.5 21.4084 4.38352 21.0788 4.30682L19.9879 4.05114C19.3885 3.90909 18.9482 3.68892 18.6669 3.39062C18.3885 3.08949 18.2493 2.71307 18.2493 2.26136C18.2493 1.89205 18.353 1.56534 18.5604 1.28125C18.7706 0.997159 19.0561 0.774148 19.4169 0.612216C19.7805 0.450284 20.1925 0.369318 20.6527 0.369318C21.3004 0.369318 21.8089 0.511364 22.1783 0.795454C22.5504 1.07955 22.8146 1.45455 22.9709 1.92045ZM29.2404 1.92045L28.337 2.17614C28.2802 2.02557 28.1964 1.87926 28.0856 1.73722C27.9776 1.59233 27.8299 1.47301 27.6424 1.37926C27.4549 1.28551 27.2148 1.23864 26.9222 1.23864C26.5217 1.23864 26.1879 1.33097 25.9208 1.51562C25.6566 1.69744 25.5245 1.92898 25.5245 2.21023C25.5245 2.46023 25.6154 2.65767 25.7972 2.80256C25.979 2.94744 26.2631 3.06818 26.6495 3.16477L27.6211 3.40341C28.2063 3.54545 28.6424 3.76278 28.9293 4.0554C29.2163 4.34517 29.3597 4.71875 29.3597 5.17614C29.3597 5.55114 29.2518 5.88636 29.0359 6.18182C28.8228 6.47727 28.5245 6.71023 28.141 6.88068C27.7575 7.05114 27.3114 7.13636 26.8029 7.13636C26.1353 7.13636 25.5827 6.99148 25.1452 6.7017C24.7077 6.41193 24.4308 5.98864 24.3143 5.43182L25.2688 5.19318C25.3597 5.54545 25.5316 5.80966 25.7844 5.9858C26.0401 6.16193 26.3739 6.25 26.7859 6.25C27.2546 6.25 27.6268 6.15057 27.9023 5.9517C28.1808 5.75 28.32 5.50852 28.32 5.22727C28.32 5 28.2404 4.80966 28.0813 4.65625C27.9222 4.5 27.6779 4.38352 27.3484 4.30682L26.2575 4.05114C25.658 3.90909 25.2177 3.68892 24.9364 3.39062C24.658 3.08949 24.5188 2.71307 24.5188 2.26136C24.5188 1.89205 24.6225 1.56534 24.8299 1.28125C25.0401 0.997159 25.3256 0.774148 25.6864 0.612216C26.0501 0.450284 26.462 0.369318 26.9222 0.369318C27.57 0.369318 28.0785 0.511364 28.4478 0.795454C28.82 1.07955 29.0842 1.45455 29.2404 1.92045ZM32.7997 7.15341C32.3849 7.15341 32.0085 7.07528 31.6705 6.91903C31.3324 6.75994 31.0639 6.53125 30.8651 6.23295C30.6662 5.93182 30.5668 5.56818 30.5668 5.14205C30.5668 4.76705 30.6406 4.46307 30.7884 4.23011C30.9361 3.99432 31.1335 3.80966 31.3807 3.67614C31.6278 3.54261 31.9006 3.44318 32.1989 3.37784C32.5 3.30966 32.8026 3.25568 33.1065 3.21591C33.5043 3.16477 33.8267 3.12642 34.0739 3.10085C34.3239 3.07244 34.5057 3.02557 34.6193 2.96023C34.7358 2.89489 34.794 2.78125 34.794 2.61932V2.58523C34.794 2.16477 34.679 1.83807 34.4489 1.60511C34.2216 1.37216 33.8764 1.25568 33.4134 1.25568C32.9332 1.25568 32.5568 1.3608 32.2841 1.57102C32.0114 1.78125 31.8196 2.00568 31.7088 2.24432L30.7543 1.90341C30.9247 1.50568 31.152 1.19602 31.4361 0.974432C31.723 0.75 32.0355 0.59375 32.3736 0.505682C32.7145 0.414773 33.0497 0.369318 33.3793 0.369318C33.5895 0.369318 33.831 0.394886 34.1037 0.446022C34.3793 0.494318 34.6449 0.59517 34.9006 0.748579C35.1591 0.901989 35.3736 1.13352 35.544 1.44318C35.7145 1.75284 35.7997 2.16761 35.7997 2.6875V7H34.794V6.11364H34.7429C34.6747 6.25568 34.5611 6.40767 34.402 6.5696C34.2429 6.73153 34.0313 6.86932 33.767 6.98295C33.5028 7.09659 33.1804 7.15341 32.7997 7.15341ZM32.9531 6.25C33.3509 6.25 33.6861 6.17188 33.9588 6.01562C34.2344 5.85938 34.4418 5.65767 34.581 5.41051C34.723 5.16335 34.794 4.90341 34.794 4.63068V3.71023C34.7514 3.76136 34.6577 3.80824 34.5128 3.85085C34.3707 3.89062 34.206 3.92614 34.0185 3.95739C33.8338 3.9858 33.6534 4.01136 33.4773 4.03409C33.304 4.05398 33.1634 4.07102 33.0554 4.08523C32.794 4.11932 32.5497 4.17472 32.3224 4.25142C32.098 4.32528 31.9162 4.4375 31.777 4.58807C31.6406 4.7358 31.5724 4.9375 31.5724 5.19318C31.5724 5.54261 31.7017 5.80682 31.9602 5.9858C32.2216 6.16193 32.5526 6.25 32.9531 6.25ZM40.2773 9.59091C39.7915 9.59091 39.3739 9.52841 39.0245 9.40341C38.6751 9.28125 38.3839 9.11932 38.1509 8.91761C37.9208 8.71875 37.7376 8.50568 37.6012 8.27841L38.4023 7.71591C38.4933 7.83523 38.6083 7.97159 38.7475 8.125C38.8867 8.28125 39.0771 8.41619 39.3185 8.52983C39.5629 8.64631 39.8825 8.70455 40.2773 8.70455C40.8058 8.70455 41.2418 8.5767 41.5856 8.32102C41.9293 8.06534 42.1012 7.66477 42.1012 7.11932V5.78977H42.016C41.9421 5.90909 41.837 6.05682 41.7006 6.23295C41.5671 6.40625 41.3739 6.56108 41.1211 6.69744C40.8711 6.83097 40.533 6.89773 40.1069 6.89773C39.5785 6.89773 39.104 6.77273 38.6836 6.52273C38.266 6.27273 37.935 5.90909 37.6907 5.43182C37.4492 4.95455 37.3285 4.375 37.3285 3.69318C37.3285 3.02273 37.4464 2.43892 37.6822 1.94176C37.918 1.44176 38.2461 1.0554 38.6665 0.78267C39.087 0.507102 39.5728 0.369318 40.1239 0.369318C40.5501 0.369318 40.8881 0.440341 41.1381 0.582386C41.391 0.721591 41.5842 0.880682 41.7177 1.05966C41.854 1.2358 41.9592 1.38068 42.033 1.49432H42.1353V0.454545H43.1069V7.1875C43.1069 7.75 42.979 8.20739 42.7234 8.55966C42.4705 8.91477 42.1296 9.17472 41.7006 9.33949C41.2745 9.5071 40.8001 9.59091 40.2773 9.59091ZM40.2433 5.99432C40.6467 5.99432 40.9876 5.90199 41.266 5.71733C41.5444 5.53267 41.756 5.26705 41.9009 4.92045C42.0458 4.57386 42.1183 4.15909 42.1183 3.67614C42.1183 3.20455 42.0472 2.78835 41.9052 2.42756C41.7631 2.06676 41.5529 1.78409 41.2745 1.57955C40.9961 1.375 40.6523 1.27273 40.2433 1.27273C39.8171 1.27273 39.462 1.38068 39.1779 1.59659C38.8967 1.8125 38.685 2.10227 38.543 2.46591C38.4038 2.82955 38.3342 3.23295 38.3342 3.67614C38.3342 4.13068 38.4052 4.53267 38.5472 4.8821C38.6921 5.22869 38.9052 5.50142 39.1864 5.70028C39.4705 5.89631 39.8228 5.99432 40.2433 5.99432ZM47.6921 7.13636C47.0614 7.13636 46.5174 6.99716 46.06 6.71875C45.6055 6.4375 45.2546 6.04545 45.0075 5.54261C44.7631 5.03693 44.641 4.44886 44.641 3.77841C44.641 3.10795 44.7631 2.51705 45.0075 2.00568C45.2546 1.49148 45.5984 1.09091 46.0387 0.803977C46.4819 0.514205 46.9989 0.369318 47.5898 0.369318C47.9308 0.369318 48.2674 0.426136 48.5998 0.539772C48.9322 0.653409 49.2347 0.838068 49.5075 1.09375C49.7802 1.34659 49.9975 1.68182 50.1594 2.09943C50.3214 2.51705 50.4023 3.03125 50.4023 3.64205V4.06818H45.3569V3.19886H49.3796C49.3796 2.82955 49.3058 2.5 49.158 2.21023C49.0131 1.92045 48.8058 1.69176 48.5359 1.52415C48.2688 1.35653 47.9535 1.27273 47.5898 1.27273C47.1893 1.27273 46.8427 1.37216 46.5501 1.57102C46.2603 1.76705 46.0373 2.02273 45.881 2.33807C45.7248 2.65341 45.6467 2.99148 45.6467 3.35227V3.93182C45.6467 4.42614 45.7319 4.84517 45.9023 5.18892C46.0756 5.52983 46.3157 5.78977 46.6225 5.96875C46.9293 6.14489 47.2859 6.23295 47.6921 6.23295C47.9563 6.23295 48.195 6.19602 48.408 6.12216C48.6239 6.04545 48.81 5.93182 48.9663 5.78125C49.1225 5.62784 49.2433 5.4375 49.3285 5.21023L50.3001 5.48295C50.1978 5.8125 50.0259 6.10227 49.7844 6.35227C49.543 6.59943 49.2447 6.79261 48.8896 6.93182C48.5344 7.06818 48.1353 7.13636 47.6921 7.13636Z" fill="black"/>
</svg>
