<svg width="164" height="24" viewBox="0 0 164 24" fill="none" xmlns="http://www.w3.org/2000/svg">
<path d="M0.917614 19V1.54545H7.1392C8.49716 1.54545 9.62216 1.79261 10.5142 2.28693C11.4063 2.78125 12.0739 3.45739 12.517 4.31534C12.9602 5.16761 13.1818 6.12784 13.1818 7.19602C13.1818 8.26989 12.9574 9.2358 12.5085 10.0938C12.0653 10.946 11.3949 11.6222 10.4972 12.1222C9.60511 12.6165 8.48295 12.8636 7.13068 12.8636H2.85227V10.6307H6.89205C7.75 10.6307 8.44602 10.483 8.98011 10.1875C9.5142 9.88636 9.90625 9.47727 10.1562 8.96023C10.4062 8.44318 10.5312 7.85511 10.5312 7.19602C10.5312 6.53693 10.4062 5.9517 10.1562 5.44034C9.90625 4.92898 9.51136 4.52841 8.97159 4.23864C8.4375 3.94886 7.73295 3.80398 6.85795 3.80398H3.55114V19H0.917614ZM16.0646 19V5.90909H18.5277V7.98864H18.6641C18.9027 7.28409 19.3232 6.73011 19.9254 6.3267C20.5334 5.91761 21.2209 5.71307 21.9879 5.71307C22.147 5.71307 22.3345 5.71875 22.5504 5.73011C22.772 5.74148 22.9453 5.75568 23.0703 5.77273V8.21023C22.968 8.18182 22.7862 8.15057 22.5249 8.11648C22.2635 8.0767 22.0021 8.05682 21.7408 8.05682C21.1385 8.05682 20.6016 8.18466 20.13 8.44034C19.6641 8.69034 19.2947 9.03977 19.022 9.48864C18.7493 9.93182 18.6129 10.4375 18.6129 11.0057V19H16.0646ZM25.2756 19V5.90909H27.8239V19H25.2756ZM26.5625 3.8892C26.1193 3.8892 25.7386 3.74148 25.4205 3.44602C25.108 3.14489 24.9517 2.78693 24.9517 2.37216C24.9517 1.9517 25.108 1.59375 25.4205 1.29829C25.7386 0.997159 26.1193 0.846591 26.5625 0.846591C27.0057 0.846591 27.3835 0.997159 27.696 1.29829C28.0142 1.59375 28.1733 1.9517 28.1733 2.37216C28.1733 2.78693 28.0142 3.14489 27.696 3.44602C27.3835 3.74148 27.0057 3.8892 26.5625 3.8892ZM42.451 5.90909L37.7038 19H34.9766L30.2209 5.90909H32.9567L36.272 15.983H36.4084L39.7152 5.90909H42.451ZM48.2805 19.2898C47.451 19.2898 46.701 19.1364 46.0305 18.8295C45.3601 18.517 44.8288 18.0653 44.4368 17.4744C44.0504 16.8835 43.8572 16.1591 43.8572 15.3011C43.8572 14.5625 43.9993 13.9545 44.2834 13.4773C44.5675 13 44.951 12.6222 45.4339 12.3438C45.9169 12.0653 46.4567 11.8551 47.0533 11.7131C47.6499 11.571 48.2578 11.4631 48.8771 11.3892C49.6612 11.2983 50.2976 11.2244 50.7862 11.1676C51.2749 11.1051 51.63 11.0057 51.8516 10.8693C52.0732 10.733 52.1839 10.5114 52.1839 10.2045V10.1449C52.1839 9.40057 51.9737 8.82386 51.5533 8.41477C51.1385 8.00568 50.5192 7.80114 49.6953 7.80114C48.8374 7.80114 48.1612 7.99148 47.6669 8.37216C47.1783 8.74716 46.8402 9.16477 46.6527 9.625L44.2578 9.07955C44.5419 8.28409 44.9567 7.64205 45.5021 7.15341C46.0533 6.65909 46.6868 6.30114 47.4027 6.07954C48.1186 5.85227 48.8714 5.73864 49.6612 5.73864C50.1839 5.73864 50.7379 5.80114 51.3232 5.92614C51.9141 6.04545 52.4652 6.26705 52.9766 6.59091C53.4936 6.91477 53.9169 7.37784 54.2464 7.98011C54.576 8.5767 54.7408 9.35227 54.7408 10.3068V19H52.2521V17.2102H52.1499C51.9851 17.5398 51.7379 17.8636 51.4084 18.1818C51.0788 18.5 50.6555 18.7642 50.1385 18.9744C49.6214 19.1847 49.0021 19.2898 48.2805 19.2898ZM48.8345 17.2443C49.5391 17.2443 50.1413 17.1051 50.6413 16.8267C51.147 16.5483 51.5305 16.1847 51.7919 15.7358C52.0589 15.2812 52.1925 14.7955 52.1925 14.2784V12.5909C52.1016 12.6818 51.9254 12.767 51.6641 12.8466C51.4084 12.9205 51.1158 12.9858 50.7862 13.0426C50.4567 13.0937 50.1357 13.142 49.8232 13.1875C49.5107 13.2273 49.2493 13.2614 49.0391 13.2898C48.5447 13.3523 48.093 13.4574 47.6839 13.6051C47.2805 13.7528 46.9567 13.9659 46.7124 14.2443C46.4737 14.517 46.3544 14.8807 46.3544 15.3352C46.3544 15.9659 46.5874 16.4432 47.0533 16.767C47.5192 17.0852 48.1129 17.2443 48.8345 17.2443ZM63.6491 19.2642C62.3821 19.2642 61.2912 18.9773 60.3764 18.4034C59.4673 17.8239 58.7685 17.0256 58.2798 16.0085C57.7912 14.9915 57.5469 13.8267 57.5469 12.5142C57.5469 11.1847 57.7969 10.0114 58.2969 8.99432C58.7969 7.97159 59.5014 7.1733 60.4105 6.59943C61.3196 6.02557 62.3906 5.73864 63.6236 5.73864C64.6179 5.73864 65.5043 5.9233 66.2827 6.29261C67.0611 6.65625 67.6889 7.16761 68.1662 7.8267C68.6491 8.4858 68.9361 9.25568 69.027 10.1364H66.5469C66.4105 9.52273 66.098 8.99432 65.6094 8.55114C65.1264 8.10795 64.4787 7.88636 63.6662 7.88636C62.956 7.88636 62.3338 8.07386 61.7997 8.44886C61.2713 8.81818 60.8594 9.34659 60.5639 10.0341C60.2685 10.7159 60.1207 11.5227 60.1207 12.4545C60.1207 13.4091 60.2656 14.233 60.5554 14.9261C60.8452 15.6193 61.2543 16.1562 61.7827 16.5369C62.3168 16.9176 62.9446 17.108 63.6662 17.108C64.1491 17.108 64.5866 17.0199 64.9787 16.8438C65.3764 16.6619 65.7088 16.4034 65.9759 16.0682C66.2486 15.733 66.4389 15.3295 66.5469 14.858H69.027C68.9361 15.7045 68.6605 16.4602 68.2003 17.125C67.7401 17.7898 67.1236 18.3125 66.3509 18.6932C65.5838 19.0739 64.6832 19.2642 63.6491 19.2642ZM73.3629 23.9091C72.9822 23.9091 72.6357 23.8778 72.3232 23.8153C72.0107 23.7585 71.7777 23.696 71.6243 23.6278L72.2379 21.5398C72.7038 21.6648 73.1186 21.7188 73.4822 21.7017C73.8459 21.6847 74.1669 21.5483 74.4453 21.2926C74.7294 21.0369 74.9794 20.6193 75.1953 20.0398L75.5107 19.1705L70.7209 5.90909H73.4482L76.7635 16.0682H76.8999L80.2152 5.90909H82.951L77.5561 20.7472C77.3061 21.429 76.9879 22.0057 76.6016 22.4773C76.2152 22.9545 75.755 23.3125 75.2209 23.5511C74.6868 23.7898 74.0675 23.9091 73.3629 23.9091ZM105.99 1.54545V19H103.57L94.6974 6.19886H94.5355V19H91.902V1.54545H94.3395L103.22 14.3636H103.382V1.54545H105.99ZM115.141 19.2642C113.914 19.2642 112.843 18.983 111.928 18.4205C111.013 17.858 110.303 17.071 109.798 16.0597C109.292 15.0483 109.039 13.8665 109.039 12.5142C109.039 11.1562 109.292 9.96875 109.798 8.9517C110.303 7.93466 111.013 7.14489 111.928 6.58239C112.843 6.01989 113.914 5.73864 115.141 5.73864C116.369 5.73864 117.44 6.01989 118.354 6.58239C119.269 7.14489 119.979 7.93466 120.485 8.9517C120.991 9.96875 121.244 11.1562 121.244 12.5142C121.244 13.8665 120.991 15.0483 120.485 16.0597C119.979 17.071 119.269 17.858 118.354 18.4205C117.44 18.983 116.369 19.2642 115.141 19.2642ZM115.15 17.125C115.945 17.125 116.604 16.9148 117.127 16.4943C117.65 16.0739 118.036 15.5142 118.286 14.8153C118.542 14.1165 118.67 13.3466 118.67 12.5057C118.67 11.6705 118.542 10.9034 118.286 10.2045C118.036 9.5 117.65 8.93466 117.127 8.50852C116.604 8.08239 115.945 7.86932 115.15 7.86932C114.349 7.86932 113.684 8.08239 113.156 8.50852C112.633 8.93466 112.244 9.5 111.988 10.2045C111.738 10.9034 111.613 11.6705 111.613 12.5057C111.613 13.3466 111.738 14.1165 111.988 14.8153C112.244 15.5142 112.633 16.0739 113.156 16.4943C113.684 16.9148 114.349 17.125 115.15 17.125ZM130.199 5.90909V7.95455H123.048V5.90909H130.199ZM124.966 2.77273H127.514V15.1562C127.514 15.6506 127.588 16.0227 127.736 16.2727C127.884 16.517 128.074 16.6847 128.307 16.7756C128.545 16.8608 128.804 16.9034 129.082 16.9034C129.287 16.9034 129.466 16.8892 129.619 16.8608C129.773 16.8324 129.892 16.8097 129.977 16.7926L130.438 18.8977C130.29 18.9545 130.08 19.0114 129.807 19.0682C129.534 19.1307 129.193 19.1648 128.784 19.1705C128.114 19.1818 127.489 19.0625 126.909 18.8125C126.33 18.5625 125.861 18.1761 125.503 17.6534C125.145 17.1307 124.966 16.4744 124.966 15.6847V2.77273ZM133.018 19V5.90909H135.566V19H133.018ZM134.305 3.8892C133.862 3.8892 133.481 3.74148 133.163 3.44602C132.85 3.14489 132.694 2.78693 132.694 2.37216C132.694 1.9517 132.85 1.59375 133.163 1.29829C133.481 0.997159 133.862 0.846591 134.305 0.846591C134.748 0.846591 135.126 0.997159 135.438 1.29829C135.756 1.59375 135.915 1.9517 135.915 2.37216C135.915 2.78693 135.756 3.14489 135.438 3.44602C135.126 3.74148 134.748 3.8892 134.305 3.8892ZM144.509 19.2642C143.241 19.2642 142.151 18.9773 141.236 18.4034C140.327 17.8239 139.628 17.0256 139.139 16.0085C138.651 14.9915 138.406 13.8267 138.406 12.5142C138.406 11.1847 138.656 10.0114 139.156 8.99432C139.656 7.97159 140.361 7.1733 141.27 6.59943C142.179 6.02557 143.25 5.73864 144.483 5.73864C145.477 5.73864 146.364 5.9233 147.142 6.29261C147.92 6.65625 148.548 7.16761 149.026 7.8267C149.509 8.4858 149.795 9.25568 149.886 10.1364H147.406C147.27 9.52273 146.957 8.99432 146.469 8.55114C145.986 8.10795 145.338 7.88636 144.526 7.88636C143.815 7.88636 143.193 8.07386 142.659 8.44886C142.131 8.81818 141.719 9.34659 141.423 10.0341C141.128 10.7159 140.98 11.5227 140.98 12.4545C140.98 13.4091 141.125 14.233 141.415 14.9261C141.705 15.6193 142.114 16.1562 142.642 16.5369C143.176 16.9176 143.804 17.108 144.526 17.108C145.009 17.108 145.446 17.0199 145.838 16.8438C146.236 16.6619 146.568 16.4034 146.835 16.0682C147.108 15.733 147.298 15.3295 147.406 14.858H149.886C149.795 15.7045 149.52 16.4602 149.06 17.125C148.599 17.7898 147.983 18.3125 147.21 18.6932C146.443 19.0739 145.543 19.2642 144.509 19.2642ZM158.254 19.2642C156.964 19.2642 155.853 18.9886 154.921 18.4375C153.995 17.8807 153.279 17.0994 152.773 16.0938C152.273 15.0824 152.023 13.8977 152.023 12.5398C152.023 11.1989 152.273 10.017 152.773 8.99432C153.279 7.97159 153.984 7.1733 154.887 6.59943C155.796 6.02557 156.859 5.73864 158.075 5.73864C158.813 5.73864 159.529 5.8608 160.222 6.10511C160.915 6.34943 161.538 6.73295 162.089 7.25568C162.64 7.77841 163.075 8.45739 163.393 9.29261C163.711 10.1222 163.87 11.1307 163.87 12.3182V13.2216H153.464V11.3125H161.373C161.373 10.642 161.237 10.0483 160.964 9.53125C160.691 9.00852 160.308 8.59659 159.813 8.29545C159.325 7.99432 158.751 7.84375 158.092 7.84375C157.376 7.84375 156.751 8.01989 156.217 8.37216C155.688 8.71875 155.279 9.1733 154.989 9.7358C154.705 10.2926 154.563 10.8977 154.563 11.5511V13.0426C154.563 13.9176 154.717 14.6619 155.023 15.2756C155.336 15.8892 155.771 16.358 156.327 16.6818C156.884 17 157.535 17.1591 158.279 17.1591C158.762 17.1591 159.202 17.0909 159.6 16.9545C159.998 16.8125 160.342 16.6023 160.631 16.3239C160.921 16.0455 161.143 15.7017 161.296 15.2926L163.708 15.7273C163.515 16.4375 163.168 17.0597 162.668 17.5938C162.174 18.1222 161.552 18.5341 160.802 18.8295C160.058 19.1193 159.208 19.2642 158.254 19.2642Z" fill="white"/>
</svg>
