<svg width="584" height="1015" viewBox="0 0 584 1015" fill="none" xmlns="http://www.w3.org/2000/svg">
<path d="M0 53.095C0 47.5721 4.47715 43.095 10 43.095H574C579.523 43.095 584 47.5721 584 53.095V807.464H0V53.095Z" fill="#D9D9D9"/>
<path d="M0 10C0 4.47715 4.47715 0 10 0H574C579.523 0 584 4.47715 584 10V50.4696H0V10Z" fill="#A8A8A8"/>
<path d="M45.4091 24.8135V13.1772H52.4318V14.4272H46.8182V18.359H52.0682V19.609H46.8182V23.5635H52.5227V24.8135H45.4091ZM61.9261 16.0863L58.6989 24.8135H57.3352L54.108 16.0863H55.5625L57.9716 23.0408H58.0625L60.4716 16.0863H61.9261ZM67.0426 24.9954C66.2017 24.9954 65.4763 24.8097 64.8665 24.4385C64.2604 24.0635 63.7926 23.5408 63.4631 22.8704C63.1373 22.1961 62.9744 21.412 62.9744 20.5181C62.9744 19.6241 63.1373 18.8363 63.4631 18.1544C63.7926 17.4688 64.2509 16.9347 64.8381 16.5522C65.429 16.1658 66.1184 15.9726 66.9062 15.9726C67.3608 15.9726 67.8097 16.0484 68.2528 16.1999C68.696 16.3514 69.0994 16.5976 69.4631 16.9385C69.8267 17.2757 70.1165 17.7226 70.3324 18.2794C70.5483 18.8363 70.6562 19.5219 70.6562 20.3363V20.9044H63.929V19.7454H69.2926C69.2926 19.2529 69.1941 18.8135 68.9972 18.4272C68.804 18.0408 68.5275 17.7359 68.1676 17.5124C67.8116 17.2889 67.3911 17.1772 66.9062 17.1772C66.3722 17.1772 65.91 17.3097 65.5199 17.5749C65.1335 17.8363 64.8362 18.1772 64.6278 18.5976C64.4195 19.0181 64.3153 19.4688 64.3153 19.9499V20.7226C64.3153 21.3817 64.429 21.9404 64.6562 22.3988C64.8873 22.8533 65.2074 23.1999 65.6165 23.4385C66.0256 23.6734 66.5009 23.7908 67.0426 23.7908C67.3949 23.7908 67.7131 23.7416 67.9972 23.6431C68.285 23.5408 68.5331 23.3893 68.7415 23.1885C68.9498 22.984 69.1108 22.7302 69.2244 22.4272L70.5199 22.7908C70.3835 23.2302 70.1544 23.6166 69.8324 23.9499C69.5104 24.2794 69.1127 24.537 68.6392 24.7226C68.1657 24.9044 67.6335 24.9954 67.0426 24.9954ZM74.0369 19.5635V24.8135H72.696V16.0863H73.9915V17.4499H74.1051C74.3097 17.0067 74.6203 16.6507 75.0369 16.3817C75.4536 16.109 75.9915 15.9726 76.6506 15.9726C77.2415 15.9726 77.7585 16.0938 78.2017 16.3363C78.6449 16.5749 78.9896 16.9385 79.2358 17.4272C79.482 17.912 79.6051 18.5257 79.6051 19.2681V24.8135H78.2642V19.359C78.2642 18.6734 78.0862 18.1393 77.7301 17.7567C77.3741 17.3704 76.8854 17.1772 76.2642 17.1772C75.8362 17.1772 75.4536 17.27 75.1165 17.4556C74.7831 17.6412 74.5199 17.912 74.3267 18.2681C74.1335 18.6241 74.0369 19.056 74.0369 19.5635ZM85.8509 16.0863V17.2226H81.3281V16.0863H85.8509ZM82.6463 13.9954H83.9872V22.3135C83.9872 22.6923 84.0421 22.9764 84.152 23.1658C84.2656 23.3514 84.4096 23.4764 84.5838 23.5408C84.7618 23.6014 84.9493 23.6317 85.1463 23.6317C85.294 23.6317 85.4152 23.6241 85.5099 23.609C85.6046 23.5901 85.6804 23.5749 85.7372 23.5635L86.0099 24.7681C85.919 24.8022 85.7921 24.8363 85.6293 24.8704C85.4664 24.9082 85.2599 24.9272 85.0099 24.9272C84.6312 24.9272 84.2599 24.8457 83.8963 24.6829C83.5365 24.52 83.2372 24.2719 82.9986 23.9385C82.7637 23.6052 82.6463 23.1847 82.6463 22.6772V13.9954Z" fill="black"/>
<line y1="-0.5" x2="595.105" y2="-0.5" transform="matrix(-0.895641 0.444778 -0.205233 -0.978713 563 221.601)" stroke="#D9D9D9"/>
<line y1="-2.71429" x2="20.1262" y2="-2.71429" transform="matrix(-0.623477 0.780432 -0.619808 -0.786156 27.5852 8.46919)" stroke="white" stroke-width="5.42857"/>
<line y1="-2.71429" x2="20.1262" y2="-2.71429" transform="matrix(-0.619808 -0.786156 -0.623477 0.780432 27.5115 39.9987)" stroke="white" stroke-width="5.42857"/>
<rect x="24.5" y="79.0083" width="531" height="70.4986" rx="9.5" fill="white" stroke="#D9D9D9"/>
<rect x="24.5" y="387.434" width="531" height="70.4986" rx="9.5" fill="white" stroke="#D9D9D9"/>
<path d="M24.5 293.191C24.5 287.944 28.7533 283.691 34 283.691H269C274.247 283.691 278.5 287.944 278.5 293.191V344.689C278.5 349.936 274.247 354.189 269 354.189H34C28.7533 354.189 24.5 349.936 24.5 344.689V293.191Z" fill="white" stroke="#D9D9D9"/>
<rect x="302.5" y="282.289" width="254" height="70.4986" rx="9.5" fill="white" stroke="#D9D9D9"/>
<rect x="24.5" y="178.546" width="531" height="70.4986" rx="9.5" fill="white" stroke="#D9D9D9"/>
<path d="M53.9545 98.0731V115.528H51.9091L42.3977 101.823H42.2273V115.528H40.1136V98.0731H42.1591L51.7045 111.812H51.875V98.0731H53.9545ZM61.7635 115.834C60.9339 115.834 60.1811 115.678 59.505 115.366C58.8288 115.047 58.2919 114.59 57.8942 113.994C57.4964 113.391 57.2976 112.664 57.2976 111.812C57.2976 111.062 57.4453 110.454 57.7408 109.988C58.0362 109.516 58.4311 109.147 58.9254 108.88C59.4197 108.613 59.9652 108.414 60.5618 108.283C61.1641 108.147 61.7692 108.039 62.3771 107.959C63.1726 107.857 63.8175 107.78 64.3118 107.729C64.8118 107.672 65.1754 107.579 65.4027 107.448C65.6357 107.317 65.7521 107.09 65.7521 106.766V106.698C65.7521 105.857 65.522 105.204 65.0618 104.738C64.6072 104.272 63.9169 104.039 62.9908 104.039C62.0305 104.039 61.2777 104.249 60.7322 104.67C60.1868 105.09 59.8033 105.539 59.5817 106.016L57.6726 105.334C58.0135 104.539 58.468 103.92 59.0362 103.476C59.6101 103.028 60.2351 102.715 60.9112 102.539C61.593 102.357 62.2635 102.266 62.9226 102.266C63.343 102.266 63.826 102.317 64.3714 102.42C64.9226 102.516 65.4538 102.718 65.9652 103.025C66.4822 103.332 66.9112 103.795 67.2521 104.414C67.593 105.033 67.7635 105.863 67.7635 106.903V115.528H65.7521V113.755H65.6499C65.5135 114.039 65.2862 114.343 64.968 114.667C64.6499 114.991 64.2266 115.266 63.6982 115.494C63.1697 115.721 62.5249 115.834 61.7635 115.834ZM62.0703 114.028C62.8658 114.028 63.5362 113.871 64.0817 113.559C64.6328 113.246 65.0476 112.843 65.326 112.349C65.6101 111.854 65.7521 111.334 65.7521 110.789V108.948C65.6669 109.05 65.4794 109.144 65.1896 109.229C64.9055 109.309 64.576 109.38 64.201 109.442C63.8317 109.499 63.4709 109.55 63.1186 109.596C62.772 109.636 62.4908 109.67 62.2749 109.698C61.7521 109.766 61.2635 109.877 60.8089 110.03C60.3601 110.178 59.9964 110.403 59.718 110.704C59.4453 110.999 59.3089 111.403 59.3089 111.914C59.3089 112.613 59.5675 113.141 60.0845 113.499C60.6072 113.851 61.2692 114.028 62.0703 114.028ZM71.4347 115.528V102.437H73.3778V104.482H73.5483C73.821 103.783 74.2614 103.241 74.8693 102.854C75.4773 102.462 76.2074 102.266 77.0597 102.266C77.9233 102.266 78.642 102.462 79.2159 102.854C79.7955 103.241 80.2472 103.783 80.571 104.482H80.7074C81.0426 103.806 81.5455 103.269 82.2159 102.871C82.8864 102.468 83.6903 102.266 84.6278 102.266C85.7983 102.266 86.7557 102.633 87.5 103.366C88.2443 104.093 88.6165 105.226 88.6165 106.766V115.528H86.6051V106.766C86.6051 105.8 86.3409 105.11 85.8125 104.695C85.2841 104.28 84.6619 104.073 83.946 104.073C83.0256 104.073 82.3125 104.351 81.8068 104.908C81.3011 105.459 81.0483 106.158 81.0483 107.005V115.528H79.0028V106.562C79.0028 105.817 78.7614 105.218 78.2784 104.763C77.7955 104.303 77.1733 104.073 76.4119 104.073C75.8892 104.073 75.4006 104.212 74.946 104.491C74.4972 104.769 74.1335 105.155 73.8551 105.65C73.5824 106.138 73.446 106.704 73.446 107.346V115.528H71.4347ZM97.7827 115.8C96.5213 115.8 95.4332 115.522 94.5185 114.965C93.6094 114.403 92.9077 113.619 92.4134 112.613C91.9247 111.601 91.6804 110.425 91.6804 109.084C91.6804 107.744 91.9247 106.562 92.4134 105.539C92.9077 104.511 93.5952 103.709 94.4759 103.136C95.3622 102.556 96.3963 102.266 97.5781 102.266C98.2599 102.266 98.9332 102.38 99.598 102.607C100.263 102.834 100.868 103.204 101.413 103.715C101.959 104.221 102.393 104.891 102.717 105.726C103.041 106.562 103.203 107.59 103.203 108.812V109.664H93.1122V107.925H101.158C101.158 107.187 101.01 106.528 100.714 105.948C100.425 105.369 100.01 104.911 99.4702 104.576C98.9361 104.241 98.3054 104.073 97.5781 104.073C96.777 104.073 96.0838 104.272 95.4986 104.67C94.919 105.062 94.473 105.573 94.1605 106.204C93.848 106.834 93.6918 107.511 93.6918 108.232V109.391C93.6918 110.38 93.8622 111.218 94.2031 111.905C94.5497 112.587 95.0298 113.107 95.6435 113.465C96.2571 113.817 96.9702 113.994 97.7827 113.994C98.3111 113.994 98.7884 113.92 99.2145 113.772C99.6463 113.619 100.018 113.391 100.331 113.09C100.643 112.783 100.885 112.403 101.055 111.948L102.999 112.494C102.794 113.153 102.45 113.732 101.967 114.232C101.484 114.726 100.888 115.113 100.178 115.391C99.4673 115.664 98.669 115.8 97.7827 115.8ZM118.331 115.8C117.149 115.8 116.112 115.519 115.22 114.957C114.334 114.394 113.641 113.607 113.141 112.596C112.646 111.584 112.399 110.403 112.399 109.05C112.399 107.687 112.646 106.496 113.141 105.479C113.641 104.462 114.334 103.672 115.22 103.11C116.112 102.547 117.149 102.266 118.331 102.266C119.513 102.266 120.547 102.547 121.433 103.11C122.325 103.672 123.018 104.462 123.513 105.479C124.013 106.496 124.263 107.687 124.263 109.05C124.263 110.403 124.013 111.584 123.513 112.596C123.018 113.607 122.325 114.394 121.433 114.957C120.547 115.519 119.513 115.8 118.331 115.8ZM118.331 113.994C119.229 113.994 119.967 113.763 120.547 113.303C121.126 112.843 121.555 112.238 121.834 111.488C122.112 110.738 122.251 109.925 122.251 109.05C122.251 108.175 122.112 107.36 121.834 106.604C121.555 105.849 121.126 105.238 120.547 104.772C119.967 104.306 119.229 104.073 118.331 104.073C117.433 104.073 116.695 104.306 116.115 104.772C115.536 105.238 115.107 105.849 114.828 106.604C114.55 107.36 114.411 108.175 114.411 109.05C114.411 109.925 114.55 110.738 114.828 111.488C115.107 112.238 115.536 112.843 116.115 113.303C116.695 113.763 117.433 113.994 118.331 113.994ZM133.163 102.437V104.141H126.106V102.437H133.163ZM128.219 115.528V100.63C128.219 99.8799 128.396 99.2549 128.748 98.7549C129.1 98.2549 129.558 97.8799 130.12 97.6299C130.683 97.3799 131.276 97.2549 131.901 97.2549C132.396 97.2549 132.799 97.2946 133.112 97.3742C133.424 97.4537 133.657 97.5276 133.81 97.5958L133.231 99.3344C133.129 99.3003 132.987 99.2577 132.805 99.2066C132.629 99.1554 132.396 99.1299 132.106 99.1299C131.441 99.1299 130.961 99.2975 130.665 99.6327C130.376 99.9679 130.231 100.459 130.231 101.107V115.528H128.219ZM148.425 102.437V104.141H141.641V102.437H148.425ZM143.618 99.3003H145.629V111.778C145.629 112.346 145.712 112.772 145.876 113.056C146.047 113.334 146.263 113.522 146.524 113.619C146.791 113.709 147.072 113.755 147.368 113.755C147.589 113.755 147.771 113.744 147.913 113.721C148.055 113.692 148.169 113.67 148.254 113.653L148.663 115.459C148.527 115.511 148.337 115.562 148.092 115.613C147.848 115.67 147.538 115.698 147.163 115.698C146.595 115.698 146.038 115.576 145.493 115.332C144.953 115.087 144.504 114.715 144.146 114.215C143.794 113.715 143.618 113.084 143.618 112.323V99.3003ZM153.743 107.653V115.528H151.732V98.0731H153.743V104.482H153.913C154.22 103.806 154.68 103.269 155.294 102.871C155.913 102.468 156.737 102.266 157.766 102.266C158.658 102.266 159.439 102.445 160.109 102.803C160.78 103.155 161.3 103.698 161.669 104.431C162.044 105.158 162.232 106.084 162.232 107.209V115.528H160.22V107.346C160.22 106.306 159.95 105.502 159.411 104.934C158.876 104.36 158.135 104.073 157.186 104.073C156.527 104.073 155.936 104.212 155.413 104.491C154.896 104.769 154.487 105.175 154.186 105.709C153.891 106.244 153.743 106.891 153.743 107.653ZM171.4 115.8C170.138 115.8 169.05 115.522 168.136 114.965C167.227 114.403 166.525 113.619 166.031 112.613C165.542 111.601 165.298 110.425 165.298 109.084C165.298 107.744 165.542 106.562 166.031 105.539C166.525 104.511 167.212 103.709 168.093 103.136C168.979 102.556 170.013 102.266 171.195 102.266C171.877 102.266 172.55 102.38 173.215 102.607C173.88 102.834 174.485 103.204 175.031 103.715C175.576 104.221 176.011 104.891 176.335 105.726C176.658 106.562 176.82 107.59 176.82 108.812V109.664H166.729V107.925H174.775C174.775 107.187 174.627 106.528 174.332 105.948C174.042 105.369 173.627 104.911 173.087 104.576C172.553 104.241 171.923 104.073 171.195 104.073C170.394 104.073 169.701 104.272 169.116 104.67C168.536 105.062 168.09 105.573 167.778 106.204C167.465 106.834 167.309 107.511 167.309 108.232V109.391C167.309 110.38 167.479 111.218 167.82 111.905C168.167 112.587 168.647 113.107 169.261 113.465C169.874 113.817 170.587 113.994 171.4 113.994C171.928 113.994 172.406 113.92 172.832 113.772C173.263 113.619 173.636 113.391 173.948 113.09C174.261 112.783 174.502 112.403 174.673 111.948L176.616 112.494C176.411 113.153 176.067 113.732 175.585 114.232C175.102 114.726 174.505 115.113 173.795 115.391C173.085 115.664 172.286 115.8 171.4 115.8ZM192.119 115.8C190.857 115.8 189.769 115.522 188.854 114.965C187.945 114.403 187.244 113.619 186.749 112.613C186.261 111.601 186.016 110.425 186.016 109.084C186.016 107.744 186.261 106.562 186.749 105.539C187.244 104.511 187.931 103.709 188.812 103.136C189.698 102.556 190.732 102.266 191.914 102.266C192.596 102.266 193.269 102.38 193.934 102.607C194.599 102.834 195.204 103.204 195.749 103.715C196.295 104.221 196.729 104.891 197.053 105.726C197.377 106.562 197.539 107.59 197.539 108.812V109.664H187.448V107.925H195.494C195.494 107.187 195.346 106.528 195.05 105.948C194.761 105.369 194.346 104.911 193.806 104.576C193.272 104.241 192.641 104.073 191.914 104.073C191.113 104.073 190.42 104.272 189.835 104.67C189.255 105.062 188.809 105.573 188.496 106.204C188.184 106.834 188.028 107.511 188.028 108.232V109.391C188.028 110.38 188.198 111.218 188.539 111.905C188.886 112.587 189.366 113.107 189.979 113.465C190.593 113.817 191.306 113.994 192.119 113.994C192.647 113.994 193.124 113.92 193.55 113.772C193.982 113.619 194.354 113.391 194.667 113.09C194.979 112.783 195.221 112.403 195.391 111.948L197.335 112.494C197.13 113.153 196.786 113.732 196.303 114.232C195.82 114.726 195.224 115.113 194.513 115.391C193.803 115.664 193.005 115.8 192.119 115.8ZM210.905 102.437L206.064 115.528H204.018L199.178 102.437H201.359L204.973 112.869H205.109L208.723 102.437H210.905ZM218.58 115.8C217.318 115.8 216.23 115.522 215.315 114.965C214.406 114.403 213.705 113.619 213.21 112.613C212.722 111.601 212.477 110.425 212.477 109.084C212.477 107.744 212.722 106.562 213.21 105.539C213.705 104.511 214.392 103.709 215.273 103.136C216.159 102.556 217.193 102.266 218.375 102.266C219.057 102.266 219.73 102.38 220.395 102.607C221.06 102.834 221.665 103.204 222.21 103.715C222.756 104.221 223.19 104.891 223.514 105.726C223.838 106.562 224 107.59 224 108.812V109.664H213.909V107.925H221.955C221.955 107.187 221.807 106.528 221.511 105.948C221.222 105.369 220.807 104.911 220.267 104.576C219.733 104.241 219.102 104.073 218.375 104.073C217.574 104.073 216.881 104.272 216.295 104.67C215.716 105.062 215.27 105.573 214.957 106.204C214.645 106.834 214.489 107.511 214.489 108.232V109.391C214.489 110.38 214.659 111.218 215 111.905C215.347 112.587 215.827 113.107 216.44 113.465C217.054 113.817 217.767 113.994 218.58 113.994C219.108 113.994 219.585 113.92 220.011 113.772C220.443 113.619 220.815 113.391 221.128 113.09C221.44 112.783 221.682 112.403 221.852 111.948L223.795 112.494C223.591 113.153 223.247 113.732 222.764 114.232C222.281 114.726 221.685 115.113 220.974 115.391C220.264 115.664 219.466 115.8 218.58 115.8ZM229.071 107.653V115.528H227.06V102.437H229.003V104.482H229.173C229.48 103.817 229.946 103.283 230.571 102.88C231.196 102.471 232.003 102.266 232.991 102.266C233.878 102.266 234.653 102.448 235.318 102.812C235.983 103.17 236.5 103.715 236.869 104.448C237.239 105.175 237.423 106.096 237.423 107.209V115.528H235.412V107.346C235.412 106.317 235.145 105.516 234.611 104.942C234.077 104.363 233.344 104.073 232.412 104.073C231.77 104.073 231.196 104.212 230.69 104.491C230.19 104.769 229.795 105.175 229.506 105.709C229.216 106.244 229.071 106.891 229.071 107.653ZM246.792 102.437V104.141H240.008V102.437H246.792ZM241.985 99.3003H243.996V111.778C243.996 112.346 244.079 112.772 244.244 113.056C244.414 113.334 244.63 113.522 244.891 113.619C245.158 113.709 245.44 113.755 245.735 113.755C245.957 113.755 246.138 113.744 246.281 113.721C246.423 113.692 246.536 113.67 246.621 113.653L247.031 115.459C246.894 115.511 246.704 115.562 246.46 115.613C246.215 115.67 245.906 115.698 245.531 115.698C244.962 115.698 244.406 115.576 243.86 115.332C243.32 115.087 242.871 114.715 242.513 114.215C242.161 113.715 241.985 113.084 241.985 112.323V99.3003Z" fill="#D9D9D9"/>
<path d="M45.5 323.014H40.1136V305.559H45.7386C47.4318 305.559 48.8807 305.909 50.0852 306.608C51.2898 307.301 52.2131 308.298 52.8551 309.599C53.4972 310.894 53.8182 312.446 53.8182 314.252C53.8182 316.071 53.4943 317.636 52.8466 318.948C52.1989 320.255 51.2557 321.261 50.017 321.965C48.7784 322.664 47.2727 323.014 45.5 323.014ZM42.2273 321.139H45.3636C46.8068 321.139 48.0028 320.86 48.9517 320.304C49.9006 319.747 50.608 318.954 51.0739 317.926C51.5398 316.897 51.7727 315.673 51.7727 314.252C51.7727 312.843 51.5426 311.63 51.0824 310.613C50.6222 309.59 49.9347 308.806 49.0199 308.261C48.1051 307.71 46.9659 307.434 45.6023 307.434H42.2273V321.139ZM60.9432 323.321C60.1136 323.321 59.3608 323.164 58.6847 322.852C58.0085 322.534 57.4716 322.076 57.0739 321.48C56.6761 320.877 56.4773 320.15 56.4773 319.298C56.4773 318.548 56.625 317.94 56.9205 317.474C57.2159 317.002 57.6108 316.633 58.1051 316.366C58.5994 316.099 59.1449 315.9 59.7415 315.769C60.3438 315.633 60.9489 315.525 61.5568 315.446C62.3523 315.343 62.9972 315.267 63.4915 315.215C63.9915 315.159 64.3551 315.065 64.5824 314.934C64.8153 314.804 64.9318 314.576 64.9318 314.252V314.184C64.9318 313.343 64.7017 312.69 64.2415 312.224C63.7869 311.758 63.0966 311.525 62.1705 311.525C61.2102 311.525 60.4574 311.735 59.9119 312.156C59.3665 312.576 58.983 313.025 58.7614 313.502L56.8523 312.821C57.1932 312.025 57.6477 311.406 58.2159 310.963C58.7898 310.514 59.4148 310.201 60.0909 310.025C60.7727 309.843 61.4432 309.752 62.1023 309.752C62.5227 309.752 63.0057 309.804 63.5511 309.906C64.1023 310.002 64.6335 310.204 65.1449 310.511C65.6619 310.818 66.0909 311.281 66.4318 311.9C66.7727 312.519 66.9432 313.349 66.9432 314.389V323.014H64.9318V321.241H64.8295C64.6932 321.525 64.4659 321.829 64.1477 322.153C63.8295 322.477 63.4063 322.752 62.8778 322.98C62.3494 323.207 61.7045 323.321 60.9432 323.321ZM61.25 321.514C62.0455 321.514 62.7159 321.358 63.2614 321.045C63.8125 320.733 64.2273 320.329 64.5057 319.835C64.7898 319.34 64.9318 318.821 64.9318 318.275V316.434C64.8466 316.537 64.6591 316.63 64.3693 316.715C64.0852 316.795 63.7557 316.866 63.3807 316.929C63.0114 316.985 62.6506 317.037 62.2983 317.082C61.9517 317.122 61.6705 317.156 61.4545 317.184C60.9318 317.252 60.4432 317.363 59.9886 317.517C59.5398 317.664 59.1761 317.889 58.8977 318.19C58.625 318.485 58.4886 318.889 58.4886 319.4C58.4886 320.099 58.7472 320.627 59.2642 320.985C59.7869 321.338 60.4489 321.514 61.25 321.514ZM71.4411 327.923C71.1001 327.923 70.7962 327.894 70.5291 327.838C70.2621 327.787 70.0774 327.735 69.9751 327.684L70.4865 325.912C70.9751 326.037 71.407 326.082 71.782 326.048C72.157 326.014 72.4893 325.846 72.7791 325.545C73.0746 325.25 73.3445 324.769 73.5888 324.105L73.9638 323.082L69.1229 309.923H71.3047L74.9183 320.355H75.0547L78.6683 309.923H80.8501L75.2933 324.923C75.0433 325.599 74.7337 326.159 74.3643 326.602C73.995 327.051 73.5661 327.383 73.0774 327.599C72.5945 327.815 72.049 327.923 71.4411 327.923Z" fill="#D9D9D9"/>
<path d="M317.159 301.827V299.952H330.25V301.827H324.761V317.406H322.648V301.827H317.159ZM333.239 317.406V304.315H335.251V317.406H333.239ZM334.262 302.133C333.87 302.133 333.532 302 333.248 301.733C332.969 301.466 332.83 301.145 332.83 300.77C332.83 300.395 332.969 300.074 333.248 299.807C333.532 299.54 333.87 299.406 334.262 299.406C334.654 299.406 334.989 299.54 335.268 299.807C335.552 300.074 335.694 300.395 335.694 300.77C335.694 301.145 335.552 301.466 335.268 301.733C334.989 302 334.654 302.133 334.262 302.133ZM338.935 317.406V304.315H340.878V306.361H341.048C341.321 305.662 341.761 305.119 342.369 304.733C342.977 304.341 343.707 304.145 344.56 304.145C345.423 304.145 346.142 304.341 346.716 304.733C347.295 305.119 347.747 305.662 348.071 306.361H348.207C348.543 305.685 349.045 305.148 349.716 304.75C350.386 304.346 351.19 304.145 352.128 304.145C353.298 304.145 354.256 304.511 355 305.244C355.744 305.971 356.116 307.105 356.116 308.645V317.406H354.105V308.645C354.105 307.679 353.841 306.989 353.312 306.574C352.784 306.159 352.162 305.952 351.446 305.952C350.526 305.952 349.813 306.23 349.307 306.787C348.801 307.338 348.548 308.037 348.548 308.883V317.406H346.503V308.44C346.503 307.696 346.261 307.096 345.778 306.642C345.295 306.182 344.673 305.952 343.912 305.952C343.389 305.952 342.901 306.091 342.446 306.369C341.997 306.648 341.634 307.034 341.355 307.528C341.082 308.017 340.946 308.582 340.946 309.224V317.406H338.935ZM365.283 317.679C364.021 317.679 362.933 317.4 362.018 316.844C361.109 316.281 360.408 315.497 359.913 314.491C359.425 313.48 359.18 312.304 359.18 310.963C359.18 309.622 359.425 308.44 359.913 307.417C360.408 306.389 361.095 305.588 361.976 305.014C362.862 304.435 363.896 304.145 365.078 304.145C365.76 304.145 366.433 304.258 367.098 304.486C367.763 304.713 368.368 305.082 368.913 305.594C369.459 306.099 369.893 306.77 370.217 307.605C370.541 308.44 370.703 309.469 370.703 310.69V311.542H360.612V309.804H368.658C368.658 309.065 368.51 308.406 368.214 307.827C367.925 307.247 367.51 306.79 366.97 306.454C366.436 306.119 365.805 305.952 365.078 305.952C364.277 305.952 363.584 306.15 362.999 306.548C362.419 306.94 361.973 307.452 361.661 308.082C361.348 308.713 361.192 309.389 361.192 310.111V311.27C361.192 312.258 361.362 313.096 361.703 313.784C362.05 314.466 362.53 314.986 363.143 315.344C363.757 315.696 364.47 315.872 365.283 315.872C365.811 315.872 366.288 315.798 366.714 315.65C367.146 315.497 367.518 315.27 367.831 314.969C368.143 314.662 368.385 314.281 368.555 313.827L370.499 314.372C370.294 315.031 369.95 315.611 369.467 316.111C368.984 316.605 368.388 316.991 367.678 317.27C366.967 317.542 366.169 317.679 365.283 317.679Z" fill="#D9D9D9"/>
<path d="M40.1136 215.065V197.61H42.2273V213.19H50.3409V215.065H40.1136ZM58.6591 215.338C57.4773 215.338 56.4403 215.056 55.5483 214.494C54.6619 213.931 53.9688 213.144 53.4688 212.133C52.9744 211.122 52.7273 209.94 52.7273 208.588C52.7273 207.224 52.9744 206.034 53.4688 205.017C53.9688 204 54.6619 203.21 55.5483 202.647C56.4403 202.085 57.4773 201.804 58.6591 201.804C59.8409 201.804 60.875 202.085 61.7614 202.647C62.6534 203.21 63.3466 204 63.8409 205.017C64.3409 206.034 64.5909 207.224 64.5909 208.588C64.5909 209.94 64.3409 211.122 63.8409 212.133C63.3466 213.144 62.6534 213.931 61.7614 214.494C60.875 215.056 59.8409 215.338 58.6591 215.338ZM58.6591 213.531C59.5568 213.531 60.2955 213.301 60.875 212.841C61.4545 212.38 61.8835 211.775 62.1619 211.025C62.4403 210.275 62.5795 209.463 62.5795 208.588C62.5795 207.713 62.4403 206.897 62.1619 206.142C61.8835 205.386 61.4545 204.775 60.875 204.309C60.2955 203.843 59.5568 203.61 58.6591 203.61C57.7614 203.61 57.0227 203.843 56.4432 204.309C55.8636 204.775 55.4347 205.386 55.1562 206.142C54.8778 206.897 54.7386 207.713 54.7386 208.588C54.7386 209.463 54.8778 210.275 55.1562 211.025C55.4347 211.775 55.8636 212.38 56.4432 212.841C57.0227 213.301 57.7614 213.531 58.6591 213.531ZM72.9794 215.338C71.7521 215.338 70.6953 215.048 69.8089 214.468C68.9226 213.889 68.2408 213.091 67.7635 212.073C67.2862 211.056 67.0476 209.894 67.0476 208.588C67.0476 207.258 67.2919 206.085 67.7805 205.068C68.2749 204.045 68.9624 203.247 69.843 202.673C70.7294 202.093 71.7635 201.804 72.9453 201.804C73.8658 201.804 74.6953 201.974 75.4339 202.315C76.1726 202.656 76.7777 203.133 77.2493 203.747C77.7209 204.36 78.0135 205.076 78.1271 205.894H76.1158C75.9624 205.298 75.6214 204.769 75.093 204.309C74.5703 203.843 73.8658 203.61 72.9794 203.61C72.1953 203.61 71.5078 203.815 70.9169 204.224C70.3317 204.627 69.8743 205.198 69.5447 205.937C69.2209 206.67 69.0589 207.531 69.0589 208.519C69.0589 209.531 69.218 210.412 69.5362 211.162C69.8601 211.912 70.3146 212.494 70.8999 212.909C71.4908 213.323 72.1839 213.531 72.9794 213.531C73.5021 213.531 73.9766 213.44 74.4027 213.258C74.8288 213.076 75.1896 212.815 75.4851 212.474C75.7805 212.133 75.9908 211.724 76.1158 211.247H78.1271C78.0135 212.019 77.7322 212.716 77.2834 213.335C76.8402 213.948 76.2521 214.437 75.5192 214.801C74.7919 215.159 73.9453 215.338 72.9794 215.338ZM84.9197 215.372C84.0902 215.372 83.3374 215.216 82.6612 214.903C81.9851 214.585 81.4482 214.127 81.0504 213.531C80.6527 212.929 80.4538 212.201 80.4538 211.349C80.4538 210.599 80.6016 209.991 80.897 209.525C81.1925 209.054 81.5874 208.684 82.0817 208.417C82.576 208.15 83.1214 207.951 83.718 207.821C84.3203 207.684 84.9254 207.576 85.5334 207.497C86.3288 207.394 86.9737 207.318 87.468 207.267C87.968 207.21 88.3317 207.116 88.5589 206.985C88.7919 206.855 88.9084 206.627 88.9084 206.304V206.235C88.9084 205.394 88.6783 204.741 88.218 204.275C87.7635 203.809 87.0732 203.576 86.147 203.576C85.1868 203.576 84.4339 203.787 83.8885 204.207C83.343 204.627 82.9595 205.076 82.7379 205.554L80.8288 204.872C81.1697 204.076 81.6243 203.457 82.1925 203.014C82.7663 202.565 83.3913 202.252 84.0675 202.076C84.7493 201.894 85.4197 201.804 86.0788 201.804C86.4993 201.804 86.9822 201.855 87.5277 201.957C88.0788 202.054 88.6101 202.255 89.1214 202.562C89.6385 202.869 90.0675 203.332 90.4084 203.951C90.7493 204.571 90.9197 205.4 90.9197 206.44V215.065H88.9084V213.292H88.8061C88.6697 213.576 88.4425 213.88 88.1243 214.204C87.8061 214.528 87.3828 214.804 86.8544 215.031C86.326 215.258 85.6811 215.372 84.9197 215.372ZM85.2266 213.565C86.022 213.565 86.6925 213.409 87.2379 213.096C87.7891 212.784 88.2038 212.38 88.4822 211.886C88.7663 211.392 88.9084 210.872 88.9084 210.326V208.485C88.8232 208.588 88.6357 208.681 88.3459 208.767C88.0618 208.846 87.7322 208.917 87.3572 208.98C86.9879 209.037 86.6271 209.088 86.2749 209.133C85.9283 209.173 85.647 209.207 85.4311 209.235C84.9084 209.304 84.4197 209.414 83.9652 209.568C83.5163 209.716 83.1527 209.94 82.8743 210.241C82.6016 210.537 82.4652 210.94 82.4652 211.451C82.4652 212.15 82.7237 212.679 83.2408 213.037C83.7635 213.389 84.4254 213.565 85.2266 213.565ZM100.284 201.974V203.679H93.5V201.974H100.284ZM95.4773 198.838H97.4886V211.315C97.4886 211.883 97.571 212.309 97.7358 212.593C97.9063 212.872 98.1222 213.059 98.3835 213.156C98.6506 213.247 98.9318 213.292 99.2273 213.292C99.4489 213.292 99.6307 213.281 99.7727 213.258C99.9148 213.23 100.028 213.207 100.114 213.19L100.523 214.997C100.386 215.048 100.196 215.099 99.9517 215.15C99.7074 215.207 99.3977 215.235 99.0227 215.235C98.4545 215.235 97.8977 215.113 97.3523 214.869C96.8125 214.625 96.3636 214.252 96.0057 213.752C95.6534 213.252 95.4773 212.622 95.4773 211.86V198.838ZM103.31 215.065V201.974H105.321V215.065H103.31ZM104.332 199.792C103.94 199.792 103.602 199.659 103.318 199.392C103.04 199.125 102.901 198.804 102.901 198.429C102.901 198.054 103.04 197.733 103.318 197.466C103.602 197.198 103.94 197.065 104.332 197.065C104.724 197.065 105.06 197.198 105.338 197.466C105.622 197.733 105.764 198.054 105.764 198.429C105.764 198.804 105.622 199.125 105.338 199.392C105.06 199.659 104.724 199.792 104.332 199.792ZM114.323 215.338C113.141 215.338 112.104 215.056 111.212 214.494C110.326 213.931 109.633 213.144 109.133 212.133C108.638 211.122 108.391 209.94 108.391 208.588C108.391 207.224 108.638 206.034 109.133 205.017C109.633 204 110.326 203.21 111.212 202.647C112.104 202.085 113.141 201.804 114.323 201.804C115.505 201.804 116.539 202.085 117.425 202.647C118.317 203.21 119.011 204 119.505 205.017C120.005 206.034 120.255 207.224 120.255 208.588C120.255 209.94 120.005 211.122 119.505 212.133C119.011 213.144 118.317 213.931 117.425 214.494C116.539 215.056 115.505 215.338 114.323 215.338ZM114.323 213.531C115.221 213.531 115.96 213.301 116.539 212.841C117.119 212.38 117.548 211.775 117.826 211.025C118.104 210.275 118.244 209.463 118.244 208.588C118.244 207.713 118.104 206.897 117.826 206.142C117.548 205.386 117.119 204.775 116.539 204.309C115.96 203.843 115.221 203.61 114.323 203.61C113.425 203.61 112.687 203.843 112.107 204.309C111.528 204.775 111.099 205.386 110.82 206.142C110.542 206.897 110.403 207.713 110.403 208.588C110.403 209.463 110.542 210.275 110.82 211.025C111.099 211.775 111.528 212.38 112.107 212.841C112.687 213.301 113.425 213.531 114.323 213.531ZM125.337 207.19V215.065H123.325V201.974H125.268V204.019H125.439C125.746 203.355 126.212 202.821 126.837 202.417C127.462 202.008 128.268 201.804 129.257 201.804C130.143 201.804 130.919 201.985 131.584 202.349C132.249 202.707 132.766 203.252 133.135 203.985C133.504 204.713 133.689 205.633 133.689 206.747V215.065H131.678V206.883C131.678 205.855 131.411 205.054 130.876 204.48C130.342 203.9 129.609 203.61 128.678 203.61C128.036 203.61 127.462 203.75 126.956 204.028C126.456 204.306 126.061 204.713 125.771 205.247C125.482 205.781 125.337 206.429 125.337 207.19ZM149.433 215.338C148.251 215.338 147.214 215.056 146.322 214.494C145.435 213.931 144.742 213.144 144.242 212.133C143.748 211.122 143.501 209.94 143.501 208.588C143.501 207.224 143.748 206.034 144.242 205.017C144.742 204 145.435 203.21 146.322 202.647C147.214 202.085 148.251 201.804 149.433 201.804C150.614 201.804 151.648 202.085 152.535 202.647C153.427 203.21 154.12 204 154.614 205.017C155.114 206.034 155.364 207.224 155.364 208.588C155.364 209.94 155.114 211.122 154.614 212.133C154.12 213.144 153.427 213.931 152.535 214.494C151.648 215.056 150.614 215.338 149.433 215.338ZM149.433 213.531C150.33 213.531 151.069 213.301 151.648 212.841C152.228 212.38 152.657 211.775 152.935 211.025C153.214 210.275 153.353 209.463 153.353 208.588C153.353 207.713 153.214 206.897 152.935 206.142C152.657 205.386 152.228 204.775 151.648 204.309C151.069 203.843 150.33 203.61 149.433 203.61C148.535 203.61 147.796 203.843 147.217 204.309C146.637 204.775 146.208 205.386 145.93 206.142C145.651 206.897 145.512 207.713 145.512 208.588C145.512 209.463 145.651 210.275 145.93 211.025C146.208 211.775 146.637 212.38 147.217 212.841C147.796 213.301 148.535 213.531 149.433 213.531ZM164.264 201.974V203.679H157.207V201.974H164.264ZM159.321 215.065V200.167C159.321 199.417 159.497 198.792 159.849 198.292C160.202 197.792 160.659 197.417 161.222 197.167C161.784 196.917 162.378 196.792 163.003 196.792C163.497 196.792 163.901 196.832 164.213 196.912C164.526 196.991 164.759 197.065 164.912 197.133L164.332 198.872C164.23 198.838 164.088 198.795 163.906 198.744C163.73 198.693 163.497 198.667 163.207 198.667C162.543 198.667 162.063 198.835 161.767 199.17C161.477 199.505 161.332 199.997 161.332 200.644V215.065H159.321ZM179.526 201.974V203.679H172.742V201.974H179.526ZM174.719 198.838H176.731V211.315C176.731 211.883 176.813 212.309 176.978 212.593C177.148 212.872 177.364 213.059 177.626 213.156C177.893 213.247 178.174 213.292 178.469 213.292C178.691 213.292 178.873 213.281 179.015 213.258C179.157 213.23 179.271 213.207 179.356 213.19L179.765 214.997C179.629 215.048 179.438 215.099 179.194 215.15C178.95 215.207 178.64 215.235 178.265 215.235C177.697 215.235 177.14 215.113 176.594 214.869C176.055 214.625 175.606 214.252 175.248 213.752C174.896 213.252 174.719 212.622 174.719 211.86V198.838ZM184.844 207.19V215.065H182.833V197.61H184.844V204.019H185.015C185.322 203.343 185.782 202.806 186.396 202.409C187.015 202.005 187.839 201.804 188.867 201.804C189.759 201.804 190.54 201.983 191.211 202.341C191.881 202.693 192.401 203.235 192.771 203.968C193.146 204.696 193.333 205.622 193.333 206.747V215.065H191.322V206.883C191.322 205.843 191.052 205.039 190.512 204.471C189.978 203.897 189.237 203.61 188.288 203.61C187.629 203.61 187.038 203.75 186.515 204.028C185.998 204.306 185.589 204.713 185.288 205.247C184.992 205.781 184.844 206.429 184.844 207.19ZM202.501 215.338C201.24 215.338 200.152 215.059 199.237 214.502C198.328 213.94 197.626 213.156 197.132 212.15C196.643 211.139 196.399 209.963 196.399 208.622C196.399 207.281 196.643 206.099 197.132 205.076C197.626 204.048 198.314 203.247 199.195 202.673C200.081 202.093 201.115 201.804 202.297 201.804C202.979 201.804 203.652 201.917 204.317 202.144C204.982 202.372 205.587 202.741 206.132 203.252C206.678 203.758 207.112 204.429 207.436 205.264C207.76 206.099 207.922 207.127 207.922 208.349V209.201H197.831V207.463H205.876C205.876 206.724 205.729 206.065 205.433 205.485C205.143 204.906 204.729 204.448 204.189 204.113C203.655 203.778 203.024 203.61 202.297 203.61C201.496 203.61 200.803 203.809 200.217 204.207C199.638 204.599 199.192 205.11 198.879 205.741C198.567 206.372 198.411 207.048 198.411 207.769V208.929C198.411 209.917 198.581 210.755 198.922 211.443C199.268 212.125 199.749 212.644 200.362 213.002C200.976 213.355 201.689 213.531 202.501 213.531C203.03 213.531 203.507 213.457 203.933 213.309C204.365 213.156 204.737 212.929 205.05 212.627C205.362 212.321 205.604 211.94 205.774 211.485L207.717 212.031C207.513 212.69 207.169 213.269 206.686 213.769C206.203 214.264 205.607 214.65 204.896 214.929C204.186 215.201 203.388 215.338 202.501 215.338ZM223.22 215.338C221.959 215.338 220.871 215.059 219.956 214.502C219.047 213.94 218.345 213.156 217.851 212.15C217.362 211.139 217.118 209.963 217.118 208.622C217.118 207.281 217.362 206.099 217.851 205.076C218.345 204.048 219.033 203.247 219.913 202.673C220.8 202.093 221.834 201.804 223.016 201.804C223.697 201.804 224.371 201.917 225.036 202.144C225.7 202.372 226.305 202.741 226.851 203.252C227.396 203.758 227.831 204.429 228.155 205.264C228.479 206.099 228.641 207.127 228.641 208.349V209.201H218.55V207.463H226.595C226.595 206.724 226.447 206.065 226.152 205.485C225.862 204.906 225.447 204.448 224.908 204.113C224.374 203.778 223.743 203.61 223.016 203.61C222.214 203.61 221.521 203.809 220.936 204.207C220.357 204.599 219.911 205.11 219.598 205.741C219.286 206.372 219.129 207.048 219.129 207.769V208.929C219.129 209.917 219.3 210.755 219.641 211.443C219.987 212.125 220.467 212.644 221.081 213.002C221.695 213.355 222.408 213.531 223.22 213.531C223.749 213.531 224.226 213.457 224.652 213.309C225.084 213.156 225.456 212.929 225.768 212.627C226.081 212.321 226.322 211.94 226.493 211.485L228.436 212.031C228.232 212.69 227.888 213.269 227.405 213.769C226.922 214.264 226.325 214.65 225.615 214.929C224.905 215.201 224.107 215.338 223.22 215.338ZM242.006 201.974L237.165 215.065H235.12L230.279 201.974H232.461L236.075 212.406H236.211L239.825 201.974H242.006ZM249.681 215.338C248.42 215.338 247.332 215.059 246.417 214.502C245.508 213.94 244.806 213.156 244.312 212.15C243.823 211.139 243.579 209.963 243.579 208.622C243.579 207.281 243.823 206.099 244.312 205.076C244.806 204.048 245.494 203.247 246.374 202.673C247.261 202.093 248.295 201.804 249.477 201.804C250.158 201.804 250.832 201.917 251.496 202.144C252.161 202.372 252.766 202.741 253.312 203.252C253.857 203.758 254.292 204.429 254.616 205.264C254.94 206.099 255.102 207.127 255.102 208.349V209.201H245.011V207.463H253.056C253.056 206.724 252.908 206.065 252.613 205.485C252.323 204.906 251.908 204.448 251.369 204.113C250.835 203.778 250.204 203.61 249.477 203.61C248.675 203.61 247.982 203.809 247.397 204.207C246.817 204.599 246.371 205.11 246.059 205.741C245.746 206.372 245.59 207.048 245.59 207.769V208.929C245.59 209.917 245.761 210.755 246.102 211.443C246.448 212.125 246.928 212.644 247.542 213.002C248.156 213.355 248.869 213.531 249.681 213.531C250.21 213.531 250.687 213.457 251.113 213.309C251.545 213.156 251.917 212.929 252.229 212.627C252.542 212.321 252.783 211.94 252.954 211.485L254.897 212.031C254.692 212.69 254.349 213.269 253.866 213.769C253.383 214.264 252.786 214.65 252.076 214.929C251.366 215.201 250.567 215.338 249.681 215.338ZM260.173 207.19V215.065H258.161V201.974H260.104V204.019H260.275C260.582 203.355 261.048 202.821 261.673 202.417C262.298 202.008 263.104 201.804 264.093 201.804C264.979 201.804 265.755 201.985 266.42 202.349C267.085 202.707 267.602 203.252 267.971 203.985C268.34 204.713 268.525 205.633 268.525 206.747V215.065H266.513V206.883C266.513 205.855 266.246 205.054 265.712 204.48C265.178 203.9 264.445 203.61 263.513 203.61C262.871 203.61 262.298 203.75 261.792 204.028C261.292 204.306 260.897 204.713 260.607 205.247C260.317 205.781 260.173 206.429 260.173 207.19ZM277.893 201.974V203.679H271.109V201.974H277.893ZM273.087 198.838H275.098V211.315C275.098 211.883 275.18 212.309 275.345 212.593C275.516 212.872 275.732 213.059 275.993 213.156C276.26 213.247 276.541 213.292 276.837 213.292C277.058 213.292 277.24 213.281 277.382 213.258C277.524 213.23 277.638 213.207 277.723 213.19L278.132 214.997C277.996 215.048 277.805 215.099 277.561 215.15C277.317 215.207 277.007 215.235 276.632 215.235C276.064 215.235 275.507 215.113 274.962 214.869C274.422 214.625 273.973 214.252 273.615 213.752C273.263 213.252 273.087 212.622 273.087 211.86V198.838Z" fill="#D9D9D9"/>
<line y1="-2.71429" x2="23.7655" y2="-2.71429" transform="matrix(0.68538 0.73682 -0.664614 0.738673 514.409 314.222)" stroke="#D9D9D9" stroke-width="5.42857"/>
<line y1="-2.71429" x2="23.7655" y2="-2.71429" transform="matrix(-0.664429 0.738841 0.685199 0.736988 546.484 314.178)" stroke="#D9D9D9" stroke-width="5.42857"/>
<path d="M60.1591 413.355H58.0455C57.9205 412.747 57.7017 412.213 57.3892 411.753C57.0824 411.292 56.7074 410.906 56.2642 410.594C55.8267 410.275 55.3409 410.037 54.8068 409.878C54.2727 409.719 53.7159 409.639 53.1364 409.639C52.0795 409.639 51.1222 409.906 50.2642 410.44C49.4119 410.974 48.733 411.761 48.2273 412.801C47.7273 413.841 47.4773 415.116 47.4773 416.628C47.4773 418.139 47.7273 419.415 48.2273 420.454C48.733 421.494 49.4119 422.281 50.2642 422.815C51.1222 423.349 52.0795 423.616 53.1364 423.616C53.7159 423.616 54.2727 423.537 54.8068 423.378C55.3409 423.219 55.8267 422.983 56.2642 422.67C56.7074 422.352 57.0824 421.963 57.3892 421.503C57.7017 421.037 57.9205 420.503 58.0455 419.9H60.1591C60 420.792 59.7102 421.591 59.2898 422.295C58.8693 423 58.3466 423.599 57.7216 424.094C57.0966 424.582 56.3949 424.954 55.6165 425.21C54.8438 425.466 54.017 425.594 53.1364 425.594C51.6477 425.594 50.3239 425.23 49.1648 424.503C48.0057 423.775 47.0938 422.741 46.429 421.4C45.7642 420.06 45.4318 418.469 45.4318 416.628C45.4318 414.787 45.7642 413.196 46.429 411.855C47.0938 410.514 48.0057 409.48 49.1648 408.753C50.3239 408.025 51.6477 407.662 53.1364 407.662C54.017 407.662 54.8438 407.79 55.6165 408.045C56.3949 408.301 57.0966 408.676 57.7216 409.17C58.3466 409.659 58.8693 410.256 59.2898 410.96C59.7102 411.659 60 412.457 60.1591 413.355ZM67.1541 425.662C66.3246 425.662 65.5717 425.506 64.8956 425.193C64.2195 424.875 63.6825 424.417 63.2848 423.821C62.8871 423.219 62.6882 422.491 62.6882 421.639C62.6882 420.889 62.8359 420.281 63.1314 419.815C63.4268 419.344 63.8217 418.974 64.3161 418.707C64.8104 418.44 65.3558 418.241 65.9524 418.111C66.5547 417.974 67.1598 417.866 67.7678 417.787C68.5632 417.685 69.2081 417.608 69.7024 417.557C70.2024 417.5 70.5661 417.406 70.7933 417.275C71.0263 417.145 71.1428 416.917 71.1428 416.594V416.525C71.1428 415.685 70.9126 415.031 70.4524 414.565C69.9979 414.099 69.3075 413.866 68.3814 413.866C67.4212 413.866 66.6683 414.077 66.1229 414.497C65.5774 414.917 65.1939 415.366 64.9723 415.844L63.0632 415.162C63.4041 414.366 63.8587 413.747 64.4268 413.304C65.0007 412.855 65.6257 412.542 66.3018 412.366C66.9837 412.185 67.6541 412.094 68.3132 412.094C68.7337 412.094 69.2166 412.145 69.7621 412.247C70.3132 412.344 70.8445 412.545 71.3558 412.852C71.8729 413.159 72.3018 413.622 72.6428 414.241C72.9837 414.861 73.1541 415.69 73.1541 416.73V425.355H71.1428V423.582H71.0405C70.9041 423.866 70.6768 424.17 70.3587 424.494C70.0405 424.818 69.6172 425.094 69.0888 425.321C68.5604 425.548 67.9155 425.662 67.1541 425.662ZM67.4609 423.855C68.2564 423.855 68.9268 423.699 69.4723 423.386C70.0234 423.074 70.4382 422.67 70.7166 422.176C71.0007 421.682 71.1428 421.162 71.1428 420.616V418.775C71.0575 418.878 70.87 418.971 70.5803 419.057C70.2962 419.136 69.9666 419.207 69.5916 419.27C69.2223 419.327 68.8615 419.378 68.5092 419.423C68.1626 419.463 67.8814 419.497 67.6655 419.525C67.1428 419.594 66.6541 419.704 66.1996 419.858C65.7507 420.006 65.3871 420.23 65.1087 420.531C64.8359 420.827 64.6996 421.23 64.6996 421.741C64.6996 422.44 64.9581 422.969 65.4751 423.327C65.9979 423.679 66.6598 423.855 67.4609 423.855ZM82.5185 412.264V413.969H75.7344V412.264H82.5185ZM77.7116 409.128H79.723V421.605C79.723 422.173 79.8054 422.599 79.9702 422.883C80.1406 423.162 80.3565 423.349 80.6179 423.446C80.8849 423.537 81.1662 423.582 81.4616 423.582C81.6832 423.582 81.8651 423.571 82.0071 423.548C82.1491 423.52 82.2628 423.497 82.348 423.48L82.7571 425.287C82.6207 425.338 82.4304 425.389 82.1861 425.44C81.9418 425.497 81.6321 425.525 81.2571 425.525C80.6889 425.525 80.1321 425.403 79.5866 425.159C79.0469 424.915 78.598 424.542 78.2401 424.042C77.8878 423.542 77.7116 422.912 77.7116 422.15V409.128ZM90.892 425.628C89.6307 425.628 88.5426 425.349 87.6278 424.792C86.7188 424.23 86.017 423.446 85.5227 422.44C85.0341 421.429 84.7898 420.253 84.7898 418.912C84.7898 417.571 85.0341 416.389 85.5227 415.366C86.017 414.338 86.7045 413.537 87.5852 412.963C88.4716 412.383 89.5057 412.094 90.6875 412.094C91.3693 412.094 92.0426 412.207 92.7074 412.435C93.3722 412.662 93.9773 413.031 94.5227 413.542C95.0682 414.048 95.5028 414.719 95.8267 415.554C96.1506 416.389 96.3125 417.417 96.3125 418.639V419.491H86.2216V417.753H94.267C94.267 417.014 94.1193 416.355 93.8239 415.775C93.5341 415.196 93.1193 414.739 92.5795 414.403C92.0455 414.068 91.4148 413.9 90.6875 413.9C89.8864 413.9 89.1932 414.099 88.608 414.497C88.0284 414.889 87.5824 415.4 87.2699 416.031C86.9574 416.662 86.8011 417.338 86.8011 418.06V419.219C86.8011 420.207 86.9716 421.045 87.3125 421.733C87.6591 422.415 88.1392 422.935 88.7528 423.292C89.3665 423.645 90.0795 423.821 90.892 423.821C91.4205 423.821 91.8977 423.747 92.3239 423.599C92.7557 423.446 93.1278 423.219 93.4403 422.917C93.7528 422.611 93.9943 422.23 94.1648 421.775L96.108 422.321C95.9034 422.98 95.5597 423.56 95.0767 424.06C94.5938 424.554 93.9972 424.94 93.2869 425.219C92.5767 425.491 91.7784 425.628 90.892 425.628ZM104.656 430.537C103.685 430.537 102.849 430.412 102.151 430.162C101.452 429.917 100.869 429.594 100.403 429.19C99.9432 428.792 99.5767 428.366 99.304 427.912L100.906 426.787C101.088 427.025 101.318 427.298 101.597 427.605C101.875 427.917 102.256 428.187 102.739 428.415C103.227 428.648 103.866 428.764 104.656 428.764C105.713 428.764 106.585 428.508 107.273 427.997C107.96 427.486 108.304 426.685 108.304 425.594V422.935H108.134C107.986 423.173 107.776 423.469 107.503 423.821C107.236 424.167 106.849 424.477 106.344 424.75C105.844 425.017 105.168 425.15 104.315 425.15C103.259 425.15 102.31 424.9 101.469 424.4C100.634 423.9 99.9716 423.173 99.483 422.219C99 421.264 98.7585 420.105 98.7585 418.741C98.7585 417.4 98.9943 416.233 99.4659 415.239C99.9375 414.239 100.594 413.466 101.435 412.92C102.276 412.369 103.247 412.094 104.349 412.094C105.202 412.094 105.878 412.236 106.378 412.52C106.884 412.798 107.27 413.116 107.537 413.474C107.81 413.827 108.02 414.116 108.168 414.344H108.372V412.264H110.315V425.73C110.315 426.855 110.06 427.77 109.548 428.474C109.043 429.185 108.361 429.704 107.503 430.034C106.651 430.369 105.702 430.537 104.656 430.537ZM104.588 423.344C105.395 423.344 106.077 423.159 106.634 422.79C107.19 422.42 107.614 421.889 107.903 421.196C108.193 420.503 108.338 419.673 108.338 418.707C108.338 417.764 108.196 416.932 107.912 416.21C107.628 415.489 107.207 414.923 106.651 414.514C106.094 414.105 105.406 413.9 104.588 413.9C103.736 413.9 103.026 414.116 102.457 414.548C101.895 414.98 101.472 415.56 101.188 416.287C100.909 417.014 100.77 417.821 100.77 418.707C100.77 419.616 100.912 420.42 101.196 421.119C101.486 421.812 101.912 422.358 102.474 422.756C103.043 423.148 103.747 423.344 104.588 423.344ZM119.315 425.628C118.134 425.628 117.097 425.346 116.205 424.784C115.318 424.221 114.625 423.435 114.125 422.423C113.631 421.412 113.384 420.23 113.384 418.878C113.384 417.514 113.631 416.324 114.125 415.307C114.625 414.29 115.318 413.5 116.205 412.937C117.097 412.375 118.134 412.094 119.315 412.094C120.497 412.094 121.531 412.375 122.418 412.937C123.31 413.5 124.003 414.29 124.497 415.307C124.997 416.324 125.247 417.514 125.247 418.878C125.247 420.23 124.997 421.412 124.497 422.423C124.003 423.435 123.31 424.221 122.418 424.784C121.531 425.346 120.497 425.628 119.315 425.628ZM119.315 423.821C120.213 423.821 120.952 423.591 121.531 423.131C122.111 422.67 122.54 422.065 122.818 421.315C123.097 420.565 123.236 419.753 123.236 418.878C123.236 418.003 123.097 417.187 122.818 416.432C122.54 415.676 122.111 415.065 121.531 414.599C120.952 414.133 120.213 413.9 119.315 413.9C118.418 413.9 117.679 414.133 117.099 414.599C116.52 415.065 116.091 415.676 115.812 416.432C115.534 417.187 115.395 418.003 115.395 418.878C115.395 419.753 115.534 420.565 115.812 421.315C116.091 422.065 116.52 422.67 117.099 423.131C117.679 423.591 118.418 423.821 119.315 423.821ZM128.317 425.355V412.264H130.261V414.241H130.397C130.636 413.594 131.067 413.068 131.692 412.665C132.317 412.261 133.022 412.06 133.806 412.06C133.954 412.06 134.138 412.062 134.36 412.068C134.582 412.074 134.749 412.082 134.863 412.094V414.139C134.795 414.122 134.638 414.096 134.394 414.062C134.156 414.023 133.903 414.003 133.636 414.003C132.999 414.003 132.431 414.136 131.931 414.403C131.437 414.665 131.045 415.028 130.755 415.494C130.471 415.954 130.329 416.48 130.329 417.071V425.355H128.317ZM138.941 430.264C138.6 430.264 138.296 430.236 138.029 430.179C137.762 430.128 137.577 430.077 137.475 430.025L137.987 428.253C138.475 428.378 138.907 428.423 139.282 428.389C139.657 428.355 139.989 428.187 140.279 427.886C140.575 427.591 140.844 427.111 141.089 426.446L141.464 425.423L136.623 412.264H138.805L142.418 422.696H142.555L146.168 412.264H148.35L142.793 427.264C142.543 427.94 142.234 428.5 141.864 428.943C141.495 429.392 141.066 429.724 140.577 429.94C140.094 430.156 139.549 430.264 138.941 430.264Z" fill="#D9D9D9"/>
<line y1="-2.71429" x2="20.1262" y2="-2.71429" transform="matrix(0.621043 -0.784238 0.622248 0.782358 530.024 439.511)" stroke="#D9D9D9" stroke-width="5.42857"/>
<line y1="-2.71429" x2="20.1262" y2="-2.71429" transform="matrix(0.622248 0.782358 0.621043 -0.784238 530 407.982)" stroke="#D9D9D9" stroke-width="5.42857"/>
<rect x="24.5" y="498.186" width="531" height="70.4986" rx="9.5" fill="white" stroke="#D9D9D9"/>
<rect x="24.5" y="596.5" width="531" height="70.4986" rx="9.5" fill="white" stroke="#D9D9D9"/>
<path d="M46.1136 536.108V518.653H56.6477V520.528H48.2273V526.426H56.1023V528.301H48.2273V534.233H56.7841V536.108H46.1136ZM70.8892 523.017L66.0483 536.108H64.0028L59.1619 523.017H61.3438L64.9574 533.449H65.0938L68.7074 523.017H70.8892ZM78.5639 536.38C77.3026 536.38 76.2145 536.102 75.2997 535.545C74.3906 534.983 73.6889 534.199 73.1946 533.193C72.706 532.182 72.4616 531.005 72.4616 529.664C72.4616 528.324 72.706 527.142 73.1946 526.119C73.6889 525.091 74.3764 524.289 75.2571 523.716C76.1435 523.136 77.1776 522.846 78.3594 522.846C79.0412 522.846 79.7145 522.96 80.3793 523.187C81.044 523.414 81.6491 523.784 82.1946 524.295C82.7401 524.801 83.1747 525.471 83.4986 526.307C83.8224 527.142 83.9844 528.17 83.9844 529.392V530.244H73.8935V528.505H81.9389C81.9389 527.767 81.7912 527.108 81.4957 526.528C81.206 525.949 80.7912 525.491 80.2514 525.156C79.7173 524.821 79.0866 524.653 78.3594 524.653C77.5582 524.653 76.8651 524.852 76.2798 525.25C75.7003 525.642 75.2543 526.153 74.9418 526.784C74.6293 527.414 74.473 528.091 74.473 528.812V529.971C74.473 530.96 74.6435 531.798 74.9844 532.486C75.331 533.167 75.8111 533.687 76.4247 534.045C77.0384 534.397 77.7514 534.574 78.5639 534.574C79.0923 534.574 79.5696 534.5 79.9957 534.352C80.4276 534.199 80.7997 533.971 81.1122 533.67C81.4247 533.363 81.6662 532.983 81.8366 532.528L83.7798 533.074C83.5753 533.733 83.2315 534.312 82.7486 534.812C82.2656 535.307 81.669 535.693 80.9588 535.971C80.2486 536.244 79.4503 536.38 78.5639 536.38ZM89.0554 528.233V536.108H87.044V523.017H88.9872V525.062H89.1577C89.4645 524.397 89.9304 523.863 90.5554 523.46C91.1804 523.051 91.9872 522.846 92.9759 522.846C93.8622 522.846 94.6378 523.028 95.3026 523.392C95.9673 523.75 96.4844 524.295 96.8537 525.028C97.223 525.755 97.4077 526.676 97.4077 527.789V536.108H95.3963V527.926C95.3963 526.897 95.1293 526.096 94.5952 525.522C94.0611 524.943 93.3281 524.653 92.3963 524.653C91.7543 524.653 91.1804 524.792 90.6747 525.071C90.1747 525.349 89.7798 525.755 89.4901 526.289C89.2003 526.824 89.0554 527.471 89.0554 528.233ZM106.776 523.017V524.721H99.9922V523.017H106.776ZM101.969 519.88H103.981V532.358C103.981 532.926 104.063 533.352 104.228 533.636C104.398 533.914 104.614 534.102 104.876 534.199C105.143 534.289 105.424 534.335 105.719 534.335C105.941 534.335 106.123 534.324 106.265 534.301C106.407 534.272 106.521 534.25 106.606 534.233L107.015 536.039C106.879 536.091 106.688 536.142 106.444 536.193C106.2 536.25 105.89 536.278 105.515 536.278C104.947 536.278 104.39 536.156 103.844 535.912C103.305 535.667 102.856 535.295 102.498 534.795C102.146 534.295 101.969 533.664 101.969 532.903V519.88ZM121.495 536.38C120.404 536.38 119.441 536.105 118.606 535.554C117.771 534.997 117.117 534.213 116.646 533.201C116.174 532.184 115.938 530.983 115.938 529.596C115.938 528.221 116.174 527.028 116.646 526.017C117.117 525.005 117.773 524.224 118.614 523.673C119.455 523.122 120.427 522.846 121.529 522.846C122.381 522.846 123.055 522.988 123.549 523.272C124.049 523.551 124.43 523.869 124.691 524.227C124.958 524.579 125.165 524.869 125.313 525.096H125.484V518.653H127.495V536.108H125.552V534.096H125.313C125.165 534.335 124.955 534.636 124.683 535C124.41 535.358 124.021 535.679 123.515 535.963C123.009 536.241 122.336 536.38 121.495 536.38ZM121.768 534.574C122.575 534.574 123.256 534.363 123.813 533.943C124.37 533.517 124.793 532.929 125.083 532.179C125.373 531.423 125.518 530.551 125.518 529.562C125.518 528.585 125.376 527.73 125.092 526.997C124.808 526.258 124.387 525.684 123.83 525.275C123.273 524.861 122.586 524.653 121.768 524.653C120.915 524.653 120.205 524.872 119.637 525.309C119.075 525.741 118.651 526.329 118.367 527.074C118.089 527.812 117.95 528.642 117.95 529.562C117.95 530.494 118.092 531.341 118.376 532.102C118.665 532.858 119.092 533.46 119.654 533.909C120.222 534.352 120.927 534.574 121.768 534.574ZM136.947 536.38C135.685 536.38 134.597 536.102 133.683 535.545C132.773 534.983 132.072 534.199 131.577 533.193C131.089 532.182 130.844 531.005 130.844 529.664C130.844 528.324 131.089 527.142 131.577 526.119C132.072 525.091 132.759 524.289 133.64 523.716C134.526 523.136 135.56 522.846 136.742 522.846C137.424 522.846 138.097 522.96 138.762 523.187C139.427 523.414 140.032 523.784 140.577 524.295C141.123 524.801 141.558 525.471 141.881 526.307C142.205 527.142 142.367 528.17 142.367 529.392V530.244H132.276V528.505H140.322C140.322 527.767 140.174 527.108 139.879 526.528C139.589 525.949 139.174 525.491 138.634 525.156C138.1 524.821 137.469 524.653 136.742 524.653C135.941 524.653 135.248 524.852 134.663 525.25C134.083 525.642 133.637 526.153 133.325 526.784C133.012 527.414 132.856 528.091 132.856 528.812V529.971C132.856 530.96 133.026 531.798 133.367 532.486C133.714 533.167 134.194 533.687 134.808 534.045C135.421 534.397 136.134 534.574 136.947 534.574C137.475 534.574 137.952 534.5 138.379 534.352C138.81 534.199 139.183 533.971 139.495 533.67C139.808 533.363 140.049 532.983 140.219 532.528L142.163 533.074C141.958 533.733 141.614 534.312 141.131 534.812C140.648 535.307 140.052 535.693 139.342 535.971C138.631 536.244 137.833 536.38 136.947 536.38ZM154.7 525.949L152.893 526.46C152.779 526.159 152.612 525.866 152.39 525.582C152.174 525.292 151.879 525.054 151.504 524.866C151.129 524.679 150.648 524.585 150.063 524.585C149.262 524.585 148.594 524.77 148.06 525.139C147.532 525.503 147.268 525.966 147.268 526.528C147.268 527.028 147.45 527.423 147.813 527.713C148.177 528.003 148.745 528.244 149.518 528.437L151.461 528.914C152.631 529.199 153.504 529.633 154.077 530.218C154.651 530.798 154.938 531.545 154.938 532.46C154.938 533.21 154.722 533.88 154.29 534.471C153.864 535.062 153.268 535.528 152.501 535.869C151.734 536.21 150.842 536.38 149.825 536.38C148.489 536.38 147.384 536.091 146.509 535.511C145.634 534.932 145.08 534.085 144.847 532.971L146.756 532.494C146.938 533.199 147.282 533.727 147.788 534.079C148.299 534.432 148.967 534.608 149.79 534.608C150.728 534.608 151.472 534.409 152.023 534.011C152.58 533.608 152.859 533.125 152.859 532.562C152.859 532.108 152.7 531.727 152.381 531.42C152.063 531.108 151.575 530.875 150.915 530.721L148.734 530.21C147.535 529.926 146.654 529.486 146.092 528.889C145.535 528.287 145.256 527.534 145.256 526.63C145.256 525.892 145.464 525.238 145.879 524.67C146.299 524.102 146.87 523.656 147.592 523.332C148.319 523.008 149.143 522.846 150.063 522.846C151.359 522.846 152.376 523.13 153.114 523.699C153.859 524.267 154.387 525.017 154.7 525.949ZM163.284 536.38C162.057 536.38 161 536.091 160.114 535.511C159.227 534.932 158.545 534.133 158.068 533.116C157.591 532.099 157.352 530.937 157.352 529.63C157.352 528.301 157.597 527.128 158.085 526.111C158.58 525.088 159.267 524.289 160.148 523.716C161.034 523.136 162.068 522.846 163.25 522.846C164.17 522.846 165 523.017 165.739 523.358C166.477 523.699 167.082 524.176 167.554 524.789C168.026 525.403 168.318 526.119 168.432 526.937H166.42C166.267 526.341 165.926 525.812 165.398 525.352C164.875 524.886 164.17 524.653 163.284 524.653C162.5 524.653 161.813 524.858 161.222 525.267C160.636 525.67 160.179 526.241 159.849 526.98C159.526 527.713 159.364 528.574 159.364 529.562C159.364 530.574 159.523 531.454 159.841 532.204C160.165 532.954 160.619 533.537 161.205 533.951C161.795 534.366 162.489 534.574 163.284 534.574C163.807 534.574 164.281 534.483 164.707 534.301C165.134 534.119 165.494 533.858 165.79 533.517C166.085 533.176 166.295 532.767 166.42 532.289H168.432C168.318 533.062 168.037 533.758 167.588 534.378C167.145 534.991 166.557 535.48 165.824 535.843C165.097 536.201 164.25 536.38 163.284 536.38ZM171.372 536.108V523.017H173.315V524.994H173.452C173.69 524.346 174.122 523.821 174.747 523.417C175.372 523.014 176.077 522.812 176.861 522.812C177.009 522.812 177.193 522.815 177.415 522.821C177.636 522.826 177.804 522.835 177.918 522.846V524.892C177.849 524.875 177.693 524.849 177.449 524.815C177.21 524.775 176.957 524.755 176.69 524.755C176.054 524.755 175.486 524.889 174.986 525.156C174.491 525.417 174.099 525.781 173.81 526.247C173.526 526.707 173.384 527.233 173.384 527.824V536.108H171.372ZM180.302 536.108V523.017H182.313V536.108H180.302ZM181.325 520.835C180.933 520.835 180.594 520.701 180.31 520.434C180.032 520.167 179.893 519.846 179.893 519.471C179.893 519.096 180.032 518.775 180.31 518.508C180.594 518.241 180.933 518.108 181.325 518.108C181.717 518.108 182.052 518.241 182.33 518.508C182.614 518.775 182.756 519.096 182.756 519.471C182.756 519.846 182.614 520.167 182.33 520.434C182.052 520.701 181.717 520.835 181.325 520.835ZM185.997 541.017V523.017H187.94V525.096H188.179C188.327 524.869 188.531 524.579 188.793 524.227C189.06 523.869 189.44 523.551 189.935 523.272C190.435 522.988 191.111 522.846 191.963 522.846C193.065 522.846 194.037 523.122 194.878 523.673C195.719 524.224 196.375 525.005 196.847 526.017C197.318 527.028 197.554 528.221 197.554 529.596C197.554 530.983 197.318 532.184 196.847 533.201C196.375 534.213 195.722 534.997 194.886 535.554C194.051 536.105 193.088 536.38 191.997 536.38C191.156 536.38 190.483 536.241 189.977 535.963C189.472 535.679 189.082 535.358 188.81 535C188.537 534.636 188.327 534.335 188.179 534.096H188.009V541.017H185.997ZM187.974 529.562C187.974 530.551 188.119 531.423 188.409 532.179C188.699 532.929 189.122 533.517 189.679 533.943C190.236 534.363 190.918 534.574 191.724 534.574C192.565 534.574 193.267 534.352 193.83 533.909C194.398 533.46 194.824 532.858 195.108 532.102C195.398 531.341 195.543 530.494 195.543 529.562C195.543 528.642 195.401 527.812 195.116 527.074C194.838 526.329 194.415 525.741 193.847 525.309C193.284 524.872 192.577 524.653 191.724 524.653C190.906 524.653 190.219 524.861 189.662 525.275C189.105 525.684 188.685 526.258 188.401 526.997C188.116 527.73 187.974 528.585 187.974 529.562ZM206.315 523.017V524.721H199.531V523.017H206.315ZM201.509 519.88H203.52V532.358C203.52 532.926 203.602 533.352 203.767 533.636C203.938 533.914 204.153 534.102 204.415 534.199C204.682 534.289 204.963 534.335 205.259 534.335C205.48 534.335 205.662 534.324 205.804 534.301C205.946 534.272 206.06 534.25 206.145 534.233L206.554 536.039C206.418 536.091 206.227 536.142 205.983 536.193C205.739 536.25 205.429 536.278 205.054 536.278C204.486 536.278 203.929 536.156 203.384 535.912C202.844 535.667 202.395 535.295 202.037 534.795C201.685 534.295 201.509 533.664 201.509 532.903V519.88ZM209.341 536.108V523.017H211.352V536.108H209.341ZM210.364 520.835C209.972 520.835 209.634 520.701 209.349 520.434C209.071 520.167 208.932 519.846 208.932 519.471C208.932 519.096 209.071 518.775 209.349 518.508C209.634 518.241 209.972 518.108 210.364 518.108C210.756 518.108 211.091 518.241 211.369 518.508C211.653 518.775 211.795 519.096 211.795 519.471C211.795 519.846 211.653 520.167 211.369 520.434C211.091 520.701 210.756 520.835 210.364 520.835ZM220.354 536.38C219.173 536.38 218.136 536.099 217.244 535.537C216.357 534.974 215.664 534.187 215.164 533.176C214.67 532.164 214.423 530.983 214.423 529.63C214.423 528.267 214.67 527.076 215.164 526.059C215.664 525.042 216.357 524.253 217.244 523.69C218.136 523.128 219.173 522.846 220.354 522.846C221.536 522.846 222.57 523.128 223.457 523.69C224.349 524.253 225.042 525.042 225.536 526.059C226.036 527.076 226.286 528.267 226.286 529.63C226.286 530.983 226.036 532.164 225.536 533.176C225.042 534.187 224.349 534.974 223.457 535.537C222.57 536.099 221.536 536.38 220.354 536.38ZM220.354 534.574C221.252 534.574 221.991 534.343 222.57 533.883C223.15 533.423 223.579 532.818 223.857 532.068C224.136 531.318 224.275 530.505 224.275 529.63C224.275 528.755 224.136 527.94 223.857 527.184C223.579 526.429 223.15 525.818 222.57 525.352C221.991 524.886 221.252 524.653 220.354 524.653C219.457 524.653 218.718 524.886 218.138 525.352C217.559 525.818 217.13 526.429 216.852 527.184C216.573 527.94 216.434 528.755 216.434 529.63C216.434 530.505 216.573 531.318 216.852 532.068C217.13 532.818 217.559 533.423 218.138 533.883C218.718 534.343 219.457 534.574 220.354 534.574ZM231.368 528.233V536.108H229.357V523.017H231.3V525.062H231.47C231.777 524.397 232.243 523.863 232.868 523.46C233.493 523.051 234.3 522.846 235.288 522.846C236.175 522.846 236.95 523.028 237.615 523.392C238.28 523.75 238.797 524.295 239.166 525.028C239.536 525.755 239.72 526.676 239.72 527.789V536.108H237.709V527.926C237.709 526.897 237.442 526.096 236.908 525.522C236.374 524.943 235.641 524.653 234.709 524.653C234.067 524.653 233.493 524.792 232.987 525.071C232.487 525.349 232.092 525.755 231.803 526.289C231.513 526.824 231.368 527.471 231.368 528.233Z" fill="#D9D9D9"/>
<path d="M43.1591 622.42V620.545H56.25V622.42H50.7614V638H48.6477V622.42H43.1591ZM73.5128 629.273C73.5128 631.114 73.1804 632.705 72.5156 634.045C71.8509 635.386 70.9389 636.42 69.7798 637.148C68.6207 637.875 67.2969 638.239 65.8082 638.239C64.3196 638.239 62.9957 637.875 61.8366 637.148C60.6776 636.42 59.7656 635.386 59.1009 634.045C58.4361 632.705 58.1037 631.114 58.1037 629.273C58.1037 627.432 58.4361 625.841 59.1009 624.5C59.7656 623.159 60.6776 622.125 61.8366 621.398C62.9957 620.67 64.3196 620.307 65.8082 620.307C67.2969 620.307 68.6207 620.67 69.7798 621.398C70.9389 622.125 71.8509 623.159 72.5156 624.5C73.1804 625.841 73.5128 627.432 73.5128 629.273ZM71.4673 629.273C71.4673 627.761 71.2145 626.486 70.7088 625.446C70.2088 624.406 69.5298 623.619 68.6719 623.085C67.8196 622.551 66.8651 622.284 65.8082 622.284C64.7514 622.284 63.794 622.551 62.9361 623.085C62.0838 623.619 61.4048 624.406 60.8991 625.446C60.3991 626.486 60.1491 627.761 60.1491 629.273C60.1491 630.784 60.3991 632.06 60.8991 633.099C61.4048 634.139 62.0838 634.926 62.9361 635.46C63.794 635.994 64.7514 636.261 65.8082 636.261C66.8651 636.261 67.8196 635.994 68.6719 635.46C69.5298 634.926 70.2088 634.139 70.7088 633.099C71.2145 632.06 71.4673 630.784 71.4673 629.273ZM87.3963 638.307C86.5668 638.307 85.8139 638.151 85.1378 637.838C84.4616 637.52 83.9247 637.062 83.527 636.466C83.1293 635.864 82.9304 635.136 82.9304 634.284C82.9304 633.534 83.0781 632.926 83.3736 632.46C83.669 631.989 84.0639 631.619 84.5582 631.352C85.0526 631.085 85.598 630.886 86.1946 630.756C86.7969 630.619 87.402 630.511 88.0099 630.432C88.8054 630.33 89.4503 630.253 89.9446 630.202C90.4446 630.145 90.8082 630.051 91.0355 629.92C91.2685 629.79 91.3849 629.562 91.3849 629.239V629.17C91.3849 628.33 91.1548 627.676 90.6946 627.21C90.2401 626.744 89.5497 626.511 88.6236 626.511C87.6634 626.511 86.9105 626.722 86.3651 627.142C85.8196 627.562 85.4361 628.011 85.2145 628.489L83.3054 627.807C83.6463 627.011 84.1009 626.392 84.669 625.949C85.2429 625.5 85.8679 625.187 86.544 625.011C87.2259 624.83 87.8963 624.739 88.5554 624.739C88.9759 624.739 89.4588 624.79 90.0043 624.892C90.5554 624.989 91.0866 625.19 91.598 625.497C92.1151 625.804 92.544 626.267 92.8849 626.886C93.2259 627.506 93.3963 628.335 93.3963 629.375V638H91.3849V636.227H91.2827C91.1463 636.511 90.919 636.815 90.6009 637.139C90.2827 637.463 89.8594 637.739 89.331 637.966C88.8026 638.193 88.1577 638.307 87.3963 638.307ZM87.7031 636.5C88.4986 636.5 89.169 636.344 89.7145 636.031C90.2656 635.719 90.6804 635.315 90.9588 634.821C91.2429 634.327 91.3849 633.807 91.3849 633.261V631.42C91.2997 631.523 91.1122 631.616 90.8224 631.702C90.5384 631.781 90.2088 631.852 89.8338 631.915C89.4645 631.972 89.1037 632.023 88.7514 632.068C88.4048 632.108 88.1236 632.142 87.9077 632.17C87.3849 632.239 86.8963 632.349 86.4418 632.503C85.9929 632.651 85.6293 632.875 85.3509 633.176C85.0781 633.472 84.9418 633.875 84.9418 634.386C84.9418 635.085 85.2003 635.614 85.7173 635.972C86.2401 636.324 86.902 636.5 87.7031 636.5ZM102.011 638.273C100.92 638.273 99.9567 637.997 99.1214 637.446C98.2862 636.889 97.6328 636.105 97.1612 635.094C96.6896 634.077 96.4538 632.875 96.4538 631.489C96.4538 630.114 96.6896 628.92 97.1612 627.909C97.6328 626.898 98.2891 626.116 99.13 625.565C99.9709 625.014 100.942 624.739 102.045 624.739C102.897 624.739 103.57 624.881 104.065 625.165C104.565 625.443 104.945 625.761 105.207 626.119C105.474 626.472 105.681 626.761 105.829 626.989H105.999V620.545H108.011V638H106.067V635.989H105.829C105.681 636.227 105.471 636.528 105.198 636.892C104.925 637.25 104.536 637.571 104.031 637.855C103.525 638.134 102.852 638.273 102.011 638.273ZM102.283 636.466C103.09 636.466 103.772 636.256 104.329 635.835C104.886 635.409 105.309 634.821 105.599 634.071C105.888 633.315 106.033 632.443 106.033 631.455C106.033 630.477 105.891 629.622 105.607 628.889C105.323 628.151 104.903 627.577 104.346 627.168C103.789 626.753 103.102 626.545 102.283 626.545C101.431 626.545 100.721 626.764 100.153 627.202C99.5902 627.634 99.1669 628.222 98.8828 628.966C98.6044 629.705 98.4652 630.534 98.4652 631.455C98.4652 632.386 98.6072 633.233 98.8913 633.994C99.1811 634.75 99.6072 635.352 100.17 635.801C100.738 636.244 101.442 636.466 102.283 636.466ZM116.917 638.273C115.826 638.273 114.863 637.997 114.028 637.446C113.192 636.889 112.539 636.105 112.067 635.094C111.596 634.077 111.36 632.875 111.36 631.489C111.36 630.114 111.596 628.92 112.067 627.909C112.539 626.898 113.195 626.116 114.036 625.565C114.877 625.014 115.849 624.739 116.951 624.739C117.803 624.739 118.477 624.881 118.971 625.165C119.471 625.443 119.852 625.761 120.113 626.119C120.38 626.472 120.587 626.761 120.735 626.989H120.906V620.545H122.917V638H120.974V635.989H120.735C120.587 636.227 120.377 636.528 120.104 636.892C119.832 637.25 119.442 637.571 118.937 637.855C118.431 638.134 117.758 638.273 116.917 638.273ZM117.19 636.466C117.996 636.466 118.678 636.256 119.235 635.835C119.792 635.409 120.215 634.821 120.505 634.071C120.795 633.315 120.94 632.443 120.94 631.455C120.94 630.477 120.798 629.622 120.513 628.889C120.229 628.151 119.809 627.577 119.252 627.168C118.695 626.753 118.008 626.545 117.19 626.545C116.337 626.545 115.627 626.764 115.059 627.202C114.496 627.634 114.073 628.222 113.789 628.966C113.511 629.705 113.371 630.534 113.371 631.455C113.371 632.386 113.513 633.233 113.798 633.994C114.087 634.75 114.513 635.352 115.076 635.801C115.644 636.244 116.349 636.466 117.19 636.466ZM133.903 638V620.545H139.8C141.17 620.545 142.289 620.793 143.158 621.287C144.033 621.776 144.681 622.438 145.102 623.273C145.522 624.108 145.732 625.04 145.732 626.068C145.732 627.097 145.522 628.031 145.102 628.872C144.687 629.713 144.045 630.384 143.175 630.884C142.306 631.378 141.192 631.625 139.835 631.625H135.607V629.75H139.766C140.704 629.75 141.457 629.588 142.025 629.264C142.593 628.94 143.005 628.503 143.261 627.952C143.522 627.395 143.653 626.767 143.653 626.068C143.653 625.369 143.522 624.744 143.261 624.193C143.005 623.642 142.59 623.21 142.016 622.898C141.442 622.58 140.681 622.42 139.732 622.42H136.016V638H133.903ZM151.251 620.545V638H149.137V620.545H151.251ZM169.534 626H167.42C167.295 625.392 167.077 624.858 166.764 624.398C166.457 623.938 166.082 623.551 165.639 623.239C165.202 622.92 164.716 622.682 164.182 622.523C163.648 622.364 163.091 622.284 162.511 622.284C161.455 622.284 160.497 622.551 159.639 623.085C158.787 623.619 158.108 624.406 157.602 625.446C157.102 626.486 156.852 627.761 156.852 629.273C156.852 630.784 157.102 632.06 157.602 633.099C158.108 634.139 158.787 634.926 159.639 635.46C160.497 635.994 161.455 636.261 162.511 636.261C163.091 636.261 163.648 636.182 164.182 636.023C164.716 635.864 165.202 635.628 165.639 635.315C166.082 634.997 166.457 634.608 166.764 634.148C167.077 633.682 167.295 633.148 167.42 632.545H169.534C169.375 633.437 169.085 634.236 168.665 634.94C168.244 635.645 167.722 636.244 167.097 636.739C166.472 637.227 165.77 637.599 164.991 637.855C164.219 638.111 163.392 638.239 162.511 638.239C161.023 638.239 159.699 637.875 158.54 637.148C157.381 636.42 156.469 635.386 155.804 634.045C155.139 632.705 154.807 631.114 154.807 629.273C154.807 627.432 155.139 625.841 155.804 624.5C156.469 623.159 157.381 622.125 158.54 621.398C159.699 620.67 161.023 620.307 162.511 620.307C163.392 620.307 164.219 620.435 164.991 620.69C165.77 620.946 166.472 621.321 167.097 621.815C167.722 622.304 168.244 622.901 168.665 623.605C169.085 624.304 169.375 625.102 169.534 626ZM171.995 622.42V620.545H185.086V622.42H179.597V638H177.484V622.42H171.995ZM199.803 620.545H201.916V632.102C201.916 633.295 201.635 634.361 201.072 635.298C200.516 636.23 199.729 636.966 198.712 637.506C197.695 638.04 196.501 638.307 195.132 638.307C193.763 638.307 192.57 638.04 191.553 637.506C190.536 636.966 189.746 636.23 189.183 635.298C188.626 634.361 188.348 633.295 188.348 632.102V620.545H190.462V631.932C190.462 632.784 190.649 633.543 191.024 634.207C191.399 634.866 191.933 635.386 192.626 635.767C193.325 636.142 194.161 636.33 195.132 636.33C196.104 636.33 196.939 636.142 197.638 635.767C198.337 635.386 198.871 634.866 199.24 634.207C199.615 633.543 199.803 632.784 199.803 631.932V620.545ZM206.137 638V620.545H212.035C213.398 620.545 214.518 620.778 215.393 621.244C216.268 621.705 216.915 622.338 217.336 623.145C217.756 623.952 217.967 624.869 217.967 625.898C217.967 626.926 217.756 627.838 217.336 628.634C216.915 629.429 216.271 630.054 215.401 630.509C214.532 630.957 213.421 631.182 212.069 631.182H207.296V629.273H212.001C212.933 629.273 213.683 629.136 214.251 628.864C214.825 628.591 215.239 628.205 215.495 627.705C215.756 627.199 215.887 626.597 215.887 625.898C215.887 625.199 215.756 624.588 215.495 624.065C215.234 623.543 214.816 623.139 214.242 622.855C213.668 622.565 212.91 622.42 211.967 622.42H208.251V638H206.137ZM214.353 630.159L218.648 638H216.194L211.967 630.159H214.353ZM221.489 638V620.545H232.023V622.42H223.602V628.318H231.477V630.193H223.602V636.125H232.159V638H221.489Z" fill="#D9D9D9"/>
<rect x="174.5" y="710.5" width="202" height="56.838" rx="9.5" fill="#825E5E" stroke="#D9D9D9"/>
<path d="M259.55 730.116C259.447 729.252 259.033 728.582 258.305 728.104C257.578 727.627 256.686 727.389 255.629 727.389C254.857 727.389 254.18 727.514 253.601 727.764C253.027 728.014 252.578 728.357 252.254 728.795C251.936 729.232 251.777 729.729 251.777 730.286C251.777 730.752 251.888 731.153 252.109 731.488C252.337 731.818 252.626 732.093 252.979 732.315C253.331 732.531 253.7 732.71 254.087 732.852C254.473 732.988 254.828 733.099 255.152 733.184L256.925 733.661C257.379 733.781 257.885 733.945 258.442 734.156C259.004 734.366 259.541 734.653 260.053 735.016C260.57 735.374 260.996 735.835 261.331 736.397C261.666 736.96 261.834 737.65 261.834 738.468C261.834 739.411 261.587 740.264 261.092 741.025C260.604 741.786 259.888 742.391 258.945 742.84C258.007 743.289 256.868 743.514 255.527 743.514C254.277 743.514 253.195 743.312 252.28 742.908C251.371 742.505 250.655 741.943 250.132 741.221C249.615 740.499 249.322 739.661 249.254 738.707H251.436C251.493 739.366 251.714 739.911 252.101 740.343C252.493 740.769 252.987 741.087 253.584 741.298C254.186 741.502 254.834 741.604 255.527 741.604C256.334 741.604 257.058 741.474 257.7 741.212C258.342 740.945 258.851 740.576 259.226 740.104C259.601 739.627 259.788 739.07 259.788 738.434C259.788 737.854 259.626 737.383 259.303 737.019C258.979 736.656 258.553 736.36 258.024 736.133C257.496 735.906 256.925 735.707 256.311 735.536L254.163 734.923C252.8 734.531 251.72 733.971 250.925 733.244C250.129 732.516 249.732 731.565 249.732 730.389C249.732 729.411 249.996 728.559 250.524 727.832C251.058 727.099 251.774 726.531 252.672 726.127C253.575 725.718 254.584 725.514 255.697 725.514C256.822 725.514 257.822 725.715 258.697 726.119C259.572 726.516 260.266 727.062 260.777 727.755C261.294 728.448 261.567 729.235 261.595 730.116H259.55ZM268.888 743.514C268.059 743.514 267.306 743.357 266.63 743.045C265.954 742.727 265.417 742.269 265.019 741.673C264.621 741.07 264.423 740.343 264.423 739.491C264.423 738.741 264.57 738.133 264.866 737.667C265.161 737.195 265.556 736.826 266.05 736.559C266.545 736.292 267.09 736.093 267.687 735.962C268.289 735.826 268.894 735.718 269.502 735.639C270.298 735.536 270.942 735.46 271.437 735.408C271.937 735.352 272.3 735.258 272.528 735.127C272.761 734.996 272.877 734.769 272.877 734.445V734.377C272.877 733.536 272.647 732.883 272.187 732.417C271.732 731.951 271.042 731.718 270.116 731.718C269.156 731.718 268.403 731.928 267.857 732.349C267.312 732.769 266.928 733.218 266.707 733.695L264.798 733.014C265.138 732.218 265.593 731.599 266.161 731.156C266.735 730.707 267.36 730.394 268.036 730.218C268.718 730.036 269.388 729.945 270.048 729.945C270.468 729.945 270.951 729.996 271.496 730.099C272.048 730.195 272.579 730.397 273.09 730.704C273.607 731.011 274.036 731.474 274.377 732.093C274.718 732.712 274.888 733.542 274.888 734.582V743.207H272.877V741.434H272.775C272.638 741.718 272.411 742.022 272.093 742.346C271.775 742.67 271.352 742.945 270.823 743.173C270.295 743.4 269.65 743.514 268.888 743.514ZM269.195 741.707C269.991 741.707 270.661 741.55 271.207 741.238C271.758 740.925 272.173 740.522 272.451 740.028C272.735 739.533 272.877 739.014 272.877 738.468V736.627C272.792 736.729 272.604 736.823 272.315 736.908C272.031 736.988 271.701 737.059 271.326 737.121C270.957 737.178 270.596 737.229 270.244 737.275C269.897 737.315 269.616 737.349 269.4 737.377C268.877 737.445 268.388 737.556 267.934 737.71C267.485 737.857 267.121 738.082 266.843 738.383C266.57 738.678 266.434 739.082 266.434 739.593C266.434 740.292 266.692 740.82 267.21 741.178C267.732 741.531 268.394 741.707 269.195 741.707ZM288.795 730.116L283.955 743.207H281.909L277.068 730.116H279.25L282.864 740.548H283L286.614 730.116H288.795ZM296.47 743.479C295.209 743.479 294.121 743.201 293.206 742.644C292.297 742.082 291.595 741.298 291.101 740.292C290.612 739.281 290.368 738.104 290.368 736.764C290.368 735.423 290.612 734.241 291.101 733.218C291.595 732.19 292.283 731.389 293.163 730.815C294.05 730.235 295.084 729.945 296.266 729.945C296.947 729.945 297.621 730.059 298.286 730.286C298.95 730.514 299.555 730.883 300.101 731.394C300.646 731.9 301.081 732.57 301.405 733.406C301.729 734.241 301.891 735.269 301.891 736.491V737.343H291.8V735.604H299.845C299.845 734.866 299.697 734.207 299.402 733.627C299.112 733.048 298.697 732.59 298.158 732.255C297.624 731.92 296.993 731.752 296.266 731.752C295.464 731.752 294.771 731.951 294.186 732.349C293.607 732.741 293.161 733.252 292.848 733.883C292.536 734.514 292.379 735.19 292.379 735.911V737.07C292.379 738.059 292.55 738.897 292.891 739.585C293.237 740.266 293.717 740.786 294.331 741.144C294.945 741.496 295.658 741.673 296.47 741.673C296.999 741.673 297.476 741.599 297.902 741.451C298.334 741.298 298.706 741.07 299.018 740.769C299.331 740.462 299.572 740.082 299.743 739.627L301.686 740.173C301.482 740.832 301.138 741.411 300.655 741.911C300.172 742.406 299.575 742.792 298.865 743.07C298.155 743.343 297.357 743.479 296.47 743.479Z" fill="#D9D9D9"/>
</svg>
