<svg width="584" height="1015" viewBox="0 0 584 1015" fill="none" xmlns="http://www.w3.org/2000/svg">
<path d="M0 53C0 47.4772 4.47715 43 10 43H574C579.523 43 584 47.4772 584 53V636H0V53Z" fill="#D9D9D9"/>
<path d="M0 10C0 4.47715 4.47715 0 10 0H574C579.523 0 584 4.47715 584 10V50.4696H0V10Z" fill="#A8A8A8"/>
<path d="M51.7727 16.0862C51.7045 15.5104 51.428 15.0635 50.9432 14.7453C50.4583 14.4271 49.8636 14.268 49.1591 14.268C48.6439 14.268 48.1932 14.3514 47.8068 14.518C47.4242 14.6847 47.125 14.9139 46.9091 15.2055C46.697 15.4972 46.5909 15.8286 46.5909 16.1998C46.5909 16.5104 46.6648 16.7775 46.8125 17.001C46.964 17.2207 47.1572 17.4044 47.392 17.5521C47.6269 17.6961 47.8731 17.8154 48.1307 17.9101C48.3883 18.001 48.625 18.0748 48.8409 18.1317L50.0227 18.4498C50.3258 18.5294 50.6629 18.6392 51.0341 18.7794C51.4091 18.9195 51.767 19.1108 52.108 19.3532C52.4527 19.5919 52.7367 19.8987 52.9602 20.2737C53.1837 20.6487 53.2955 21.1089 53.2955 21.6544C53.2955 22.2832 53.1307 22.8514 52.8011 23.3589C52.4754 23.8665 51.9981 24.2699 51.3693 24.5692C50.7443 24.8684 49.9848 25.018 49.0909 25.018C48.2576 25.018 47.536 24.8836 46.9261 24.6146C46.3201 24.3457 45.8428 23.9707 45.4943 23.4896C45.1496 23.0086 44.9545 22.4498 44.9091 21.8135H46.3636C46.4015 22.2529 46.5492 22.6165 46.8068 22.9044C47.0682 23.1885 47.3977 23.4006 47.7955 23.5407C48.197 23.6771 48.6288 23.7453 49.0909 23.7453C49.6288 23.7453 50.1117 23.6582 50.5398 23.4839C50.9678 23.3059 51.3068 23.0597 51.5568 22.7453C51.8068 22.4271 51.9318 22.0559 51.9318 21.6317C51.9318 21.2453 51.8239 20.9309 51.608 20.6885C51.392 20.4461 51.108 20.2491 50.7557 20.0976C50.4034 19.9461 50.0227 19.8135 49.6136 19.6998L48.1818 19.2907C47.2727 19.0294 46.553 18.6563 46.0227 18.1714C45.4924 17.6866 45.2273 17.0521 45.2273 16.268C45.2273 15.6165 45.4034 15.0483 45.7557 14.5635C46.1117 14.0748 46.589 13.6961 47.1875 13.4271C47.7898 13.1544 48.4621 13.018 49.2045 13.018C49.9545 13.018 50.6212 13.1525 51.2045 13.4214C51.7879 13.6866 52.25 14.0502 52.5909 14.5123C52.9356 14.9745 53.1174 15.4991 53.1364 16.0862H51.7727ZM59.0895 24.9953C58.2486 24.9953 57.5232 24.8097 56.9134 24.4385C56.3073 24.0635 55.8395 23.5407 55.5099 22.8703C55.1842 22.1961 55.0213 21.412 55.0213 20.518C55.0213 19.6241 55.1842 18.8362 55.5099 18.1544C55.8395 17.4688 56.2978 16.9347 56.8849 16.5521C57.4759 16.1657 58.1652 15.9726 58.9531 15.9726C59.4077 15.9726 59.8565 16.0483 60.2997 16.1998C60.7429 16.3514 61.1463 16.5976 61.5099 16.9385C61.8736 17.2756 62.1634 17.7226 62.3793 18.2794C62.5952 18.8362 62.7031 19.5218 62.7031 20.3362V20.9044H55.9759V19.7453H61.3395C61.3395 19.2529 61.241 18.8135 61.044 18.4271C60.8509 18.0407 60.5743 17.7358 60.2145 17.5123C59.8584 17.2889 59.438 17.1771 58.9531 17.1771C58.419 17.1771 57.9569 17.3097 57.5668 17.5748C57.1804 17.8362 56.883 18.1771 56.6747 18.5976C56.4664 19.018 56.3622 19.4688 56.3622 19.9498V20.7226C56.3622 21.3817 56.4759 21.9404 56.7031 22.3987C56.9342 22.8532 57.2543 23.1998 57.6634 23.4385C58.0724 23.6733 58.5478 23.7907 59.0895 23.7907C59.4418 23.7907 59.7599 23.7415 60.044 23.643C60.3319 23.5407 60.58 23.3892 60.7884 23.1885C60.9967 22.9839 61.1577 22.7301 61.2713 22.4271L62.5668 22.7907C62.4304 23.2301 62.2012 23.6165 61.8793 23.9498C61.5573 24.2794 61.1596 24.537 60.6861 24.7226C60.2126 24.9044 59.6804 24.9953 59.0895 24.9953ZM68.402 24.9953C67.5611 24.9953 66.8357 24.8097 66.2259 24.4385C65.6198 24.0635 65.152 23.5407 64.8224 22.8703C64.4967 22.1961 64.3338 21.412 64.3338 20.518C64.3338 19.6241 64.4967 18.8362 64.8224 18.1544C65.152 17.4688 65.6103 16.9347 66.1974 16.5521C66.7884 16.1657 67.4777 15.9726 68.2656 15.9726C68.7202 15.9726 69.169 16.0483 69.6122 16.1998C70.0554 16.3514 70.4588 16.5976 70.8224 16.9385C71.1861 17.2756 71.4759 17.7226 71.6918 18.2794C71.9077 18.8362 72.0156 19.5218 72.0156 20.3362V20.9044H65.2884V19.7453H70.652C70.652 19.2529 70.5535 18.8135 70.3565 18.4271C70.1634 18.0407 69.8868 17.7358 69.527 17.5123C69.1709 17.2889 68.7505 17.1771 68.2656 17.1771C67.7315 17.1771 67.2694 17.3097 66.8793 17.5748C66.4929 17.8362 66.1955 18.1771 65.9872 18.5976C65.7789 19.018 65.6747 19.4688 65.6747 19.9498V20.7226C65.6747 21.3817 65.7884 21.9404 66.0156 22.3987C66.2467 22.8532 66.5668 23.1998 66.9759 23.4385C67.3849 23.6733 67.8603 23.7907 68.402 23.7907C68.7543 23.7907 69.0724 23.7415 69.3565 23.643C69.6444 23.5407 69.8925 23.3892 70.1009 23.1885C70.3092 22.9839 70.4702 22.7301 70.5838 22.4271L71.8793 22.7907C71.7429 23.2301 71.5137 23.6165 71.1918 23.9498C70.8698 24.2794 70.4721 24.537 69.9986 24.7226C69.5251 24.9044 68.9929 24.9953 68.402 24.9953ZM75.3054 21.6317L75.2827 19.9726H75.5554L79.3736 16.0862H81.0327L76.9645 20.1998H76.8509L75.3054 21.6317ZM74.0554 24.8135V13.1771H75.3963V24.8135H74.0554ZM79.6009 24.8135L76.1918 20.4953L77.1463 19.5635L81.3054 24.8135H79.6009Z" fill="black"/>
<line y1="-0.5" x2="595.105" y2="-0.5" transform="matrix(-0.895641 0.444778 -0.205233 -0.978713 563 221.601)" stroke="#D9D9D9"/>
<line y1="-2.71429" x2="20.1262" y2="-2.71429" transform="matrix(-0.623477 0.780432 -0.619808 -0.786156 27.5852 8.46924)" stroke="white" stroke-width="5.42857"/>
<line y1="-2.71429" x2="20.1262" y2="-2.71429" transform="matrix(-0.619808 -0.786156 -0.623477 0.780432 27.5115 39.9988)" stroke="white" stroke-width="5.42857"/>
<rect x="24.5" y="79.0083" width="531" height="70.4986" rx="9.5" fill="white" stroke="#D9D9D9"/>
<rect x="24.5" y="387.434" width="531" height="70.4986" rx="9.5" fill="white" stroke="#D9D9D9"/>
<rect x="24.5" y="283.691" width="254" height="70.4986" rx="9.5" fill="white" stroke="#D9D9D9"/>
<rect x="24.5" y="178.546" width="531" height="70.4986" rx="9.5" fill="white" stroke="#D9D9D9"/>
<path d="M39.1591 99.948V98.073H52.25V99.948H46.7614V115.528H44.6477V99.948H39.1591ZM55.2393 115.528V102.437H57.2507V115.528H55.2393ZM56.2621 100.255C55.87 100.255 55.532 100.121 55.2479 99.8543C54.9695 99.5872 54.8303 99.2662 54.8303 98.8912C54.8303 98.5162 54.9695 98.1952 55.2479 97.9282C55.532 97.6611 55.87 97.5276 56.2621 97.5276C56.6541 97.5276 56.9893 97.6611 57.2678 97.9282C57.5518 98.1952 57.6939 98.5162 57.6939 98.8912C57.6939 99.2662 57.5518 99.5872 57.2678 99.8543C56.9893 100.121 56.6541 100.255 56.2621 100.255ZM66.6278 102.437V104.141H59.8438V102.437H66.6278ZM61.821 99.3003H63.8324V111.778C63.8324 112.346 63.9148 112.772 64.0795 113.056C64.25 113.334 64.4659 113.522 64.7273 113.618C64.9943 113.709 65.2756 113.755 65.571 113.755C65.7926 113.755 65.9744 113.743 66.1165 113.721C66.2585 113.692 66.3722 113.67 66.4574 113.653L66.8665 115.459C66.7301 115.511 66.5398 115.562 66.2955 115.613C66.0511 115.67 65.7415 115.698 65.3665 115.698C64.7983 115.698 64.2415 115.576 63.696 115.332C63.1563 115.087 62.7074 114.715 62.3494 114.215C61.9972 113.715 61.821 113.084 61.821 112.323V99.3003ZM71.946 98.073V115.528H69.9347V98.073H71.946ZM81.1186 115.8C79.8572 115.8 78.7692 115.522 77.8544 114.965C76.9453 114.403 76.2436 113.618 75.7493 112.613C75.2607 111.601 75.0163 110.425 75.0163 109.084C75.0163 107.743 75.2607 106.562 75.7493 105.539C76.2436 104.511 76.9311 103.709 77.8118 103.136C78.6982 102.556 79.7322 102.266 80.9141 102.266C81.5959 102.266 82.2692 102.38 82.9339 102.607C83.5987 102.834 84.2038 103.204 84.7493 103.715C85.2947 104.221 85.7294 104.891 86.0533 105.726C86.3771 106.562 86.5391 107.59 86.5391 108.812V109.664H76.4482V107.925H84.4936C84.4936 107.187 84.3459 106.528 84.0504 105.948C83.7607 105.368 83.3459 104.911 82.8061 104.576C82.272 104.241 81.6413 104.073 80.9141 104.073C80.1129 104.073 79.4197 104.272 78.8345 104.67C78.255 105.062 77.8089 105.573 77.4964 106.204C77.1839 106.834 77.0277 107.511 77.0277 108.232V109.391C77.0277 110.38 77.1982 111.218 77.5391 111.905C77.8857 112.587 78.3658 113.107 78.9794 113.465C79.593 113.817 80.3061 113.993 81.1186 113.993C81.647 113.993 82.1243 113.92 82.5504 113.772C82.9822 113.618 83.3544 113.391 83.6669 113.09C83.9794 112.783 84.2209 112.403 84.3913 111.948L86.3345 112.493C86.13 113.153 85.7862 113.732 85.3033 114.232C84.8203 114.726 84.2237 115.113 83.5135 115.391C82.8033 115.664 82.005 115.8 81.1186 115.8Z" fill="#D9D9D9"/>
<path d="M39.1591 307.42V305.545H52.25V307.42H46.7614V323H44.6477V307.42H39.1591ZM58.6591 323.273C57.4773 323.273 56.4403 322.991 55.5483 322.429C54.6619 321.866 53.9688 321.08 53.4688 320.068C52.9744 319.057 52.7273 317.875 52.7273 316.523C52.7273 315.159 52.9744 313.969 53.4688 312.952C53.9688 311.935 54.6619 311.145 55.5483 310.582C56.4403 310.02 57.4773 309.739 58.6591 309.739C59.8409 309.739 60.875 310.02 61.7614 310.582C62.6534 311.145 63.3466 311.935 63.8409 312.952C64.3409 313.969 64.5909 315.159 64.5909 316.523C64.5909 317.875 64.3409 319.057 63.8409 320.068C63.3466 321.08 62.6534 321.866 61.7614 322.429C60.875 322.991 59.8409 323.273 58.6591 323.273ZM58.6591 321.466C59.5568 321.466 60.2955 321.236 60.875 320.776C61.4545 320.315 61.8835 319.71 62.1619 318.96C62.4403 318.21 62.5795 317.398 62.5795 316.523C62.5795 315.648 62.4403 314.832 62.1619 314.077C61.8835 313.321 61.4545 312.71 60.875 312.244C60.2955 311.778 59.5568 311.545 58.6591 311.545C57.7614 311.545 57.0227 311.778 56.4432 312.244C55.8636 312.71 55.4347 313.321 55.1562 314.077C54.8778 314.832 54.7386 315.648 54.7386 316.523C54.7386 317.398 54.8778 318.21 55.1562 318.96C55.4347 319.71 55.8636 320.315 56.4432 320.776C57.0227 321.236 57.7614 321.466 58.6591 321.466ZM78.2635 323.307C77.4339 323.307 76.6811 323.151 76.005 322.838C75.3288 322.52 74.7919 322.062 74.3942 321.466C73.9964 320.864 73.7976 320.136 73.7976 319.284C73.7976 318.534 73.9453 317.926 74.2408 317.46C74.5362 316.989 74.9311 316.619 75.4254 316.352C75.9197 316.085 76.4652 315.886 77.0618 315.756C77.6641 315.619 78.2692 315.511 78.8771 315.432C79.6726 315.33 80.3175 315.253 80.8118 315.202C81.3118 315.145 81.6754 315.051 81.9027 314.92C82.1357 314.79 82.2521 314.562 82.2521 314.239V314.17C82.2521 313.33 82.022 312.676 81.5618 312.21C81.1072 311.744 80.4169 311.511 79.4908 311.511C78.5305 311.511 77.7777 311.722 77.2322 312.142C76.6868 312.562 76.3033 313.011 76.0817 313.489L74.1726 312.807C74.5135 312.011 74.968 311.392 75.5362 310.949C76.1101 310.5 76.7351 310.187 77.4112 310.011C78.093 309.83 78.7635 309.739 79.4226 309.739C79.843 309.739 80.326 309.79 80.8714 309.892C81.4226 309.989 81.9538 310.19 82.4652 310.497C82.9822 310.804 83.4112 311.267 83.7521 311.886C84.093 312.506 84.2635 313.335 84.2635 314.375V323H82.2521V321.227H82.1499C82.0135 321.511 81.7862 321.815 81.468 322.139C81.1499 322.463 80.7266 322.739 80.1982 322.966C79.6697 323.193 79.0249 323.307 78.2635 323.307ZM78.5703 321.5C79.3658 321.5 80.0362 321.344 80.5817 321.031C81.1328 320.719 81.5476 320.315 81.826 319.821C82.1101 319.327 82.2521 318.807 82.2521 318.261V316.42C82.1669 316.523 81.9794 316.616 81.6896 316.702C81.4055 316.781 81.076 316.852 80.701 316.915C80.3317 316.972 79.9709 317.023 79.6186 317.068C79.272 317.108 78.9908 317.142 78.7749 317.17C78.2521 317.239 77.7635 317.349 77.3089 317.503C76.8601 317.651 76.4964 317.875 76.218 318.176C75.9453 318.472 75.8089 318.875 75.8089 319.386C75.8089 320.085 76.0675 320.614 76.5845 320.972C77.1072 321.324 77.7692 321.5 78.5703 321.5ZM92.8778 323.273C91.7869 323.273 90.8239 322.997 89.9886 322.446C89.1534 321.889 88.5 321.105 88.0284 320.094C87.5568 319.077 87.321 317.875 87.321 316.489C87.321 315.114 87.5568 313.92 88.0284 312.909C88.5 311.898 89.1563 311.116 89.9972 310.565C90.8381 310.014 91.8097 309.739 92.9119 309.739C93.7642 309.739 94.4375 309.881 94.9318 310.165C95.4318 310.443 95.8125 310.761 96.0739 311.119C96.3409 311.472 96.5483 311.761 96.696 311.989H96.8665V305.545H98.8778V323H96.9347V320.989H96.696C96.5483 321.227 96.3381 321.528 96.0653 321.892C95.7926 322.25 95.4034 322.571 94.8977 322.855C94.392 323.134 93.7188 323.273 92.8778 323.273ZM93.1506 321.466C93.9574 321.466 94.6392 321.256 95.196 320.835C95.7528 320.409 96.1761 319.821 96.4659 319.071C96.7557 318.315 96.9006 317.443 96.9006 316.455C96.9006 315.477 96.7585 314.622 96.4744 313.889C96.1903 313.151 95.7699 312.577 95.2131 312.168C94.6563 311.753 93.9688 311.545 93.1506 311.545C92.2983 311.545 91.5881 311.764 91.0199 312.202C90.4574 312.634 90.0341 313.222 89.75 313.966C89.4716 314.705 89.3324 315.534 89.3324 316.455C89.3324 317.386 89.4744 318.233 89.7585 318.994C90.0483 319.75 90.4744 320.352 91.0369 320.801C91.6051 321.244 92.3097 321.466 93.1506 321.466ZM107.784 323.273C106.693 323.273 105.73 322.997 104.895 322.446C104.06 321.889 103.406 321.105 102.935 320.094C102.463 319.077 102.227 317.875 102.227 316.489C102.227 315.114 102.463 313.92 102.935 312.909C103.406 311.898 104.063 311.116 104.903 310.565C105.744 310.014 106.716 309.739 107.818 309.739C108.67 309.739 109.344 309.881 109.838 310.165C110.338 310.443 110.719 310.761 110.98 311.119C111.247 311.472 111.455 311.761 111.602 311.989H111.773V305.545H113.784V323H111.841V320.989H111.602C111.455 321.227 111.244 321.528 110.972 321.892C110.699 322.25 110.31 322.571 109.804 322.855C109.298 323.134 108.625 323.273 107.784 323.273ZM108.057 321.466C108.864 321.466 109.545 321.256 110.102 320.835C110.659 320.409 111.082 319.821 111.372 319.071C111.662 318.315 111.807 317.443 111.807 316.455C111.807 315.477 111.665 314.622 111.381 313.889C111.097 313.151 110.676 312.577 110.119 312.168C109.563 311.753 108.875 311.545 108.057 311.545C107.205 311.545 106.494 311.764 105.926 312.202C105.364 312.634 104.94 313.222 104.656 313.966C104.378 314.705 104.239 315.534 104.239 316.455C104.239 317.386 104.381 318.233 104.665 318.994C104.955 319.75 105.381 320.352 105.943 320.801C106.511 321.244 107.216 321.466 108.057 321.466ZM124.497 327.909V309.909H126.44V311.989H126.679C126.827 311.761 127.031 311.472 127.293 311.119C127.56 310.761 127.94 310.443 128.435 310.165C128.935 309.881 129.611 309.739 130.463 309.739C131.565 309.739 132.537 310.014 133.378 310.565C134.219 311.116 134.875 311.898 135.347 312.909C135.818 313.92 136.054 315.114 136.054 316.489C136.054 317.875 135.818 319.077 135.347 320.094C134.875 321.105 134.222 321.889 133.386 322.446C132.551 322.997 131.588 323.273 130.497 323.273C129.656 323.273 128.983 323.134 128.477 322.855C127.972 322.571 127.582 322.25 127.31 321.892C127.037 321.528 126.827 321.227 126.679 320.989H126.509V327.909H124.497ZM126.474 316.455C126.474 317.443 126.619 318.315 126.909 319.071C127.199 319.821 127.622 320.409 128.179 320.835C128.736 321.256 129.418 321.466 130.224 321.466C131.065 321.466 131.767 321.244 132.33 320.801C132.898 320.352 133.324 319.75 133.608 318.994C133.898 318.233 134.043 317.386 134.043 316.455C134.043 315.534 133.901 314.705 133.616 313.966C133.338 313.222 132.915 312.634 132.347 312.202C131.784 311.764 131.077 311.545 130.224 311.545C129.406 311.545 128.719 311.753 128.162 312.168C127.605 312.577 127.185 313.151 126.901 313.889C126.616 314.622 126.474 315.477 126.474 316.455ZM139.122 323V309.909H141.134V323H139.122ZM140.145 307.727C139.753 307.727 139.415 307.594 139.131 307.327C138.852 307.06 138.713 306.739 138.713 306.364C138.713 305.989 138.852 305.668 139.131 305.401C139.415 305.134 139.753 305 140.145 305C140.537 305 140.872 305.134 141.151 305.401C141.435 305.668 141.577 305.989 141.577 306.364C141.577 306.739 141.435 307.06 141.151 307.327C140.872 307.594 140.537 307.727 140.145 307.727ZM150.136 323.273C148.908 323.273 147.852 322.983 146.965 322.403C146.079 321.824 145.397 321.026 144.92 320.009C144.442 318.991 144.204 317.83 144.204 316.523C144.204 315.193 144.448 314.02 144.937 313.003C145.431 311.98 146.119 311.182 146.999 310.608C147.886 310.028 148.92 309.739 150.102 309.739C151.022 309.739 151.852 309.909 152.59 310.25C153.329 310.591 153.934 311.068 154.406 311.682C154.877 312.295 155.17 313.011 155.283 313.83H153.272C153.119 313.233 152.778 312.705 152.249 312.244C151.727 311.778 151.022 311.545 150.136 311.545C149.352 311.545 148.664 311.75 148.073 312.159C147.488 312.562 147.031 313.134 146.701 313.872C146.377 314.605 146.215 315.466 146.215 316.455C146.215 317.466 146.374 318.347 146.692 319.097C147.016 319.847 147.471 320.429 148.056 320.844C148.647 321.259 149.34 321.466 150.136 321.466C150.658 321.466 151.133 321.375 151.559 321.193C151.985 321.011 152.346 320.75 152.641 320.409C152.937 320.068 153.147 319.659 153.272 319.182H155.283C155.17 319.955 154.888 320.651 154.44 321.27C153.996 321.884 153.408 322.372 152.675 322.736C151.948 323.094 151.102 323.273 150.136 323.273ZM163.917 309.909V311.614H157.133V309.909H163.917ZM159.11 306.773H161.121V319.25C161.121 319.818 161.204 320.244 161.369 320.528C161.539 320.807 161.755 320.994 162.016 321.091C162.283 321.182 162.565 321.227 162.86 321.227C163.082 321.227 163.263 321.216 163.406 321.193C163.548 321.165 163.661 321.142 163.746 321.125L164.156 322.932C164.019 322.983 163.829 323.034 163.585 323.085C163.34 323.142 163.031 323.17 162.656 323.17C162.087 323.17 161.531 323.048 160.985 322.804C160.445 322.56 159.996 322.188 159.638 321.688C159.286 321.188 159.11 320.557 159.11 319.795V306.773ZM175.192 317.648V309.909H177.204V323H175.192V320.784H175.056C174.749 321.449 174.272 322.014 173.624 322.48C172.977 322.94 172.158 323.17 171.17 323.17C170.352 323.17 169.624 322.991 168.988 322.634C168.352 322.27 167.852 321.724 167.488 320.997C167.124 320.264 166.942 319.341 166.942 318.227V309.909H168.954V318.091C168.954 319.045 169.221 319.807 169.755 320.375C170.295 320.943 170.982 321.227 171.817 321.227C172.317 321.227 172.826 321.099 173.343 320.844C173.866 320.588 174.303 320.196 174.656 319.668C175.013 319.139 175.192 318.466 175.192 317.648ZM180.888 323V309.909H182.831V311.886H182.967C183.206 311.239 183.638 310.713 184.263 310.31C184.888 309.906 185.592 309.705 186.376 309.705C186.524 309.705 186.709 309.707 186.93 309.713C187.152 309.719 187.32 309.727 187.433 309.739V311.784C187.365 311.767 187.209 311.741 186.964 311.707C186.726 311.668 186.473 311.648 186.206 311.648C185.57 311.648 185.001 311.781 184.501 312.048C184.007 312.31 183.615 312.673 183.325 313.139C183.041 313.599 182.899 314.125 182.899 314.716V323H180.888ZM194.908 323.273C193.646 323.273 192.558 322.994 191.643 322.438C190.734 321.875 190.033 321.091 189.538 320.085C189.05 319.074 188.805 317.898 188.805 316.557C188.805 315.216 189.05 314.034 189.538 313.011C190.033 311.983 190.72 311.182 191.601 310.608C192.487 310.028 193.521 309.739 194.703 309.739C195.385 309.739 196.058 309.852 196.723 310.08C197.388 310.307 197.993 310.676 198.538 311.188C199.084 311.693 199.518 312.364 199.842 313.199C200.166 314.034 200.328 315.062 200.328 316.284V317.136H190.237V315.398H198.283C198.283 314.659 198.135 314 197.839 313.42C197.55 312.841 197.135 312.384 196.595 312.048C196.061 311.713 195.43 311.545 194.703 311.545C193.902 311.545 193.209 311.744 192.624 312.142C192.044 312.534 191.598 313.045 191.286 313.676C190.973 314.307 190.817 314.983 190.817 315.705V316.864C190.817 317.852 190.987 318.69 191.328 319.378C191.675 320.06 192.155 320.58 192.768 320.938C193.382 321.29 194.095 321.466 194.908 321.466C195.436 321.466 195.913 321.392 196.339 321.244C196.771 321.091 197.143 320.864 197.456 320.562C197.768 320.256 198.01 319.875 198.18 319.42L200.124 319.966C199.919 320.625 199.575 321.205 199.092 321.705C198.609 322.199 198.013 322.585 197.303 322.864C196.592 323.136 195.794 323.273 194.908 323.273Z" fill="#D9D9D9"/>
<path d="M317.159 301.827V299.952H330.25V301.827H324.761V317.406H322.648V301.827H317.159ZM333.239 317.406V304.315H335.251V317.406H333.239ZM334.262 302.134C333.87 302.134 333.532 302 333.248 301.733C332.969 301.466 332.83 301.145 332.83 300.77C332.83 300.395 332.969 300.074 333.248 299.807C333.532 299.54 333.87 299.406 334.262 299.406C334.654 299.406 334.989 299.54 335.268 299.807C335.552 300.074 335.694 300.395 335.694 300.77C335.694 301.145 335.552 301.466 335.268 301.733C334.989 302 334.654 302.134 334.262 302.134ZM338.935 317.406V304.315H340.878V306.361H341.048C341.321 305.662 341.761 305.119 342.369 304.733C342.977 304.341 343.707 304.145 344.56 304.145C345.423 304.145 346.142 304.341 346.716 304.733C347.295 305.119 347.747 305.662 348.071 306.361H348.207C348.543 305.685 349.045 305.148 349.716 304.75C350.386 304.347 351.19 304.145 352.128 304.145C353.298 304.145 354.256 304.511 355 305.244C355.744 305.972 356.116 307.105 356.116 308.645V317.406H354.105V308.645C354.105 307.679 353.841 306.989 353.312 306.574C352.784 306.159 352.162 305.952 351.446 305.952C350.526 305.952 349.813 306.23 349.307 306.787C348.801 307.338 348.548 308.037 348.548 308.884V317.406H346.503V308.44C346.503 307.696 346.261 307.097 345.778 306.642C345.295 306.182 344.673 305.952 343.912 305.952C343.389 305.952 342.901 306.091 342.446 306.369C341.997 306.648 341.634 307.034 341.355 307.528C341.082 308.017 340.946 308.582 340.946 309.224V317.406H338.935ZM365.283 317.679C364.021 317.679 362.933 317.401 362.018 316.844C361.109 316.281 360.408 315.497 359.913 314.491C359.425 313.48 359.18 312.304 359.18 310.963C359.18 309.622 359.425 308.44 359.913 307.418C360.408 306.389 361.095 305.588 361.976 305.014C362.862 304.435 363.896 304.145 365.078 304.145C365.76 304.145 366.433 304.259 367.098 304.486C367.763 304.713 368.368 305.082 368.913 305.594C369.459 306.099 369.893 306.77 370.217 307.605C370.541 308.44 370.703 309.469 370.703 310.69V311.543H360.612V309.804H368.658C368.658 309.065 368.51 308.406 368.214 307.827C367.925 307.247 367.51 306.79 366.97 306.455C366.436 306.119 365.805 305.952 365.078 305.952C364.277 305.952 363.584 306.151 362.999 306.548C362.419 306.94 361.973 307.452 361.661 308.082C361.348 308.713 361.192 309.389 361.192 310.111V311.27C361.192 312.259 361.362 313.097 361.703 313.784C362.05 314.466 362.53 314.986 363.143 315.344C363.757 315.696 364.47 315.872 365.283 315.872C365.811 315.872 366.288 315.798 366.714 315.651C367.146 315.497 367.518 315.27 367.831 314.969C368.143 314.662 368.385 314.281 368.555 313.827L370.499 314.372C370.294 315.031 369.95 315.611 369.467 316.111C368.984 316.605 368.388 316.991 367.678 317.27C366.967 317.543 366.169 317.679 365.283 317.679Z" fill="#D9D9D9"/>
<path d="M38.6136 197.61H41.0341L45.875 205.758H46.0795L50.9205 197.61H53.3409L47.0341 207.872V215.065H44.9205V207.872L38.6136 197.61ZM59.2685 215.338C58.0866 215.338 57.0497 215.056 56.1577 214.494C55.2713 213.931 54.5781 213.144 54.0781 212.133C53.5838 211.122 53.3366 209.94 53.3366 208.588C53.3366 207.224 53.5838 206.034 54.0781 205.017C54.5781 204 55.2713 203.21 56.1577 202.647C57.0497 202.085 58.0866 201.804 59.2685 201.804C60.4503 201.804 61.4844 202.085 62.3707 202.647C63.2628 203.21 63.956 204 64.4503 205.017C64.9503 206.034 65.2003 207.224 65.2003 208.588C65.2003 209.94 64.9503 211.122 64.4503 212.133C63.956 213.144 63.2628 213.931 62.3707 214.494C61.4844 215.056 60.4503 215.338 59.2685 215.338ZM59.2685 213.531C60.1662 213.531 60.9048 213.301 61.4844 212.841C62.0639 212.38 62.4929 211.775 62.7713 211.025C63.0497 210.275 63.1889 209.463 63.1889 208.588C63.1889 207.713 63.0497 206.897 62.7713 206.142C62.4929 205.386 62.0639 204.775 61.4844 204.309C60.9048 203.843 60.1662 203.61 59.2685 203.61C58.3707 203.61 57.6321 203.843 57.0526 204.309C56.473 204.775 56.044 205.386 55.7656 206.142C55.4872 206.897 55.348 207.713 55.348 208.588C55.348 209.463 55.4872 210.275 55.7656 211.025C56.044 211.775 56.473 212.38 57.0526 212.841C57.6321 213.301 58.3707 213.531 59.2685 213.531ZM76.5206 209.713V201.974H78.532V215.065H76.5206V212.849H76.3842C76.0774 213.514 75.6001 214.079 74.9524 214.545C74.3047 215.005 73.4865 215.235 72.4979 215.235C71.6797 215.235 70.9524 215.056 70.3161 214.698C69.6797 214.335 69.1797 213.789 68.8161 213.062C68.4524 212.329 68.2706 211.406 68.2706 210.292V201.974H70.282V210.156C70.282 211.11 70.549 211.872 71.0831 212.44C71.6229 213.008 72.3104 213.292 73.1456 213.292C73.6456 213.292 74.1541 213.164 74.6712 212.909C75.1939 212.653 75.6314 212.261 75.9837 211.733C76.3416 211.204 76.5206 210.531 76.5206 209.713ZM82.2159 215.065V201.974H84.1591V203.951H84.2955C84.5341 203.304 84.9659 202.778 85.5909 202.375C86.2159 201.971 86.9205 201.769 87.7045 201.769C87.8523 201.769 88.0369 201.772 88.2585 201.778C88.4801 201.784 88.6477 201.792 88.7614 201.804V203.849C88.6932 203.832 88.5369 203.806 88.2926 203.772C88.054 203.733 87.8011 203.713 87.5341 203.713C86.8977 203.713 86.3295 203.846 85.8295 204.113C85.3352 204.375 84.9432 204.738 84.6534 205.204C84.3693 205.664 84.2273 206.19 84.2273 206.781V215.065H82.2159ZM97.8956 215.065V201.974H99.8388V204.019H100.009C100.282 203.321 100.722 202.778 101.33 202.392C101.938 202 102.668 201.804 103.521 201.804C104.384 201.804 105.103 202 105.677 202.392C106.256 202.778 106.708 203.321 107.032 204.019H107.168C107.504 203.343 108.006 202.806 108.677 202.409C109.347 202.005 110.151 201.804 111.089 201.804C112.259 201.804 113.217 202.17 113.961 202.903C114.705 203.63 115.077 204.764 115.077 206.304V215.065H113.066V206.304C113.066 205.338 112.802 204.647 112.273 204.233C111.745 203.818 111.123 203.61 110.407 203.61C109.487 203.61 108.773 203.889 108.268 204.446C107.762 204.997 107.509 205.696 107.509 206.542V215.065H105.464V206.099C105.464 205.355 105.222 204.755 104.739 204.301C104.256 203.841 103.634 203.61 102.873 203.61C102.35 203.61 101.862 203.75 101.407 204.028C100.958 204.306 100.594 204.693 100.316 205.187C100.043 205.676 99.907 206.241 99.907 206.883V215.065H97.8956ZM124.244 215.338C122.982 215.338 121.894 215.059 120.979 214.502C120.07 213.94 119.369 213.156 118.874 212.15C118.386 211.139 118.141 209.963 118.141 208.622C118.141 207.281 118.386 206.099 118.874 205.076C119.369 204.048 120.056 203.247 120.937 202.673C121.823 202.093 122.857 201.804 124.039 201.804C124.721 201.804 125.394 201.917 126.059 202.144C126.724 202.372 127.329 202.741 127.874 203.252C128.42 203.758 128.854 204.429 129.178 205.264C129.502 206.099 129.664 207.127 129.664 208.349V209.201H119.573V207.463H127.619C127.619 206.724 127.471 206.065 127.175 205.485C126.886 204.906 126.471 204.448 125.931 204.113C125.397 203.778 124.766 203.61 124.039 203.61C123.238 203.61 122.545 203.809 121.96 204.207C121.38 204.599 120.934 205.11 120.621 205.741C120.309 206.372 120.153 207.048 120.153 207.769V208.929C120.153 209.917 120.323 210.755 120.664 211.443C121.011 212.125 121.491 212.644 122.104 213.002C122.718 213.355 123.431 213.531 124.244 213.531C124.772 213.531 125.249 213.457 125.675 213.309C126.107 213.156 126.479 212.929 126.792 212.627C127.104 212.321 127.346 211.94 127.516 211.485L129.46 212.031C129.255 212.69 128.911 213.269 128.428 213.769C127.945 214.264 127.349 214.65 126.638 214.929C125.928 215.201 125.13 215.338 124.244 215.338ZM141.996 204.906L140.19 205.417C140.076 205.116 139.908 204.823 139.687 204.539C139.471 204.25 139.175 204.011 138.8 203.823C138.425 203.636 137.945 203.542 137.36 203.542C136.559 203.542 135.891 203.727 135.357 204.096C134.829 204.46 134.565 204.923 134.565 205.485C134.565 205.985 134.746 206.38 135.11 206.67C135.474 206.96 136.042 207.201 136.815 207.394L138.758 207.872C139.928 208.156 140.8 208.591 141.374 209.176C141.948 209.755 142.235 210.502 142.235 211.417C142.235 212.167 142.019 212.838 141.587 213.429C141.161 214.019 140.565 214.485 139.798 214.826C139.031 215.167 138.138 215.338 137.121 215.338C135.786 215.338 134.681 215.048 133.806 214.468C132.931 213.889 132.377 213.042 132.144 211.929L134.053 211.451C134.235 212.156 134.579 212.684 135.085 213.037C135.596 213.389 136.263 213.565 137.087 213.565C138.025 213.565 138.769 213.366 139.32 212.968C139.877 212.565 140.156 212.082 140.156 211.519C140.156 211.065 139.996 210.684 139.678 210.377C139.36 210.065 138.871 209.832 138.212 209.679L136.031 209.167C134.832 208.883 133.951 208.443 133.388 207.846C132.832 207.244 132.553 206.491 132.553 205.588C132.553 204.849 132.761 204.196 133.175 203.627C133.596 203.059 134.167 202.613 134.888 202.289C135.616 201.966 136.44 201.804 137.36 201.804C138.656 201.804 139.673 202.088 140.411 202.656C141.156 203.224 141.684 203.974 141.996 204.906ZM154.536 204.906L152.729 205.417C152.615 205.116 152.447 204.823 152.226 204.539C152.01 204.25 151.714 204.011 151.339 203.823C150.964 203.636 150.484 203.542 149.899 203.542C149.098 203.542 148.43 203.727 147.896 204.096C147.368 204.46 147.104 204.923 147.104 205.485C147.104 205.985 147.286 206.38 147.649 206.67C148.013 206.96 148.581 207.201 149.354 207.394L151.297 207.872C152.467 208.156 153.339 208.591 153.913 209.176C154.487 209.755 154.774 210.502 154.774 211.417C154.774 212.167 154.558 212.838 154.126 213.429C153.7 214.019 153.104 214.485 152.337 214.826C151.57 215.167 150.678 215.338 149.661 215.338C148.325 215.338 147.22 215.048 146.345 214.468C145.47 213.889 144.916 213.042 144.683 211.929L146.592 211.451C146.774 212.156 147.118 212.684 147.624 213.037C148.135 213.389 148.803 213.565 149.626 213.565C150.564 213.565 151.308 213.366 151.859 212.968C152.416 212.565 152.695 212.082 152.695 211.519C152.695 211.065 152.536 210.684 152.217 210.377C151.899 210.065 151.411 209.832 150.751 209.679L148.57 209.167C147.371 208.883 146.49 208.443 145.928 207.846C145.371 207.244 145.092 206.491 145.092 205.588C145.092 204.849 145.3 204.196 145.714 203.627C146.135 203.059 146.706 202.613 147.428 202.289C148.155 201.966 148.979 201.804 149.899 201.804C151.195 201.804 152.212 202.088 152.95 202.656C153.695 203.224 154.223 203.974 154.536 204.906ZM161.654 215.372C160.825 215.372 160.072 215.216 159.396 214.903C158.719 214.585 158.183 214.127 157.785 213.531C157.387 212.929 157.188 212.201 157.188 211.349C157.188 210.599 157.336 209.991 157.631 209.525C157.927 209.054 158.322 208.684 158.816 208.417C159.31 208.15 159.856 207.951 160.452 207.821C161.055 207.684 161.66 207.576 162.268 207.497C163.063 207.394 163.708 207.318 164.202 207.267C164.702 207.21 165.066 207.116 165.293 206.985C165.526 206.855 165.643 206.627 165.643 206.304V206.235C165.643 205.394 165.413 204.741 164.952 204.275C164.498 203.809 163.808 203.576 162.881 203.576C161.921 203.576 161.168 203.787 160.623 204.207C160.077 204.627 159.694 205.076 159.472 205.554L157.563 204.872C157.904 204.076 158.359 203.457 158.927 203.014C159.501 202.565 160.126 202.252 160.802 202.076C161.484 201.894 162.154 201.804 162.813 201.804C163.234 201.804 163.717 201.855 164.262 201.957C164.813 202.054 165.344 202.255 165.856 202.562C166.373 202.869 166.802 203.332 167.143 203.951C167.484 204.571 167.654 205.4 167.654 206.44V215.065H165.643V213.292H165.54C165.404 213.576 165.177 213.88 164.859 214.204C164.54 214.528 164.117 214.804 163.589 215.031C163.06 215.258 162.415 215.372 161.654 215.372ZM161.961 213.565C162.756 213.565 163.427 213.409 163.972 213.096C164.523 212.784 164.938 212.38 165.217 211.886C165.501 211.392 165.643 210.872 165.643 210.326V208.485C165.558 208.588 165.37 208.681 165.08 208.767C164.796 208.846 164.467 208.917 164.092 208.98C163.722 209.037 163.362 209.088 163.009 209.133C162.663 209.173 162.381 209.207 162.165 209.235C161.643 209.304 161.154 209.414 160.7 209.568C160.251 209.716 159.887 209.94 159.609 210.241C159.336 210.537 159.2 210.94 159.2 211.451C159.2 212.15 159.458 212.679 159.975 213.037C160.498 213.389 161.16 213.565 161.961 213.565ZM176.609 220.247C175.638 220.247 174.803 220.122 174.104 219.872C173.405 219.627 172.822 219.304 172.357 218.9C171.896 218.502 171.53 218.076 171.257 217.622L172.859 216.497C173.041 216.735 173.271 217.008 173.55 217.315C173.828 217.627 174.209 217.897 174.692 218.125C175.18 218.358 175.82 218.474 176.609 218.474C177.666 218.474 178.538 218.218 179.226 217.707C179.913 217.196 180.257 216.394 180.257 215.304V212.644H180.087C179.939 212.883 179.729 213.179 179.456 213.531C179.189 213.877 178.803 214.187 178.297 214.46C177.797 214.727 177.121 214.86 176.268 214.86C175.212 214.86 174.263 214.61 173.422 214.11C172.587 213.61 171.925 212.883 171.436 211.929C170.953 210.974 170.712 209.815 170.712 208.451C170.712 207.11 170.947 205.943 171.419 204.948C171.891 203.948 172.547 203.176 173.388 202.63C174.229 202.079 175.2 201.804 176.303 201.804C177.155 201.804 177.831 201.946 178.331 202.23C178.837 202.508 179.223 202.826 179.49 203.184C179.763 203.537 179.973 203.826 180.121 204.054H180.325V201.974H182.268V215.44C182.268 216.565 182.013 217.48 181.501 218.184C180.996 218.894 180.314 219.414 179.456 219.744C178.604 220.079 177.655 220.247 176.609 220.247ZM176.541 213.054C177.348 213.054 178.03 212.869 178.587 212.5C179.143 212.13 179.567 211.599 179.857 210.906C180.146 210.213 180.291 209.383 180.291 208.417C180.291 207.474 180.149 206.642 179.865 205.92C179.581 205.198 179.161 204.633 178.604 204.224C178.047 203.815 177.359 203.61 176.541 203.61C175.689 203.61 174.979 203.826 174.411 204.258C173.848 204.69 173.425 205.269 173.141 205.997C172.862 206.724 172.723 207.531 172.723 208.417C172.723 209.326 172.865 210.13 173.149 210.829C173.439 211.522 173.865 212.068 174.428 212.466C174.996 212.858 175.7 213.054 176.541 213.054ZM191.439 215.338C190.178 215.338 189.089 215.059 188.175 214.502C187.266 213.94 186.564 213.156 186.07 212.15C185.581 211.139 185.337 209.963 185.337 208.622C185.337 207.281 185.581 206.099 186.07 205.076C186.564 204.048 187.251 203.247 188.132 202.673C189.018 202.093 190.053 201.804 191.234 201.804C191.916 201.804 192.589 201.917 193.254 202.144C193.919 202.372 194.524 202.741 195.07 203.252C195.615 203.758 196.05 204.429 196.374 205.264C196.697 206.099 196.859 207.127 196.859 208.349V209.201H186.768V207.463H194.814C194.814 206.724 194.666 206.065 194.371 205.485C194.081 204.906 193.666 204.448 193.126 204.113C192.592 203.778 191.962 203.61 191.234 203.61C190.433 203.61 189.74 203.809 189.155 204.207C188.575 204.599 188.129 205.11 187.817 205.741C187.504 206.372 187.348 207.048 187.348 207.769V208.929C187.348 209.917 187.518 210.755 187.859 211.443C188.206 212.125 188.686 212.644 189.3 213.002C189.913 213.355 190.626 213.531 191.439 213.531C191.967 213.531 192.445 213.457 192.871 213.309C193.303 213.156 193.675 212.929 193.987 212.627C194.3 212.321 194.541 211.94 194.712 211.485L196.655 212.031C196.45 212.69 196.107 213.269 195.624 213.769C195.141 214.264 194.544 214.65 193.834 214.929C193.124 215.201 192.325 215.338 191.439 215.338Z" fill="#D9D9D9"/>
<line y1="-2.71429" x2="20.835" y2="-2.71429" transform="matrix(0.52855 0.855673 -0.550705 0.827757 524.231 314.033)" stroke="#D9D9D9" stroke-width="5.42857"/>
<line y1="-2.71429" x2="20.835" y2="-2.71429" transform="matrix(-0.550705 0.827757 0.52855 0.855673 546.717 314.615)" stroke="#D9D9D9" stroke-width="5.42857"/>
<path d="M60.1591 413.355H58.0455C57.9205 412.747 57.7017 412.213 57.3892 411.753C57.0824 411.292 56.7074 410.906 56.2642 410.594C55.8267 410.275 55.3409 410.037 54.8068 409.878C54.2727 409.719 53.7159 409.639 53.1364 409.639C52.0795 409.639 51.1222 409.906 50.2642 410.44C49.4119 410.974 48.733 411.761 48.2273 412.801C47.7273 413.841 47.4773 415.116 47.4773 416.628C47.4773 418.139 47.7273 419.415 48.2273 420.454C48.733 421.494 49.4119 422.281 50.2642 422.815C51.1222 423.349 52.0795 423.616 53.1364 423.616C53.7159 423.616 54.2727 423.537 54.8068 423.378C55.3409 423.219 55.8267 422.983 56.2642 422.67C56.7074 422.352 57.0824 421.963 57.3892 421.503C57.7017 421.037 57.9205 420.503 58.0455 419.9H60.1591C60 420.792 59.7102 421.591 59.2898 422.295C58.8693 423 58.3466 423.599 57.7216 424.094C57.0966 424.582 56.3949 424.954 55.6165 425.21C54.8438 425.466 54.017 425.594 53.1364 425.594C51.6477 425.594 50.3239 425.23 49.1648 424.503C48.0057 423.775 47.0938 422.741 46.429 421.4C45.7642 420.06 45.4318 418.469 45.4318 416.628C45.4318 414.787 45.7642 413.196 46.429 411.855C47.0938 410.514 48.0057 409.48 49.1648 408.753C50.3239 408.025 51.6477 407.662 53.1364 407.662C54.017 407.662 54.8438 407.79 55.6165 408.045C56.3949 408.301 57.0966 408.676 57.7216 409.17C58.3466 409.659 58.8693 410.256 59.2898 410.96C59.7102 411.659 60 412.457 60.1591 413.355ZM67.1541 425.662C66.3246 425.662 65.5717 425.506 64.8956 425.193C64.2195 424.875 63.6825 424.417 63.2848 423.821C62.8871 423.219 62.6882 422.491 62.6882 421.639C62.6882 420.889 62.8359 420.281 63.1314 419.815C63.4268 419.344 63.8217 418.974 64.3161 418.707C64.8104 418.44 65.3558 418.241 65.9524 418.111C66.5547 417.974 67.1598 417.866 67.7678 417.787C68.5632 417.685 69.2081 417.608 69.7024 417.557C70.2024 417.5 70.5661 417.406 70.7933 417.275C71.0263 417.145 71.1428 416.917 71.1428 416.594V416.525C71.1428 415.685 70.9126 415.031 70.4524 414.565C69.9979 414.099 69.3075 413.866 68.3814 413.866C67.4212 413.866 66.6683 414.077 66.1229 414.497C65.5774 414.917 65.1939 415.366 64.9723 415.844L63.0632 415.162C63.4041 414.366 63.8587 413.747 64.4268 413.304C65.0007 412.855 65.6257 412.542 66.3018 412.366C66.9837 412.185 67.6541 412.094 68.3132 412.094C68.7337 412.094 69.2166 412.145 69.7621 412.247C70.3132 412.344 70.8445 412.545 71.3558 412.852C71.8729 413.159 72.3018 413.622 72.6428 414.241C72.9837 414.861 73.1541 415.69 73.1541 416.73V425.355H71.1428V423.582H71.0405C70.9041 423.866 70.6768 424.17 70.3587 424.494C70.0405 424.818 69.6172 425.094 69.0888 425.321C68.5604 425.548 67.9155 425.662 67.1541 425.662ZM67.4609 423.855C68.2564 423.855 68.9268 423.699 69.4723 423.386C70.0234 423.074 70.4382 422.67 70.7166 422.176C71.0007 421.682 71.1428 421.162 71.1428 420.616V418.775C71.0575 418.878 70.87 418.971 70.5803 419.057C70.2962 419.136 69.9666 419.207 69.5916 419.27C69.2223 419.327 68.8615 419.378 68.5092 419.423C68.1626 419.463 67.8814 419.497 67.6655 419.525C67.1428 419.594 66.6541 419.704 66.1996 419.858C65.7507 420.006 65.3871 420.23 65.1087 420.531C64.8359 420.827 64.6996 421.23 64.6996 421.741C64.6996 422.44 64.9581 422.969 65.4751 423.327C65.9979 423.679 66.6598 423.855 67.4609 423.855ZM82.5185 412.264V413.969H75.7344V412.264H82.5185ZM77.7116 409.128H79.723V421.605C79.723 422.173 79.8054 422.599 79.9702 422.883C80.1406 423.162 80.3565 423.349 80.6179 423.446C80.8849 423.537 81.1662 423.582 81.4616 423.582C81.6832 423.582 81.8651 423.571 82.0071 423.548C82.1491 423.52 82.2628 423.497 82.348 423.48L82.7571 425.287C82.6207 425.338 82.4304 425.389 82.1861 425.44C81.9418 425.497 81.6321 425.525 81.2571 425.525C80.6889 425.525 80.1321 425.403 79.5866 425.159C79.0469 424.915 78.598 424.542 78.2401 424.042C77.8878 423.542 77.7116 422.912 77.7116 422.15V409.128ZM90.892 425.628C89.6307 425.628 88.5426 425.349 87.6278 424.792C86.7188 424.23 86.017 423.446 85.5227 422.44C85.0341 421.429 84.7898 420.253 84.7898 418.912C84.7898 417.571 85.0341 416.389 85.5227 415.366C86.017 414.338 86.7045 413.537 87.5852 412.963C88.4716 412.383 89.5057 412.094 90.6875 412.094C91.3693 412.094 92.0426 412.207 92.7074 412.435C93.3722 412.662 93.9773 413.031 94.5227 413.542C95.0682 414.048 95.5028 414.719 95.8267 415.554C96.1506 416.389 96.3125 417.417 96.3125 418.639V419.491H86.2216V417.753H94.267C94.267 417.014 94.1193 416.355 93.8239 415.775C93.5341 415.196 93.1193 414.739 92.5795 414.403C92.0455 414.068 91.4148 413.9 90.6875 413.9C89.8864 413.9 89.1932 414.099 88.608 414.497C88.0284 414.889 87.5824 415.4 87.2699 416.031C86.9574 416.662 86.8011 417.338 86.8011 418.06V419.219C86.8011 420.207 86.9716 421.045 87.3125 421.733C87.6591 422.415 88.1392 422.935 88.7528 423.292C89.3665 423.645 90.0795 423.821 90.892 423.821C91.4205 423.821 91.8977 423.747 92.3239 423.599C92.7557 423.446 93.1278 423.219 93.4403 422.917C93.7528 422.611 93.9943 422.23 94.1648 421.775L96.108 422.321C95.9034 422.98 95.5597 423.56 95.0767 424.06C94.5938 424.554 93.9972 424.94 93.2869 425.219C92.5767 425.491 91.7784 425.628 90.892 425.628ZM104.656 430.537C103.685 430.537 102.849 430.412 102.151 430.162C101.452 429.917 100.869 429.594 100.403 429.19C99.9432 428.792 99.5767 428.366 99.304 427.912L100.906 426.787C101.088 427.025 101.318 427.298 101.597 427.605C101.875 427.917 102.256 428.187 102.739 428.415C103.227 428.648 103.866 428.764 104.656 428.764C105.713 428.764 106.585 428.508 107.273 427.997C107.96 427.486 108.304 426.685 108.304 425.594V422.935H108.134C107.986 423.173 107.776 423.469 107.503 423.821C107.236 424.167 106.849 424.477 106.344 424.75C105.844 425.017 105.168 425.15 104.315 425.15C103.259 425.15 102.31 424.9 101.469 424.4C100.634 423.9 99.9716 423.173 99.483 422.219C99 421.264 98.7585 420.105 98.7585 418.741C98.7585 417.4 98.9943 416.233 99.4659 415.239C99.9375 414.239 100.594 413.466 101.435 412.92C102.276 412.369 103.247 412.094 104.349 412.094C105.202 412.094 105.878 412.236 106.378 412.52C106.884 412.798 107.27 413.116 107.537 413.474C107.81 413.827 108.02 414.116 108.168 414.344H108.372V412.264H110.315V425.73C110.315 426.855 110.06 427.77 109.548 428.474C109.043 429.185 108.361 429.704 107.503 430.034C106.651 430.369 105.702 430.537 104.656 430.537ZM104.588 423.344C105.395 423.344 106.077 423.159 106.634 422.79C107.19 422.42 107.614 421.889 107.903 421.196C108.193 420.503 108.338 419.673 108.338 418.707C108.338 417.764 108.196 416.932 107.912 416.21C107.628 415.489 107.207 414.923 106.651 414.514C106.094 414.105 105.406 413.9 104.588 413.9C103.736 413.9 103.026 414.116 102.457 414.548C101.895 414.98 101.472 415.56 101.188 416.287C100.909 417.014 100.77 417.821 100.77 418.707C100.77 419.616 100.912 420.42 101.196 421.119C101.486 421.812 101.912 422.358 102.474 422.756C103.043 423.148 103.747 423.344 104.588 423.344ZM119.315 425.628C118.134 425.628 117.097 425.346 116.205 424.784C115.318 424.221 114.625 423.435 114.125 422.423C113.631 421.412 113.384 420.23 113.384 418.878C113.384 417.514 113.631 416.324 114.125 415.307C114.625 414.29 115.318 413.5 116.205 412.937C117.097 412.375 118.134 412.094 119.315 412.094C120.497 412.094 121.531 412.375 122.418 412.937C123.31 413.5 124.003 414.29 124.497 415.307C124.997 416.324 125.247 417.514 125.247 418.878C125.247 420.23 124.997 421.412 124.497 422.423C124.003 423.435 123.31 424.221 122.418 424.784C121.531 425.346 120.497 425.628 119.315 425.628ZM119.315 423.821C120.213 423.821 120.952 423.591 121.531 423.131C122.111 422.67 122.54 422.065 122.818 421.315C123.097 420.565 123.236 419.753 123.236 418.878C123.236 418.003 123.097 417.187 122.818 416.432C122.54 415.676 122.111 415.065 121.531 414.599C120.952 414.133 120.213 413.9 119.315 413.9C118.418 413.9 117.679 414.133 117.099 414.599C116.52 415.065 116.091 415.676 115.812 416.432C115.534 417.187 115.395 418.003 115.395 418.878C115.395 419.753 115.534 420.565 115.812 421.315C116.091 422.065 116.52 422.67 117.099 423.131C117.679 423.591 118.418 423.821 119.315 423.821ZM128.317 425.355V412.264H130.261V414.241H130.397C130.636 413.594 131.067 413.068 131.692 412.665C132.317 412.261 133.022 412.06 133.806 412.06C133.954 412.06 134.138 412.062 134.36 412.068C134.582 412.074 134.749 412.082 134.863 412.094V414.139C134.795 414.122 134.638 414.096 134.394 414.062C134.156 414.023 133.903 414.003 133.636 414.003C132.999 414.003 132.431 414.136 131.931 414.403C131.437 414.665 131.045 415.028 130.755 415.494C130.471 415.954 130.329 416.48 130.329 417.071V425.355H128.317ZM138.941 430.264C138.6 430.264 138.296 430.236 138.029 430.179C137.762 430.128 137.577 430.077 137.475 430.025L137.987 428.253C138.475 428.378 138.907 428.423 139.282 428.389C139.657 428.355 139.989 428.187 140.279 427.886C140.575 427.591 140.844 427.111 141.089 426.446L141.464 425.423L136.623 412.264H138.805L142.418 422.696H142.555L146.168 412.264H148.35L142.793 427.264C142.543 427.94 142.234 428.5 141.864 428.943C141.495 429.392 141.066 429.724 140.577 429.94C140.094 430.156 139.549 430.264 138.941 430.264Z" fill="#D9D9D9"/>
<line y1="-2.71429" x2="20.1262" y2="-2.71429" transform="matrix(0.621043 -0.784238 0.622248 0.782358 530.024 439.511)" stroke="#D9D9D9" stroke-width="5.42857"/>
<line y1="-2.71429" x2="20.1262" y2="-2.71429" transform="matrix(0.622248 0.782358 0.621043 -0.784238 530 407.981)" stroke="#D9D9D9" stroke-width="5.42857"/>
<path d="M46.1136 536.107V518.653H56.6477V520.528H48.2273V526.426H56.1023V528.301H48.2273V534.232H56.7841V536.107H46.1136ZM70.8892 523.017L66.0483 536.107H64.0028L59.1619 523.017H61.3438L64.9574 533.448H65.0938L68.7074 523.017H70.8892ZM78.5639 536.38C77.3026 536.38 76.2145 536.102 75.2997 535.545C74.3906 534.982 73.6889 534.198 73.1946 533.193C72.706 532.181 72.4616 531.005 72.4616 529.664C72.4616 528.323 72.706 527.142 73.1946 526.119C73.6889 525.09 74.3764 524.289 75.2571 523.715C76.1435 523.136 77.1776 522.846 78.3594 522.846C79.0412 522.846 79.7145 522.96 80.3793 523.187C81.044 523.414 81.6491 523.784 82.1946 524.295C82.7401 524.801 83.1747 525.471 83.4986 526.306C83.8224 527.142 83.9844 528.17 83.9844 529.392V530.244H73.8935V528.505H81.9389C81.9389 527.767 81.7912 527.107 81.4957 526.528C81.206 525.948 80.7912 525.491 80.2514 525.156C79.7173 524.82 79.0866 524.653 78.3594 524.653C77.5582 524.653 76.8651 524.852 76.2798 525.249C75.7003 525.642 75.2543 526.153 74.9418 526.784C74.6293 527.414 74.473 528.09 74.473 528.812V529.971C74.473 530.96 74.6435 531.798 74.9844 532.485C75.331 533.167 75.8111 533.687 76.4247 534.045C77.0384 534.397 77.7514 534.573 78.5639 534.573C79.0923 534.573 79.5696 534.499 79.9957 534.352C80.4276 534.198 80.7997 533.971 81.1122 533.67C81.4247 533.363 81.6662 532.982 81.8366 532.528L83.7798 533.073C83.5753 533.732 83.2315 534.312 82.7486 534.812C82.2656 535.306 81.669 535.693 80.9588 535.971C80.2486 536.244 79.4503 536.38 78.5639 536.38ZM89.0554 528.232V536.107H87.044V523.017H88.9872V525.062H89.1577C89.4645 524.397 89.9304 523.863 90.5554 523.46C91.1804 523.051 91.9872 522.846 92.9759 522.846C93.8622 522.846 94.6378 523.028 95.3026 523.392C95.9673 523.749 96.4844 524.295 96.8537 525.028C97.223 525.755 97.4077 526.676 97.4077 527.789V536.107H95.3963V527.926C95.3963 526.897 95.1293 526.096 94.5952 525.522C94.0611 524.943 93.3281 524.653 92.3963 524.653C91.7543 524.653 91.1804 524.792 90.6747 525.07C90.1747 525.349 89.7798 525.755 89.4901 526.289C89.2003 526.823 89.0554 527.471 89.0554 528.232ZM106.776 523.017V524.721H99.9922V523.017H106.776ZM101.969 519.88H103.981V532.357C103.981 532.926 104.063 533.352 104.228 533.636C104.398 533.914 104.614 534.102 104.876 534.198C105.143 534.289 105.424 534.335 105.719 534.335C105.941 534.335 106.123 534.323 106.265 534.301C106.407 534.272 106.521 534.249 106.606 534.232L107.015 536.039C106.879 536.09 106.688 536.142 106.444 536.193C106.2 536.249 105.89 536.278 105.515 536.278C104.947 536.278 104.39 536.156 103.844 535.911C103.305 535.667 102.856 535.295 102.498 534.795C102.146 534.295 101.969 533.664 101.969 532.903V519.88ZM121.495 536.38C120.404 536.38 119.441 536.105 118.606 535.553C117.771 534.997 117.117 534.213 116.646 533.201C116.174 532.184 115.938 530.982 115.938 529.596C115.938 528.221 116.174 527.028 116.646 526.017C117.117 525.005 117.773 524.224 118.614 523.673C119.455 523.122 120.427 522.846 121.529 522.846C122.381 522.846 123.055 522.988 123.549 523.272C124.049 523.551 124.43 523.869 124.691 524.227C124.958 524.579 125.165 524.869 125.313 525.096H125.484V518.653H127.495V536.107H125.552V534.096H125.313C125.165 534.335 124.955 534.636 124.683 534.999C124.41 535.357 124.021 535.678 123.515 535.963C123.009 536.241 122.336 536.38 121.495 536.38ZM121.768 534.573C122.575 534.573 123.256 534.363 123.813 533.943C124.37 533.517 124.793 532.928 125.083 532.178C125.373 531.423 125.518 530.551 125.518 529.562C125.518 528.585 125.376 527.73 125.092 526.997C124.808 526.258 124.387 525.684 123.83 525.275C123.273 524.86 122.586 524.653 121.768 524.653C120.915 524.653 120.205 524.872 119.637 525.309C119.075 525.741 118.651 526.329 118.367 527.073C118.089 527.812 117.95 528.642 117.95 529.562C117.95 530.494 118.092 531.34 118.376 532.102C118.665 532.857 119.092 533.46 119.654 533.909C120.222 534.352 120.927 534.573 121.768 534.573ZM136.947 536.38C135.685 536.38 134.597 536.102 133.683 535.545C132.773 534.982 132.072 534.198 131.577 533.193C131.089 532.181 130.844 531.005 130.844 529.664C130.844 528.323 131.089 527.142 131.577 526.119C132.072 525.09 132.759 524.289 133.64 523.715C134.526 523.136 135.56 522.846 136.742 522.846C137.424 522.846 138.097 522.96 138.762 523.187C139.427 523.414 140.032 523.784 140.577 524.295C141.123 524.801 141.558 525.471 141.881 526.306C142.205 527.142 142.367 528.17 142.367 529.392V530.244H132.276V528.505H140.322C140.322 527.767 140.174 527.107 139.879 526.528C139.589 525.948 139.174 525.491 138.634 525.156C138.1 524.82 137.469 524.653 136.742 524.653C135.941 524.653 135.248 524.852 134.663 525.249C134.083 525.642 133.637 526.153 133.325 526.784C133.012 527.414 132.856 528.09 132.856 528.812V529.971C132.856 530.96 133.026 531.798 133.367 532.485C133.714 533.167 134.194 533.687 134.808 534.045C135.421 534.397 136.134 534.573 136.947 534.573C137.475 534.573 137.952 534.499 138.379 534.352C138.81 534.198 139.183 533.971 139.495 533.67C139.808 533.363 140.049 532.982 140.219 532.528L142.163 533.073C141.958 533.732 141.614 534.312 141.131 534.812C140.648 535.306 140.052 535.693 139.342 535.971C138.631 536.244 137.833 536.38 136.947 536.38ZM154.7 525.948L152.893 526.46C152.779 526.159 152.612 525.866 152.39 525.582C152.174 525.292 151.879 525.053 151.504 524.866C151.129 524.678 150.648 524.585 150.063 524.585C149.262 524.585 148.594 524.769 148.06 525.139C147.532 525.502 147.268 525.965 147.268 526.528C147.268 527.028 147.45 527.423 147.813 527.713C148.177 528.002 148.745 528.244 149.518 528.437L151.461 528.914C152.631 529.198 153.504 529.633 154.077 530.218C154.651 530.798 154.938 531.545 154.938 532.46C154.938 533.21 154.722 533.88 154.29 534.471C153.864 535.062 153.268 535.528 152.501 535.869C151.734 536.21 150.842 536.38 149.825 536.38C148.489 536.38 147.384 536.09 146.509 535.511C145.634 534.931 145.08 534.085 144.847 532.971L146.756 532.494C146.938 533.198 147.282 533.727 147.788 534.079C148.299 534.431 148.967 534.607 149.79 534.607C150.728 534.607 151.472 534.409 152.023 534.011C152.58 533.607 152.859 533.124 152.859 532.562C152.859 532.107 152.7 531.727 152.381 531.42C152.063 531.107 151.575 530.874 150.915 530.721L148.734 530.21C147.535 529.926 146.654 529.485 146.092 528.889C145.535 528.286 145.256 527.534 145.256 526.63C145.256 525.892 145.464 525.238 145.879 524.67C146.299 524.102 146.87 523.656 147.592 523.332C148.319 523.008 149.143 522.846 150.063 522.846C151.359 522.846 152.376 523.13 153.114 523.698C153.859 524.267 154.387 525.017 154.7 525.948ZM163.284 536.38C162.057 536.38 161 536.09 160.114 535.511C159.227 534.931 158.545 534.133 158.068 533.116C157.591 532.099 157.352 530.937 157.352 529.63C157.352 528.301 157.597 527.127 158.085 526.11C158.58 525.088 159.267 524.289 160.148 523.715C161.034 523.136 162.068 522.846 163.25 522.846C164.17 522.846 165 523.017 165.739 523.357C166.477 523.698 167.082 524.176 167.554 524.789C168.026 525.403 168.318 526.119 168.432 526.937H166.42C166.267 526.34 165.926 525.812 165.398 525.352C164.875 524.886 164.17 524.653 163.284 524.653C162.5 524.653 161.813 524.857 161.222 525.267C160.636 525.67 160.179 526.241 159.849 526.98C159.526 527.713 159.364 528.573 159.364 529.562C159.364 530.573 159.523 531.454 159.841 532.204C160.165 532.954 160.619 533.536 161.205 533.951C161.795 534.366 162.489 534.573 163.284 534.573C163.807 534.573 164.281 534.482 164.707 534.301C165.134 534.119 165.494 533.857 165.79 533.517C166.085 533.176 166.295 532.767 166.42 532.289H168.432C168.318 533.062 168.037 533.758 167.588 534.377C167.145 534.991 166.557 535.48 165.824 535.843C165.097 536.201 164.25 536.38 163.284 536.38ZM171.372 536.107V523.017H173.315V524.994H173.452C173.69 524.346 174.122 523.82 174.747 523.417C175.372 523.014 176.077 522.812 176.861 522.812C177.009 522.812 177.193 522.815 177.415 522.82C177.636 522.826 177.804 522.835 177.918 522.846V524.892C177.849 524.874 177.693 524.849 177.449 524.815C177.21 524.775 176.957 524.755 176.69 524.755C176.054 524.755 175.486 524.889 174.986 525.156C174.491 525.417 174.099 525.781 173.81 526.247C173.526 526.707 173.384 527.232 173.384 527.823V536.107H171.372ZM180.302 536.107V523.017H182.313V536.107H180.302ZM181.325 520.835C180.933 520.835 180.594 520.701 180.31 520.434C180.032 520.167 179.893 519.846 179.893 519.471C179.893 519.096 180.032 518.775 180.31 518.508C180.594 518.241 180.933 518.107 181.325 518.107C181.717 518.107 182.052 518.241 182.33 518.508C182.614 518.775 182.756 519.096 182.756 519.471C182.756 519.846 182.614 520.167 182.33 520.434C182.052 520.701 181.717 520.835 181.325 520.835ZM185.997 541.017V523.017H187.94V525.096H188.179C188.327 524.869 188.531 524.579 188.793 524.227C189.06 523.869 189.44 523.551 189.935 523.272C190.435 522.988 191.111 522.846 191.963 522.846C193.065 522.846 194.037 523.122 194.878 523.673C195.719 524.224 196.375 525.005 196.847 526.017C197.318 527.028 197.554 528.221 197.554 529.596C197.554 530.982 197.318 532.184 196.847 533.201C196.375 534.213 195.722 534.997 194.886 535.553C194.051 536.105 193.088 536.38 191.997 536.38C191.156 536.38 190.483 536.241 189.977 535.963C189.472 535.678 189.082 535.357 188.81 534.999C188.537 534.636 188.327 534.335 188.179 534.096H188.009V541.017H185.997ZM187.974 529.562C187.974 530.551 188.119 531.423 188.409 532.178C188.699 532.928 189.122 533.517 189.679 533.943C190.236 534.363 190.918 534.573 191.724 534.573C192.565 534.573 193.267 534.352 193.83 533.909C194.398 533.46 194.824 532.857 195.108 532.102C195.398 531.34 195.543 530.494 195.543 529.562C195.543 528.642 195.401 527.812 195.116 527.073C194.838 526.329 194.415 525.741 193.847 525.309C193.284 524.872 192.577 524.653 191.724 524.653C190.906 524.653 190.219 524.86 189.662 525.275C189.105 525.684 188.685 526.258 188.401 526.997C188.116 527.73 187.974 528.585 187.974 529.562ZM206.315 523.017V524.721H199.531V523.017H206.315ZM201.509 519.88H203.52V532.357C203.52 532.926 203.602 533.352 203.767 533.636C203.938 533.914 204.153 534.102 204.415 534.198C204.682 534.289 204.963 534.335 205.259 534.335C205.48 534.335 205.662 534.323 205.804 534.301C205.946 534.272 206.06 534.249 206.145 534.232L206.554 536.039C206.418 536.09 206.227 536.142 205.983 536.193C205.739 536.249 205.429 536.278 205.054 536.278C204.486 536.278 203.929 536.156 203.384 535.911C202.844 535.667 202.395 535.295 202.037 534.795C201.685 534.295 201.509 533.664 201.509 532.903V519.88ZM209.341 536.107V523.017H211.352V536.107H209.341ZM210.364 520.835C209.972 520.835 209.634 520.701 209.349 520.434C209.071 520.167 208.932 519.846 208.932 519.471C208.932 519.096 209.071 518.775 209.349 518.508C209.634 518.241 209.972 518.107 210.364 518.107C210.756 518.107 211.091 518.241 211.369 518.508C211.653 518.775 211.795 519.096 211.795 519.471C211.795 519.846 211.653 520.167 211.369 520.434C211.091 520.701 210.756 520.835 210.364 520.835ZM220.354 536.38C219.173 536.38 218.136 536.099 217.244 535.536C216.357 534.974 215.664 534.187 215.164 533.176C214.67 532.164 214.423 530.982 214.423 529.63C214.423 528.267 214.67 527.076 215.164 526.059C215.664 525.042 216.357 524.252 217.244 523.69C218.136 523.127 219.173 522.846 220.354 522.846C221.536 522.846 222.57 523.127 223.457 523.69C224.349 524.252 225.042 525.042 225.536 526.059C226.036 527.076 226.286 528.267 226.286 529.63C226.286 530.982 226.036 532.164 225.536 533.176C225.042 534.187 224.349 534.974 223.457 535.536C222.57 536.099 221.536 536.38 220.354 536.38ZM220.354 534.573C221.252 534.573 221.991 534.343 222.57 533.883C223.15 533.423 223.579 532.818 223.857 532.068C224.136 531.318 224.275 530.505 224.275 529.63C224.275 528.755 224.136 527.94 223.857 527.184C223.579 526.428 223.15 525.818 222.57 525.352C221.991 524.886 221.252 524.653 220.354 524.653C219.457 524.653 218.718 524.886 218.138 525.352C217.559 525.818 217.13 526.428 216.852 527.184C216.573 527.94 216.434 528.755 216.434 529.63C216.434 530.505 216.573 531.318 216.852 532.068C217.13 532.818 217.559 533.423 218.138 533.883C218.718 534.343 219.457 534.573 220.354 534.573ZM231.368 528.232V536.107H229.357V523.017H231.3V525.062H231.47C231.777 524.397 232.243 523.863 232.868 523.46C233.493 523.051 234.3 522.846 235.288 522.846C236.175 522.846 236.95 523.028 237.615 523.392C238.28 523.749 238.797 524.295 239.166 525.028C239.536 525.755 239.72 526.676 239.72 527.789V536.107H237.709V527.926C237.709 526.897 237.442 526.096 236.908 525.522C236.374 524.943 235.641 524.653 234.709 524.653C234.067 524.653 233.493 524.792 232.987 525.07C232.487 525.349 232.092 525.755 231.803 526.289C231.513 526.823 231.368 527.471 231.368 528.232Z" fill="#D9D9D9"/>
<rect x="177.5" y="540.5" width="202" height="56.838" rx="9.5" fill="#825E5E" stroke="#D9D9D9"/>
<path d="M262.55 560.116C262.447 559.252 262.033 558.582 261.305 558.104C260.578 557.627 259.686 557.388 258.629 557.388C257.857 557.388 257.18 557.513 256.601 557.763C256.027 558.013 255.578 558.357 255.254 558.795C254.936 559.232 254.777 559.729 254.777 560.286C254.777 560.752 254.888 561.153 255.109 561.488C255.337 561.817 255.626 562.093 255.979 562.314C256.331 562.53 256.7 562.709 257.087 562.851C257.473 562.988 257.828 563.099 258.152 563.184L259.925 563.661C260.379 563.78 260.885 563.945 261.442 564.155C262.004 564.366 262.541 564.653 263.053 565.016C263.57 565.374 263.996 565.834 264.331 566.397C264.666 566.959 264.834 567.65 264.834 568.468C264.834 569.411 264.587 570.263 264.092 571.025C263.604 571.786 262.888 572.391 261.945 572.84C261.007 573.289 259.868 573.513 258.527 573.513C257.277 573.513 256.195 573.312 255.28 572.908C254.371 572.505 253.655 571.942 253.132 571.221C252.615 570.499 252.322 569.661 252.254 568.707H254.436C254.493 569.366 254.714 569.911 255.101 570.343C255.493 570.769 255.987 571.087 256.584 571.297C257.186 571.502 257.834 571.604 258.527 571.604C259.334 571.604 260.058 571.474 260.7 571.212C261.342 570.945 261.851 570.576 262.226 570.104C262.601 569.627 262.788 569.07 262.788 568.434C262.788 567.854 262.626 567.383 262.303 567.019C261.979 566.655 261.553 566.36 261.024 566.133C260.496 565.905 259.925 565.707 259.311 565.536L257.163 564.922C255.8 564.53 254.72 563.971 253.925 563.243C253.129 562.516 252.732 561.564 252.732 560.388C252.732 559.411 252.996 558.559 253.524 557.832C254.058 557.099 254.774 556.53 255.672 556.127C256.575 555.718 257.584 555.513 258.697 555.513C259.822 555.513 260.822 555.715 261.697 556.118C262.572 556.516 263.266 557.062 263.777 557.755C264.294 558.448 264.567 559.235 264.595 560.116H262.55ZM271.888 573.513C271.059 573.513 270.306 573.357 269.63 573.045C268.954 572.726 268.417 572.269 268.019 571.672C267.621 571.07 267.423 570.343 267.423 569.491C267.423 568.741 267.57 568.133 267.866 567.667C268.161 567.195 268.556 566.826 269.05 566.559C269.545 566.292 270.09 566.093 270.687 565.962C271.289 565.826 271.894 565.718 272.502 565.638C273.298 565.536 273.942 565.459 274.437 565.408C274.937 565.351 275.3 565.258 275.528 565.127C275.761 564.996 275.877 564.769 275.877 564.445V564.377C275.877 563.536 275.647 562.883 275.187 562.417C274.732 561.951 274.042 561.718 273.116 561.718C272.156 561.718 271.403 561.928 270.857 562.349C270.312 562.769 269.928 563.218 269.707 563.695L267.798 563.013C268.138 562.218 268.593 561.599 269.161 561.155C269.735 560.707 270.36 560.394 271.036 560.218C271.718 560.036 272.388 559.945 273.048 559.945C273.468 559.945 273.951 559.996 274.496 560.099C275.048 560.195 275.579 560.397 276.09 560.704C276.607 561.011 277.036 561.474 277.377 562.093C277.718 562.712 277.888 563.542 277.888 564.582V573.207H275.877V571.434H275.775C275.638 571.718 275.411 572.022 275.093 572.346C274.775 572.67 274.352 572.945 273.823 573.172C273.295 573.4 272.65 573.513 271.888 573.513ZM272.195 571.707C272.991 571.707 273.661 571.55 274.207 571.238C274.758 570.925 275.173 570.522 275.451 570.028C275.735 569.533 275.877 569.013 275.877 568.468V566.627C275.792 566.729 275.604 566.823 275.315 566.908C275.031 566.988 274.701 567.059 274.326 567.121C273.957 567.178 273.596 567.229 273.244 567.275C272.897 567.314 272.616 567.349 272.4 567.377C271.877 567.445 271.388 567.556 270.934 567.709C270.485 567.857 270.121 568.082 269.843 568.383C269.57 568.678 269.434 569.082 269.434 569.593C269.434 570.292 269.692 570.82 270.21 571.178C270.732 571.53 271.394 571.707 272.195 571.707ZM291.795 560.116L286.955 573.207H284.909L280.068 560.116H282.25L285.864 570.547H286L289.614 560.116H291.795ZM299.47 573.479C298.209 573.479 297.121 573.201 296.206 572.644C295.297 572.082 294.595 571.297 294.101 570.292C293.612 569.28 293.368 568.104 293.368 566.763C293.368 565.422 293.612 564.241 294.101 563.218C294.595 562.189 295.283 561.388 296.163 560.814C297.05 560.235 298.084 559.945 299.266 559.945C299.947 559.945 300.621 560.059 301.286 560.286C301.95 560.513 302.555 560.883 303.101 561.394C303.646 561.9 304.081 562.57 304.405 563.405C304.729 564.241 304.891 565.269 304.891 566.491V567.343H294.8V565.604H302.845C302.845 564.866 302.697 564.207 302.402 563.627C302.112 563.047 301.697 562.59 301.158 562.255C300.624 561.92 299.993 561.752 299.266 561.752C298.464 561.752 297.771 561.951 297.186 562.349C296.607 562.741 296.161 563.252 295.848 563.883C295.536 564.513 295.379 565.189 295.379 565.911V567.07C295.379 568.059 295.55 568.897 295.891 569.584C296.237 570.266 296.717 570.786 297.331 571.144C297.945 571.496 298.658 571.672 299.47 571.672C299.999 571.672 300.476 571.599 300.902 571.451C301.334 571.297 301.706 571.07 302.018 570.769C302.331 570.462 302.572 570.082 302.743 569.627L304.686 570.172C304.482 570.832 304.138 571.411 303.655 571.911C303.172 572.405 302.575 572.792 301.865 573.07C301.155 573.343 300.357 573.479 299.47 573.479Z" fill="#D9D9D9"/>
</svg>
