<svg width="47" height="47" viewBox="0 0 47 47" fill="none" xmlns="http://www.w3.org/2000/svg">
<path fill-rule="evenodd" clip-rule="evenodd" d="M31.8431 16.187C32.136 15.8941 32.136 15.4192 31.8431 15.1263C31.5502 14.8334 31.0754 14.8334 30.7825 15.1263L23.4844 22.4244L16.1863 15.1263C15.8934 14.8334 15.4185 14.8334 15.1256 15.1263C14.8327 15.4192 14.8327 15.8941 15.1256 16.187L22.4237 23.4851L15.1256 30.7832C14.8327 31.0761 14.8327 31.5509 15.1256 31.8438C15.4185 32.1367 15.8934 32.1367 16.1863 31.8438L23.4844 24.5457L30.7825 31.8438C31.0754 32.1367 31.5502 32.1367 31.8431 31.8438C32.136 31.5509 32.136 31.0761 31.8431 30.7832L24.545 23.4851L31.8431 16.187Z" fill="#18191A"/>
</svg>
